<svg xmlns="http://www.w3.org/2000/svg" width="320" height="320" viewBox="0 0 320 320" role="img" aria-label="Mente Cósmica 10">
  <defs>
    <radialGradient id="bg" cx="50%" cy="36%" r="72%">
      <stop offset="0%" stop-color="#34d399" stop-opacity=".42"/>
      <stop offset="45%" stop-color="#064e3b" stop-opacity=".88"/>
      <stop offset="100%" stop-color="#020617"/>
    </radialGradient>
    <linearGradient id="g" x1="58" y1="42" x2="262" y2="276" gradientUnits="userSpaceOnUse">
      <stop offset="0%" stop-color="#ffffff"/>
      <stop offset="42%" stop-color="#34d399"/>
      <stop offset="100%" stop-color="#7dd3fc"/>
    </linearGradient>
    <filter id="glow" x="-40%" y="-40%" width="180%" height="180%">
      <feGaussianBlur stdDeviation="5" result="blur"/>
      <feMerge>
        <feMergeNode in="blur"/>
        <feMergeNode in="SourceGraphic"/>
      </feMerge>
    </filter>
  </defs>
  <rect width="320" height="320" rx="52" fill="#020617"/>
  <rect x="10" y="10" width="300" height="300" rx="44" fill="url(#bg)" stroke="url(#g)" stroke-width="3"/>
  <g><circle cx="217" cy="176" r="1.7" fill="#ffffff" opacity="0.59"/><circle cx="178" cy="130" r="1.7" fill="#ffffff" opacity="0.43"/><circle cx="267" cy="243" r="1.6" fill="#ffffff" opacity="0.34"/><circle cx="256" cy="48" r="1.3" fill="#ffffff" opacity="0.51"/><circle cx="38" cy="223" r="1.0" fill="#ffffff" opacity="0.34"/><circle cx="67" cy="51" r="1.6" fill="#ffffff" opacity="0.54"/><circle cx="292" cy="193" r="1.4" fill="#ffffff" opacity="0.69"/><circle cx="158" cy="252" r="1.7" fill="#ffffff" opacity="0.38"/><circle cx="146" cy="179" r="1.5" fill="#ffffff" opacity="0.42"/><circle cx="161" cy="142" r="1.0" fill="#ffffff" opacity="0.52"/><circle cx="184" cy="245" r="1.0" fill="#ffffff" opacity="0.28"/><circle cx="274" cy="237" r="2.0" fill="#ffffff" opacity="0.57"/><circle cx="40" cy="158" r="1.0" fill="#ffffff" opacity="0.57"/><circle cx="143" cy="208" r="1.0" fill="#ffffff" opacity="0.7"/><circle cx="135" cy="163" r="1.4" fill="#ffffff" opacity="0.66"/><circle cx="111" cy="152" r="1.2" fill="#ffffff" opacity="0.43"/><circle cx="260" cy="65" r="2.0" fill="#ffffff" opacity="0.43"/><circle cx="79" cy="144" r="1.0" fill="#ffffff" opacity="0.75"/><circle cx="44" cy="144" r="2.0" fill="#ffffff" opacity="0.38"/><circle cx="234" cy="216" r="1.3" fill="#ffffff" opacity="0.42"/><circle cx="179" cy="202" r="0.9" fill="#ffffff" opacity="0.3"/><circle cx="230" cy="112" r="1.1" fill="#ffffff" opacity="0.71"/></g>
  <circle cx="160" cy="160" r="104" fill="#020617" opacity=".38"/>
  <g filter="url(#glow)"><path d="M87 163 C102 87 218 87 233 163 C217 239 103 239 87 163Z" fill="none" stroke="url(#g)" stroke-width="7" opacity=".7"/></g>
  <text x="160" y="175" text-anchor="middle" font-family="Arial, Helvetica, sans-serif" font-size="64" font-weight="800" fill="#f8fbff" filter="url(#glow)">MC</text>
  <text x="160" y="64" text-anchor="middle" font-family="Arial, Helvetica, sans-serif" font-size="36" font-weight="800" fill="#34d399" filter="url(#glow)">?</text>
  <text x="160" y="270" text-anchor="middle" font-family="Arial, Helvetica, sans-serif" font-size="13" font-weight="700" fill="#dbeafe">Modo Aventura</text>
</svg>