<svg xmlns="http://www.w3.org/2000/svg" width="320" height="320" viewBox="0 0 320 320" role="img" aria-label="Mente Cósmica 25">
  <defs>
    <radialGradient id="bg" cx="50%" cy="36%" r="72%">
      <stop offset="0%" stop-color="#34d399" stop-opacity=".42"/>
      <stop offset="45%" stop-color="#064e3b" stop-opacity=".88"/>
      <stop offset="100%" stop-color="#020617"/>
    </radialGradient>
    <linearGradient id="g" x1="58" y1="42" x2="262" y2="276" gradientUnits="userSpaceOnUse">
      <stop offset="0%" stop-color="#ffffff"/>
      <stop offset="42%" stop-color="#34d399"/>
      <stop offset="100%" stop-color="#7dd3fc"/>
    </linearGradient>
    <filter id="glow" x="-40%" y="-40%" width="180%" height="180%">
      <feGaussianBlur stdDeviation="5" result="blur"/>
      <feMerge>
        <feMergeNode in="blur"/>
        <feMergeNode in="SourceGraphic"/>
      </feMerge>
    </filter>
  </defs>
  <rect width="320" height="320" rx="52" fill="#020617"/>
  <rect x="10" y="10" width="300" height="300" rx="44" fill="url(#bg)" stroke="url(#g)" stroke-width="3"/>
  <g><circle cx="226" cy="252" r="0.9" fill="#ffffff" opacity="0.78"/><circle cx="62" cy="86" r="1.9" fill="#ffffff" opacity="0.72"/><circle cx="130" cy="119" r="1.0" fill="#ffffff" opacity="0.73"/><circle cx="266" cy="245" r="0.9" fill="#ffffff" opacity="0.54"/><circle cx="172" cy="248" r="1.8" fill="#ffffff" opacity="0.66"/><circle cx="190" cy="21" r="1.1" fill="#ffffff" opacity="0.26"/><circle cx="171" cy="65" r="0.8" fill="#ffffff" opacity="0.73"/><circle cx="228" cy="233" r="1.8" fill="#ffffff" opacity="0.59"/><circle cx="280" cy="165" r="1.7" fill="#ffffff" opacity="0.5"/><circle cx="75" cy="193" r="1.2" fill="#ffffff" opacity="0.65"/><circle cx="98" cy="287" r="1.5" fill="#ffffff" opacity="0.5"/><circle cx="45" cy="240" r="1.4" fill="#ffffff" opacity="0.41"/><circle cx="191" cy="251" r="1.4" fill="#ffffff" opacity="0.37"/><circle cx="189" cy="88" r="1.2" fill="#ffffff" opacity="0.33"/><circle cx="209" cy="152" r="1.8" fill="#ffffff" opacity="0.55"/><circle cx="219" cy="85" r="1.3" fill="#ffffff" opacity="0.31"/><circle cx="54" cy="271" r="2.1" fill="#ffffff" opacity="0.6"/><circle cx="27" cy="130" r="1.2" fill="#ffffff" opacity="0.34"/><circle cx="261" cy="29" r="0.9" fill="#ffffff" opacity="0.44"/><circle cx="191" cy="58" r="1.9" fill="#ffffff" opacity="0.74"/><circle cx="79" cy="96" r="1.8" fill="#ffffff" opacity="0.38"/><circle cx="223" cy="212" r="2.1" fill="#ffffff" opacity="0.55"/></g>
  <circle cx="160" cy="160" r="104" fill="#020617" opacity=".38"/>
  <g filter="url(#glow)"><path d="M87 163 C102 87 218 87 233 163 C217 239 103 239 87 163Z" fill="none" stroke="url(#g)" stroke-width="7" opacity=".7"/></g>
  <text x="160" y="175" text-anchor="middle" font-family="Arial, Helvetica, sans-serif" font-size="64" font-weight="800" fill="#f8fbff" filter="url(#glow)">MC</text>
  <text x="160" y="64" text-anchor="middle" font-family="Arial, Helvetica, sans-serif" font-size="36" font-weight="800" fill="#34d399" filter="url(#glow)">?</text>
  <text x="160" y="270" text-anchor="middle" font-family="Arial, Helvetica, sans-serif" font-size="13" font-weight="700" fill="#dbeafe">Modo Aventura</text>
</svg>