<svg xmlns="http://www.w3.org/2000/svg" width="320" height="320" viewBox="0 0 320 320" role="img" aria-label="Mente Cósmica 500">
  <defs>
    <radialGradient id="bg" cx="50%" cy="36%" r="72%">
      <stop offset="0%" stop-color="#e0f2fe" stop-opacity=".42"/>
      <stop offset="45%" stop-color="#0891b2" stop-opacity=".88"/>
      <stop offset="100%" stop-color="#020617"/>
    </radialGradient>
    <linearGradient id="g" x1="58" y1="42" x2="262" y2="276" gradientUnits="userSpaceOnUse">
      <stop offset="0%" stop-color="#ffffff"/>
      <stop offset="42%" stop-color="#e0f2fe"/>
      <stop offset="100%" stop-color="#7dd3fc"/>
    </linearGradient>
    <filter id="glow" x="-40%" y="-40%" width="180%" height="180%">
      <feGaussianBlur stdDeviation="5" result="blur"/>
      <feMerge>
        <feMergeNode in="blur"/>
        <feMergeNode in="SourceGraphic"/>
      </feMerge>
    </filter>
  </defs>
  <rect width="320" height="320" rx="52" fill="#020617"/>
  <rect x="10" y="10" width="300" height="300" rx="44" fill="url(#bg)" stroke="url(#g)" stroke-width="3"/>
  <g><circle cx="146" cy="69" r="1.3" fill="#ffffff" opacity="0.3"/><circle cx="216" cy="87" r="1.4" fill="#ffffff" opacity="0.28"/><circle cx="276" cy="79" r="1.3" fill="#ffffff" opacity="0.5"/><circle cx="213" cy="219" r="1.7" fill="#ffffff" opacity="0.23"/><circle cx="196" cy="137" r="1.4" fill="#ffffff" opacity="0.78"/><circle cx="199" cy="108" r="1.4" fill="#ffffff" opacity="0.22"/><circle cx="287" cy="277" r="2.0" fill="#ffffff" opacity="0.7"/><circle cx="82" cy="84" r="1.1" fill="#ffffff" opacity="0.54"/><circle cx="162" cy="77" r="1.2" fill="#ffffff" opacity="0.4"/><circle cx="297" cy="129" r="0.8" fill="#ffffff" opacity="0.39"/><circle cx="99" cy="180" r="1.8" fill="#ffffff" opacity="0.64"/><circle cx="147" cy="292" r="1.7" fill="#ffffff" opacity="0.63"/><circle cx="265" cy="115" r="1.5" fill="#ffffff" opacity="0.64"/><circle cx="204" cy="107" r="1.1" fill="#ffffff" opacity="0.65"/><circle cx="169" cy="146" r="1.7" fill="#ffffff" opacity="0.44"/><circle cx="104" cy="291" r="1.5" fill="#ffffff" opacity="0.42"/><circle cx="34" cy="229" r="1.9" fill="#ffffff" opacity="0.55"/><circle cx="249" cy="144" r="1.8" fill="#ffffff" opacity="0.63"/><circle cx="105" cy="180" r="1.6" fill="#ffffff" opacity="0.39"/><circle cx="52" cy="77" r="1.9" fill="#ffffff" opacity="0.34"/><circle cx="109" cy="154" r="1.8" fill="#ffffff" opacity="0.26"/><circle cx="225" cy="43" r="1.6" fill="#ffffff" opacity="0.78"/></g>
  <circle cx="160" cy="160" r="104" fill="#020617" opacity=".38"/>
  <g filter="url(#glow)"><path d="M87 163 C102 87 218 87 233 163 C217 239 103 239 87 163Z" fill="none" stroke="url(#g)" stroke-width="7" opacity=".7"/></g>
  <text x="160" y="175" text-anchor="middle" font-family="Arial, Helvetica, sans-serif" font-size="64" font-weight="800" fill="#f8fbff" filter="url(#glow)">MC</text>
  <text x="160" y="64" text-anchor="middle" font-family="Arial, Helvetica, sans-serif" font-size="36" font-weight="800" fill="#e0f2fe" filter="url(#glow)">?</text>
  <text x="160" y="270" text-anchor="middle" font-family="Arial, Helvetica, sans-serif" font-size="13" font-weight="700" fill="#dbeafe">Modo Aventura</text>
</svg>