<svg xmlns="http://www.w3.org/2000/svg" width="320" height="320" viewBox="0 0 320 320" role="img" aria-label="Mente Cósmica 1000">
  <defs>
    <radialGradient id="bg" cx="50%" cy="36%" r="72%">
      <stop offset="0%" stop-color="#e0f2fe" stop-opacity=".42"/>
      <stop offset="45%" stop-color="#0891b2" stop-opacity=".88"/>
      <stop offset="100%" stop-color="#020617"/>
    </radialGradient>
    <linearGradient id="g" x1="58" y1="42" x2="262" y2="276" gradientUnits="userSpaceOnUse">
      <stop offset="0%" stop-color="#ffffff"/>
      <stop offset="42%" stop-color="#e0f2fe"/>
      <stop offset="100%" stop-color="#7dd3fc"/>
    </linearGradient>
    <filter id="glow" x="-40%" y="-40%" width="180%" height="180%">
      <feGaussianBlur stdDeviation="5" result="blur"/>
      <feMerge>
        <feMergeNode in="blur"/>
        <feMergeNode in="SourceGraphic"/>
      </feMerge>
    </filter>
  </defs>
  <rect width="320" height="320" rx="52" fill="#020617"/>
  <rect x="10" y="10" width="300" height="300" rx="44" fill="url(#bg)" stroke="url(#g)" stroke-width="3"/>
  <g><circle cx="168" cy="233" r="1.7" fill="#ffffff" opacity="0.31"/><circle cx="206" cy="52" r="0.9" fill="#ffffff" opacity="0.73"/><circle cx="173" cy="153" r="1.0" fill="#ffffff" opacity="0.5"/><circle cx="252" cy="185" r="1.8" fill="#ffffff" opacity="0.67"/><circle cx="103" cy="249" r="1.1" fill="#ffffff" opacity="0.76"/><circle cx="109" cy="267" r="1.8" fill="#ffffff" opacity="0.25"/><circle cx="98" cy="225" r="1.2" fill="#ffffff" opacity="0.34"/><circle cx="287" cy="265" r="2.0" fill="#ffffff" opacity="0.58"/><circle cx="24" cy="252" r="1.1" fill="#ffffff" opacity="0.31"/><circle cx="24" cy="298" r="1.0" fill="#ffffff" opacity="0.28"/><circle cx="36" cy="185" r="1.0" fill="#ffffff" opacity="0.36"/><circle cx="153" cy="285" r="1.4" fill="#ffffff" opacity="0.36"/><circle cx="145" cy="243" r="1.8" fill="#ffffff" opacity="0.67"/><circle cx="69" cy="302" r="1.9" fill="#ffffff" opacity="0.65"/><circle cx="55" cy="173" r="1.9" fill="#ffffff" opacity="0.25"/><circle cx="234" cy="114" r="1.9" fill="#ffffff" opacity="0.7"/><circle cx="182" cy="204" r="1.8" fill="#ffffff" opacity="0.66"/><circle cx="109" cy="115" r="0.9" fill="#ffffff" opacity="0.72"/><circle cx="293" cy="255" r="0.9" fill="#ffffff" opacity="0.78"/><circle cx="267" cy="271" r="1.7" fill="#ffffff" opacity="0.23"/><circle cx="83" cy="231" r="1.5" fill="#ffffff" opacity="0.54"/><circle cx="120" cy="154" r="1.0" fill="#ffffff" opacity="0.56"/></g>
  <circle cx="160" cy="160" r="104" fill="#020617" opacity=".38"/>
  <g filter="url(#glow)"><path d="M87 163 C102 87 218 87 233 163 C217 239 103 239 87 163Z" fill="none" stroke="url(#g)" stroke-width="7" opacity=".7"/></g>
  <text x="160" y="175" text-anchor="middle" font-family="Arial, Helvetica, sans-serif" font-size="64" font-weight="800" fill="#f8fbff" filter="url(#glow)">MC</text>
  <text x="160" y="64" text-anchor="middle" font-family="Arial, Helvetica, sans-serif" font-size="36" font-weight="800" fill="#e0f2fe" filter="url(#glow)">?</text>
  <text x="160" y="270" text-anchor="middle" font-family="Arial, Helvetica, sans-serif" font-size="13" font-weight="700" fill="#dbeafe">Modo Aventura</text>
</svg>