<svg xmlns="http://www.w3.org/2000/svg" width="320" height="320" viewBox="0 0 320 320" role="img" aria-label="Mente Cósmica 5">
  <defs>
    <radialGradient id="bg" cx="50%" cy="36%" r="72%">
      <stop offset="0%" stop-color="#38bdf8" stop-opacity=".42"/>
      <stop offset="45%" stop-color="#0f2a5f" stop-opacity=".88"/>
      <stop offset="100%" stop-color="#020617"/>
    </radialGradient>
    <linearGradient id="g" x1="58" y1="42" x2="262" y2="276" gradientUnits="userSpaceOnUse">
      <stop offset="0%" stop-color="#ffffff"/>
      <stop offset="42%" stop-color="#38bdf8"/>
      <stop offset="100%" stop-color="#7dd3fc"/>
    </linearGradient>
    <filter id="glow" x="-40%" y="-40%" width="180%" height="180%">
      <feGaussianBlur stdDeviation="5" result="blur"/>
      <feMerge>
        <feMergeNode in="blur"/>
        <feMergeNode in="SourceGraphic"/>
      </feMerge>
    </filter>
  </defs>
  <rect width="320" height="320" rx="52" fill="#020617"/>
  <rect x="10" y="10" width="300" height="300" rx="44" fill="url(#bg)" stroke="url(#g)" stroke-width="3"/>
  <g><circle cx="184" cy="82" r="0.9" fill="#ffffff" opacity="0.68"/><circle cx="196" cy="232" r="1.9" fill="#ffffff" opacity="0.58"/><circle cx="33" cy="117" r="2.1" fill="#ffffff" opacity="0.63"/><circle cx="62" cy="295" r="1.0" fill="#ffffff" opacity="0.32"/><circle cx="298" cy="82" r="0.9" fill="#ffffff" opacity="0.43"/><circle cx="216" cy="48" r="1.3" fill="#ffffff" opacity="0.31"/><circle cx="217" cy="129" r="1.8" fill="#ffffff" opacity="0.63"/><circle cx="160" cy="20" r="1.8" fill="#ffffff" opacity="0.69"/><circle cx="248" cy="126" r="1.7" fill="#ffffff" opacity="0.72"/><circle cx="71" cy="236" r="1.7" fill="#ffffff" opacity="0.58"/><circle cx="158" cy="292" r="1.8" fill="#ffffff" opacity="0.3"/><circle cx="246" cy="50" r="2.0" fill="#ffffff" opacity="0.54"/><circle cx="138" cy="83" r="1.7" fill="#ffffff" opacity="0.39"/><circle cx="110" cy="19" r="1.1" fill="#ffffff" opacity="0.29"/><circle cx="292" cy="208" r="2.0" fill="#ffffff" opacity="0.48"/><circle cx="127" cy="28" r="1.4" fill="#ffffff" opacity="0.28"/><circle cx="264" cy="71" r="1.2" fill="#ffffff" opacity="0.68"/><circle cx="205" cy="183" r="1.4" fill="#ffffff" opacity="0.34"/><circle cx="262" cy="277" r="1.9" fill="#ffffff" opacity="0.38"/><circle cx="223" cy="66" r="1.6" fill="#ffffff" opacity="0.59"/><circle cx="267" cy="240" r="1.6" fill="#ffffff" opacity="0.31"/><circle cx="226" cy="166" r="1.1" fill="#ffffff" opacity="0.78"/></g>
  <circle cx="160" cy="160" r="104" fill="#020617" opacity=".38"/>
  <g filter="url(#glow)"><path d="M87 163 C102 87 218 87 233 163 C217 239 103 239 87 163Z" fill="none" stroke="url(#g)" stroke-width="7" opacity=".7"/></g>
  <text x="160" y="175" text-anchor="middle" font-family="Arial, Helvetica, sans-serif" font-size="64" font-weight="800" fill="#f8fbff" filter="url(#glow)">MC</text>
  <text x="160" y="64" text-anchor="middle" font-family="Arial, Helvetica, sans-serif" font-size="36" font-weight="800" fill="#38bdf8" filter="url(#glow)">?</text>
  <text x="160" y="270" text-anchor="middle" font-family="Arial, Helvetica, sans-serif" font-size="13" font-weight="700" fill="#dbeafe">Modo Aventura</text>
</svg>