<svg xmlns="http://www.w3.org/2000/svg" width="320" height="320" viewBox="0 0 320 320" role="img" aria-label="Janelas da NASA 3">
  <defs>
    <radialGradient id="bg" cx="50%" cy="36%" r="72%">
      <stop offset="0%" stop-color="#38bdf8" stop-opacity=".42"/>
      <stop offset="45%" stop-color="#0f2a5f" stop-opacity=".88"/>
      <stop offset="100%" stop-color="#020617"/>
    </radialGradient>
    <linearGradient id="g" x1="58" y1="42" x2="262" y2="276" gradientUnits="userSpaceOnUse">
      <stop offset="0%" stop-color="#ffffff"/>
      <stop offset="42%" stop-color="#38bdf8"/>
      <stop offset="100%" stop-color="#7dd3fc"/>
    </linearGradient>
    <filter id="glow" x="-40%" y="-40%" width="180%" height="180%">
      <feGaussianBlur stdDeviation="5" result="blur"/>
      <feMerge>
        <feMergeNode in="blur"/>
        <feMergeNode in="SourceGraphic"/>
      </feMerge>
    </filter>
  </defs>
  <rect width="320" height="320" rx="52" fill="#020617"/>
  <rect x="10" y="10" width="300" height="300" rx="44" fill="url(#bg)" stroke="url(#g)" stroke-width="3"/>
  <g><circle cx="144" cy="249" r="1.7" fill="#ffffff" opacity="0.66"/><circle cx="223" cy="154" r="1.3" fill="#ffffff" opacity="0.49"/><circle cx="109" cy="277" r="0.8" fill="#ffffff" opacity="0.5"/><circle cx="266" cy="175" r="0.9" fill="#ffffff" opacity="0.33"/><circle cx="122" cy="134" r="2.0" fill="#ffffff" opacity="0.39"/><circle cx="195" cy="166" r="1.0" fill="#ffffff" opacity="0.52"/><circle cx="68" cy="127" r="1.7" fill="#ffffff" opacity="0.47"/><circle cx="62" cy="44" r="1.9" fill="#ffffff" opacity="0.41"/><circle cx="203" cy="82" r="0.9" fill="#ffffff" opacity="0.54"/><circle cx="120" cy="80" r="2.0" fill="#ffffff" opacity="0.44"/><circle cx="88" cy="17" r="1.1" fill="#ffffff" opacity="0.24"/><circle cx="252" cy="144" r="1.8" fill="#ffffff" opacity="0.4"/><circle cx="24" cy="37" r="0.9" fill="#ffffff" opacity="0.36"/><circle cx="153" cy="109" r="1.5" fill="#ffffff" opacity="0.74"/><circle cx="96" cy="203" r="2.1" fill="#ffffff" opacity="0.53"/><circle cx="224" cy="219" r="0.9" fill="#ffffff" opacity="0.24"/><circle cx="284" cy="208" r="1.6" fill="#ffffff" opacity="0.76"/><circle cx="300" cy="257" r="1.4" fill="#ffffff" opacity="0.41"/><circle cx="304" cy="270" r="1.9" fill="#ffffff" opacity="0.64"/><circle cx="117" cy="28" r="1.7" fill="#ffffff" opacity="0.33"/><circle cx="67" cy="223" r="1.9" fill="#ffffff" opacity="0.24"/><circle cx="280" cy="24" r="1.5" fill="#ffffff" opacity="0.54"/></g>
  <circle cx="160" cy="160" r="104" fill="#020617" opacity=".38"/>
  <g filter="url(#glow)"><circle cx="160" cy="160" r="78" fill="none" stroke="url(#g)" stroke-width="7" opacity=".72"/></g>
  <text x="160" y="175" text-anchor="middle" font-family="Arial, Helvetica, sans-serif" font-size="64" font-weight="800" fill="#f8fbff" filter="url(#glow)">JN</text>
  <text x="160" y="64" text-anchor="middle" font-family="Arial, Helvetica, sans-serif" font-size="36" font-weight="800" fill="#38bdf8" filter="url(#glow)">✧</text>
  <text x="160" y="270" text-anchor="middle" font-family="Arial, Helvetica, sans-serif" font-size="13" font-weight="700" fill="#dbeafe">Conhecimento Espacial</text>
</svg>