<svg xmlns="http://www.w3.org/2000/svg" width="320" height="320" viewBox="0 0 320 320" role="img" aria-label="Janelas da NASA 60">
  <defs>
    <radialGradient id="bg" cx="50%" cy="36%" r="72%">
      <stop offset="0%" stop-color="#e0f2fe" stop-opacity=".42"/>
      <stop offset="45%" stop-color="#0891b2" stop-opacity=".88"/>
      <stop offset="100%" stop-color="#020617"/>
    </radialGradient>
    <linearGradient id="g" x1="58" y1="42" x2="262" y2="276" gradientUnits="userSpaceOnUse">
      <stop offset="0%" stop-color="#ffffff"/>
      <stop offset="42%" stop-color="#e0f2fe"/>
      <stop offset="100%" stop-color="#7dd3fc"/>
    </linearGradient>
    <filter id="glow" x="-40%" y="-40%" width="180%" height="180%">
      <feGaussianBlur stdDeviation="5" result="blur"/>
      <feMerge>
        <feMergeNode in="blur"/>
        <feMergeNode in="SourceGraphic"/>
      </feMerge>
    </filter>
  </defs>
  <rect width="320" height="320" rx="52" fill="#020617"/>
  <rect x="10" y="10" width="300" height="300" rx="44" fill="url(#bg)" stroke="url(#g)" stroke-width="3"/>
  <g><circle cx="235" cy="228" r="0.9" fill="#ffffff" opacity="0.71"/><circle cx="43" cy="55" r="1.9" fill="#ffffff" opacity="0.38"/><circle cx="54" cy="205" r="1.1" fill="#ffffff" opacity="0.38"/><circle cx="75" cy="99" r="1.2" fill="#ffffff" opacity="0.27"/><circle cx="238" cy="221" r="1.6" fill="#ffffff" opacity="0.36"/><circle cx="64" cy="301" r="1.2" fill="#ffffff" opacity="0.5"/><circle cx="118" cy="137" r="0.9" fill="#ffffff" opacity="0.28"/><circle cx="184" cy="50" r="1.5" fill="#ffffff" opacity="0.24"/><circle cx="155" cy="82" r="1.0" fill="#ffffff" opacity="0.55"/><circle cx="284" cy="99" r="1.6" fill="#ffffff" opacity="0.36"/><circle cx="279" cy="68" r="1.4" fill="#ffffff" opacity="0.56"/><circle cx="99" cy="68" r="1.7" fill="#ffffff" opacity="0.56"/><circle cx="285" cy="303" r="1.0" fill="#ffffff" opacity="0.45"/><circle cx="161" cy="75" r="1.3" fill="#ffffff" opacity="0.46"/><circle cx="29" cy="36" r="2.1" fill="#ffffff" opacity="0.35"/><circle cx="166" cy="176" r="1.1" fill="#ffffff" opacity="0.31"/><circle cx="134" cy="27" r="2.0" fill="#ffffff" opacity="0.35"/><circle cx="304" cy="62" r="1.0" fill="#ffffff" opacity="0.63"/><circle cx="165" cy="59" r="1.2" fill="#ffffff" opacity="0.74"/><circle cx="300" cy="289" r="0.8" fill="#ffffff" opacity="0.35"/><circle cx="87" cy="302" r="1.1" fill="#ffffff" opacity="0.51"/><circle cx="23" cy="89" r="1.8" fill="#ffffff" opacity="0.33"/></g>
  <circle cx="160" cy="160" r="104" fill="#020617" opacity=".38"/>
  <g filter="url(#glow)"><circle cx="160" cy="160" r="78" fill="none" stroke="url(#g)" stroke-width="7" opacity=".72"/></g>
  <text x="160" y="175" text-anchor="middle" font-family="Arial, Helvetica, sans-serif" font-size="64" font-weight="800" fill="#f8fbff" filter="url(#glow)">JN</text>
  <text x="160" y="64" text-anchor="middle" font-family="Arial, Helvetica, sans-serif" font-size="36" font-weight="800" fill="#e0f2fe" filter="url(#glow)">✧</text>
  <text x="160" y="270" text-anchor="middle" font-family="Arial, Helvetica, sans-serif" font-size="13" font-weight="700" fill="#dbeafe">Conhecimento Espacial</text>
</svg>