<svg xmlns="http://www.w3.org/2000/svg" width="320" height="320" viewBox="0 0 320 320" role="img" aria-label="Janelas da NASA 15">
  <defs>
    <radialGradient id="bg" cx="50%" cy="36%" r="72%">
      <stop offset="0%" stop-color="#a78bfa" stop-opacity=".42"/>
      <stop offset="45%" stop-color="#312e81" stop-opacity=".88"/>
      <stop offset="100%" stop-color="#020617"/>
    </radialGradient>
    <linearGradient id="g" x1="58" y1="42" x2="262" y2="276" gradientUnits="userSpaceOnUse">
      <stop offset="0%" stop-color="#ffffff"/>
      <stop offset="42%" stop-color="#a78bfa"/>
      <stop offset="100%" stop-color="#7dd3fc"/>
    </linearGradient>
    <filter id="glow" x="-40%" y="-40%" width="180%" height="180%">
      <feGaussianBlur stdDeviation="5" result="blur"/>
      <feMerge>
        <feMergeNode in="blur"/>
        <feMergeNode in="SourceGraphic"/>
      </feMerge>
    </filter>
  </defs>
  <rect width="320" height="320" rx="52" fill="#020617"/>
  <rect x="10" y="10" width="300" height="300" rx="44" fill="url(#bg)" stroke="url(#g)" stroke-width="3"/>
  <g><circle cx="68" cy="216" r="1.9" fill="#ffffff" opacity="0.36"/><circle cx="128" cy="114" r="1.4" fill="#ffffff" opacity="0.37"/><circle cx="119" cy="221" r="1.6" fill="#ffffff" opacity="0.25"/><circle cx="90" cy="274" r="1.6" fill="#ffffff" opacity="0.4"/><circle cx="260" cy="46" r="1.0" fill="#ffffff" opacity="0.51"/><circle cx="294" cy="297" r="1.1" fill="#ffffff" opacity="0.43"/><circle cx="220" cy="33" r="1.0" fill="#ffffff" opacity="0.3"/><circle cx="288" cy="150" r="1.9" fill="#ffffff" opacity="0.4"/><circle cx="298" cy="249" r="1.1" fill="#ffffff" opacity="0.61"/><circle cx="184" cy="211" r="2.1" fill="#ffffff" opacity="0.77"/><circle cx="80" cy="117" r="1.2" fill="#ffffff" opacity="0.26"/><circle cx="215" cy="269" r="1.1" fill="#ffffff" opacity="0.41"/><circle cx="192" cy="32" r="1.7" fill="#ffffff" opacity="0.58"/><circle cx="69" cy="112" r="1.9" fill="#ffffff" opacity="0.66"/><circle cx="102" cy="153" r="2.1" fill="#ffffff" opacity="0.72"/><circle cx="279" cy="277" r="2.0" fill="#ffffff" opacity="0.65"/><circle cx="179" cy="259" r="1.3" fill="#ffffff" opacity="0.42"/><circle cx="111" cy="242" r="0.9" fill="#ffffff" opacity="0.4"/><circle cx="273" cy="207" r="1.9" fill="#ffffff" opacity="0.49"/><circle cx="102" cy="283" r="1.3" fill="#ffffff" opacity="0.5"/><circle cx="55" cy="54" r="1.9" fill="#ffffff" opacity="0.33"/><circle cx="276" cy="29" r="1.6" fill="#ffffff" opacity="0.59"/></g>
  <circle cx="160" cy="160" r="104" fill="#020617" opacity=".38"/>
  <g filter="url(#glow)"><circle cx="160" cy="160" r="78" fill="none" stroke="url(#g)" stroke-width="7" opacity=".72"/></g>
  <text x="160" y="175" text-anchor="middle" font-family="Arial, Helvetica, sans-serif" font-size="64" font-weight="800" fill="#f8fbff" filter="url(#glow)">JN</text>
  <text x="160" y="64" text-anchor="middle" font-family="Arial, Helvetica, sans-serif" font-size="36" font-weight="800" fill="#a78bfa" filter="url(#glow)">✧</text>
  <text x="160" y="270" text-anchor="middle" font-family="Arial, Helvetica, sans-serif" font-size="13" font-weight="700" fill="#dbeafe">Conhecimento Espacial</text>
</svg>