<svg xmlns="http://www.w3.org/2000/svg" width="320" height="320" viewBox="0 0 320 320" role="img" aria-label="Janelas da NASA 30">
  <defs>
    <radialGradient id="bg" cx="50%" cy="36%" r="72%">
      <stop offset="0%" stop-color="#facc15" stop-opacity=".42"/>
      <stop offset="45%" stop-color="#78350f" stop-opacity=".88"/>
      <stop offset="100%" stop-color="#020617"/>
    </radialGradient>
    <linearGradient id="g" x1="58" y1="42" x2="262" y2="276" gradientUnits="userSpaceOnUse">
      <stop offset="0%" stop-color="#ffffff"/>
      <stop offset="42%" stop-color="#facc15"/>
      <stop offset="100%" stop-color="#7dd3fc"/>
    </linearGradient>
    <filter id="glow" x="-40%" y="-40%" width="180%" height="180%">
      <feGaussianBlur stdDeviation="5" result="blur"/>
      <feMerge>
        <feMergeNode in="blur"/>
        <feMergeNode in="SourceGraphic"/>
      </feMerge>
    </filter>
  </defs>
  <rect width="320" height="320" rx="52" fill="#020617"/>
  <rect x="10" y="10" width="300" height="300" rx="44" fill="url(#bg)" stroke="url(#g)" stroke-width="3"/>
  <g><circle cx="155" cy="227" r="1.6" fill="#ffffff" opacity="0.49"/><circle cx="209" cy="272" r="2.0" fill="#ffffff" opacity="0.43"/><circle cx="51" cy="54" r="1.0" fill="#ffffff" opacity="0.71"/><circle cx="234" cy="216" r="1.6" fill="#ffffff" opacity="0.63"/><circle cx="209" cy="275" r="1.7" fill="#ffffff" opacity="0.57"/><circle cx="286" cy="127" r="1.0" fill="#ffffff" opacity="0.45"/><circle cx="151" cy="298" r="1.2" fill="#ffffff" opacity="0.33"/><circle cx="157" cy="206" r="1.8" fill="#ffffff" opacity="0.6"/><circle cx="103" cy="174" r="1.5" fill="#ffffff" opacity="0.68"/><circle cx="197" cy="30" r="0.9" fill="#ffffff" opacity="0.4"/><circle cx="66" cy="197" r="0.9" fill="#ffffff" opacity="0.35"/><circle cx="111" cy="124" r="2.0" fill="#ffffff" opacity="0.44"/><circle cx="46" cy="159" r="2.0" fill="#ffffff" opacity="0.55"/><circle cx="115" cy="293" r="1.4" fill="#ffffff" opacity="0.48"/><circle cx="77" cy="28" r="2.0" fill="#ffffff" opacity="0.34"/><circle cx="42" cy="221" r="1.0" fill="#ffffff" opacity="0.36"/><circle cx="62" cy="61" r="1.4" fill="#ffffff" opacity="0.52"/><circle cx="176" cy="186" r="1.5" fill="#ffffff" opacity="0.44"/><circle cx="124" cy="144" r="2.0" fill="#ffffff" opacity="0.43"/><circle cx="152" cy="136" r="1.8" fill="#ffffff" opacity="0.46"/><circle cx="48" cy="208" r="1.3" fill="#ffffff" opacity="0.39"/><circle cx="27" cy="210" r="2.0" fill="#ffffff" opacity="0.61"/></g>
  <circle cx="160" cy="160" r="104" fill="#020617" opacity=".38"/>
  <g filter="url(#glow)"><circle cx="160" cy="160" r="78" fill="none" stroke="url(#g)" stroke-width="7" opacity=".72"/></g>
  <text x="160" y="175" text-anchor="middle" font-family="Arial, Helvetica, sans-serif" font-size="64" font-weight="800" fill="#f8fbff" filter="url(#glow)">JN</text>
  <text x="160" y="64" text-anchor="middle" font-family="Arial, Helvetica, sans-serif" font-size="36" font-weight="800" fill="#facc15" filter="url(#glow)">✧</text>
  <text x="160" y="270" text-anchor="middle" font-family="Arial, Helvetica, sans-serif" font-size="13" font-weight="700" fill="#dbeafe">Conhecimento Espacial</text>
</svg>