<svg xmlns="http://www.w3.org/2000/svg" width="320" height="320" viewBox="0 0 320 320" role="img" aria-label="Aprendiz do Doutor">
  <defs>
    <radialGradient id="bg" cx="50%" cy="36%" r="72%">
      <stop offset="0%" stop-color="#34d399" stop-opacity=".42"/>
      <stop offset="45%" stop-color="#064e3b" stop-opacity=".88"/>
      <stop offset="100%" stop-color="#020617"/>
    </radialGradient>
    <linearGradient id="g" x1="58" y1="42" x2="262" y2="276" gradientUnits="userSpaceOnUse">
      <stop offset="0%" stop-color="#ffffff"/>
      <stop offset="42%" stop-color="#34d399"/>
      <stop offset="100%" stop-color="#7dd3fc"/>
    </linearGradient>
    <filter id="glow" x="-40%" y="-40%" width="180%" height="180%">
      <feGaussianBlur stdDeviation="5" result="blur"/>
      <feMerge>
        <feMergeNode in="blur"/>
        <feMergeNode in="SourceGraphic"/>
      </feMerge>
    </filter>
  </defs>
  <rect width="320" height="320" rx="52" fill="#020617"/>
  <rect x="10" y="10" width="300" height="300" rx="44" fill="url(#bg)" stroke="url(#g)" stroke-width="3"/>
  <g><circle cx="243" cy="72" r="1.9" fill="#ffffff" opacity="0.25"/><circle cx="176" cy="205" r="1.8" fill="#ffffff" opacity="0.5"/><circle cx="126" cy="147" r="0.9" fill="#ffffff" opacity="0.55"/><circle cx="117" cy="222" r="1.8" fill="#ffffff" opacity="0.51"/><circle cx="179" cy="261" r="1.9" fill="#ffffff" opacity="0.36"/><circle cx="287" cy="51" r="1.0" fill="#ffffff" opacity="0.49"/><circle cx="121" cy="258" r="1.8" fill="#ffffff" opacity="0.46"/><circle cx="286" cy="289" r="1.5" fill="#ffffff" opacity="0.77"/><circle cx="54" cy="176" r="2.1" fill="#ffffff" opacity="0.32"/><circle cx="261" cy="270" r="1.8" fill="#ffffff" opacity="0.36"/><circle cx="46" cy="117" r="2.0" fill="#ffffff" opacity="0.64"/><circle cx="93" cy="253" r="1.5" fill="#ffffff" opacity="0.62"/><circle cx="152" cy="182" r="1.3" fill="#ffffff" opacity="0.68"/><circle cx="162" cy="67" r="1.1" fill="#ffffff" opacity="0.76"/><circle cx="201" cy="294" r="1.3" fill="#ffffff" opacity="0.57"/><circle cx="198" cy="134" r="1.9" fill="#ffffff" opacity="0.46"/><circle cx="74" cy="289" r="0.8" fill="#ffffff" opacity="0.38"/><circle cx="42" cy="114" r="1.7" fill="#ffffff" opacity="0.56"/><circle cx="129" cy="262" r="1.8" fill="#ffffff" opacity="0.72"/><circle cx="259" cy="122" r="1.2" fill="#ffffff" opacity="0.43"/><circle cx="176" cy="98" r="2.0" fill="#ffffff" opacity="0.27"/><circle cx="243" cy="269" r="1.5" fill="#ffffff" opacity="0.73"/></g>
  <circle cx="160" cy="160" r="104" fill="#020617" opacity=".38"/>
  <g filter="url(#glow)"><path d="M87 163 C102 87 218 87 233 163 C217 239 103 239 87 163Z" fill="none" stroke="url(#g)" stroke-width="7" opacity=".7"/></g>
  <text x="160" y="175" text-anchor="middle" font-family="Arial, Helvetica, sans-serif" font-size="64" font-weight="800" fill="#f8fbff" filter="url(#glow)">AD</text>
  <text x="160" y="64" text-anchor="middle" font-family="Arial, Helvetica, sans-serif" font-size="36" font-weight="800" fill="#34d399" filter="url(#glow)">?</text>
  <text x="160" y="270" text-anchor="middle" font-family="Arial, Helvetica, sans-serif" font-size="13" font-weight="700" fill="#dbeafe">Modo Aventura</text>
</svg>