<svg xmlns="http://www.w3.org/2000/svg" width="320" height="320" viewBox="0 0 320 320" role="img" aria-label="Saturno: Arquivo Completo">
  <defs>
    <radialGradient id="bg" cx="50%" cy="36%" r="72%">
      <stop offset="0%" stop-color="#facc15" stop-opacity=".42"/>
      <stop offset="45%" stop-color="#78350f" stop-opacity=".88"/>
      <stop offset="100%" stop-color="#020617"/>
    </radialGradient>
    <linearGradient id="g" x1="58" y1="42" x2="262" y2="276" gradientUnits="userSpaceOnUse">
      <stop offset="0%" stop-color="#ffffff"/>
      <stop offset="42%" stop-color="#facc15"/>
      <stop offset="100%" stop-color="#7dd3fc"/>
    </linearGradient>
    <filter id="glow" x="-40%" y="-40%" width="180%" height="180%">
      <feGaussianBlur stdDeviation="5" result="blur"/>
      <feMerge>
        <feMergeNode in="blur"/>
        <feMergeNode in="SourceGraphic"/>
      </feMerge>
    </filter>
  </defs>
  <rect width="320" height="320" rx="52" fill="#020617"/>
  <rect x="10" y="10" width="300" height="300" rx="44" fill="url(#bg)" stroke="url(#g)" stroke-width="3"/>
  <g><circle cx="260" cy="175" r="1.0" fill="#ffffff" opacity="0.34"/><circle cx="64" cy="260" r="1.7" fill="#ffffff" opacity="0.5"/><circle cx="131" cy="32" r="1.8" fill="#ffffff" opacity="0.5"/><circle cx="145" cy="271" r="1.1" fill="#ffffff" opacity="0.55"/><circle cx="51" cy="223" r="1.9" fill="#ffffff" opacity="0.76"/><circle cx="49" cy="184" r="2.0" fill="#ffffff" opacity="0.76"/><circle cx="257" cy="206" r="0.9" fill="#ffffff" opacity="0.56"/><circle cx="235" cy="198" r="1.8" fill="#ffffff" opacity="0.67"/><circle cx="224" cy="269" r="1.9" fill="#ffffff" opacity="0.38"/><circle cx="198" cy="226" r="1.7" fill="#ffffff" opacity="0.57"/><circle cx="240" cy="126" r="2.0" fill="#ffffff" opacity="0.42"/><circle cx="129" cy="215" r="0.9" fill="#ffffff" opacity="0.39"/><circle cx="106" cy="211" r="1.5" fill="#ffffff" opacity="0.7"/><circle cx="25" cy="238" r="0.8" fill="#ffffff" opacity="0.6"/><circle cx="29" cy="256" r="1.3" fill="#ffffff" opacity="0.35"/><circle cx="219" cy="90" r="2.0" fill="#ffffff" opacity="0.28"/><circle cx="175" cy="238" r="1.2" fill="#ffffff" opacity="0.62"/><circle cx="276" cy="252" r="1.7" fill="#ffffff" opacity="0.41"/><circle cx="233" cy="249" r="1.5" fill="#ffffff" opacity="0.3"/><circle cx="17" cy="18" r="0.9" fill="#ffffff" opacity="0.48"/><circle cx="18" cy="166" r="2.1" fill="#ffffff" opacity="0.65"/><circle cx="107" cy="286" r="1.4" fill="#ffffff" opacity="0.46"/></g>
  <circle cx="160" cy="160" r="104" fill="#020617" opacity=".38"/>
  <g filter="url(#glow)"><path d="M88 218 L160 92 L232 218 Z" fill="none" stroke="url(#g)" stroke-width="7" opacity=".65"/><circle cx="160" cy="92" r="8" fill="url(#g)"/></g>
  <text x="160" y="175" text-anchor="middle" font-family="Arial, Helvetica, sans-serif" font-size="64" font-weight="800" fill="#f8fbff" filter="url(#glow)">SA</text>
  <text x="160" y="64" text-anchor="middle" font-family="Arial, Helvetica, sans-serif" font-size="36" font-weight="800" fill="#facc15" filter="url(#glow)">⌁</text>
  <text x="160" y="270" text-anchor="middle" font-family="Arial, Helvetica, sans-serif" font-size="13" font-weight="700" fill="#dbeafe">Dossiê de Missões</text>
</svg>