<svg xmlns="http://www.w3.org/2000/svg" width="320" height="320" viewBox="0 0 320 320" role="img" aria-label="Terra: Arquivo Completo">
  <defs>
    <radialGradient id="bg" cx="50%" cy="36%" r="72%">
      <stop offset="0%" stop-color="#facc15" stop-opacity=".42"/>
      <stop offset="45%" stop-color="#78350f" stop-opacity=".88"/>
      <stop offset="100%" stop-color="#020617"/>
    </radialGradient>
    <linearGradient id="g" x1="58" y1="42" x2="262" y2="276" gradientUnits="userSpaceOnUse">
      <stop offset="0%" stop-color="#ffffff"/>
      <stop offset="42%" stop-color="#facc15"/>
      <stop offset="100%" stop-color="#7dd3fc"/>
    </linearGradient>
    <filter id="glow" x="-40%" y="-40%" width="180%" height="180%">
      <feGaussianBlur stdDeviation="5" result="blur"/>
      <feMerge>
        <feMergeNode in="blur"/>
        <feMergeNode in="SourceGraphic"/>
      </feMerge>
    </filter>
  </defs>
  <rect width="320" height="320" rx="52" fill="#020617"/>
  <rect x="10" y="10" width="300" height="300" rx="44" fill="url(#bg)" stroke="url(#g)" stroke-width="3"/>
  <g><circle cx="242" cy="18" r="1.6" fill="#ffffff" opacity="0.47"/><circle cx="137" cy="53" r="2.0" fill="#ffffff" opacity="0.57"/><circle cx="147" cy="226" r="1.1" fill="#ffffff" opacity="0.43"/><circle cx="280" cy="196" r="0.9" fill="#ffffff" opacity="0.41"/><circle cx="271" cy="42" r="2.0" fill="#ffffff" opacity="0.69"/><circle cx="134" cy="137" r="2.0" fill="#ffffff" opacity="0.68"/><circle cx="205" cy="99" r="1.7" fill="#ffffff" opacity="0.76"/><circle cx="175" cy="91" r="1.5" fill="#ffffff" opacity="0.52"/><circle cx="231" cy="250" r="1.8" fill="#ffffff" opacity="0.68"/><circle cx="20" cy="210" r="1.6" fill="#ffffff" opacity="0.52"/><circle cx="68" cy="55" r="1.0" fill="#ffffff" opacity="0.65"/><circle cx="210" cy="125" r="1.3" fill="#ffffff" opacity="0.68"/><circle cx="240" cy="297" r="1.7" fill="#ffffff" opacity="0.43"/><circle cx="50" cy="262" r="1.5" fill="#ffffff" opacity="0.4"/><circle cx="41" cy="49" r="1.2" fill="#ffffff" opacity="0.67"/><circle cx="127" cy="153" r="1.1" fill="#ffffff" opacity="0.52"/><circle cx="59" cy="66" r="0.9" fill="#ffffff" opacity="0.4"/><circle cx="51" cy="154" r="1.5" fill="#ffffff" opacity="0.73"/><circle cx="273" cy="94" r="1.4" fill="#ffffff" opacity="0.42"/><circle cx="287" cy="38" r="1.7" fill="#ffffff" opacity="0.51"/><circle cx="288" cy="111" r="2.0" fill="#ffffff" opacity="0.67"/><circle cx="227" cy="268" r="1.3" fill="#ffffff" opacity="0.67"/></g>
  <circle cx="160" cy="160" r="104" fill="#020617" opacity=".38"/>
  <g filter="url(#glow)"><path d="M88 218 L160 92 L232 218 Z" fill="none" stroke="url(#g)" stroke-width="7" opacity=".65"/><circle cx="160" cy="92" r="8" fill="url(#g)"/></g>
  <text x="160" y="175" text-anchor="middle" font-family="Arial, Helvetica, sans-serif" font-size="64" font-weight="800" fill="#f8fbff" filter="url(#glow)">TA</text>
  <text x="160" y="64" text-anchor="middle" font-family="Arial, Helvetica, sans-serif" font-size="36" font-weight="800" fill="#facc15" filter="url(#glow)">⌁</text>
  <text x="160" y="270" text-anchor="middle" font-family="Arial, Helvetica, sans-serif" font-size="13" font-weight="700" fill="#dbeafe">Dossiê de Missões</text>
</svg>