<svg xmlns="http://www.w3.org/2000/svg" width="320" height="320" viewBox="0 0 320 320" role="img" aria-label="Marte: Arquivo Completo">
  <defs>
    <radialGradient id="bg" cx="50%" cy="36%" r="72%">
      <stop offset="0%" stop-color="#facc15" stop-opacity=".42"/>
      <stop offset="45%" stop-color="#78350f" stop-opacity=".88"/>
      <stop offset="100%" stop-color="#020617"/>
    </radialGradient>
    <linearGradient id="g" x1="58" y1="42" x2="262" y2="276" gradientUnits="userSpaceOnUse">
      <stop offset="0%" stop-color="#ffffff"/>
      <stop offset="42%" stop-color="#facc15"/>
      <stop offset="100%" stop-color="#7dd3fc"/>
    </linearGradient>
    <filter id="glow" x="-40%" y="-40%" width="180%" height="180%">
      <feGaussianBlur stdDeviation="5" result="blur"/>
      <feMerge>
        <feMergeNode in="blur"/>
        <feMergeNode in="SourceGraphic"/>
      </feMerge>
    </filter>
  </defs>
  <rect width="320" height="320" rx="52" fill="#020617"/>
  <rect x="10" y="10" width="300" height="300" rx="44" fill="url(#bg)" stroke="url(#g)" stroke-width="3"/>
  <g><circle cx="122" cy="73" r="1.5" fill="#ffffff" opacity="0.46"/><circle cx="243" cy="211" r="1.8" fill="#ffffff" opacity="0.42"/><circle cx="28" cy="296" r="2.0" fill="#ffffff" opacity="0.72"/><circle cx="80" cy="102" r="0.9" fill="#ffffff" opacity="0.61"/><circle cx="256" cy="264" r="0.8" fill="#ffffff" opacity="0.27"/><circle cx="107" cy="69" r="1.9" fill="#ffffff" opacity="0.78"/><circle cx="294" cy="218" r="2.0" fill="#ffffff" opacity="0.27"/><circle cx="192" cy="216" r="1.2" fill="#ffffff" opacity="0.67"/><circle cx="249" cy="156" r="1.8" fill="#ffffff" opacity="0.47"/><circle cx="90" cy="72" r="0.8" fill="#ffffff" opacity="0.56"/><circle cx="169" cy="78" r="1.3" fill="#ffffff" opacity="0.29"/><circle cx="74" cy="188" r="1.5" fill="#ffffff" opacity="0.23"/><circle cx="72" cy="41" r="1.7" fill="#ffffff" opacity="0.52"/><circle cx="176" cy="156" r="0.8" fill="#ffffff" opacity="0.43"/><circle cx="251" cy="270" r="1.5" fill="#ffffff" opacity="0.66"/><circle cx="133" cy="170" r="1.6" fill="#ffffff" opacity="0.58"/><circle cx="97" cy="61" r="1.6" fill="#ffffff" opacity="0.77"/><circle cx="165" cy="67" r="1.8" fill="#ffffff" opacity="0.45"/><circle cx="92" cy="300" r="1.8" fill="#ffffff" opacity="0.3"/><circle cx="141" cy="96" r="1.4" fill="#ffffff" opacity="0.32"/><circle cx="211" cy="41" r="0.8" fill="#ffffff" opacity="0.43"/><circle cx="175" cy="294" r="1.9" fill="#ffffff" opacity="0.55"/></g>
  <circle cx="160" cy="160" r="104" fill="#020617" opacity=".38"/>
  <g filter="url(#glow)"><path d="M88 218 L160 92 L232 218 Z" fill="none" stroke="url(#g)" stroke-width="7" opacity=".65"/><circle cx="160" cy="92" r="8" fill="url(#g)"/></g>
  <text x="160" y="175" text-anchor="middle" font-family="Arial, Helvetica, sans-serif" font-size="64" font-weight="800" fill="#f8fbff" filter="url(#glow)">MA</text>
  <text x="160" y="64" text-anchor="middle" font-family="Arial, Helvetica, sans-serif" font-size="36" font-weight="800" fill="#facc15" filter="url(#glow)">⌁</text>
  <text x="160" y="270" text-anchor="middle" font-family="Arial, Helvetica, sans-serif" font-size="13" font-weight="700" fill="#dbeafe">Dossiê de Missões</text>
</svg>