<svg xmlns="http://www.w3.org/2000/svg" width="320" height="320" viewBox="0 0 320 320" role="img" aria-label="Vênus: Arquivo Completo">
  <defs>
    <radialGradient id="bg" cx="50%" cy="36%" r="72%">
      <stop offset="0%" stop-color="#facc15" stop-opacity=".42"/>
      <stop offset="45%" stop-color="#78350f" stop-opacity=".88"/>
      <stop offset="100%" stop-color="#020617"/>
    </radialGradient>
    <linearGradient id="g" x1="58" y1="42" x2="262" y2="276" gradientUnits="userSpaceOnUse">
      <stop offset="0%" stop-color="#ffffff"/>
      <stop offset="42%" stop-color="#facc15"/>
      <stop offset="100%" stop-color="#7dd3fc"/>
    </linearGradient>
    <filter id="glow" x="-40%" y="-40%" width="180%" height="180%">
      <feGaussianBlur stdDeviation="5" result="blur"/>
      <feMerge>
        <feMergeNode in="blur"/>
        <feMergeNode in="SourceGraphic"/>
      </feMerge>
    </filter>
  </defs>
  <rect width="320" height="320" rx="52" fill="#020617"/>
  <rect x="10" y="10" width="300" height="300" rx="44" fill="url(#bg)" stroke="url(#g)" stroke-width="3"/>
  <g><circle cx="281" cy="89" r="1.7" fill="#ffffff" opacity="0.39"/><circle cx="277" cy="106" r="1.1" fill="#ffffff" opacity="0.78"/><circle cx="46" cy="132" r="1.0" fill="#ffffff" opacity="0.3"/><circle cx="74" cy="276" r="2.1" fill="#ffffff" opacity="0.42"/><circle cx="128" cy="303" r="1.1" fill="#ffffff" opacity="0.37"/><circle cx="31" cy="154" r="1.5" fill="#ffffff" opacity="0.34"/><circle cx="285" cy="220" r="1.7" fill="#ffffff" opacity="0.38"/><circle cx="102" cy="125" r="1.8" fill="#ffffff" opacity="0.43"/><circle cx="268" cy="108" r="0.9" fill="#ffffff" opacity="0.59"/><circle cx="233" cy="92" r="0.8" fill="#ffffff" opacity="0.62"/><circle cx="92" cy="188" r="1.8" fill="#ffffff" opacity="0.46"/><circle cx="104" cy="199" r="1.4" fill="#ffffff" opacity="0.29"/><circle cx="225" cy="150" r="1.5" fill="#ffffff" opacity="0.62"/><circle cx="108" cy="191" r="1.4" fill="#ffffff" opacity="0.46"/><circle cx="161" cy="46" r="1.0" fill="#ffffff" opacity="0.3"/><circle cx="229" cy="70" r="1.9" fill="#ffffff" opacity="0.42"/><circle cx="18" cy="269" r="1.5" fill="#ffffff" opacity="0.39"/><circle cx="226" cy="17" r="1.8" fill="#ffffff" opacity="0.32"/><circle cx="45" cy="56" r="0.8" fill="#ffffff" opacity="0.73"/><circle cx="170" cy="255" r="1.7" fill="#ffffff" opacity="0.42"/><circle cx="195" cy="67" r="1.3" fill="#ffffff" opacity="0.44"/><circle cx="185" cy="40" r="1.0" fill="#ffffff" opacity="0.24"/></g>
  <circle cx="160" cy="160" r="104" fill="#020617" opacity=".38"/>
  <g filter="url(#glow)"><path d="M88 218 L160 92 L232 218 Z" fill="none" stroke="url(#g)" stroke-width="7" opacity=".65"/><circle cx="160" cy="92" r="8" fill="url(#g)"/></g>
  <text x="160" y="175" text-anchor="middle" font-family="Arial, Helvetica, sans-serif" font-size="64" font-weight="800" fill="#f8fbff" filter="url(#glow)">VA</text>
  <text x="160" y="64" text-anchor="middle" font-family="Arial, Helvetica, sans-serif" font-size="36" font-weight="800" fill="#facc15" filter="url(#glow)">⌁</text>
  <text x="160" y="270" text-anchor="middle" font-family="Arial, Helvetica, sans-serif" font-size="13" font-weight="700" fill="#dbeafe">Dossiê de Missões</text>
</svg>