<svg xmlns="http://www.w3.org/2000/svg" width="320" height="320" viewBox="0 0 320 320" role="img" aria-label="Mercúrio: Arquivo Completo">
  <defs>
    <radialGradient id="bg" cx="50%" cy="36%" r="72%">
      <stop offset="0%" stop-color="#a78bfa" stop-opacity=".42"/>
      <stop offset="45%" stop-color="#312e81" stop-opacity=".88"/>
      <stop offset="100%" stop-color="#020617"/>
    </radialGradient>
    <linearGradient id="g" x1="58" y1="42" x2="262" y2="276" gradientUnits="userSpaceOnUse">
      <stop offset="0%" stop-color="#ffffff"/>
      <stop offset="42%" stop-color="#a78bfa"/>
      <stop offset="100%" stop-color="#7dd3fc"/>
    </linearGradient>
    <filter id="glow" x="-40%" y="-40%" width="180%" height="180%">
      <feGaussianBlur stdDeviation="5" result="blur"/>
      <feMerge>
        <feMergeNode in="blur"/>
        <feMergeNode in="SourceGraphic"/>
      </feMerge>
    </filter>
  </defs>
  <rect width="320" height="320" rx="52" fill="#020617"/>
  <rect x="10" y="10" width="300" height="300" rx="44" fill="url(#bg)" stroke="url(#g)" stroke-width="3"/>
  <g><circle cx="265" cy="204" r="1.9" fill="#ffffff" opacity="0.35"/><circle cx="44" cy="31" r="1.9" fill="#ffffff" opacity="0.38"/><circle cx="304" cy="276" r="0.9" fill="#ffffff" opacity="0.6"/><circle cx="23" cy="268" r="2.0" fill="#ffffff" opacity="0.78"/><circle cx="135" cy="155" r="1.2" fill="#ffffff" opacity="0.35"/><circle cx="172" cy="237" r="1.2" fill="#ffffff" opacity="0.26"/><circle cx="82" cy="135" r="1.4" fill="#ffffff" opacity="0.22"/><circle cx="29" cy="16" r="1.2" fill="#ffffff" opacity="0.41"/><circle cx="146" cy="156" r="1.5" fill="#ffffff" opacity="0.46"/><circle cx="100" cy="58" r="1.0" fill="#ffffff" opacity="0.66"/><circle cx="141" cy="225" r="1.5" fill="#ffffff" opacity="0.54"/><circle cx="123" cy="36" r="2.0" fill="#ffffff" opacity="0.38"/><circle cx="218" cy="288" r="0.9" fill="#ffffff" opacity="0.66"/><circle cx="251" cy="160" r="1.6" fill="#ffffff" opacity="0.61"/><circle cx="252" cy="124" r="1.7" fill="#ffffff" opacity="0.31"/><circle cx="193" cy="183" r="1.2" fill="#ffffff" opacity="0.68"/><circle cx="38" cy="93" r="0.9" fill="#ffffff" opacity="0.39"/><circle cx="187" cy="204" r="1.6" fill="#ffffff" opacity="0.73"/><circle cx="303" cy="212" r="1.2" fill="#ffffff" opacity="0.35"/><circle cx="294" cy="127" r="1.9" fill="#ffffff" opacity="0.36"/><circle cx="191" cy="246" r="1.3" fill="#ffffff" opacity="0.4"/><circle cx="62" cy="195" r="1.1" fill="#ffffff" opacity="0.34"/></g>
  <circle cx="160" cy="160" r="104" fill="#020617" opacity=".38"/>
  <g filter="url(#glow)"><path d="M88 218 L160 92 L232 218 Z" fill="none" stroke="url(#g)" stroke-width="7" opacity=".65"/><circle cx="160" cy="92" r="8" fill="url(#g)"/></g>
  <text x="160" y="175" text-anchor="middle" font-family="Arial, Helvetica, sans-serif" font-size="64" font-weight="800" fill="#f8fbff" filter="url(#glow)">MA</text>
  <text x="160" y="64" text-anchor="middle" font-family="Arial, Helvetica, sans-serif" font-size="36" font-weight="800" fill="#a78bfa" filter="url(#glow)">⌁</text>
  <text x="160" y="270" text-anchor="middle" font-family="Arial, Helvetica, sans-serif" font-size="13" font-weight="700" fill="#dbeafe">Dossiê de Missões</text>
</svg>