<svg xmlns="http://www.w3.org/2000/svg" width="320" height="320" viewBox="0 0 320 320" role="img" aria-label="Netuno: Arquivo Completo">
  <defs>
    <radialGradient id="bg" cx="50%" cy="36%" r="72%">
      <stop offset="0%" stop-color="#a78bfa" stop-opacity=".42"/>
      <stop offset="45%" stop-color="#312e81" stop-opacity=".88"/>
      <stop offset="100%" stop-color="#020617"/>
    </radialGradient>
    <linearGradient id="g" x1="58" y1="42" x2="262" y2="276" gradientUnits="userSpaceOnUse">
      <stop offset="0%" stop-color="#ffffff"/>
      <stop offset="42%" stop-color="#a78bfa"/>
      <stop offset="100%" stop-color="#7dd3fc"/>
    </linearGradient>
    <filter id="glow" x="-40%" y="-40%" width="180%" height="180%">
      <feGaussianBlur stdDeviation="5" result="blur"/>
      <feMerge>
        <feMergeNode in="blur"/>
        <feMergeNode in="SourceGraphic"/>
      </feMerge>
    </filter>
  </defs>
  <rect width="320" height="320" rx="52" fill="#020617"/>
  <rect x="10" y="10" width="300" height="300" rx="44" fill="url(#bg)" stroke="url(#g)" stroke-width="3"/>
  <g><circle cx="302" cy="105" r="1.3" fill="#ffffff" opacity="0.74"/><circle cx="162" cy="54" r="1.8" fill="#ffffff" opacity="0.61"/><circle cx="199" cy="273" r="1.2" fill="#ffffff" opacity="0.32"/><circle cx="194" cy="232" r="1.6" fill="#ffffff" opacity="0.36"/><circle cx="127" cy="98" r="1.8" fill="#ffffff" opacity="0.76"/><circle cx="235" cy="230" r="1.7" fill="#ffffff" opacity="0.6"/><circle cx="287" cy="38" r="1.6" fill="#ffffff" opacity="0.48"/><circle cx="78" cy="67" r="1.6" fill="#ffffff" opacity="0.63"/><circle cx="130" cy="108" r="1.1" fill="#ffffff" opacity="0.58"/><circle cx="193" cy="29" r="1.6" fill="#ffffff" opacity="0.45"/><circle cx="299" cy="115" r="2.0" fill="#ffffff" opacity="0.57"/><circle cx="132" cy="22" r="1.7" fill="#ffffff" opacity="0.68"/><circle cx="261" cy="131" r="1.6" fill="#ffffff" opacity="0.71"/><circle cx="109" cy="66" r="1.1" fill="#ffffff" opacity="0.71"/><circle cx="91" cy="170" r="1.9" fill="#ffffff" opacity="0.75"/><circle cx="51" cy="172" r="1.7" fill="#ffffff" opacity="0.29"/><circle cx="123" cy="240" r="1.4" fill="#ffffff" opacity="0.58"/><circle cx="127" cy="68" r="1.6" fill="#ffffff" opacity="0.49"/><circle cx="299" cy="76" r="1.0" fill="#ffffff" opacity="0.24"/><circle cx="276" cy="17" r="1.0" fill="#ffffff" opacity="0.65"/><circle cx="32" cy="262" r="1.5" fill="#ffffff" opacity="0.69"/><circle cx="50" cy="17" r="2.1" fill="#ffffff" opacity="0.72"/></g>
  <circle cx="160" cy="160" r="104" fill="#020617" opacity=".38"/>
  <g filter="url(#glow)"><path d="M88 218 L160 92 L232 218 Z" fill="none" stroke="url(#g)" stroke-width="7" opacity=".65"/><circle cx="160" cy="92" r="8" fill="url(#g)"/></g>
  <text x="160" y="175" text-anchor="middle" font-family="Arial, Helvetica, sans-serif" font-size="64" font-weight="800" fill="#f8fbff" filter="url(#glow)">NA</text>
  <text x="160" y="64" text-anchor="middle" font-family="Arial, Helvetica, sans-serif" font-size="36" font-weight="800" fill="#a78bfa" filter="url(#glow)">⌁</text>
  <text x="160" y="270" text-anchor="middle" font-family="Arial, Helvetica, sans-serif" font-size="13" font-weight="700" fill="#dbeafe">Dossiê de Missões</text>
</svg>