<svg xmlns="http://www.w3.org/2000/svg" width="320" height="320" viewBox="0 0 320 320" role="img" aria-label="Sol: Arquivo Completo">
  <defs>
    <radialGradient id="bg" cx="50%" cy="36%" r="72%">
      <stop offset="0%" stop-color="#facc15" stop-opacity=".42"/>
      <stop offset="45%" stop-color="#78350f" stop-opacity=".88"/>
      <stop offset="100%" stop-color="#020617"/>
    </radialGradient>
    <linearGradient id="g" x1="58" y1="42" x2="262" y2="276" gradientUnits="userSpaceOnUse">
      <stop offset="0%" stop-color="#ffffff"/>
      <stop offset="42%" stop-color="#facc15"/>
      <stop offset="100%" stop-color="#7dd3fc"/>
    </linearGradient>
    <filter id="glow" x="-40%" y="-40%" width="180%" height="180%">
      <feGaussianBlur stdDeviation="5" result="blur"/>
      <feMerge>
        <feMergeNode in="blur"/>
        <feMergeNode in="SourceGraphic"/>
      </feMerge>
    </filter>
  </defs>
  <rect width="320" height="320" rx="52" fill="#020617"/>
  <rect x="10" y="10" width="300" height="300" rx="44" fill="url(#bg)" stroke="url(#g)" stroke-width="3"/>
  <g><circle cx="116" cy="180" r="2.0" fill="#ffffff" opacity="0.38"/><circle cx="113" cy="179" r="1.4" fill="#ffffff" opacity="0.45"/><circle cx="213" cy="292" r="1.1" fill="#ffffff" opacity="0.58"/><circle cx="97" cy="59" r="0.8" fill="#ffffff" opacity="0.76"/><circle cx="68" cy="135" r="1.5" fill="#ffffff" opacity="0.52"/><circle cx="215" cy="121" r="1.7" fill="#ffffff" opacity="0.4"/><circle cx="206" cy="32" r="0.9" fill="#ffffff" opacity="0.25"/><circle cx="138" cy="136" r="1.3" fill="#ffffff" opacity="0.43"/><circle cx="151" cy="76" r="1.9" fill="#ffffff" opacity="0.35"/><circle cx="36" cy="158" r="1.2" fill="#ffffff" opacity="0.76"/><circle cx="36" cy="124" r="2.0" fill="#ffffff" opacity="0.7"/><circle cx="247" cy="19" r="1.1" fill="#ffffff" opacity="0.44"/><circle cx="30" cy="34" r="1.6" fill="#ffffff" opacity="0.56"/><circle cx="116" cy="27" r="0.8" fill="#ffffff" opacity="0.67"/><circle cx="175" cy="237" r="1.6" fill="#ffffff" opacity="0.51"/><circle cx="139" cy="158" r="1.2" fill="#ffffff" opacity="0.77"/><circle cx="295" cy="25" r="1.9" fill="#ffffff" opacity="0.26"/><circle cx="283" cy="50" r="1.5" fill="#ffffff" opacity="0.77"/><circle cx="281" cy="88" r="1.6" fill="#ffffff" opacity="0.32"/><circle cx="288" cy="40" r="1.2" fill="#ffffff" opacity="0.23"/><circle cx="246" cy="27" r="0.9" fill="#ffffff" opacity="0.47"/><circle cx="298" cy="258" r="1.6" fill="#ffffff" opacity="0.41"/></g>
  <circle cx="160" cy="160" r="104" fill="#020617" opacity=".38"/>
  <g filter="url(#glow)"><path d="M88 218 L160 92 L232 218 Z" fill="none" stroke="url(#g)" stroke-width="7" opacity=".65"/><circle cx="160" cy="92" r="8" fill="url(#g)"/></g>
  <text x="160" y="175" text-anchor="middle" font-family="Arial, Helvetica, sans-serif" font-size="64" font-weight="800" fill="#f8fbff" filter="url(#glow)">SA</text>
  <text x="160" y="64" text-anchor="middle" font-family="Arial, Helvetica, sans-serif" font-size="36" font-weight="800" fill="#facc15" filter="url(#glow)">⌁</text>
  <text x="160" y="270" text-anchor="middle" font-family="Arial, Helvetica, sans-serif" font-size="13" font-weight="700" fill="#dbeafe">Dossiê de Missões</text>
</svg>