<svg xmlns="http://www.w3.org/2000/svg" width="320" height="320" viewBox="0 0 320 320" role="img" aria-label="Chamado Aceito 3x">
  <defs>
    <radialGradient id="bg" cx="50%" cy="36%" r="72%">
      <stop offset="0%" stop-color="#38bdf8" stop-opacity=".42"/>
      <stop offset="45%" stop-color="#0f2a5f" stop-opacity=".88"/>
      <stop offset="100%" stop-color="#020617"/>
    </radialGradient>
    <linearGradient id="g" x1="58" y1="42" x2="262" y2="276" gradientUnits="userSpaceOnUse">
      <stop offset="0%" stop-color="#ffffff"/>
      <stop offset="42%" stop-color="#38bdf8"/>
      <stop offset="100%" stop-color="#7dd3fc"/>
    </linearGradient>
    <filter id="glow" x="-40%" y="-40%" width="180%" height="180%">
      <feGaussianBlur stdDeviation="5" result="blur"/>
      <feMerge>
        <feMergeNode in="blur"/>
        <feMergeNode in="SourceGraphic"/>
      </feMerge>
    </filter>
  </defs>
  <rect width="320" height="320" rx="52" fill="#020617"/>
  <rect x="10" y="10" width="300" height="300" rx="44" fill="url(#bg)" stroke="url(#g)" stroke-width="3"/>
  <g><circle cx="268" cy="299" r="1.5" fill="#ffffff" opacity="0.33"/><circle cx="159" cy="35" r="0.9" fill="#ffffff" opacity="0.53"/><circle cx="47" cy="61" r="1.7" fill="#ffffff" opacity="0.65"/><circle cx="234" cy="153" r="1.6" fill="#ffffff" opacity="0.63"/><circle cx="27" cy="68" r="1.0" fill="#ffffff" opacity="0.29"/><circle cx="136" cy="239" r="2.1" fill="#ffffff" opacity="0.53"/><circle cx="171" cy="124" r="1.0" fill="#ffffff" opacity="0.49"/><circle cx="166" cy="288" r="1.0" fill="#ffffff" opacity="0.64"/><circle cx="292" cy="139" r="1.1" fill="#ffffff" opacity="0.61"/><circle cx="71" cy="97" r="1.8" fill="#ffffff" opacity="0.25"/><circle cx="25" cy="218" r="1.6" fill="#ffffff" opacity="0.45"/><circle cx="69" cy="124" r="1.3" fill="#ffffff" opacity="0.66"/><circle cx="127" cy="61" r="1.7" fill="#ffffff" opacity="0.35"/><circle cx="166" cy="118" r="1.8" fill="#ffffff" opacity="0.64"/><circle cx="47" cy="207" r="2.0" fill="#ffffff" opacity="0.63"/><circle cx="281" cy="187" r="1.7" fill="#ffffff" opacity="0.23"/><circle cx="114" cy="195" r="1.7" fill="#ffffff" opacity="0.66"/><circle cx="38" cy="67" r="2.0" fill="#ffffff" opacity="0.58"/><circle cx="21" cy="60" r="1.1" fill="#ffffff" opacity="0.4"/><circle cx="150" cy="38" r="1.0" fill="#ffffff" opacity="0.64"/><circle cx="159" cy="54" r="0.8" fill="#ffffff" opacity="0.48"/><circle cx="47" cy="107" r="1.1" fill="#ffffff" opacity="0.43"/></g>
  <circle cx="160" cy="160" r="104" fill="#020617" opacity=".38"/>
  <g filter="url(#glow)"><path d="M87 163 C102 87 218 87 233 163 C217 239 103 239 87 163Z" fill="none" stroke="url(#g)" stroke-width="7" opacity=".7"/></g>
  <text x="160" y="175" text-anchor="middle" font-family="Arial, Helvetica, sans-serif" font-size="64" font-weight="800" fill="#f8fbff" filter="url(#glow)">CA</text>
  <text x="160" y="64" text-anchor="middle" font-family="Arial, Helvetica, sans-serif" font-size="36" font-weight="800" fill="#38bdf8" filter="url(#glow)">?</text>
  <text x="160" y="270" text-anchor="middle" font-family="Arial, Helvetica, sans-serif" font-size="13" font-weight="700" fill="#dbeafe">Modo Aventura</text>
</svg>