<svg xmlns="http://www.w3.org/2000/svg" width="320" height="320" viewBox="0 0 320 320" role="img" aria-label="Chamado Aceito 25x">
  <defs>
    <radialGradient id="bg" cx="50%" cy="36%" r="72%">
      <stop offset="0%" stop-color="#facc15" stop-opacity=".42"/>
      <stop offset="45%" stop-color="#78350f" stop-opacity=".88"/>
      <stop offset="100%" stop-color="#020617"/>
    </radialGradient>
    <linearGradient id="g" x1="58" y1="42" x2="262" y2="276" gradientUnits="userSpaceOnUse">
      <stop offset="0%" stop-color="#ffffff"/>
      <stop offset="42%" stop-color="#facc15"/>
      <stop offset="100%" stop-color="#7dd3fc"/>
    </linearGradient>
    <filter id="glow" x="-40%" y="-40%" width="180%" height="180%">
      <feGaussianBlur stdDeviation="5" result="blur"/>
      <feMerge>
        <feMergeNode in="blur"/>
        <feMergeNode in="SourceGraphic"/>
      </feMerge>
    </filter>
  </defs>
  <rect width="320" height="320" rx="52" fill="#020617"/>
  <rect x="10" y="10" width="300" height="300" rx="44" fill="url(#bg)" stroke="url(#g)" stroke-width="3"/>
  <g><circle cx="87" cy="30" r="1.3" fill="#ffffff" opacity="0.3"/><circle cx="269" cy="218" r="1.1" fill="#ffffff" opacity="0.67"/><circle cx="197" cy="203" r="1.6" fill="#ffffff" opacity="0.49"/><circle cx="173" cy="217" r="0.9" fill="#ffffff" opacity="0.69"/><circle cx="207" cy="24" r="0.9" fill="#ffffff" opacity="0.35"/><circle cx="223" cy="164" r="1.6" fill="#ffffff" opacity="0.34"/><circle cx="243" cy="44" r="1.3" fill="#ffffff" opacity="0.32"/><circle cx="210" cy="192" r="1.4" fill="#ffffff" opacity="0.78"/><circle cx="23" cy="197" r="1.7" fill="#ffffff" opacity="0.36"/><circle cx="39" cy="191" r="1.8" fill="#ffffff" opacity="0.64"/><circle cx="265" cy="183" r="1.4" fill="#ffffff" opacity="0.57"/><circle cx="197" cy="300" r="1.8" fill="#ffffff" opacity="0.4"/><circle cx="49" cy="275" r="1.5" fill="#ffffff" opacity="0.75"/><circle cx="96" cy="87" r="1.0" fill="#ffffff" opacity="0.77"/><circle cx="218" cy="275" r="1.7" fill="#ffffff" opacity="0.25"/><circle cx="183" cy="75" r="1.0" fill="#ffffff" opacity="0.33"/><circle cx="34" cy="196" r="1.5" fill="#ffffff" opacity="0.68"/><circle cx="165" cy="139" r="1.9" fill="#ffffff" opacity="0.42"/><circle cx="143" cy="190" r="1.4" fill="#ffffff" opacity="0.69"/><circle cx="59" cy="111" r="1.6" fill="#ffffff" opacity="0.4"/><circle cx="89" cy="147" r="1.8" fill="#ffffff" opacity="0.55"/><circle cx="114" cy="23" r="1.4" fill="#ffffff" opacity="0.54"/></g>
  <circle cx="160" cy="160" r="104" fill="#020617" opacity=".38"/>
  <g filter="url(#glow)"><path d="M87 163 C102 87 218 87 233 163 C217 239 103 239 87 163Z" fill="none" stroke="url(#g)" stroke-width="7" opacity=".7"/></g>
  <text x="160" y="175" text-anchor="middle" font-family="Arial, Helvetica, sans-serif" font-size="64" font-weight="800" fill="#f8fbff" filter="url(#glow)">CA</text>
  <text x="160" y="64" text-anchor="middle" font-family="Arial, Helvetica, sans-serif" font-size="36" font-weight="800" fill="#facc15" filter="url(#glow)">?</text>
  <text x="160" y="270" text-anchor="middle" font-family="Arial, Helvetica, sans-serif" font-size="13" font-weight="700" fill="#dbeafe">Modo Aventura</text>
</svg>