<svg xmlns="http://www.w3.org/2000/svg" width="320" height="320" viewBox="0 0 320 320" role="img" aria-label="Viagens Completas 100">
  <defs>
    <radialGradient id="bg" cx="50%" cy="36%" r="72%">
      <stop offset="0%" stop-color="#e0f2fe" stop-opacity=".42"/>
      <stop offset="45%" stop-color="#0891b2" stop-opacity=".88"/>
      <stop offset="100%" stop-color="#020617"/>
    </radialGradient>
    <linearGradient id="g" x1="58" y1="42" x2="262" y2="276" gradientUnits="userSpaceOnUse">
      <stop offset="0%" stop-color="#ffffff"/>
      <stop offset="42%" stop-color="#e0f2fe"/>
      <stop offset="100%" stop-color="#7dd3fc"/>
    </linearGradient>
    <filter id="glow" x="-40%" y="-40%" width="180%" height="180%">
      <feGaussianBlur stdDeviation="5" result="blur"/>
      <feMerge>
        <feMergeNode in="blur"/>
        <feMergeNode in="SourceGraphic"/>
      </feMerge>
    </filter>
  </defs>
  <rect width="320" height="320" rx="52" fill="#020617"/>
  <rect x="10" y="10" width="300" height="300" rx="44" fill="url(#bg)" stroke="url(#g)" stroke-width="3"/>
  <g><circle cx="50" cy="298" r="1.2" fill="#ffffff" opacity="0.62"/><circle cx="75" cy="159" r="1.7" fill="#ffffff" opacity="0.69"/><circle cx="240" cy="32" r="1.7" fill="#ffffff" opacity="0.33"/><circle cx="140" cy="136" r="1.6" fill="#ffffff" opacity="0.6"/><circle cx="22" cy="174" r="1.1" fill="#ffffff" opacity="0.64"/><circle cx="103" cy="270" r="1.6" fill="#ffffff" opacity="0.48"/><circle cx="228" cy="201" r="1.0" fill="#ffffff" opacity="0.45"/><circle cx="260" cy="241" r="1.4" fill="#ffffff" opacity="0.65"/><circle cx="272" cy="168" r="1.0" fill="#ffffff" opacity="0.76"/><circle cx="251" cy="104" r="1.7" fill="#ffffff" opacity="0.29"/><circle cx="199" cy="251" r="1.8" fill="#ffffff" opacity="0.33"/><circle cx="302" cy="265" r="1.3" fill="#ffffff" opacity="0.58"/><circle cx="219" cy="32" r="0.9" fill="#ffffff" opacity="0.35"/><circle cx="291" cy="244" r="1.7" fill="#ffffff" opacity="0.45"/><circle cx="197" cy="236" r="0.9" fill="#ffffff" opacity="0.57"/><circle cx="62" cy="206" r="1.6" fill="#ffffff" opacity="0.33"/><circle cx="200" cy="79" r="1.5" fill="#ffffff" opacity="0.55"/><circle cx="172" cy="28" r="2.0" fill="#ffffff" opacity="0.41"/><circle cx="65" cy="172" r="1.0" fill="#ffffff" opacity="0.25"/><circle cx="177" cy="201" r="1.7" fill="#ffffff" opacity="0.69"/><circle cx="179" cy="166" r="1.3" fill="#ffffff" opacity="0.72"/><circle cx="64" cy="116" r="2.0" fill="#ffffff" opacity="0.73"/></g>
  <circle cx="160" cy="160" r="104" fill="#020617" opacity=".38"/>
  <g filter="url(#glow)"><path d="M87 163 C102 87 218 87 233 163 C217 239 103 239 87 163Z" fill="none" stroke="url(#g)" stroke-width="7" opacity=".7"/></g>
  <text x="160" y="175" text-anchor="middle" font-family="Arial, Helvetica, sans-serif" font-size="64" font-weight="800" fill="#f8fbff" filter="url(#glow)">VC</text>
  <text x="160" y="64" text-anchor="middle" font-family="Arial, Helvetica, sans-serif" font-size="36" font-weight="800" fill="#e0f2fe" filter="url(#glow)">?</text>
  <text x="160" y="270" text-anchor="middle" font-family="Arial, Helvetica, sans-serif" font-size="13" font-weight="700" fill="#dbeafe">Modo Aventura</text>
</svg>