<svg xmlns="http://www.w3.org/2000/svg" width="320" height="320" viewBox="0 0 320 320" role="img" aria-label="Chamado Aceito 50x">
  <defs>
    <radialGradient id="bg" cx="50%" cy="36%" r="72%">
      <stop offset="0%" stop-color="#e0f2fe" stop-opacity=".42"/>
      <stop offset="45%" stop-color="#0891b2" stop-opacity=".88"/>
      <stop offset="100%" stop-color="#020617"/>
    </radialGradient>
    <linearGradient id="g" x1="58" y1="42" x2="262" y2="276" gradientUnits="userSpaceOnUse">
      <stop offset="0%" stop-color="#ffffff"/>
      <stop offset="42%" stop-color="#e0f2fe"/>
      <stop offset="100%" stop-color="#7dd3fc"/>
    </linearGradient>
    <filter id="glow" x="-40%" y="-40%" width="180%" height="180%">
      <feGaussianBlur stdDeviation="5" result="blur"/>
      <feMerge>
        <feMergeNode in="blur"/>
        <feMergeNode in="SourceGraphic"/>
      </feMerge>
    </filter>
  </defs>
  <rect width="320" height="320" rx="52" fill="#020617"/>
  <rect x="10" y="10" width="300" height="300" rx="44" fill="url(#bg)" stroke="url(#g)" stroke-width="3"/>
  <g><circle cx="45" cy="209" r="1.9" fill="#ffffff" opacity="0.68"/><circle cx="182" cy="217" r="1.9" fill="#ffffff" opacity="0.33"/><circle cx="111" cy="184" r="1.3" fill="#ffffff" opacity="0.74"/><circle cx="260" cy="291" r="1.0" fill="#ffffff" opacity="0.52"/><circle cx="291" cy="248" r="1.5" fill="#ffffff" opacity="0.65"/><circle cx="195" cy="120" r="1.8" fill="#ffffff" opacity="0.27"/><circle cx="88" cy="87" r="1.2" fill="#ffffff" opacity="0.35"/><circle cx="128" cy="150" r="1.3" fill="#ffffff" opacity="0.47"/><circle cx="294" cy="137" r="0.9" fill="#ffffff" opacity="0.43"/><circle cx="174" cy="93" r="1.4" fill="#ffffff" opacity="0.44"/><circle cx="263" cy="213" r="1.9" fill="#ffffff" opacity="0.69"/><circle cx="130" cy="295" r="1.0" fill="#ffffff" opacity="0.49"/><circle cx="298" cy="283" r="1.4" fill="#ffffff" opacity="0.24"/><circle cx="41" cy="251" r="1.0" fill="#ffffff" opacity="0.48"/><circle cx="49" cy="228" r="1.8" fill="#ffffff" opacity="0.49"/><circle cx="263" cy="84" r="1.9" fill="#ffffff" opacity="0.54"/><circle cx="64" cy="32" r="1.9" fill="#ffffff" opacity="0.36"/><circle cx="38" cy="187" r="1.4" fill="#ffffff" opacity="0.39"/><circle cx="58" cy="152" r="2.0" fill="#ffffff" opacity="0.74"/><circle cx="183" cy="40" r="0.8" fill="#ffffff" opacity="0.53"/><circle cx="196" cy="227" r="2.1" fill="#ffffff" opacity="0.68"/><circle cx="86" cy="110" r="1.9" fill="#ffffff" opacity="0.72"/></g>
  <circle cx="160" cy="160" r="104" fill="#020617" opacity=".38"/>
  <g filter="url(#glow)"><path d="M87 163 C102 87 218 87 233 163 C217 239 103 239 87 163Z" fill="none" stroke="url(#g)" stroke-width="7" opacity=".7"/></g>
  <text x="160" y="175" text-anchor="middle" font-family="Arial, Helvetica, sans-serif" font-size="64" font-weight="800" fill="#f8fbff" filter="url(#glow)">CA</text>
  <text x="160" y="64" text-anchor="middle" font-family="Arial, Helvetica, sans-serif" font-size="36" font-weight="800" fill="#e0f2fe" filter="url(#glow)">?</text>
  <text x="160" y="270" text-anchor="middle" font-family="Arial, Helvetica, sans-serif" font-size="13" font-weight="700" fill="#dbeafe">Modo Aventura</text>
</svg>