<svg xmlns="http://www.w3.org/2000/svg" width="320" height="320" viewBox="0 0 320 320" role="img" aria-label="Bibliotecário Espacial">
  <defs>
    <radialGradient id="bg" cx="50%" cy="36%" r="72%">
      <stop offset="0%" stop-color="#e0f2fe" stop-opacity=".42"/>
      <stop offset="45%" stop-color="#0891b2" stop-opacity=".88"/>
      <stop offset="100%" stop-color="#020617"/>
    </radialGradient>
    <linearGradient id="g" x1="58" y1="42" x2="262" y2="276" gradientUnits="userSpaceOnUse">
      <stop offset="0%" stop-color="#ffffff"/>
      <stop offset="42%" stop-color="#e0f2fe"/>
      <stop offset="100%" stop-color="#7dd3fc"/>
    </linearGradient>
    <filter id="glow" x="-40%" y="-40%" width="180%" height="180%">
      <feGaussianBlur stdDeviation="5" result="blur"/>
      <feMerge>
        <feMergeNode in="blur"/>
        <feMergeNode in="SourceGraphic"/>
      </feMerge>
    </filter>
  </defs>
  <rect width="320" height="320" rx="52" fill="#020617"/>
  <rect x="10" y="10" width="300" height="300" rx="44" fill="url(#bg)" stroke="url(#g)" stroke-width="3"/>
  <g><circle cx="44" cy="57" r="1.6" fill="#ffffff" opacity="0.52"/><circle cx="220" cy="144" r="2.1" fill="#ffffff" opacity="0.75"/><circle cx="167" cy="303" r="1.6" fill="#ffffff" opacity="0.33"/><circle cx="49" cy="80" r="1.7" fill="#ffffff" opacity="0.35"/><circle cx="191" cy="95" r="1.9" fill="#ffffff" opacity="0.34"/><circle cx="43" cy="236" r="1.2" fill="#ffffff" opacity="0.46"/><circle cx="204" cy="114" r="1.1" fill="#ffffff" opacity="0.66"/><circle cx="208" cy="74" r="2.1" fill="#ffffff" opacity="0.62"/><circle cx="175" cy="266" r="1.1" fill="#ffffff" opacity="0.38"/><circle cx="203" cy="242" r="1.4" fill="#ffffff" opacity="0.52"/><circle cx="18" cy="206" r="1.3" fill="#ffffff" opacity="0.27"/><circle cx="190" cy="222" r="2.0" fill="#ffffff" opacity="0.36"/><circle cx="232" cy="167" r="1.1" fill="#ffffff" opacity="0.54"/><circle cx="69" cy="87" r="1.1" fill="#ffffff" opacity="0.59"/><circle cx="244" cy="65" r="1.9" fill="#ffffff" opacity="0.55"/><circle cx="277" cy="229" r="2.0" fill="#ffffff" opacity="0.35"/><circle cx="222" cy="191" r="1.0" fill="#ffffff" opacity="0.48"/><circle cx="128" cy="301" r="0.9" fill="#ffffff" opacity="0.69"/><circle cx="38" cy="290" r="1.4" fill="#ffffff" opacity="0.51"/><circle cx="120" cy="129" r="1.3" fill="#ffffff" opacity="0.32"/><circle cx="93" cy="171" r="0.9" fill="#ffffff" opacity="0.55"/><circle cx="55" cy="203" r="1.8" fill="#ffffff" opacity="0.73"/></g>
  <circle cx="160" cy="160" r="104" fill="#020617" opacity=".38"/>
  <g filter="url(#glow)"><circle cx="160" cy="160" r="78" fill="none" stroke="url(#g)" stroke-width="7" opacity=".72"/></g>
  <text x="160" y="175" text-anchor="middle" font-family="Arial, Helvetica, sans-serif" font-size="64" font-weight="800" fill="#f8fbff" filter="url(#glow)">BE</text>
  <text x="160" y="64" text-anchor="middle" font-family="Arial, Helvetica, sans-serif" font-size="36" font-weight="800" fill="#e0f2fe" filter="url(#glow)">✧</text>
  <text x="160" y="270" text-anchor="middle" font-family="Arial, Helvetica, sans-serif" font-size="13" font-weight="700" fill="#dbeafe">Conhecimento Espacial</text>
</svg>