<svg xmlns="http://www.w3.org/2000/svg" width="320" height="320" viewBox="0 0 320 320" role="img" aria-label="Companheiro da T.A.R.D.I.S.">
  <defs>
    <radialGradient id="bg" cx="50%" cy="36%" r="72%">
      <stop offset="0%" stop-color="#a78bfa" stop-opacity=".42"/>
      <stop offset="45%" stop-color="#312e81" stop-opacity=".88"/>
      <stop offset="100%" stop-color="#020617"/>
    </radialGradient>
    <linearGradient id="g" x1="58" y1="42" x2="262" y2="276" gradientUnits="userSpaceOnUse">
      <stop offset="0%" stop-color="#ffffff"/>
      <stop offset="42%" stop-color="#a78bfa"/>
      <stop offset="100%" stop-color="#7dd3fc"/>
    </linearGradient>
    <filter id="glow" x="-40%" y="-40%" width="180%" height="180%">
      <feGaussianBlur stdDeviation="5" result="blur"/>
      <feMerge>
        <feMergeNode in="blur"/>
        <feMergeNode in="SourceGraphic"/>
      </feMerge>
    </filter>
  </defs>
  <rect width="320" height="320" rx="52" fill="#020617"/>
  <rect x="10" y="10" width="300" height="300" rx="44" fill="url(#bg)" stroke="url(#g)" stroke-width="3"/>
  <g><circle cx="65" cy="57" r="1.7" fill="#ffffff" opacity="0.52"/><circle cx="145" cy="286" r="1.0" fill="#ffffff" opacity="0.74"/><circle cx="232" cy="293" r="1.4" fill="#ffffff" opacity="0.63"/><circle cx="220" cy="296" r="0.9" fill="#ffffff" opacity="0.7"/><circle cx="26" cy="213" r="1.9" fill="#ffffff" opacity="0.59"/><circle cx="101" cy="230" r="1.7" fill="#ffffff" opacity="0.45"/><circle cx="26" cy="247" r="1.7" fill="#ffffff" opacity="0.23"/><circle cx="180" cy="298" r="2.0" fill="#ffffff" opacity="0.52"/><circle cx="273" cy="124" r="1.3" fill="#ffffff" opacity="0.59"/><circle cx="238" cy="172" r="2.0" fill="#ffffff" opacity="0.49"/><circle cx="290" cy="230" r="1.8" fill="#ffffff" opacity="0.41"/><circle cx="139" cy="165" r="1.9" fill="#ffffff" opacity="0.32"/><circle cx="197" cy="294" r="1.4" fill="#ffffff" opacity="0.24"/><circle cx="250" cy="169" r="2.1" fill="#ffffff" opacity="0.46"/><circle cx="185" cy="281" r="1.0" fill="#ffffff" opacity="0.3"/><circle cx="240" cy="211" r="1.4" fill="#ffffff" opacity="0.41"/><circle cx="108" cy="91" r="1.3" fill="#ffffff" opacity="0.42"/><circle cx="130" cy="129" r="2.0" fill="#ffffff" opacity="0.34"/><circle cx="280" cy="155" r="1.7" fill="#ffffff" opacity="0.5"/><circle cx="283" cy="226" r="0.9" fill="#ffffff" opacity="0.37"/><circle cx="91" cy="29" r="1.5" fill="#ffffff" opacity="0.49"/><circle cx="274" cy="277" r="1.9" fill="#ffffff" opacity="0.75"/></g>
  <circle cx="160" cy="160" r="104" fill="#020617" opacity=".38"/>
  <g filter="url(#glow)"><circle cx="160" cy="160" r="78" fill="none" stroke="url(#g)" stroke-width="7" opacity=".72"/></g>
  <text x="160" y="175" text-anchor="middle" font-family="Arial, Helvetica, sans-serif" font-size="64" font-weight="800" fill="#f8fbff" filter="url(#glow)">CT</text>
  <text x="160" y="64" text-anchor="middle" font-family="Arial, Helvetica, sans-serif" font-size="36" font-weight="800" fill="#a78bfa" filter="url(#glow)">◆</text>
  <text x="160" y="270" text-anchor="middle" font-family="Arial, Helvetica, sans-serif" font-size="13" font-weight="700" fill="#dbeafe">Desafios Especiais</text>
</svg>