<svg xmlns="http://www.w3.org/2000/svg" width="320" height="320" viewBox="0 0 320 320" role="img" aria-label="Roteiro Celeste 2">
  <defs>
    <radialGradient id="bg" cx="50%" cy="36%" r="72%">
      <stop offset="0%" stop-color="#38bdf8" stop-opacity=".42"/>
      <stop offset="45%" stop-color="#0f2a5f" stop-opacity=".88"/>
      <stop offset="100%" stop-color="#020617"/>
    </radialGradient>
    <linearGradient id="g" x1="58" y1="42" x2="262" y2="276" gradientUnits="userSpaceOnUse">
      <stop offset="0%" stop-color="#ffffff"/>
      <stop offset="42%" stop-color="#38bdf8"/>
      <stop offset="100%" stop-color="#7dd3fc"/>
    </linearGradient>
    <filter id="glow" x="-40%" y="-40%" width="180%" height="180%">
      <feGaussianBlur stdDeviation="5" result="blur"/>
      <feMerge>
        <feMergeNode in="blur"/>
        <feMergeNode in="SourceGraphic"/>
      </feMerge>
    </filter>
  </defs>
  <rect width="320" height="320" rx="52" fill="#020617"/>
  <rect x="10" y="10" width="300" height="300" rx="44" fill="url(#bg)" stroke="url(#g)" stroke-width="3"/>
  <g><circle cx="20" cy="228" r="1.0" fill="#ffffff" opacity="0.28"/><circle cx="150" cy="178" r="1.8" fill="#ffffff" opacity="0.77"/><circle cx="49" cy="245" r="1.0" fill="#ffffff" opacity="0.34"/><circle cx="188" cy="215" r="2.0" fill="#ffffff" opacity="0.37"/><circle cx="102" cy="190" r="1.9" fill="#ffffff" opacity="0.54"/><circle cx="272" cy="27" r="1.6" fill="#ffffff" opacity="0.46"/><circle cx="224" cy="180" r="1.6" fill="#ffffff" opacity="0.72"/><circle cx="195" cy="278" r="1.0" fill="#ffffff" opacity="0.67"/><circle cx="71" cy="50" r="1.3" fill="#ffffff" opacity="0.3"/><circle cx="190" cy="172" r="1.3" fill="#ffffff" opacity="0.46"/><circle cx="76" cy="51" r="1.0" fill="#ffffff" opacity="0.55"/><circle cx="106" cy="211" r="1.2" fill="#ffffff" opacity="0.54"/><circle cx="183" cy="19" r="1.6" fill="#ffffff" opacity="0.28"/><circle cx="102" cy="41" r="1.8" fill="#ffffff" opacity="0.61"/><circle cx="60" cy="88" r="1.9" fill="#ffffff" opacity="0.54"/><circle cx="171" cy="16" r="1.6" fill="#ffffff" opacity="0.65"/><circle cx="242" cy="240" r="2.0" fill="#ffffff" opacity="0.68"/><circle cx="229" cy="160" r="1.7" fill="#ffffff" opacity="0.75"/><circle cx="26" cy="277" r="1.2" fill="#ffffff" opacity="0.75"/><circle cx="279" cy="17" r="1.4" fill="#ffffff" opacity="0.71"/><circle cx="284" cy="222" r="1.7" fill="#ffffff" opacity="0.3"/><circle cx="148" cy="240" r="2.1" fill="#ffffff" opacity="0.31"/></g>
  <circle cx="160" cy="160" r="104" fill="#020617" opacity=".38"/>
  <g filter="url(#glow)"><ellipse cx="160" cy="164" rx="82" ry="24" fill="none" stroke="url(#g)" stroke-width="7" opacity=".75" transform="rotate(-18 160 164)"/></g>
  <text x="160" y="175" text-anchor="middle" font-family="Arial, Helvetica, sans-serif" font-size="64" font-weight="800" fill="#f8fbff" filter="url(#glow)">RC</text>
  <text x="160" y="64" text-anchor="middle" font-family="Arial, Helvetica, sans-serif" font-size="36" font-weight="800" fill="#38bdf8" filter="url(#glow)">◉</text>
  <text x="160" y="270" text-anchor="middle" font-family="Arial, Helvetica, sans-serif" font-size="13" font-weight="700" fill="#dbeafe">Exploração Planetária</text>
</svg>