<svg xmlns="http://www.w3.org/2000/svg" width="320" height="320" viewBox="0 0 320 320" role="img" aria-label="Roteiro Celeste 5">
  <defs>
    <radialGradient id="bg" cx="50%" cy="36%" r="72%">
      <stop offset="0%" stop-color="#a78bfa" stop-opacity=".42"/>
      <stop offset="45%" stop-color="#312e81" stop-opacity=".88"/>
      <stop offset="100%" stop-color="#020617"/>
    </radialGradient>
    <linearGradient id="g" x1="58" y1="42" x2="262" y2="276" gradientUnits="userSpaceOnUse">
      <stop offset="0%" stop-color="#ffffff"/>
      <stop offset="42%" stop-color="#a78bfa"/>
      <stop offset="100%" stop-color="#7dd3fc"/>
    </linearGradient>
    <filter id="glow" x="-40%" y="-40%" width="180%" height="180%">
      <feGaussianBlur stdDeviation="5" result="blur"/>
      <feMerge>
        <feMergeNode in="blur"/>
        <feMergeNode in="SourceGraphic"/>
      </feMerge>
    </filter>
  </defs>
  <rect width="320" height="320" rx="52" fill="#020617"/>
  <rect x="10" y="10" width="300" height="300" rx="44" fill="url(#bg)" stroke="url(#g)" stroke-width="3"/>
  <g><circle cx="209" cy="90" r="0.9" fill="#ffffff" opacity="0.75"/><circle cx="209" cy="215" r="1.3" fill="#ffffff" opacity="0.44"/><circle cx="245" cy="277" r="1.8" fill="#ffffff" opacity="0.76"/><circle cx="251" cy="137" r="1.2" fill="#ffffff" opacity="0.37"/><circle cx="164" cy="138" r="1.9" fill="#ffffff" opacity="0.49"/><circle cx="193" cy="113" r="1.5" fill="#ffffff" opacity="0.49"/><circle cx="143" cy="200" r="2.0" fill="#ffffff" opacity="0.52"/><circle cx="194" cy="289" r="1.8" fill="#ffffff" opacity="0.39"/><circle cx="121" cy="47" r="0.8" fill="#ffffff" opacity="0.51"/><circle cx="263" cy="68" r="1.5" fill="#ffffff" opacity="0.3"/><circle cx="139" cy="214" r="1.7" fill="#ffffff" opacity="0.31"/><circle cx="248" cy="164" r="1.1" fill="#ffffff" opacity="0.29"/><circle cx="45" cy="42" r="0.8" fill="#ffffff" opacity="0.69"/><circle cx="126" cy="225" r="1.3" fill="#ffffff" opacity="0.33"/><circle cx="176" cy="238" r="1.7" fill="#ffffff" opacity="0.66"/><circle cx="298" cy="163" r="1.4" fill="#ffffff" opacity="0.71"/><circle cx="117" cy="297" r="1.6" fill="#ffffff" opacity="0.26"/><circle cx="120" cy="156" r="0.8" fill="#ffffff" opacity="0.46"/><circle cx="79" cy="155" r="1.2" fill="#ffffff" opacity="0.45"/><circle cx="120" cy="211" r="1.8" fill="#ffffff" opacity="0.75"/><circle cx="26" cy="179" r="1.9" fill="#ffffff" opacity="0.3"/><circle cx="120" cy="150" r="1.7" fill="#ffffff" opacity="0.32"/></g>
  <circle cx="160" cy="160" r="104" fill="#020617" opacity=".38"/>
  <g filter="url(#glow)"><ellipse cx="160" cy="164" rx="82" ry="24" fill="none" stroke="url(#g)" stroke-width="7" opacity=".75" transform="rotate(-18 160 164)"/></g>
  <text x="160" y="175" text-anchor="middle" font-family="Arial, Helvetica, sans-serif" font-size="64" font-weight="800" fill="#f8fbff" filter="url(#glow)">RC</text>
  <text x="160" y="64" text-anchor="middle" font-family="Arial, Helvetica, sans-serif" font-size="36" font-weight="800" fill="#a78bfa" filter="url(#glow)">◉</text>
  <text x="160" y="270" text-anchor="middle" font-family="Arial, Helvetica, sans-serif" font-size="13" font-weight="700" fill="#dbeafe">Exploração Planetária</text>
</svg>