<svg xmlns="http://www.w3.org/2000/svg" width="320" height="320" viewBox="0 0 320 320" role="img" aria-label="Roteiro Celeste 9">
  <defs>
    <radialGradient id="bg" cx="50%" cy="36%" r="72%">
      <stop offset="0%" stop-color="#e0f2fe" stop-opacity=".42"/>
      <stop offset="45%" stop-color="#0891b2" stop-opacity=".88"/>
      <stop offset="100%" stop-color="#020617"/>
    </radialGradient>
    <linearGradient id="g" x1="58" y1="42" x2="262" y2="276" gradientUnits="userSpaceOnUse">
      <stop offset="0%" stop-color="#ffffff"/>
      <stop offset="42%" stop-color="#e0f2fe"/>
      <stop offset="100%" stop-color="#7dd3fc"/>
    </linearGradient>
    <filter id="glow" x="-40%" y="-40%" width="180%" height="180%">
      <feGaussianBlur stdDeviation="5" result="blur"/>
      <feMerge>
        <feMergeNode in="blur"/>
        <feMergeNode in="SourceGraphic"/>
      </feMerge>
    </filter>
  </defs>
  <rect width="320" height="320" rx="52" fill="#020617"/>
  <rect x="10" y="10" width="300" height="300" rx="44" fill="url(#bg)" stroke="url(#g)" stroke-width="3"/>
  <g><circle cx="109" cy="23" r="1.9" fill="#ffffff" opacity="0.3"/><circle cx="49" cy="164" r="0.9" fill="#ffffff" opacity="0.75"/><circle cx="249" cy="220" r="2.1" fill="#ffffff" opacity="0.27"/><circle cx="135" cy="63" r="1.1" fill="#ffffff" opacity="0.33"/><circle cx="241" cy="102" r="1.9" fill="#ffffff" opacity="0.6"/><circle cx="23" cy="218" r="2.0" fill="#ffffff" opacity="0.36"/><circle cx="93" cy="233" r="2.1" fill="#ffffff" opacity="0.68"/><circle cx="290" cy="258" r="2.0" fill="#ffffff" opacity="0.64"/><circle cx="228" cy="163" r="1.1" fill="#ffffff" opacity="0.29"/><circle cx="95" cy="35" r="1.8" fill="#ffffff" opacity="0.32"/><circle cx="202" cy="290" r="0.9" fill="#ffffff" opacity="0.65"/><circle cx="25" cy="165" r="2.0" fill="#ffffff" opacity="0.39"/><circle cx="86" cy="56" r="1.3" fill="#ffffff" opacity="0.35"/><circle cx="255" cy="196" r="2.0" fill="#ffffff" opacity="0.49"/><circle cx="170" cy="289" r="1.0" fill="#ffffff" opacity="0.31"/><circle cx="228" cy="267" r="2.0" fill="#ffffff" opacity="0.73"/><circle cx="204" cy="267" r="1.4" fill="#ffffff" opacity="0.64"/><circle cx="56" cy="52" r="1.5" fill="#ffffff" opacity="0.3"/><circle cx="198" cy="198" r="2.0" fill="#ffffff" opacity="0.53"/><circle cx="25" cy="226" r="1.5" fill="#ffffff" opacity="0.76"/><circle cx="83" cy="115" r="2.0" fill="#ffffff" opacity="0.69"/><circle cx="303" cy="59" r="1.2" fill="#ffffff" opacity="0.49"/></g>
  <circle cx="160" cy="160" r="104" fill="#020617" opacity=".38"/>
  <g filter="url(#glow)"><ellipse cx="160" cy="164" rx="82" ry="24" fill="none" stroke="url(#g)" stroke-width="7" opacity=".75" transform="rotate(-18 160 164)"/></g>
  <text x="160" y="175" text-anchor="middle" font-family="Arial, Helvetica, sans-serif" font-size="64" font-weight="800" fill="#f8fbff" filter="url(#glow)">RC</text>
  <text x="160" y="64" text-anchor="middle" font-family="Arial, Helvetica, sans-serif" font-size="36" font-weight="800" fill="#e0f2fe" filter="url(#glow)">◉</text>
  <text x="160" y="270" text-anchor="middle" font-family="Arial, Helvetica, sans-serif" font-size="13" font-weight="700" fill="#dbeafe">Exploração Planetária</text>
</svg>