<svg xmlns="http://www.w3.org/2000/svg" viewBox="0 0 256 256" role="img" aria-label="Achievement badge">
  <defs>
    <radialGradient id="g" cx="50%" cy="25%" r="75%">
      <stop offset="0%" stop-color="#818cf8" stop-opacity="0.38"/>
      <stop offset="48%" stop-color="#1e1b4b" stop-opacity="0.96"/>
      <stop offset="100%" stop-color="#020617"/>
    </radialGradient>
    <filter id="glow" x="-30%" y="-30%" width="160%" height="160%">
      <feGaussianBlur stdDeviation="4" result="blur"/>
      <feMerge><feMergeNode in="blur"/><feMergeNode in="SourceGraphic"/></feMerge>
    </filter>
  </defs>
  <rect width="256" height="256" rx="54" fill="url(#g)"/>
  <path d="M42 36h172v184H42z" rx="32" fill="none" stroke="#818cf8" stroke-opacity=".18" stroke-width="5"/>
  <circle cx="58" cy="58" r="3" fill="#e0f2fe" opacity=".75"/>
  <circle cx="206" cy="72" r="2.5" fill="#e0f2fe" opacity=".65"/>
  <circle cx="198" cy="190" r="3" fill="#e0f2fe" opacity=".5"/>
  <g filter="url(#glow)"><path d="M64 78h56c12 0 20 8 20 20v94c-6-7-14-10-24-10H64z" fill="#818cf8" opacity=".28" stroke="#818cf8" stroke-width="8"/><path d="M140 98c0-12 8-20 20-20h32v104h-36c-8 0-14 3-16 10z" fill="#818cf8" opacity=".12" stroke="#818cf8" stroke-width="8"/><path d="M92 112h26M92 138h32M160 112h14M160 138h18" stroke="#e0f2fe" stroke-width="7" stroke-linecap="round"/></g>
</svg>
