<svg xmlns="http://www.w3.org/2000/svg" width="320" height="320" viewBox="0 0 320 320" role="img" aria-label="Curioso do Cosmos">
  <defs>
    <radialGradient id="bg" cx="50%" cy="36%" r="72%">
      <stop offset="0%" stop-color="#38bdf8" stop-opacity=".42"/>
      <stop offset="45%" stop-color="#0f2a5f" stop-opacity=".88"/>
      <stop offset="100%" stop-color="#020617"/>
    </radialGradient>
    <linearGradient id="g" x1="58" y1="42" x2="262" y2="276" gradientUnits="userSpaceOnUse">
      <stop offset="0%" stop-color="#ffffff"/>
      <stop offset="42%" stop-color="#38bdf8"/>
      <stop offset="100%" stop-color="#7dd3fc"/>
    </linearGradient>
    <filter id="glow" x="-40%" y="-40%" width="180%" height="180%">
      <feGaussianBlur stdDeviation="5" result="blur"/>
      <feMerge>
        <feMergeNode in="blur"/>
        <feMergeNode in="SourceGraphic"/>
      </feMerge>
    </filter>
  </defs>
  <rect width="320" height="320" rx="52" fill="#020617"/>
  <rect x="10" y="10" width="300" height="300" rx="44" fill="url(#bg)" stroke="url(#g)" stroke-width="3"/>
  <g><circle cx="54" cy="169" r="1.6" fill="#ffffff" opacity="0.59"/><circle cx="295" cy="258" r="1.9" fill="#ffffff" opacity="0.34"/><circle cx="297" cy="168" r="0.9" fill="#ffffff" opacity="0.75"/><circle cx="137" cy="201" r="1.6" fill="#ffffff" opacity="0.44"/><circle cx="233" cy="180" r="0.9" fill="#ffffff" opacity="0.34"/><circle cx="90" cy="205" r="1.0" fill="#ffffff" opacity="0.6"/><circle cx="23" cy="35" r="0.9" fill="#ffffff" opacity="0.36"/><circle cx="183" cy="105" r="1.8" fill="#ffffff" opacity="0.73"/><circle cx="257" cy="73" r="2.0" fill="#ffffff" opacity="0.49"/><circle cx="65" cy="54" r="1.4" fill="#ffffff" opacity="0.62"/><circle cx="190" cy="63" r="1.7" fill="#ffffff" opacity="0.74"/><circle cx="292" cy="26" r="1.0" fill="#ffffff" opacity="0.23"/><circle cx="64" cy="96" r="1.4" fill="#ffffff" opacity="0.35"/><circle cx="128" cy="88" r="2.1" fill="#ffffff" opacity="0.67"/><circle cx="158" cy="48" r="1.5" fill="#ffffff" opacity="0.42"/><circle cx="120" cy="231" r="0.8" fill="#ffffff" opacity="0.57"/><circle cx="143" cy="170" r="1.7" fill="#ffffff" opacity="0.53"/><circle cx="24" cy="124" r="1.9" fill="#ffffff" opacity="0.65"/><circle cx="217" cy="116" r="1.3" fill="#ffffff" opacity="0.4"/><circle cx="234" cy="190" r="1.9" fill="#ffffff" opacity="0.5"/><circle cx="225" cy="303" r="2.0" fill="#ffffff" opacity="0.67"/><circle cx="243" cy="87" r="2.0" fill="#ffffff" opacity="0.54"/></g>
  <circle cx="160" cy="160" r="104" fill="#020617" opacity=".38"/>
  <g filter="url(#glow)"><circle cx="160" cy="160" r="78" fill="none" stroke="url(#g)" stroke-width="7" opacity=".72"/></g>
  <text x="160" y="175" text-anchor="middle" font-family="Arial, Helvetica, sans-serif" font-size="64" font-weight="800" fill="#f8fbff" filter="url(#glow)">CC</text>
  <text x="160" y="64" text-anchor="middle" font-family="Arial, Helvetica, sans-serif" font-size="36" font-weight="800" fill="#38bdf8" filter="url(#glow)">✧</text>
  <text x="160" y="270" text-anchor="middle" font-family="Arial, Helvetica, sans-serif" font-size="13" font-weight="700" fill="#dbeafe">Conhecimento Espacial</text>
</svg>