<svg xmlns="http://www.w3.org/2000/svg" width="320" height="320" viewBox="0 0 320 320" role="img" aria-label="Desempenho 100%">
  <defs>
    <radialGradient id="bg" cx="50%" cy="36%" r="72%">
      <stop offset="0%" stop-color="#e0f2fe" stop-opacity=".42"/>
      <stop offset="45%" stop-color="#0891b2" stop-opacity=".88"/>
      <stop offset="100%" stop-color="#020617"/>
    </radialGradient>
    <linearGradient id="g" x1="58" y1="42" x2="262" y2="276" gradientUnits="userSpaceOnUse">
      <stop offset="0%" stop-color="#ffffff"/>
      <stop offset="42%" stop-color="#e0f2fe"/>
      <stop offset="100%" stop-color="#7dd3fc"/>
    </linearGradient>
    <filter id="glow" x="-40%" y="-40%" width="180%" height="180%">
      <feGaussianBlur stdDeviation="5" result="blur"/>
      <feMerge>
        <feMergeNode in="blur"/>
        <feMergeNode in="SourceGraphic"/>
      </feMerge>
    </filter>
  </defs>
  <rect width="320" height="320" rx="52" fill="#020617"/>
  <rect x="10" y="10" width="300" height="300" rx="44" fill="url(#bg)" stroke="url(#g)" stroke-width="3"/>
  <g><circle cx="224" cy="57" r="1.7" fill="#ffffff" opacity="0.46"/><circle cx="210" cy="137" r="1.2" fill="#ffffff" opacity="0.74"/><circle cx="300" cy="31" r="1.0" fill="#ffffff" opacity="0.51"/><circle cx="184" cy="209" r="0.9" fill="#ffffff" opacity="0.31"/><circle cx="90" cy="274" r="1.8" fill="#ffffff" opacity="0.34"/><circle cx="25" cy="106" r="1.3" fill="#ffffff" opacity="0.31"/><circle cx="126" cy="39" r="1.9" fill="#ffffff" opacity="0.61"/><circle cx="233" cy="233" r="1.7" fill="#ffffff" opacity="0.45"/><circle cx="156" cy="173" r="2.1" fill="#ffffff" opacity="0.23"/><circle cx="46" cy="117" r="1.2" fill="#ffffff" opacity="0.33"/><circle cx="34" cy="68" r="1.1" fill="#ffffff" opacity="0.29"/><circle cx="103" cy="251" r="1.4" fill="#ffffff" opacity="0.68"/><circle cx="292" cy="44" r="1.6" fill="#ffffff" opacity="0.37"/><circle cx="296" cy="189" r="0.9" fill="#ffffff" opacity="0.42"/><circle cx="123" cy="92" r="1.4" fill="#ffffff" opacity="0.61"/><circle cx="281" cy="238" r="1.5" fill="#ffffff" opacity="0.46"/><circle cx="95" cy="126" r="0.9" fill="#ffffff" opacity="0.29"/><circle cx="48" cy="164" r="1.9" fill="#ffffff" opacity="0.25"/><circle cx="163" cy="213" r="1.0" fill="#ffffff" opacity="0.26"/><circle cx="20" cy="50" r="1.5" fill="#ffffff" opacity="0.73"/><circle cx="164" cy="278" r="1.9" fill="#ffffff" opacity="0.75"/><circle cx="280" cy="61" r="1.8" fill="#ffffff" opacity="0.49"/></g>
  <circle cx="160" cy="160" r="104" fill="#020617" opacity=".38"/>
  <g filter="url(#glow)"><circle cx="160" cy="160" r="78" fill="none" stroke="url(#g)" stroke-width="7" opacity=".72"/></g>
  <text x="160" y="175" text-anchor="middle" font-family="Arial, Helvetica, sans-serif" font-size="64" font-weight="800" fill="#f8fbff" filter="url(#glow)">D1</text>
  <text x="160" y="64" text-anchor="middle" font-family="Arial, Helvetica, sans-serif" font-size="36" font-weight="800" fill="#e0f2fe" filter="url(#glow)">◆</text>
  <text x="160" y="270" text-anchor="middle" font-family="Arial, Helvetica, sans-serif" font-size="13" font-weight="700" fill="#dbeafe">Desafios Especiais</text>
</svg>