<svg xmlns="http://www.w3.org/2000/svg" width="320" height="320" viewBox="0 0 320 320" role="img" aria-label="Desempenho 70%">
  <defs>
    <radialGradient id="bg" cx="50%" cy="36%" r="72%">
      <stop offset="0%" stop-color="#34d399" stop-opacity=".42"/>
      <stop offset="45%" stop-color="#064e3b" stop-opacity=".88"/>
      <stop offset="100%" stop-color="#020617"/>
    </radialGradient>
    <linearGradient id="g" x1="58" y1="42" x2="262" y2="276" gradientUnits="userSpaceOnUse">
      <stop offset="0%" stop-color="#ffffff"/>
      <stop offset="42%" stop-color="#34d399"/>
      <stop offset="100%" stop-color="#7dd3fc"/>
    </linearGradient>
    <filter id="glow" x="-40%" y="-40%" width="180%" height="180%">
      <feGaussianBlur stdDeviation="5" result="blur"/>
      <feMerge>
        <feMergeNode in="blur"/>
        <feMergeNode in="SourceGraphic"/>
      </feMerge>
    </filter>
  </defs>
  <rect width="320" height="320" rx="52" fill="#020617"/>
  <rect x="10" y="10" width="300" height="300" rx="44" fill="url(#bg)" stroke="url(#g)" stroke-width="3"/>
  <g><circle cx="238" cy="192" r="1.2" fill="#ffffff" opacity="0.5"/><circle cx="159" cy="34" r="1.5" fill="#ffffff" opacity="0.28"/><circle cx="221" cy="178" r="1.7" fill="#ffffff" opacity="0.58"/><circle cx="191" cy="111" r="1.0" fill="#ffffff" opacity="0.75"/><circle cx="243" cy="127" r="1.9" fill="#ffffff" opacity="0.36"/><circle cx="294" cy="294" r="1.5" fill="#ffffff" opacity="0.31"/><circle cx="98" cy="296" r="1.7" fill="#ffffff" opacity="0.66"/><circle cx="153" cy="80" r="0.8" fill="#ffffff" opacity="0.5"/><circle cx="178" cy="217" r="1.4" fill="#ffffff" opacity="0.71"/><circle cx="32" cy="71" r="1.3" fill="#ffffff" opacity="0.52"/><circle cx="282" cy="47" r="1.5" fill="#ffffff" opacity="0.7"/><circle cx="249" cy="278" r="1.4" fill="#ffffff" opacity="0.6"/><circle cx="26" cy="295" r="2.1" fill="#ffffff" opacity="0.71"/><circle cx="164" cy="103" r="1.1" fill="#ffffff" opacity="0.36"/><circle cx="100" cy="173" r="1.4" fill="#ffffff" opacity="0.33"/><circle cx="187" cy="133" r="1.2" fill="#ffffff" opacity="0.42"/><circle cx="19" cy="62" r="1.3" fill="#ffffff" opacity="0.49"/><circle cx="71" cy="155" r="2.0" fill="#ffffff" opacity="0.65"/><circle cx="111" cy="90" r="1.5" fill="#ffffff" opacity="0.77"/><circle cx="181" cy="193" r="1.9" fill="#ffffff" opacity="0.41"/><circle cx="83" cy="89" r="2.0" fill="#ffffff" opacity="0.62"/><circle cx="151" cy="54" r="1.0" fill="#ffffff" opacity="0.33"/></g>
  <circle cx="160" cy="160" r="104" fill="#020617" opacity=".38"/>
  <g filter="url(#glow)"><circle cx="160" cy="160" r="78" fill="none" stroke="url(#g)" stroke-width="7" opacity=".72"/></g>
  <text x="160" y="175" text-anchor="middle" font-family="Arial, Helvetica, sans-serif" font-size="64" font-weight="800" fill="#f8fbff" filter="url(#glow)">D7</text>
  <text x="160" y="64" text-anchor="middle" font-family="Arial, Helvetica, sans-serif" font-size="36" font-weight="800" fill="#34d399" filter="url(#glow)">◆</text>
  <text x="160" y="270" text-anchor="middle" font-family="Arial, Helvetica, sans-serif" font-size="13" font-weight="700" fill="#dbeafe">Desafios Especiais</text>
</svg>