<svg xmlns="http://www.w3.org/2000/svg" width="320" height="320" viewBox="0 0 320 320" role="img" aria-label="Desempenho 50%">
  <defs>
    <radialGradient id="bg" cx="50%" cy="36%" r="72%">
      <stop offset="0%" stop-color="#38bdf8" stop-opacity=".42"/>
      <stop offset="45%" stop-color="#0f2a5f" stop-opacity=".88"/>
      <stop offset="100%" stop-color="#020617"/>
    </radialGradient>
    <linearGradient id="g" x1="58" y1="42" x2="262" y2="276" gradientUnits="userSpaceOnUse">
      <stop offset="0%" stop-color="#ffffff"/>
      <stop offset="42%" stop-color="#38bdf8"/>
      <stop offset="100%" stop-color="#7dd3fc"/>
    </linearGradient>
    <filter id="glow" x="-40%" y="-40%" width="180%" height="180%">
      <feGaussianBlur stdDeviation="5" result="blur"/>
      <feMerge>
        <feMergeNode in="blur"/>
        <feMergeNode in="SourceGraphic"/>
      </feMerge>
    </filter>
  </defs>
  <rect width="320" height="320" rx="52" fill="#020617"/>
  <rect x="10" y="10" width="300" height="300" rx="44" fill="url(#bg)" stroke="url(#g)" stroke-width="3"/>
  <g><circle cx="96" cy="47" r="1.5" fill="#ffffff" opacity="0.33"/><circle cx="110" cy="21" r="1.7" fill="#ffffff" opacity="0.4"/><circle cx="133" cy="267" r="1.7" fill="#ffffff" opacity="0.74"/><circle cx="234" cy="178" r="1.2" fill="#ffffff" opacity="0.29"/><circle cx="48" cy="292" r="2.1" fill="#ffffff" opacity="0.56"/><circle cx="103" cy="55" r="1.2" fill="#ffffff" opacity="0.23"/><circle cx="191" cy="120" r="1.7" fill="#ffffff" opacity="0.5"/><circle cx="30" cy="230" r="1.5" fill="#ffffff" opacity="0.45"/><circle cx="228" cy="88" r="1.0" fill="#ffffff" opacity="0.71"/><circle cx="68" cy="162" r="1.8" fill="#ffffff" opacity="0.39"/><circle cx="127" cy="160" r="1.0" fill="#ffffff" opacity="0.23"/><circle cx="293" cy="254" r="1.0" fill="#ffffff" opacity="0.38"/><circle cx="262" cy="226" r="1.5" fill="#ffffff" opacity="0.47"/><circle cx="267" cy="225" r="1.9" fill="#ffffff" opacity="0.73"/><circle cx="219" cy="119" r="1.9" fill="#ffffff" opacity="0.54"/><circle cx="87" cy="281" r="1.1" fill="#ffffff" opacity="0.31"/><circle cx="104" cy="136" r="0.8" fill="#ffffff" opacity="0.42"/><circle cx="272" cy="68" r="1.5" fill="#ffffff" opacity="0.75"/><circle cx="259" cy="193" r="0.8" fill="#ffffff" opacity="0.38"/><circle cx="185" cy="161" r="1.7" fill="#ffffff" opacity="0.63"/><circle cx="236" cy="254" r="1.4" fill="#ffffff" opacity="0.64"/><circle cx="180" cy="49" r="1.1" fill="#ffffff" opacity="0.57"/></g>
  <circle cx="160" cy="160" r="104" fill="#020617" opacity=".38"/>
  <g filter="url(#glow)"><circle cx="160" cy="160" r="78" fill="none" stroke="url(#g)" stroke-width="7" opacity=".72"/></g>
  <text x="160" y="175" text-anchor="middle" font-family="Arial, Helvetica, sans-serif" font-size="64" font-weight="800" fill="#f8fbff" filter="url(#glow)">D5</text>
  <text x="160" y="64" text-anchor="middle" font-family="Arial, Helvetica, sans-serif" font-size="36" font-weight="800" fill="#38bdf8" filter="url(#glow)">◆</text>
  <text x="160" y="270" text-anchor="middle" font-family="Arial, Helvetica, sans-serif" font-size="13" font-weight="700" fill="#dbeafe">Desafios Especiais</text>
</svg>