<svg xmlns="http://www.w3.org/2000/svg" width="320" height="320" viewBox="0 0 320 320" role="img" aria-label="Desempenho 80%">
  <defs>
    <radialGradient id="bg" cx="50%" cy="36%" r="72%">
      <stop offset="0%" stop-color="#a78bfa" stop-opacity=".42"/>
      <stop offset="45%" stop-color="#312e81" stop-opacity=".88"/>
      <stop offset="100%" stop-color="#020617"/>
    </radialGradient>
    <linearGradient id="g" x1="58" y1="42" x2="262" y2="276" gradientUnits="userSpaceOnUse">
      <stop offset="0%" stop-color="#ffffff"/>
      <stop offset="42%" stop-color="#a78bfa"/>
      <stop offset="100%" stop-color="#7dd3fc"/>
    </linearGradient>
    <filter id="glow" x="-40%" y="-40%" width="180%" height="180%">
      <feGaussianBlur stdDeviation="5" result="blur"/>
      <feMerge>
        <feMergeNode in="blur"/>
        <feMergeNode in="SourceGraphic"/>
      </feMerge>
    </filter>
  </defs>
  <rect width="320" height="320" rx="52" fill="#020617"/>
  <rect x="10" y="10" width="300" height="300" rx="44" fill="url(#bg)" stroke="url(#g)" stroke-width="3"/>
  <g><circle cx="264" cy="108" r="1.7" fill="#ffffff" opacity="0.29"/><circle cx="132" cy="298" r="1.6" fill="#ffffff" opacity="0.6"/><circle cx="286" cy="263" r="1.1" fill="#ffffff" opacity="0.65"/><circle cx="204" cy="253" r="2.1" fill="#ffffff" opacity="0.76"/><circle cx="119" cy="120" r="1.4" fill="#ffffff" opacity="0.65"/><circle cx="73" cy="107" r="1.3" fill="#ffffff" opacity="0.29"/><circle cx="265" cy="106" r="1.2" fill="#ffffff" opacity="0.56"/><circle cx="193" cy="149" r="1.9" fill="#ffffff" opacity="0.47"/><circle cx="202" cy="173" r="1.7" fill="#ffffff" opacity="0.78"/><circle cx="167" cy="16" r="2.0" fill="#ffffff" opacity="0.55"/><circle cx="202" cy="93" r="1.0" fill="#ffffff" opacity="0.43"/><circle cx="182" cy="98" r="1.2" fill="#ffffff" opacity="0.67"/><circle cx="126" cy="42" r="1.7" fill="#ffffff" opacity="0.32"/><circle cx="252" cy="269" r="1.2" fill="#ffffff" opacity="0.42"/><circle cx="113" cy="16" r="2.0" fill="#ffffff" opacity="0.29"/><circle cx="235" cy="219" r="0.8" fill="#ffffff" opacity="0.23"/><circle cx="274" cy="32" r="1.5" fill="#ffffff" opacity="0.31"/><circle cx="71" cy="163" r="1.9" fill="#ffffff" opacity="0.37"/><circle cx="39" cy="41" r="1.4" fill="#ffffff" opacity="0.72"/><circle cx="24" cy="243" r="1.1" fill="#ffffff" opacity="0.57"/><circle cx="60" cy="123" r="1.0" fill="#ffffff" opacity="0.73"/><circle cx="304" cy="117" r="1.5" fill="#ffffff" opacity="0.34"/></g>
  <circle cx="160" cy="160" r="104" fill="#020617" opacity=".38"/>
  <g filter="url(#glow)"><circle cx="160" cy="160" r="78" fill="none" stroke="url(#g)" stroke-width="7" opacity=".72"/></g>
  <text x="160" y="175" text-anchor="middle" font-family="Arial, Helvetica, sans-serif" font-size="64" font-weight="800" fill="#f8fbff" filter="url(#glow)">D8</text>
  <text x="160" y="64" text-anchor="middle" font-family="Arial, Helvetica, sans-serif" font-size="36" font-weight="800" fill="#a78bfa" filter="url(#glow)">◆</text>
  <text x="160" y="270" text-anchor="middle" font-family="Arial, Helvetica, sans-serif" font-size="13" font-weight="700" fill="#dbeafe">Desafios Especiais</text>
</svg>