<svg xmlns="http://www.w3.org/2000/svg" width="320" height="320" viewBox="0 0 320 320" role="img" aria-label="Dossiê de Sol">
  <defs>
    <radialGradient id="bg" cx="50%" cy="36%" r="72%">
      <stop offset="0%" stop-color="#38bdf8" stop-opacity=".42"/>
      <stop offset="45%" stop-color="#0f2a5f" stop-opacity=".88"/>
      <stop offset="100%" stop-color="#020617"/>
    </radialGradient>
    <linearGradient id="g" x1="58" y1="42" x2="262" y2="276" gradientUnits="userSpaceOnUse">
      <stop offset="0%" stop-color="#ffffff"/>
      <stop offset="42%" stop-color="#38bdf8"/>
      <stop offset="100%" stop-color="#7dd3fc"/>
    </linearGradient>
    <filter id="glow" x="-40%" y="-40%" width="180%" height="180%">
      <feGaussianBlur stdDeviation="5" result="blur"/>
      <feMerge>
        <feMergeNode in="blur"/>
        <feMergeNode in="SourceGraphic"/>
      </feMerge>
    </filter>
  </defs>
  <rect width="320" height="320" rx="52" fill="#020617"/>
  <rect x="10" y="10" width="300" height="300" rx="44" fill="url(#bg)" stroke="url(#g)" stroke-width="3"/>
  <g><circle cx="200" cy="74" r="0.9" fill="#ffffff" opacity="0.42"/><circle cx="88" cy="114" r="1.8" fill="#ffffff" opacity="0.4"/><circle cx="85" cy="245" r="1.3" fill="#ffffff" opacity="0.56"/><circle cx="152" cy="160" r="1.7" fill="#ffffff" opacity="0.71"/><circle cx="248" cy="242" r="0.9" fill="#ffffff" opacity="0.59"/><circle cx="214" cy="219" r="1.9" fill="#ffffff" opacity="0.51"/><circle cx="200" cy="107" r="1.4" fill="#ffffff" opacity="0.37"/><circle cx="50" cy="276" r="1.4" fill="#ffffff" opacity="0.76"/><circle cx="236" cy="256" r="1.6" fill="#ffffff" opacity="0.55"/><circle cx="271" cy="69" r="1.0" fill="#ffffff" opacity="0.6"/><circle cx="267" cy="124" r="1.3" fill="#ffffff" opacity="0.78"/><circle cx="288" cy="300" r="2.0" fill="#ffffff" opacity="0.3"/><circle cx="187" cy="267" r="1.8" fill="#ffffff" opacity="0.7"/><circle cx="16" cy="144" r="1.8" fill="#ffffff" opacity="0.4"/><circle cx="78" cy="279" r="1.7" fill="#ffffff" opacity="0.71"/><circle cx="46" cy="250" r="1.8" fill="#ffffff" opacity="0.51"/><circle cx="133" cy="71" r="1.6" fill="#ffffff" opacity="0.5"/><circle cx="166" cy="114" r="1.3" fill="#ffffff" opacity="0.51"/><circle cx="231" cy="85" r="1.4" fill="#ffffff" opacity="0.53"/><circle cx="116" cy="268" r="2.0" fill="#ffffff" opacity="0.66"/><circle cx="37" cy="31" r="1.0" fill="#ffffff" opacity="0.76"/><circle cx="163" cy="154" r="1.8" fill="#ffffff" opacity="0.69"/></g>
  <circle cx="160" cy="160" r="104" fill="#020617" opacity=".38"/>
  <g filter="url(#glow)"><circle cx="160" cy="160" r="78" fill="none" stroke="url(#g)" stroke-width="7" opacity=".72"/></g>
  <text x="160" y="175" text-anchor="middle" font-family="Arial, Helvetica, sans-serif" font-size="64" font-weight="800" fill="#f8fbff" filter="url(#glow)">DS</text>
  <text x="160" y="64" text-anchor="middle" font-family="Arial, Helvetica, sans-serif" font-size="36" font-weight="800" fill="#38bdf8" filter="url(#glow)">✧</text>
  <text x="160" y="270" text-anchor="middle" font-family="Arial, Helvetica, sans-serif" font-size="13" font-weight="700" fill="#dbeafe">Conhecimento Espacial</text>
</svg>