<svg xmlns="http://www.w3.org/2000/svg" width="320" height="320" viewBox="0 0 320 320" role="img" aria-label="Dossiê de Netuno">
  <defs>
    <radialGradient id="bg" cx="50%" cy="36%" r="72%">
      <stop offset="0%" stop-color="#34d399" stop-opacity=".42"/>
      <stop offset="45%" stop-color="#064e3b" stop-opacity=".88"/>
      <stop offset="100%" stop-color="#020617"/>
    </radialGradient>
    <linearGradient id="g" x1="58" y1="42" x2="262" y2="276" gradientUnits="userSpaceOnUse">
      <stop offset="0%" stop-color="#ffffff"/>
      <stop offset="42%" stop-color="#34d399"/>
      <stop offset="100%" stop-color="#7dd3fc"/>
    </linearGradient>
    <filter id="glow" x="-40%" y="-40%" width="180%" height="180%">
      <feGaussianBlur stdDeviation="5" result="blur"/>
      <feMerge>
        <feMergeNode in="blur"/>
        <feMergeNode in="SourceGraphic"/>
      </feMerge>
    </filter>
  </defs>
  <rect width="320" height="320" rx="52" fill="#020617"/>
  <rect x="10" y="10" width="300" height="300" rx="44" fill="url(#bg)" stroke="url(#g)" stroke-width="3"/>
  <g><circle cx="189" cy="186" r="1.6" fill="#ffffff" opacity="0.54"/><circle cx="84" cy="55" r="0.9" fill="#ffffff" opacity="0.72"/><circle cx="293" cy="146" r="1.5" fill="#ffffff" opacity="0.45"/><circle cx="127" cy="220" r="1.5" fill="#ffffff" opacity="0.47"/><circle cx="290" cy="51" r="1.6" fill="#ffffff" opacity="0.39"/><circle cx="214" cy="137" r="1.2" fill="#ffffff" opacity="0.76"/><circle cx="291" cy="112" r="1.6" fill="#ffffff" opacity="0.58"/><circle cx="111" cy="197" r="2.0" fill="#ffffff" opacity="0.47"/><circle cx="193" cy="275" r="1.1" fill="#ffffff" opacity="0.36"/><circle cx="261" cy="190" r="0.9" fill="#ffffff" opacity="0.43"/><circle cx="86" cy="170" r="1.6" fill="#ffffff" opacity="0.27"/><circle cx="200" cy="180" r="1.6" fill="#ffffff" opacity="0.25"/><circle cx="142" cy="63" r="1.6" fill="#ffffff" opacity="0.26"/><circle cx="280" cy="297" r="1.4" fill="#ffffff" opacity="0.39"/><circle cx="279" cy="244" r="0.9" fill="#ffffff" opacity="0.54"/><circle cx="296" cy="302" r="1.5" fill="#ffffff" opacity="0.69"/><circle cx="46" cy="89" r="1.0" fill="#ffffff" opacity="0.62"/><circle cx="73" cy="164" r="0.8" fill="#ffffff" opacity="0.35"/><circle cx="175" cy="192" r="1.0" fill="#ffffff" opacity="0.76"/><circle cx="40" cy="262" r="1.1" fill="#ffffff" opacity="0.39"/><circle cx="127" cy="197" r="1.8" fill="#ffffff" opacity="0.59"/><circle cx="124" cy="249" r="1.8" fill="#ffffff" opacity="0.7"/></g>
  <circle cx="160" cy="160" r="104" fill="#020617" opacity=".38"/>
  <g filter="url(#glow)"><circle cx="160" cy="160" r="78" fill="none" stroke="url(#g)" stroke-width="7" opacity=".72"/></g>
  <text x="160" y="175" text-anchor="middle" font-family="Arial, Helvetica, sans-serif" font-size="64" font-weight="800" fill="#f8fbff" filter="url(#glow)">DN</text>
  <text x="160" y="64" text-anchor="middle" font-family="Arial, Helvetica, sans-serif" font-size="36" font-weight="800" fill="#34d399" filter="url(#glow)">✧</text>
  <text x="160" y="270" text-anchor="middle" font-family="Arial, Helvetica, sans-serif" font-size="13" font-weight="700" fill="#dbeafe">Conhecimento Espacial</text>
</svg>