<svg xmlns="http://www.w3.org/2000/svg" width="320" height="320" viewBox="0 0 320 320" role="img" aria-label="Dossiê de Vênus">
  <defs>
    <radialGradient id="bg" cx="50%" cy="36%" r="72%">
      <stop offset="0%" stop-color="#34d399" stop-opacity=".42"/>
      <stop offset="45%" stop-color="#064e3b" stop-opacity=".88"/>
      <stop offset="100%" stop-color="#020617"/>
    </radialGradient>
    <linearGradient id="g" x1="58" y1="42" x2="262" y2="276" gradientUnits="userSpaceOnUse">
      <stop offset="0%" stop-color="#ffffff"/>
      <stop offset="42%" stop-color="#34d399"/>
      <stop offset="100%" stop-color="#7dd3fc"/>
    </linearGradient>
    <filter id="glow" x="-40%" y="-40%" width="180%" height="180%">
      <feGaussianBlur stdDeviation="5" result="blur"/>
      <feMerge>
        <feMergeNode in="blur"/>
        <feMergeNode in="SourceGraphic"/>
      </feMerge>
    </filter>
  </defs>
  <rect width="320" height="320" rx="52" fill="#020617"/>
  <rect x="10" y="10" width="300" height="300" rx="44" fill="url(#bg)" stroke="url(#g)" stroke-width="3"/>
  <g><circle cx="299" cy="126" r="1.3" fill="#ffffff" opacity="0.75"/><circle cx="138" cy="79" r="0.9" fill="#ffffff" opacity="0.72"/><circle cx="251" cy="230" r="1.5" fill="#ffffff" opacity="0.35"/><circle cx="201" cy="18" r="1.0" fill="#ffffff" opacity="0.35"/><circle cx="113" cy="45" r="2.1" fill="#ffffff" opacity="0.61"/><circle cx="143" cy="56" r="1.0" fill="#ffffff" opacity="0.48"/><circle cx="116" cy="207" r="1.7" fill="#ffffff" opacity="0.26"/><circle cx="270" cy="143" r="2.0" fill="#ffffff" opacity="0.25"/><circle cx="277" cy="95" r="1.9" fill="#ffffff" opacity="0.74"/><circle cx="39" cy="132" r="1.6" fill="#ffffff" opacity="0.58"/><circle cx="111" cy="263" r="1.9" fill="#ffffff" opacity="0.38"/><circle cx="111" cy="173" r="1.6" fill="#ffffff" opacity="0.77"/><circle cx="272" cy="214" r="1.3" fill="#ffffff" opacity="0.64"/><circle cx="45" cy="117" r="0.9" fill="#ffffff" opacity="0.76"/><circle cx="145" cy="116" r="1.1" fill="#ffffff" opacity="0.61"/><circle cx="245" cy="135" r="1.0" fill="#ffffff" opacity="0.55"/><circle cx="68" cy="150" r="2.0" fill="#ffffff" opacity="0.77"/><circle cx="153" cy="193" r="1.0" fill="#ffffff" opacity="0.57"/><circle cx="178" cy="273" r="0.9" fill="#ffffff" opacity="0.46"/><circle cx="57" cy="149" r="1.6" fill="#ffffff" opacity="0.5"/><circle cx="255" cy="53" r="1.1" fill="#ffffff" opacity="0.58"/><circle cx="196" cy="292" r="1.4" fill="#ffffff" opacity="0.42"/></g>
  <circle cx="160" cy="160" r="104" fill="#020617" opacity=".38"/>
  <g filter="url(#glow)"><circle cx="160" cy="160" r="78" fill="none" stroke="url(#g)" stroke-width="7" opacity=".72"/></g>
  <text x="160" y="175" text-anchor="middle" font-family="Arial, Helvetica, sans-serif" font-size="64" font-weight="800" fill="#f8fbff" filter="url(#glow)">DV</text>
  <text x="160" y="64" text-anchor="middle" font-family="Arial, Helvetica, sans-serif" font-size="36" font-weight="800" fill="#34d399" filter="url(#glow)">✧</text>
  <text x="160" y="270" text-anchor="middle" font-family="Arial, Helvetica, sans-serif" font-size="13" font-weight="700" fill="#dbeafe">Conhecimento Espacial</text>
</svg>