<svg xmlns="http://www.w3.org/2000/svg" width="320" height="320" viewBox="0 0 320 320" role="img" aria-label="Leitor das Estrelas 9">
  <defs>
    <radialGradient id="bg" cx="50%" cy="36%" r="72%">
      <stop offset="0%" stop-color="#a78bfa" stop-opacity=".42"/>
      <stop offset="45%" stop-color="#312e81" stop-opacity=".88"/>
      <stop offset="100%" stop-color="#020617"/>
    </radialGradient>
    <linearGradient id="g" x1="58" y1="42" x2="262" y2="276" gradientUnits="userSpaceOnUse">
      <stop offset="0%" stop-color="#ffffff"/>
      <stop offset="42%" stop-color="#a78bfa"/>
      <stop offset="100%" stop-color="#7dd3fc"/>
    </linearGradient>
    <filter id="glow" x="-40%" y="-40%" width="180%" height="180%">
      <feGaussianBlur stdDeviation="5" result="blur"/>
      <feMerge>
        <feMergeNode in="blur"/>
        <feMergeNode in="SourceGraphic"/>
      </feMerge>
    </filter>
  </defs>
  <rect width="320" height="320" rx="52" fill="#020617"/>
  <rect x="10" y="10" width="300" height="300" rx="44" fill="url(#bg)" stroke="url(#g)" stroke-width="3"/>
  <g><circle cx="143" cy="115" r="1.4" fill="#ffffff" opacity="0.38"/><circle cx="162" cy="248" r="1.8" fill="#ffffff" opacity="0.44"/><circle cx="134" cy="234" r="1.5" fill="#ffffff" opacity="0.46"/><circle cx="191" cy="84" r="1.3" fill="#ffffff" opacity="0.35"/><circle cx="289" cy="164" r="1.0" fill="#ffffff" opacity="0.5"/><circle cx="232" cy="41" r="0.8" fill="#ffffff" opacity="0.41"/><circle cx="202" cy="38" r="1.2" fill="#ffffff" opacity="0.31"/><circle cx="126" cy="122" r="0.8" fill="#ffffff" opacity="0.32"/><circle cx="91" cy="171" r="2.0" fill="#ffffff" opacity="0.48"/><circle cx="302" cy="20" r="1.0" fill="#ffffff" opacity="0.64"/><circle cx="215" cy="188" r="1.7" fill="#ffffff" opacity="0.52"/><circle cx="32" cy="42" r="1.7" fill="#ffffff" opacity="0.33"/><circle cx="299" cy="263" r="2.0" fill="#ffffff" opacity="0.75"/><circle cx="31" cy="161" r="2.0" fill="#ffffff" opacity="0.31"/><circle cx="177" cy="238" r="1.6" fill="#ffffff" opacity="0.56"/><circle cx="292" cy="81" r="1.7" fill="#ffffff" opacity="0.38"/><circle cx="296" cy="133" r="1.6" fill="#ffffff" opacity="0.37"/><circle cx="101" cy="65" r="1.7" fill="#ffffff" opacity="0.77"/><circle cx="72" cy="61" r="1.5" fill="#ffffff" opacity="0.56"/><circle cx="32" cy="59" r="0.9" fill="#ffffff" opacity="0.55"/><circle cx="82" cy="22" r="0.8" fill="#ffffff" opacity="0.52"/><circle cx="49" cy="90" r="1.7" fill="#ffffff" opacity="0.63"/></g>
  <circle cx="160" cy="160" r="104" fill="#020617" opacity=".38"/>
  <g filter="url(#glow)"><circle cx="160" cy="160" r="78" fill="none" stroke="url(#g)" stroke-width="7" opacity=".72"/></g>
  <text x="160" y="175" text-anchor="middle" font-family="Arial, Helvetica, sans-serif" font-size="64" font-weight="800" fill="#f8fbff" filter="url(#glow)">LE</text>
  <text x="160" y="64" text-anchor="middle" font-family="Arial, Helvetica, sans-serif" font-size="36" font-weight="800" fill="#a78bfa" filter="url(#glow)">✧</text>
  <text x="160" y="270" text-anchor="middle" font-family="Arial, Helvetica, sans-serif" font-size="13" font-weight="700" fill="#dbeafe">Conhecimento Espacial</text>
</svg>