<svg xmlns="http://www.w3.org/2000/svg" width="320" height="320" viewBox="0 0 320 320" role="img" aria-label="Dossiê de Saturno">
  <defs>
    <radialGradient id="bg" cx="50%" cy="36%" r="72%">
      <stop offset="0%" stop-color="#34d399" stop-opacity=".42"/>
      <stop offset="45%" stop-color="#064e3b" stop-opacity=".88"/>
      <stop offset="100%" stop-color="#020617"/>
    </radialGradient>
    <linearGradient id="g" x1="58" y1="42" x2="262" y2="276" gradientUnits="userSpaceOnUse">
      <stop offset="0%" stop-color="#ffffff"/>
      <stop offset="42%" stop-color="#34d399"/>
      <stop offset="100%" stop-color="#7dd3fc"/>
    </linearGradient>
    <filter id="glow" x="-40%" y="-40%" width="180%" height="180%">
      <feGaussianBlur stdDeviation="5" result="blur"/>
      <feMerge>
        <feMergeNode in="blur"/>
        <feMergeNode in="SourceGraphic"/>
      </feMerge>
    </filter>
  </defs>
  <rect width="320" height="320" rx="52" fill="#020617"/>
  <rect x="10" y="10" width="300" height="300" rx="44" fill="url(#bg)" stroke="url(#g)" stroke-width="3"/>
  <g><circle cx="103" cy="300" r="0.9" fill="#ffffff" opacity="0.71"/><circle cx="284" cy="233" r="1.5" fill="#ffffff" opacity="0.28"/><circle cx="61" cy="59" r="0.9" fill="#ffffff" opacity="0.64"/><circle cx="78" cy="226" r="1.6" fill="#ffffff" opacity="0.56"/><circle cx="71" cy="194" r="1.0" fill="#ffffff" opacity="0.56"/><circle cx="171" cy="292" r="1.8" fill="#ffffff" opacity="0.3"/><circle cx="297" cy="223" r="2.0" fill="#ffffff" opacity="0.36"/><circle cx="201" cy="301" r="2.1" fill="#ffffff" opacity="0.37"/><circle cx="149" cy="226" r="1.9" fill="#ffffff" opacity="0.6"/><circle cx="180" cy="30" r="2.0" fill="#ffffff" opacity="0.34"/><circle cx="95" cy="244" r="2.0" fill="#ffffff" opacity="0.49"/><circle cx="253" cy="111" r="1.1" fill="#ffffff" opacity="0.4"/><circle cx="167" cy="162" r="1.5" fill="#ffffff" opacity="0.24"/><circle cx="138" cy="84" r="1.0" fill="#ffffff" opacity="0.69"/><circle cx="47" cy="299" r="1.0" fill="#ffffff" opacity="0.76"/><circle cx="228" cy="107" r="1.5" fill="#ffffff" opacity="0.64"/><circle cx="218" cy="212" r="1.7" fill="#ffffff" opacity="0.67"/><circle cx="18" cy="19" r="1.0" fill="#ffffff" opacity="0.48"/><circle cx="195" cy="279" r="0.9" fill="#ffffff" opacity="0.39"/><circle cx="204" cy="225" r="2.0" fill="#ffffff" opacity="0.71"/><circle cx="105" cy="105" r="1.7" fill="#ffffff" opacity="0.62"/><circle cx="177" cy="202" r="1.3" fill="#ffffff" opacity="0.5"/></g>
  <circle cx="160" cy="160" r="104" fill="#020617" opacity=".38"/>
  <g filter="url(#glow)"><circle cx="160" cy="160" r="78" fill="none" stroke="url(#g)" stroke-width="7" opacity=".72"/></g>
  <text x="160" y="175" text-anchor="middle" font-family="Arial, Helvetica, sans-serif" font-size="64" font-weight="800" fill="#f8fbff" filter="url(#glow)">DS</text>
  <text x="160" y="64" text-anchor="middle" font-family="Arial, Helvetica, sans-serif" font-size="36" font-weight="800" fill="#34d399" filter="url(#glow)">✧</text>
  <text x="160" y="270" text-anchor="middle" font-family="Arial, Helvetica, sans-serif" font-size="13" font-weight="700" fill="#dbeafe">Conhecimento Espacial</text>
</svg>