<svg xmlns="http://www.w3.org/2000/svg" width="320" height="320" viewBox="0 0 320 320" role="img" aria-label="Dossiê de Marte">
  <defs>
    <radialGradient id="bg" cx="50%" cy="36%" r="72%">
      <stop offset="0%" stop-color="#38bdf8" stop-opacity=".42"/>
      <stop offset="45%" stop-color="#0f2a5f" stop-opacity=".88"/>
      <stop offset="100%" stop-color="#020617"/>
    </radialGradient>
    <linearGradient id="g" x1="58" y1="42" x2="262" y2="276" gradientUnits="userSpaceOnUse">
      <stop offset="0%" stop-color="#ffffff"/>
      <stop offset="42%" stop-color="#38bdf8"/>
      <stop offset="100%" stop-color="#7dd3fc"/>
    </linearGradient>
    <filter id="glow" x="-40%" y="-40%" width="180%" height="180%">
      <feGaussianBlur stdDeviation="5" result="blur"/>
      <feMerge>
        <feMergeNode in="blur"/>
        <feMergeNode in="SourceGraphic"/>
      </feMerge>
    </filter>
  </defs>
  <rect width="320" height="320" rx="52" fill="#020617"/>
  <rect x="10" y="10" width="300" height="300" rx="44" fill="url(#bg)" stroke="url(#g)" stroke-width="3"/>
  <g><circle cx="24" cy="292" r="2.0" fill="#ffffff" opacity="0.31"/><circle cx="208" cy="223" r="1.2" fill="#ffffff" opacity="0.53"/><circle cx="162" cy="146" r="1.5" fill="#ffffff" opacity="0.53"/><circle cx="254" cy="168" r="1.6" fill="#ffffff" opacity="0.56"/><circle cx="259" cy="174" r="2.0" fill="#ffffff" opacity="0.35"/><circle cx="230" cy="21" r="1.5" fill="#ffffff" opacity="0.4"/><circle cx="125" cy="85" r="0.9" fill="#ffffff" opacity="0.68"/><circle cx="40" cy="188" r="1.3" fill="#ffffff" opacity="0.38"/><circle cx="163" cy="94" r="1.5" fill="#ffffff" opacity="0.32"/><circle cx="95" cy="60" r="1.7" fill="#ffffff" opacity="0.28"/><circle cx="219" cy="239" r="1.1" fill="#ffffff" opacity="0.37"/><circle cx="214" cy="280" r="0.8" fill="#ffffff" opacity="0.3"/><circle cx="218" cy="47" r="2.1" fill="#ffffff" opacity="0.78"/><circle cx="105" cy="65" r="1.1" fill="#ffffff" opacity="0.43"/><circle cx="26" cy="298" r="2.0" fill="#ffffff" opacity="0.47"/><circle cx="113" cy="165" r="1.3" fill="#ffffff" opacity="0.23"/><circle cx="182" cy="278" r="1.1" fill="#ffffff" opacity="0.73"/><circle cx="242" cy="48" r="1.7" fill="#ffffff" opacity="0.4"/><circle cx="23" cy="270" r="1.7" fill="#ffffff" opacity="0.35"/><circle cx="122" cy="108" r="1.5" fill="#ffffff" opacity="0.63"/><circle cx="123" cy="105" r="2.0" fill="#ffffff" opacity="0.5"/><circle cx="96" cy="173" r="1.2" fill="#ffffff" opacity="0.42"/></g>
  <circle cx="160" cy="160" r="104" fill="#020617" opacity=".38"/>
  <g filter="url(#glow)"><circle cx="160" cy="160" r="78" fill="none" stroke="url(#g)" stroke-width="7" opacity=".72"/></g>
  <text x="160" y="175" text-anchor="middle" font-family="Arial, Helvetica, sans-serif" font-size="64" font-weight="800" fill="#f8fbff" filter="url(#glow)">DM</text>
  <text x="160" y="64" text-anchor="middle" font-family="Arial, Helvetica, sans-serif" font-size="36" font-weight="800" fill="#38bdf8" filter="url(#glow)">✧</text>
  <text x="160" y="270" text-anchor="middle" font-family="Arial, Helvetica, sans-serif" font-size="13" font-weight="700" fill="#dbeafe">Conhecimento Espacial</text>
</svg>