<svg xmlns="http://www.w3.org/2000/svg" width="320" height="320" viewBox="0 0 320 320" role="img" aria-label="Leitor das Estrelas 5">
  <defs>
    <radialGradient id="bg" cx="50%" cy="36%" r="72%">
      <stop offset="0%" stop-color="#34d399" stop-opacity=".42"/>
      <stop offset="45%" stop-color="#064e3b" stop-opacity=".88"/>
      <stop offset="100%" stop-color="#020617"/>
    </radialGradient>
    <linearGradient id="g" x1="58" y1="42" x2="262" y2="276" gradientUnits="userSpaceOnUse">
      <stop offset="0%" stop-color="#ffffff"/>
      <stop offset="42%" stop-color="#34d399"/>
      <stop offset="100%" stop-color="#7dd3fc"/>
    </linearGradient>
    <filter id="glow" x="-40%" y="-40%" width="180%" height="180%">
      <feGaussianBlur stdDeviation="5" result="blur"/>
      <feMerge>
        <feMergeNode in="blur"/>
        <feMergeNode in="SourceGraphic"/>
      </feMerge>
    </filter>
  </defs>
  <rect width="320" height="320" rx="52" fill="#020617"/>
  <rect x="10" y="10" width="300" height="300" rx="44" fill="url(#bg)" stroke="url(#g)" stroke-width="3"/>
  <g><circle cx="269" cy="301" r="2.1" fill="#ffffff" opacity="0.73"/><circle cx="187" cy="152" r="0.8" fill="#ffffff" opacity="0.29"/><circle cx="200" cy="106" r="1.0" fill="#ffffff" opacity="0.7"/><circle cx="280" cy="297" r="1.8" fill="#ffffff" opacity="0.74"/><circle cx="207" cy="292" r="1.3" fill="#ffffff" opacity="0.41"/><circle cx="243" cy="18" r="1.5" fill="#ffffff" opacity="0.77"/><circle cx="177" cy="198" r="1.0" fill="#ffffff" opacity="0.28"/><circle cx="161" cy="192" r="1.5" fill="#ffffff" opacity="0.28"/><circle cx="291" cy="201" r="1.7" fill="#ffffff" opacity="0.46"/><circle cx="193" cy="73" r="1.7" fill="#ffffff" opacity="0.51"/><circle cx="281" cy="149" r="1.9" fill="#ffffff" opacity="0.35"/><circle cx="286" cy="193" r="1.5" fill="#ffffff" opacity="0.58"/><circle cx="160" cy="211" r="1.4" fill="#ffffff" opacity="0.3"/><circle cx="242" cy="151" r="1.0" fill="#ffffff" opacity="0.49"/><circle cx="143" cy="104" r="1.8" fill="#ffffff" opacity="0.41"/><circle cx="269" cy="144" r="1.7" fill="#ffffff" opacity="0.51"/><circle cx="113" cy="30" r="0.9" fill="#ffffff" opacity="0.64"/><circle cx="127" cy="80" r="1.6" fill="#ffffff" opacity="0.74"/><circle cx="139" cy="214" r="1.3" fill="#ffffff" opacity="0.56"/><circle cx="241" cy="113" r="1.8" fill="#ffffff" opacity="0.71"/><circle cx="26" cy="188" r="1.9" fill="#ffffff" opacity="0.37"/><circle cx="43" cy="39" r="2.0" fill="#ffffff" opacity="0.51"/></g>
  <circle cx="160" cy="160" r="104" fill="#020617" opacity=".38"/>
  <g filter="url(#glow)"><circle cx="160" cy="160" r="78" fill="none" stroke="url(#g)" stroke-width="7" opacity=".72"/></g>
  <text x="160" y="175" text-anchor="middle" font-family="Arial, Helvetica, sans-serif" font-size="64" font-weight="800" fill="#f8fbff" filter="url(#glow)">LE</text>
  <text x="160" y="64" text-anchor="middle" font-family="Arial, Helvetica, sans-serif" font-size="36" font-weight="800" fill="#34d399" filter="url(#glow)">✧</text>
  <text x="160" y="270" text-anchor="middle" font-family="Arial, Helvetica, sans-serif" font-size="13" font-weight="700" fill="#dbeafe">Conhecimento Espacial</text>
</svg>