<svg xmlns="http://www.w3.org/2000/svg" width="320" height="320" viewBox="0 0 320 320" role="img" aria-label="Leitor das Estrelas 30">
  <defs>
    <radialGradient id="bg" cx="50%" cy="36%" r="72%">
      <stop offset="0%" stop-color="#e0f2fe" stop-opacity=".42"/>
      <stop offset="45%" stop-color="#0891b2" stop-opacity=".88"/>
      <stop offset="100%" stop-color="#020617"/>
    </radialGradient>
    <linearGradient id="g" x1="58" y1="42" x2="262" y2="276" gradientUnits="userSpaceOnUse">
      <stop offset="0%" stop-color="#ffffff"/>
      <stop offset="42%" stop-color="#e0f2fe"/>
      <stop offset="100%" stop-color="#7dd3fc"/>
    </linearGradient>
    <filter id="glow" x="-40%" y="-40%" width="180%" height="180%">
      <feGaussianBlur stdDeviation="5" result="blur"/>
      <feMerge>
        <feMergeNode in="blur"/>
        <feMergeNode in="SourceGraphic"/>
      </feMerge>
    </filter>
  </defs>
  <rect width="320" height="320" rx="52" fill="#020617"/>
  <rect x="10" y="10" width="300" height="300" rx="44" fill="url(#bg)" stroke="url(#g)" stroke-width="3"/>
  <g><circle cx="145" cy="299" r="1.5" fill="#ffffff" opacity="0.73"/><circle cx="103" cy="139" r="1.9" fill="#ffffff" opacity="0.76"/><circle cx="292" cy="46" r="2.1" fill="#ffffff" opacity="0.36"/><circle cx="114" cy="59" r="1.8" fill="#ffffff" opacity="0.25"/><circle cx="233" cy="107" r="2.0" fill="#ffffff" opacity="0.46"/><circle cx="29" cy="122" r="1.0" fill="#ffffff" opacity="0.52"/><circle cx="43" cy="55" r="2.0" fill="#ffffff" opacity="0.41"/><circle cx="231" cy="115" r="1.7" fill="#ffffff" opacity="0.3"/><circle cx="67" cy="43" r="1.5" fill="#ffffff" opacity="0.56"/><circle cx="132" cy="271" r="1.3" fill="#ffffff" opacity="0.57"/><circle cx="300" cy="184" r="1.7" fill="#ffffff" opacity="0.39"/><circle cx="102" cy="302" r="1.9" fill="#ffffff" opacity="0.31"/><circle cx="293" cy="205" r="1.7" fill="#ffffff" opacity="0.28"/><circle cx="282" cy="239" r="1.6" fill="#ffffff" opacity="0.67"/><circle cx="34" cy="163" r="1.1" fill="#ffffff" opacity="0.76"/><circle cx="219" cy="79" r="1.7" fill="#ffffff" opacity="0.48"/><circle cx="37" cy="216" r="1.9" fill="#ffffff" opacity="0.51"/><circle cx="62" cy="294" r="1.5" fill="#ffffff" opacity="0.43"/><circle cx="80" cy="65" r="1.0" fill="#ffffff" opacity="0.48"/><circle cx="279" cy="268" r="1.1" fill="#ffffff" opacity="0.28"/><circle cx="292" cy="228" r="0.9" fill="#ffffff" opacity="0.26"/><circle cx="143" cy="241" r="1.6" fill="#ffffff" opacity="0.68"/></g>
  <circle cx="160" cy="160" r="104" fill="#020617" opacity=".38"/>
  <g filter="url(#glow)"><circle cx="160" cy="160" r="78" fill="none" stroke="url(#g)" stroke-width="7" opacity=".72"/></g>
  <text x="160" y="175" text-anchor="middle" font-family="Arial, Helvetica, sans-serif" font-size="64" font-weight="800" fill="#f8fbff" filter="url(#glow)">LE</text>
  <text x="160" y="64" text-anchor="middle" font-family="Arial, Helvetica, sans-serif" font-size="36" font-weight="800" fill="#e0f2fe" filter="url(#glow)">✧</text>
  <text x="160" y="270" text-anchor="middle" font-family="Arial, Helvetica, sans-serif" font-size="13" font-weight="700" fill="#dbeafe">Conhecimento Espacial</text>
</svg>