<svg xmlns="http://www.w3.org/2000/svg" width="320" height="320" viewBox="0 0 320 320" role="img" aria-label="Dossiê de Júpiter">
  <defs>
    <radialGradient id="bg" cx="50%" cy="36%" r="72%">
      <stop offset="0%" stop-color="#34d399" stop-opacity=".42"/>
      <stop offset="45%" stop-color="#064e3b" stop-opacity=".88"/>
      <stop offset="100%" stop-color="#020617"/>
    </radialGradient>
    <linearGradient id="g" x1="58" y1="42" x2="262" y2="276" gradientUnits="userSpaceOnUse">
      <stop offset="0%" stop-color="#ffffff"/>
      <stop offset="42%" stop-color="#34d399"/>
      <stop offset="100%" stop-color="#7dd3fc"/>
    </linearGradient>
    <filter id="glow" x="-40%" y="-40%" width="180%" height="180%">
      <feGaussianBlur stdDeviation="5" result="blur"/>
      <feMerge>
        <feMergeNode in="blur"/>
        <feMergeNode in="SourceGraphic"/>
      </feMerge>
    </filter>
  </defs>
  <rect width="320" height="320" rx="52" fill="#020617"/>
  <rect x="10" y="10" width="300" height="300" rx="44" fill="url(#bg)" stroke="url(#g)" stroke-width="3"/>
  <g><circle cx="70" cy="117" r="1.9" fill="#ffffff" opacity="0.58"/><circle cx="139" cy="71" r="1.8" fill="#ffffff" opacity="0.73"/><circle cx="126" cy="79" r="1.3" fill="#ffffff" opacity="0.33"/><circle cx="47" cy="239" r="1.2" fill="#ffffff" opacity="0.39"/><circle cx="299" cy="22" r="1.3" fill="#ffffff" opacity="0.4"/><circle cx="20" cy="61" r="1.8" fill="#ffffff" opacity="0.39"/><circle cx="193" cy="136" r="1.3" fill="#ffffff" opacity="0.65"/><circle cx="272" cy="142" r="1.1" fill="#ffffff" opacity="0.58"/><circle cx="232" cy="262" r="1.3" fill="#ffffff" opacity="0.55"/><circle cx="84" cy="79" r="1.6" fill="#ffffff" opacity="0.52"/><circle cx="194" cy="129" r="1.4" fill="#ffffff" opacity="0.61"/><circle cx="30" cy="174" r="2.0" fill="#ffffff" opacity="0.49"/><circle cx="133" cy="285" r="1.5" fill="#ffffff" opacity="0.77"/><circle cx="227" cy="20" r="1.9" fill="#ffffff" opacity="0.74"/><circle cx="302" cy="135" r="1.4" fill="#ffffff" opacity="0.25"/><circle cx="206" cy="112" r="1.0" fill="#ffffff" opacity="0.52"/><circle cx="33" cy="31" r="1.4" fill="#ffffff" opacity="0.77"/><circle cx="256" cy="129" r="0.8" fill="#ffffff" opacity="0.23"/><circle cx="101" cy="250" r="1.1" fill="#ffffff" opacity="0.41"/><circle cx="237" cy="218" r="1.0" fill="#ffffff" opacity="0.48"/><circle cx="282" cy="135" r="1.7" fill="#ffffff" opacity="0.55"/><circle cx="267" cy="304" r="0.9" fill="#ffffff" opacity="0.39"/></g>
  <circle cx="160" cy="160" r="104" fill="#020617" opacity=".38"/>
  <g filter="url(#glow)"><circle cx="160" cy="160" r="78" fill="none" stroke="url(#g)" stroke-width="7" opacity=".72"/></g>
  <text x="160" y="175" text-anchor="middle" font-family="Arial, Helvetica, sans-serif" font-size="64" font-weight="800" fill="#f8fbff" filter="url(#glow)">DJ</text>
  <text x="160" y="64" text-anchor="middle" font-family="Arial, Helvetica, sans-serif" font-size="36" font-weight="800" fill="#34d399" filter="url(#glow)">✧</text>
  <text x="160" y="270" text-anchor="middle" font-family="Arial, Helvetica, sans-serif" font-size="13" font-weight="700" fill="#dbeafe">Conhecimento Espacial</text>
</svg>