<svg xmlns="http://www.w3.org/2000/svg" width="320" height="320" viewBox="0 0 320 320" role="img" aria-label="Dossiê de Terra">
  <defs>
    <radialGradient id="bg" cx="50%" cy="36%" r="72%">
      <stop offset="0%" stop-color="#38bdf8" stop-opacity=".42"/>
      <stop offset="45%" stop-color="#0f2a5f" stop-opacity=".88"/>
      <stop offset="100%" stop-color="#020617"/>
    </radialGradient>
    <linearGradient id="g" x1="58" y1="42" x2="262" y2="276" gradientUnits="userSpaceOnUse">
      <stop offset="0%" stop-color="#ffffff"/>
      <stop offset="42%" stop-color="#38bdf8"/>
      <stop offset="100%" stop-color="#7dd3fc"/>
    </linearGradient>
    <filter id="glow" x="-40%" y="-40%" width="180%" height="180%">
      <feGaussianBlur stdDeviation="5" result="blur"/>
      <feMerge>
        <feMergeNode in="blur"/>
        <feMergeNode in="SourceGraphic"/>
      </feMerge>
    </filter>
  </defs>
  <rect width="320" height="320" rx="52" fill="#020617"/>
  <rect x="10" y="10" width="300" height="300" rx="44" fill="url(#bg)" stroke="url(#g)" stroke-width="3"/>
  <g><circle cx="107" cy="212" r="1.5" fill="#ffffff" opacity="0.47"/><circle cx="267" cy="119" r="1.8" fill="#ffffff" opacity="0.39"/><circle cx="264" cy="147" r="1.3" fill="#ffffff" opacity="0.34"/><circle cx="285" cy="259" r="2.0" fill="#ffffff" opacity="0.66"/><circle cx="223" cy="243" r="1.3" fill="#ffffff" opacity="0.7"/><circle cx="179" cy="132" r="1.4" fill="#ffffff" opacity="0.4"/><circle cx="244" cy="113" r="1.0" fill="#ffffff" opacity="0.34"/><circle cx="26" cy="134" r="1.6" fill="#ffffff" opacity="0.27"/><circle cx="153" cy="297" r="1.0" fill="#ffffff" opacity="0.63"/><circle cx="75" cy="298" r="0.9" fill="#ffffff" opacity="0.44"/><circle cx="304" cy="220" r="0.8" fill="#ffffff" opacity="0.23"/><circle cx="258" cy="59" r="1.0" fill="#ffffff" opacity="0.53"/><circle cx="20" cy="230" r="1.0" fill="#ffffff" opacity="0.25"/><circle cx="32" cy="127" r="0.8" fill="#ffffff" opacity="0.59"/><circle cx="190" cy="248" r="1.4" fill="#ffffff" opacity="0.63"/><circle cx="223" cy="248" r="1.6" fill="#ffffff" opacity="0.25"/><circle cx="78" cy="281" r="1.2" fill="#ffffff" opacity="0.61"/><circle cx="47" cy="192" r="0.8" fill="#ffffff" opacity="0.38"/><circle cx="124" cy="69" r="1.0" fill="#ffffff" opacity="0.77"/><circle cx="188" cy="28" r="1.9" fill="#ffffff" opacity="0.65"/><circle cx="97" cy="197" r="1.6" fill="#ffffff" opacity="0.72"/><circle cx="153" cy="214" r="0.8" fill="#ffffff" opacity="0.62"/></g>
  <circle cx="160" cy="160" r="104" fill="#020617" opacity=".38"/>
  <g filter="url(#glow)"><circle cx="160" cy="160" r="78" fill="none" stroke="url(#g)" stroke-width="7" opacity=".72"/></g>
  <text x="160" y="175" text-anchor="middle" font-family="Arial, Helvetica, sans-serif" font-size="64" font-weight="800" fill="#f8fbff" filter="url(#glow)">DT</text>
  <text x="160" y="64" text-anchor="middle" font-family="Arial, Helvetica, sans-serif" font-size="36" font-weight="800" fill="#38bdf8" filter="url(#glow)">✧</text>
  <text x="160" y="270" text-anchor="middle" font-family="Arial, Helvetica, sans-serif" font-size="13" font-weight="700" fill="#dbeafe">Conhecimento Espacial</text>
</svg>