<svg xmlns="http://www.w3.org/2000/svg" width="320" height="320" viewBox="0 0 320 320" role="img" aria-label="Lenda da Rotina Cósmica">
  <defs>
    <radialGradient id="bg" cx="50%" cy="36%" r="72%">
      <stop offset="0%" stop-color="#e0f2fe" stop-opacity=".42"/>
      <stop offset="45%" stop-color="#0891b2" stop-opacity=".88"/>
      <stop offset="100%" stop-color="#020617"/>
    </radialGradient>
    <linearGradient id="g" x1="58" y1="42" x2="262" y2="276" gradientUnits="userSpaceOnUse">
      <stop offset="0%" stop-color="#ffffff"/>
      <stop offset="42%" stop-color="#e0f2fe"/>
      <stop offset="100%" stop-color="#7dd3fc"/>
    </linearGradient>
    <filter id="glow" x="-40%" y="-40%" width="180%" height="180%">
      <feGaussianBlur stdDeviation="5" result="blur"/>
      <feMerge>
        <feMergeNode in="blur"/>
        <feMergeNode in="SourceGraphic"/>
      </feMerge>
    </filter>
  </defs>
  <rect width="320" height="320" rx="52" fill="#020617"/>
  <rect x="10" y="10" width="300" height="300" rx="44" fill="url(#bg)" stroke="url(#g)" stroke-width="3"/>
  <g><circle cx="158" cy="105" r="1.4" fill="#ffffff" opacity="0.74"/><circle cx="128" cy="188" r="2.1" fill="#ffffff" opacity="0.36"/><circle cx="256" cy="71" r="1.8" fill="#ffffff" opacity="0.36"/><circle cx="87" cy="191" r="1.1" fill="#ffffff" opacity="0.31"/><circle cx="287" cy="254" r="1.2" fill="#ffffff" opacity="0.34"/><circle cx="108" cy="75" r="1.0" fill="#ffffff" opacity="0.67"/><circle cx="271" cy="280" r="1.2" fill="#ffffff" opacity="0.67"/><circle cx="99" cy="272" r="1.6" fill="#ffffff" opacity="0.38"/><circle cx="209" cy="271" r="0.9" fill="#ffffff" opacity="0.75"/><circle cx="127" cy="241" r="0.9" fill="#ffffff" opacity="0.54"/><circle cx="191" cy="79" r="1.1" fill="#ffffff" opacity="0.58"/><circle cx="234" cy="275" r="1.8" fill="#ffffff" opacity="0.76"/><circle cx="180" cy="97" r="1.2" fill="#ffffff" opacity="0.38"/><circle cx="115" cy="224" r="1.2" fill="#ffffff" opacity="0.7"/><circle cx="179" cy="78" r="1.6" fill="#ffffff" opacity="0.75"/><circle cx="184" cy="280" r="1.6" fill="#ffffff" opacity="0.44"/><circle cx="304" cy="61" r="1.8" fill="#ffffff" opacity="0.51"/><circle cx="175" cy="65" r="1.8" fill="#ffffff" opacity="0.64"/><circle cx="178" cy="249" r="0.9" fill="#ffffff" opacity="0.36"/><circle cx="233" cy="207" r="1.7" fill="#ffffff" opacity="0.6"/><circle cx="255" cy="156" r="0.8" fill="#ffffff" opacity="0.41"/><circle cx="292" cy="38" r="0.9" fill="#ffffff" opacity="0.75"/></g>
  <circle cx="160" cy="160" r="104" fill="#020617" opacity=".38"/>
  <g filter="url(#glow)"><path d="M223 142a64 64 0 1 0-18 60" fill="none" stroke="url(#g)" stroke-width="8" opacity=".75"/><path d="M206 202h36v-36" fill="none" stroke="url(#g)" stroke-width="8" stroke-linecap="round" opacity=".75"/></g>
  <text x="160" y="175" text-anchor="middle" font-family="Arial, Helvetica, sans-serif" font-size="64" font-weight="800" fill="#f8fbff" filter="url(#glow)">LR</text>
  <text x="160" y="64" text-anchor="middle" font-family="Arial, Helvetica, sans-serif" font-size="36" font-weight="800" fill="#e0f2fe" filter="url(#glow)">↻</text>
  <text x="160" y="270" text-anchor="middle" font-family="Arial, Helvetica, sans-serif" font-size="13" font-weight="700" fill="#dbeafe">Frequência</text>
</svg>