<svg xmlns="http://www.w3.org/2000/svg" width="320" height="320" viewBox="0 0 320 320" role="img" aria-label="Sinal Reencontrado">
  <defs>
    <radialGradient id="bg" cx="50%" cy="36%" r="72%">
      <stop offset="0%" stop-color="#34d399" stop-opacity=".42"/>
      <stop offset="45%" stop-color="#064e3b" stop-opacity=".88"/>
      <stop offset="100%" stop-color="#020617"/>
    </radialGradient>
    <linearGradient id="g" x1="58" y1="42" x2="262" y2="276" gradientUnits="userSpaceOnUse">
      <stop offset="0%" stop-color="#ffffff"/>
      <stop offset="42%" stop-color="#34d399"/>
      <stop offset="100%" stop-color="#7dd3fc"/>
    </linearGradient>
    <filter id="glow" x="-40%" y="-40%" width="180%" height="180%">
      <feGaussianBlur stdDeviation="5" result="blur"/>
      <feMerge>
        <feMergeNode in="blur"/>
        <feMergeNode in="SourceGraphic"/>
      </feMerge>
    </filter>
  </defs>
  <rect width="320" height="320" rx="52" fill="#020617"/>
  <rect x="10" y="10" width="300" height="300" rx="44" fill="url(#bg)" stroke="url(#g)" stroke-width="3"/>
  <g><circle cx="231" cy="299" r="0.8" fill="#ffffff" opacity="0.44"/><circle cx="279" cy="181" r="1.3" fill="#ffffff" opacity="0.4"/><circle cx="64" cy="164" r="0.9" fill="#ffffff" opacity="0.74"/><circle cx="44" cy="159" r="1.7" fill="#ffffff" opacity="0.48"/><circle cx="98" cy="294" r="1.4" fill="#ffffff" opacity="0.42"/><circle cx="171" cy="243" r="1.3" fill="#ffffff" opacity="0.22"/><circle cx="56" cy="182" r="1.2" fill="#ffffff" opacity="0.68"/><circle cx="300" cy="213" r="1.6" fill="#ffffff" opacity="0.49"/><circle cx="175" cy="300" r="1.8" fill="#ffffff" opacity="0.61"/><circle cx="265" cy="66" r="0.9" fill="#ffffff" opacity="0.39"/><circle cx="162" cy="121" r="2.0" fill="#ffffff" opacity="0.5"/><circle cx="159" cy="21" r="1.4" fill="#ffffff" opacity="0.25"/><circle cx="62" cy="48" r="1.2" fill="#ffffff" opacity="0.66"/><circle cx="19" cy="120" r="1.6" fill="#ffffff" opacity="0.22"/><circle cx="122" cy="113" r="2.0" fill="#ffffff" opacity="0.7"/><circle cx="45" cy="161" r="1.7" fill="#ffffff" opacity="0.25"/><circle cx="71" cy="168" r="1.1" fill="#ffffff" opacity="0.42"/><circle cx="264" cy="277" r="1.7" fill="#ffffff" opacity="0.61"/><circle cx="265" cy="37" r="1.4" fill="#ffffff" opacity="0.63"/><circle cx="46" cy="50" r="1.0" fill="#ffffff" opacity="0.42"/><circle cx="70" cy="190" r="2.1" fill="#ffffff" opacity="0.52"/><circle cx="156" cy="118" r="0.9" fill="#ffffff" opacity="0.69"/></g>
  <circle cx="160" cy="160" r="104" fill="#020617" opacity=".38"/>
  <g filter="url(#glow)"><path d="M223 142a64 64 0 1 0-18 60" fill="none" stroke="url(#g)" stroke-width="8" opacity=".75"/><path d="M206 202h36v-36" fill="none" stroke="url(#g)" stroke-width="8" stroke-linecap="round" opacity=".75"/></g>
  <text x="160" y="175" text-anchor="middle" font-family="Arial, Helvetica, sans-serif" font-size="64" font-weight="800" fill="#f8fbff" filter="url(#glow)">SR</text>
  <text x="160" y="64" text-anchor="middle" font-family="Arial, Helvetica, sans-serif" font-size="36" font-weight="800" fill="#34d399" filter="url(#glow)">↻</text>
  <text x="160" y="270" text-anchor="middle" font-family="Arial, Helvetica, sans-serif" font-size="13" font-weight="700" fill="#dbeafe">Frequência</text>
</svg>