<svg xmlns="http://www.w3.org/2000/svg" width="320" height="320" viewBox="0 0 320 320" role="img" aria-label="Explorador Frequente">
  <defs>
    <radialGradient id="bg" cx="50%" cy="36%" r="72%">
      <stop offset="0%" stop-color="#34d399" stop-opacity=".42"/>
      <stop offset="45%" stop-color="#064e3b" stop-opacity=".88"/>
      <stop offset="100%" stop-color="#020617"/>
    </radialGradient>
    <linearGradient id="g" x1="58" y1="42" x2="262" y2="276" gradientUnits="userSpaceOnUse">
      <stop offset="0%" stop-color="#ffffff"/>
      <stop offset="42%" stop-color="#34d399"/>
      <stop offset="100%" stop-color="#7dd3fc"/>
    </linearGradient>
    <filter id="glow" x="-40%" y="-40%" width="180%" height="180%">
      <feGaussianBlur stdDeviation="5" result="blur"/>
      <feMerge>
        <feMergeNode in="blur"/>
        <feMergeNode in="SourceGraphic"/>
      </feMerge>
    </filter>
  </defs>
  <rect width="320" height="320" rx="52" fill="#020617"/>
  <rect x="10" y="10" width="300" height="300" rx="44" fill="url(#bg)" stroke="url(#g)" stroke-width="3"/>
  <g><circle cx="85" cy="163" r="2.0" fill="#ffffff" opacity="0.75"/><circle cx="70" cy="185" r="2.1" fill="#ffffff" opacity="0.29"/><circle cx="281" cy="217" r="1.2" fill="#ffffff" opacity="0.35"/><circle cx="279" cy="37" r="1.0" fill="#ffffff" opacity="0.61"/><circle cx="292" cy="84" r="0.8" fill="#ffffff" opacity="0.52"/><circle cx="249" cy="159" r="1.3" fill="#ffffff" opacity="0.32"/><circle cx="256" cy="164" r="1.8" fill="#ffffff" opacity="0.47"/><circle cx="130" cy="187" r="1.3" fill="#ffffff" opacity="0.68"/><circle cx="170" cy="65" r="1.9" fill="#ffffff" opacity="0.38"/><circle cx="283" cy="257" r="0.8" fill="#ffffff" opacity="0.61"/><circle cx="208" cy="123" r="1.9" fill="#ffffff" opacity="0.36"/><circle cx="66" cy="228" r="1.1" fill="#ffffff" opacity="0.4"/><circle cx="86" cy="224" r="1.4" fill="#ffffff" opacity="0.78"/><circle cx="230" cy="229" r="2.1" fill="#ffffff" opacity="0.4"/><circle cx="52" cy="215" r="0.9" fill="#ffffff" opacity="0.67"/><circle cx="52" cy="215" r="1.8" fill="#ffffff" opacity="0.77"/><circle cx="88" cy="86" r="1.4" fill="#ffffff" opacity="0.5"/><circle cx="230" cy="240" r="1.3" fill="#ffffff" opacity="0.77"/><circle cx="200" cy="104" r="1.5" fill="#ffffff" opacity="0.66"/><circle cx="137" cy="135" r="1.2" fill="#ffffff" opacity="0.33"/><circle cx="117" cy="284" r="1.7" fill="#ffffff" opacity="0.73"/><circle cx="61" cy="166" r="1.1" fill="#ffffff" opacity="0.23"/></g>
  <circle cx="160" cy="160" r="104" fill="#020617" opacity=".38"/>
  <g filter="url(#glow)"><path d="M223 142a64 64 0 1 0-18 60" fill="none" stroke="url(#g)" stroke-width="8" opacity=".75"/><path d="M206 202h36v-36" fill="none" stroke="url(#g)" stroke-width="8" stroke-linecap="round" opacity=".75"/></g>
  <text x="160" y="175" text-anchor="middle" font-family="Arial, Helvetica, sans-serif" font-size="64" font-weight="800" fill="#f8fbff" filter="url(#glow)">EF</text>
  <text x="160" y="64" text-anchor="middle" font-family="Arial, Helvetica, sans-serif" font-size="36" font-weight="800" fill="#34d399" filter="url(#glow)">↻</text>
  <text x="160" y="270" text-anchor="middle" font-family="Arial, Helvetica, sans-serif" font-size="13" font-weight="700" fill="#dbeafe">Frequência</text>
</svg>