<svg xmlns="http://www.w3.org/2000/svg" width="320" height="320" viewBox="0 0 320 320" role="img" aria-label="Tripulante Oficial">
  <defs>
    <radialGradient id="bg" cx="50%" cy="36%" r="72%">
      <stop offset="0%" stop-color="#a78bfa" stop-opacity=".42"/>
      <stop offset="45%" stop-color="#312e81" stop-opacity=".88"/>
      <stop offset="100%" stop-color="#020617"/>
    </radialGradient>
    <linearGradient id="g" x1="58" y1="42" x2="262" y2="276" gradientUnits="userSpaceOnUse">
      <stop offset="0%" stop-color="#ffffff"/>
      <stop offset="42%" stop-color="#a78bfa"/>
      <stop offset="100%" stop-color="#7dd3fc"/>
    </linearGradient>
    <filter id="glow" x="-40%" y="-40%" width="180%" height="180%">
      <feGaussianBlur stdDeviation="5" result="blur"/>
      <feMerge>
        <feMergeNode in="blur"/>
        <feMergeNode in="SourceGraphic"/>
      </feMerge>
    </filter>
  </defs>
  <rect width="320" height="320" rx="52" fill="#020617"/>
  <rect x="10" y="10" width="300" height="300" rx="44" fill="url(#bg)" stroke="url(#g)" stroke-width="3"/>
  <g><circle cx="263" cy="193" r="1.6" fill="#ffffff" opacity="0.44"/><circle cx="229" cy="268" r="1.4" fill="#ffffff" opacity="0.35"/><circle cx="171" cy="145" r="1.5" fill="#ffffff" opacity="0.29"/><circle cx="103" cy="17" r="1.0" fill="#ffffff" opacity="0.68"/><circle cx="142" cy="90" r="1.8" fill="#ffffff" opacity="0.48"/><circle cx="292" cy="202" r="1.6" fill="#ffffff" opacity="0.67"/><circle cx="181" cy="290" r="1.9" fill="#ffffff" opacity="0.67"/><circle cx="190" cy="171" r="1.3" fill="#ffffff" opacity="0.3"/><circle cx="30" cy="163" r="1.5" fill="#ffffff" opacity="0.57"/><circle cx="303" cy="174" r="1.8" fill="#ffffff" opacity="0.24"/><circle cx="249" cy="241" r="1.0" fill="#ffffff" opacity="0.61"/><circle cx="136" cy="88" r="1.2" fill="#ffffff" opacity="0.49"/><circle cx="113" cy="295" r="1.8" fill="#ffffff" opacity="0.36"/><circle cx="37" cy="59" r="1.2" fill="#ffffff" opacity="0.28"/><circle cx="196" cy="253" r="0.9" fill="#ffffff" opacity="0.34"/><circle cx="216" cy="222" r="1.0" fill="#ffffff" opacity="0.76"/><circle cx="17" cy="260" r="2.0" fill="#ffffff" opacity="0.42"/><circle cx="216" cy="158" r="1.5" fill="#ffffff" opacity="0.6"/><circle cx="31" cy="79" r="1.3" fill="#ffffff" opacity="0.26"/><circle cx="162" cy="166" r="1.1" fill="#ffffff" opacity="0.44"/><circle cx="43" cy="195" r="0.8" fill="#ffffff" opacity="0.37"/><circle cx="34" cy="172" r="2.0" fill="#ffffff" opacity="0.31"/></g>
  <circle cx="160" cy="160" r="104" fill="#020617" opacity=".38"/>
  <g filter="url(#glow)"><path d="M223 142a64 64 0 1 0-18 60" fill="none" stroke="url(#g)" stroke-width="8" opacity=".75"/><path d="M206 202h36v-36" fill="none" stroke="url(#g)" stroke-width="8" stroke-linecap="round" opacity=".75"/></g>
  <text x="160" y="175" text-anchor="middle" font-family="Arial, Helvetica, sans-serif" font-size="64" font-weight="800" fill="#f8fbff" filter="url(#glow)">TO</text>
  <text x="160" y="64" text-anchor="middle" font-family="Arial, Helvetica, sans-serif" font-size="36" font-weight="800" fill="#a78bfa" filter="url(#glow)">↻</text>
  <text x="160" y="270" text-anchor="middle" font-family="Arial, Helvetica, sans-serif" font-size="13" font-weight="700" fill="#dbeafe">Frequência</text>
</svg>