<svg xmlns="http://www.w3.org/2000/svg" width="320" height="320" viewBox="0 0 320 320" role="img" aria-label="Rota de Retorno">
  <defs>
    <radialGradient id="bg" cx="50%" cy="36%" r="72%">
      <stop offset="0%" stop-color="#38bdf8" stop-opacity=".42"/>
      <stop offset="45%" stop-color="#0f2a5f" stop-opacity=".88"/>
      <stop offset="100%" stop-color="#020617"/>
    </radialGradient>
    <linearGradient id="g" x1="58" y1="42" x2="262" y2="276" gradientUnits="userSpaceOnUse">
      <stop offset="0%" stop-color="#ffffff"/>
      <stop offset="42%" stop-color="#38bdf8"/>
      <stop offset="100%" stop-color="#7dd3fc"/>
    </linearGradient>
    <filter id="glow" x="-40%" y="-40%" width="180%" height="180%">
      <feGaussianBlur stdDeviation="5" result="blur"/>
      <feMerge>
        <feMergeNode in="blur"/>
        <feMergeNode in="SourceGraphic"/>
      </feMerge>
    </filter>
  </defs>
  <rect width="320" height="320" rx="52" fill="#020617"/>
  <rect x="10" y="10" width="300" height="300" rx="44" fill="url(#bg)" stroke="url(#g)" stroke-width="3"/>
  <g><circle cx="258" cy="71" r="1.0" fill="#ffffff" opacity="0.42"/><circle cx="175" cy="55" r="1.2" fill="#ffffff" opacity="0.56"/><circle cx="23" cy="197" r="0.8" fill="#ffffff" opacity="0.64"/><circle cx="25" cy="281" r="1.3" fill="#ffffff" opacity="0.53"/><circle cx="51" cy="155" r="1.2" fill="#ffffff" opacity="0.65"/><circle cx="38" cy="153" r="0.8" fill="#ffffff" opacity="0.36"/><circle cx="196" cy="258" r="1.9" fill="#ffffff" opacity="0.44"/><circle cx="34" cy="70" r="1.6" fill="#ffffff" opacity="0.46"/><circle cx="61" cy="18" r="1.7" fill="#ffffff" opacity="0.25"/><circle cx="69" cy="232" r="1.7" fill="#ffffff" opacity="0.34"/><circle cx="225" cy="208" r="1.7" fill="#ffffff" opacity="0.74"/><circle cx="276" cy="216" r="1.1" fill="#ffffff" opacity="0.4"/><circle cx="45" cy="173" r="1.9" fill="#ffffff" opacity="0.33"/><circle cx="258" cy="107" r="1.5" fill="#ffffff" opacity="0.63"/><circle cx="86" cy="141" r="1.3" fill="#ffffff" opacity="0.24"/><circle cx="221" cy="64" r="1.2" fill="#ffffff" opacity="0.39"/><circle cx="30" cy="220" r="1.9" fill="#ffffff" opacity="0.68"/><circle cx="293" cy="105" r="2.1" fill="#ffffff" opacity="0.63"/><circle cx="250" cy="96" r="2.0" fill="#ffffff" opacity="0.26"/><circle cx="198" cy="223" r="0.9" fill="#ffffff" opacity="0.59"/><circle cx="114" cy="190" r="2.0" fill="#ffffff" opacity="0.49"/><circle cx="299" cy="126" r="1.8" fill="#ffffff" opacity="0.29"/></g>
  <circle cx="160" cy="160" r="104" fill="#020617" opacity=".38"/>
  <g filter="url(#glow)"><path d="M223 142a64 64 0 1 0-18 60" fill="none" stroke="url(#g)" stroke-width="8" opacity=".75"/><path d="M206 202h36v-36" fill="none" stroke="url(#g)" stroke-width="8" stroke-linecap="round" opacity=".75"/></g>
  <text x="160" y="175" text-anchor="middle" font-family="Arial, Helvetica, sans-serif" font-size="64" font-weight="800" fill="#f8fbff" filter="url(#glow)">RR</text>
  <text x="160" y="64" text-anchor="middle" font-family="Arial, Helvetica, sans-serif" font-size="36" font-weight="800" fill="#38bdf8" filter="url(#glow)">↻</text>
  <text x="160" y="270" text-anchor="middle" font-family="Arial, Helvetica, sans-serif" font-size="13" font-weight="700" fill="#dbeafe">Frequência</text>
</svg>