<svg xmlns="http://www.w3.org/2000/svg" width="320" height="320" viewBox="0 0 320 320" role="img" aria-label="Voltei para a Nave">
  <defs>
    <radialGradient id="bg" cx="50%" cy="36%" r="72%">
      <stop offset="0%" stop-color="#38bdf8" stop-opacity=".42"/>
      <stop offset="45%" stop-color="#0f2a5f" stop-opacity=".88"/>
      <stop offset="100%" stop-color="#020617"/>
    </radialGradient>
    <linearGradient id="g" x1="58" y1="42" x2="262" y2="276" gradientUnits="userSpaceOnUse">
      <stop offset="0%" stop-color="#ffffff"/>
      <stop offset="42%" stop-color="#38bdf8"/>
      <stop offset="100%" stop-color="#7dd3fc"/>
    </linearGradient>
    <filter id="glow" x="-40%" y="-40%" width="180%" height="180%">
      <feGaussianBlur stdDeviation="5" result="blur"/>
      <feMerge>
        <feMergeNode in="blur"/>
        <feMergeNode in="SourceGraphic"/>
      </feMerge>
    </filter>
  </defs>
  <rect width="320" height="320" rx="52" fill="#020617"/>
  <rect x="10" y="10" width="300" height="300" rx="44" fill="url(#bg)" stroke="url(#g)" stroke-width="3"/>
  <g><circle cx="302" cy="66" r="1.6" fill="#ffffff" opacity="0.61"/><circle cx="197" cy="141" r="0.8" fill="#ffffff" opacity="0.32"/><circle cx="107" cy="96" r="1.1" fill="#ffffff" opacity="0.46"/><circle cx="57" cy="27" r="2.0" fill="#ffffff" opacity="0.25"/><circle cx="288" cy="300" r="1.1" fill="#ffffff" opacity="0.34"/><circle cx="61" cy="133" r="0.8" fill="#ffffff" opacity="0.36"/><circle cx="138" cy="16" r="0.9" fill="#ffffff" opacity="0.27"/><circle cx="185" cy="273" r="1.4" fill="#ffffff" opacity="0.49"/><circle cx="80" cy="218" r="0.9" fill="#ffffff" opacity="0.58"/><circle cx="91" cy="52" r="1.2" fill="#ffffff" opacity="0.59"/><circle cx="68" cy="242" r="1.1" fill="#ffffff" opacity="0.71"/><circle cx="66" cy="205" r="0.9" fill="#ffffff" opacity="0.78"/><circle cx="23" cy="123" r="1.0" fill="#ffffff" opacity="0.3"/><circle cx="56" cy="238" r="0.9" fill="#ffffff" opacity="0.63"/><circle cx="65" cy="186" r="1.0" fill="#ffffff" opacity="0.42"/><circle cx="277" cy="167" r="1.9" fill="#ffffff" opacity="0.75"/><circle cx="110" cy="284" r="1.8" fill="#ffffff" opacity="0.66"/><circle cx="249" cy="242" r="1.6" fill="#ffffff" opacity="0.51"/><circle cx="43" cy="22" r="0.9" fill="#ffffff" opacity="0.58"/><circle cx="183" cy="64" r="1.5" fill="#ffffff" opacity="0.49"/><circle cx="283" cy="67" r="1.5" fill="#ffffff" opacity="0.53"/><circle cx="96" cy="37" r="1.8" fill="#ffffff" opacity="0.78"/></g>
  <circle cx="160" cy="160" r="104" fill="#020617" opacity=".38"/>
  <g filter="url(#glow)"><path d="M223 142a64 64 0 1 0-18 60" fill="none" stroke="url(#g)" stroke-width="8" opacity=".75"/><path d="M206 202h36v-36" fill="none" stroke="url(#g)" stroke-width="8" stroke-linecap="round" opacity=".75"/></g>
  <text x="160" y="175" text-anchor="middle" font-family="Arial, Helvetica, sans-serif" font-size="64" font-weight="800" fill="#f8fbff" filter="url(#glow)">VN</text>
  <text x="160" y="64" text-anchor="middle" font-family="Arial, Helvetica, sans-serif" font-size="36" font-weight="800" fill="#38bdf8" filter="url(#glow)">↻</text>
  <text x="160" y="270" text-anchor="middle" font-family="Arial, Helvetica, sans-serif" font-size="13" font-weight="700" fill="#dbeafe">Frequência</text>
</svg>