<svg xmlns="http://www.w3.org/2000/svg" width="320" height="320" viewBox="0 0 320 320" role="img" aria-label="Diário de Bordo">
  <defs>
    <radialGradient id="bg" cx="50%" cy="36%" r="72%">
      <stop offset="0%" stop-color="#a78bfa" stop-opacity=".42"/>
      <stop offset="45%" stop-color="#312e81" stop-opacity=".88"/>
      <stop offset="100%" stop-color="#020617"/>
    </radialGradient>
    <linearGradient id="g" x1="58" y1="42" x2="262" y2="276" gradientUnits="userSpaceOnUse">
      <stop offset="0%" stop-color="#ffffff"/>
      <stop offset="42%" stop-color="#a78bfa"/>
      <stop offset="100%" stop-color="#7dd3fc"/>
    </linearGradient>
    <filter id="glow" x="-40%" y="-40%" width="180%" height="180%">
      <feGaussianBlur stdDeviation="5" result="blur"/>
      <feMerge>
        <feMergeNode in="blur"/>
        <feMergeNode in="SourceGraphic"/>
      </feMerge>
    </filter>
  </defs>
  <rect width="320" height="320" rx="52" fill="#020617"/>
  <rect x="10" y="10" width="300" height="300" rx="44" fill="url(#bg)" stroke="url(#g)" stroke-width="3"/>
  <g><circle cx="181" cy="232" r="1.7" fill="#ffffff" opacity="0.41"/><circle cx="256" cy="75" r="1.1" fill="#ffffff" opacity="0.25"/><circle cx="148" cy="302" r="1.3" fill="#ffffff" opacity="0.43"/><circle cx="190" cy="35" r="1.1" fill="#ffffff" opacity="0.26"/><circle cx="142" cy="237" r="1.6" fill="#ffffff" opacity="0.41"/><circle cx="208" cy="239" r="1.3" fill="#ffffff" opacity="0.75"/><circle cx="63" cy="105" r="1.6" fill="#ffffff" opacity="0.77"/><circle cx="221" cy="241" r="2.0" fill="#ffffff" opacity="0.68"/><circle cx="232" cy="215" r="0.8" fill="#ffffff" opacity="0.68"/><circle cx="237" cy="167" r="0.8" fill="#ffffff" opacity="0.48"/><circle cx="183" cy="25" r="1.5" fill="#ffffff" opacity="0.39"/><circle cx="292" cy="95" r="1.6" fill="#ffffff" opacity="0.44"/><circle cx="16" cy="289" r="1.3" fill="#ffffff" opacity="0.34"/><circle cx="19" cy="291" r="2.0" fill="#ffffff" opacity="0.58"/><circle cx="182" cy="258" r="2.0" fill="#ffffff" opacity="0.34"/><circle cx="133" cy="276" r="0.9" fill="#ffffff" opacity="0.22"/><circle cx="40" cy="61" r="1.2" fill="#ffffff" opacity="0.74"/><circle cx="213" cy="168" r="1.0" fill="#ffffff" opacity="0.23"/><circle cx="302" cy="289" r="0.9" fill="#ffffff" opacity="0.26"/><circle cx="105" cy="129" r="1.7" fill="#ffffff" opacity="0.4"/><circle cx="46" cy="128" r="2.0" fill="#ffffff" opacity="0.54"/><circle cx="238" cy="81" r="1.2" fill="#ffffff" opacity="0.39"/></g>
  <circle cx="160" cy="160" r="104" fill="#020617" opacity=".38"/>
  <g filter="url(#glow)"><path d="M223 142a64 64 0 1 0-18 60" fill="none" stroke="url(#g)" stroke-width="8" opacity=".75"/><path d="M206 202h36v-36" fill="none" stroke="url(#g)" stroke-width="8" stroke-linecap="round" opacity=".75"/></g>
  <text x="160" y="175" text-anchor="middle" font-family="Arial, Helvetica, sans-serif" font-size="64" font-weight="800" fill="#f8fbff" filter="url(#glow)">DB</text>
  <text x="160" y="64" text-anchor="middle" font-family="Arial, Helvetica, sans-serif" font-size="36" font-weight="800" fill="#a78bfa" filter="url(#glow)">↻</text>
  <text x="160" y="270" text-anchor="middle" font-family="Arial, Helvetica, sans-serif" font-size="13" font-weight="700" fill="#dbeafe">Frequência</text>
</svg>