<svg xmlns="http://www.w3.org/2000/svg" width="320" height="320" viewBox="0 0 320 320" role="img" aria-label="Aprendizagem em Rota">
  <defs>
    <radialGradient id="bg" cx="50%" cy="36%" r="72%">
      <stop offset="0%" stop-color="#a78bfa" stop-opacity=".42"/>
      <stop offset="45%" stop-color="#312e81" stop-opacity=".88"/>
      <stop offset="100%" stop-color="#020617"/>
    </radialGradient>
    <linearGradient id="g" x1="58" y1="42" x2="262" y2="276" gradientUnits="userSpaceOnUse">
      <stop offset="0%" stop-color="#ffffff"/>
      <stop offset="42%" stop-color="#a78bfa"/>
      <stop offset="100%" stop-color="#7dd3fc"/>
    </linearGradient>
    <filter id="glow" x="-40%" y="-40%" width="180%" height="180%">
      <feGaussianBlur stdDeviation="5" result="blur"/>
      <feMerge>
        <feMergeNode in="blur"/>
        <feMergeNode in="SourceGraphic"/>
      </feMerge>
    </filter>
  </defs>
  <rect width="320" height="320" rx="52" fill="#020617"/>
  <rect x="10" y="10" width="300" height="300" rx="44" fill="url(#bg)" stroke="url(#g)" stroke-width="3"/>
  <g><circle cx="242" cy="254" r="2.0" fill="#ffffff" opacity="0.41"/><circle cx="49" cy="135" r="1.1" fill="#ffffff" opacity="0.32"/><circle cx="100" cy="220" r="1.2" fill="#ffffff" opacity="0.48"/><circle cx="177" cy="57" r="1.0" fill="#ffffff" opacity="0.46"/><circle cx="83" cy="217" r="1.0" fill="#ffffff" opacity="0.48"/><circle cx="115" cy="84" r="0.8" fill="#ffffff" opacity="0.64"/><circle cx="196" cy="277" r="1.8" fill="#ffffff" opacity="0.24"/><circle cx="259" cy="113" r="1.4" fill="#ffffff" opacity="0.75"/><circle cx="268" cy="191" r="2.1" fill="#ffffff" opacity="0.71"/><circle cx="43" cy="260" r="2.0" fill="#ffffff" opacity="0.36"/><circle cx="77" cy="168" r="1.5" fill="#ffffff" opacity="0.3"/><circle cx="66" cy="249" r="1.0" fill="#ffffff" opacity="0.62"/><circle cx="24" cy="246" r="1.0" fill="#ffffff" opacity="0.67"/><circle cx="188" cy="180" r="1.0" fill="#ffffff" opacity="0.72"/><circle cx="136" cy="25" r="1.7" fill="#ffffff" opacity="0.77"/><circle cx="247" cy="61" r="0.8" fill="#ffffff" opacity="0.7"/><circle cx="143" cy="124" r="1.1" fill="#ffffff" opacity="0.52"/><circle cx="150" cy="198" r="1.8" fill="#ffffff" opacity="0.6"/><circle cx="34" cy="100" r="1.2" fill="#ffffff" opacity="0.75"/><circle cx="293" cy="301" r="2.0" fill="#ffffff" opacity="0.4"/><circle cx="232" cy="19" r="1.6" fill="#ffffff" opacity="0.38"/><circle cx="210" cy="254" r="1.0" fill="#ffffff" opacity="0.28"/></g>
  <circle cx="160" cy="160" r="104" fill="#020617" opacity=".38"/>
  <g filter="url(#glow)"><path d="M87 163 C102 87 218 87 233 163 C217 239 103 239 87 163Z" fill="none" stroke="url(#g)" stroke-width="7" opacity=".7"/></g>
  <text x="160" y="175" text-anchor="middle" font-family="Arial, Helvetica, sans-serif" font-size="64" font-weight="800" fill="#f8fbff" filter="url(#glow)">AR</text>
  <text x="160" y="64" text-anchor="middle" font-family="Arial, Helvetica, sans-serif" font-size="36" font-weight="800" fill="#a78bfa" filter="url(#glow)">?</text>
  <text x="160" y="270" text-anchor="middle" font-family="Arial, Helvetica, sans-serif" font-size="13" font-weight="700" fill="#dbeafe">Modo Aventura</text>
</svg>