<svg xmlns="http://www.w3.org/2000/svg" width="320" height="320" viewBox="0 0 320 320" role="img" aria-label="Não Desistiu">
  <defs>
    <radialGradient id="bg" cx="50%" cy="36%" r="72%">
      <stop offset="0%" stop-color="#34d399" stop-opacity=".42"/>
      <stop offset="45%" stop-color="#064e3b" stop-opacity=".88"/>
      <stop offset="100%" stop-color="#020617"/>
    </radialGradient>
    <linearGradient id="g" x1="58" y1="42" x2="262" y2="276" gradientUnits="userSpaceOnUse">
      <stop offset="0%" stop-color="#ffffff"/>
      <stop offset="42%" stop-color="#34d399"/>
      <stop offset="100%" stop-color="#7dd3fc"/>
    </linearGradient>
    <filter id="glow" x="-40%" y="-40%" width="180%" height="180%">
      <feGaussianBlur stdDeviation="5" result="blur"/>
      <feMerge>
        <feMergeNode in="blur"/>
        <feMergeNode in="SourceGraphic"/>
      </feMerge>
    </filter>
  </defs>
  <rect width="320" height="320" rx="52" fill="#020617"/>
  <rect x="10" y="10" width="300" height="300" rx="44" fill="url(#bg)" stroke="url(#g)" stroke-width="3"/>
  <g><circle cx="288" cy="63" r="1.9" fill="#ffffff" opacity="0.43"/><circle cx="271" cy="268" r="2.0" fill="#ffffff" opacity="0.33"/><circle cx="265" cy="217" r="1.6" fill="#ffffff" opacity="0.77"/><circle cx="62" cy="303" r="1.9" fill="#ffffff" opacity="0.75"/><circle cx="301" cy="87" r="0.9" fill="#ffffff" opacity="0.54"/><circle cx="258" cy="115" r="1.9" fill="#ffffff" opacity="0.64"/><circle cx="128" cy="65" r="1.7" fill="#ffffff" opacity="0.62"/><circle cx="76" cy="120" r="1.5" fill="#ffffff" opacity="0.41"/><circle cx="157" cy="34" r="1.5" fill="#ffffff" opacity="0.57"/><circle cx="128" cy="219" r="1.8" fill="#ffffff" opacity="0.22"/><circle cx="161" cy="182" r="1.8" fill="#ffffff" opacity="0.61"/><circle cx="20" cy="98" r="1.5" fill="#ffffff" opacity="0.51"/><circle cx="136" cy="192" r="1.9" fill="#ffffff" opacity="0.45"/><circle cx="55" cy="304" r="1.5" fill="#ffffff" opacity="0.24"/><circle cx="58" cy="304" r="0.8" fill="#ffffff" opacity="0.38"/><circle cx="247" cy="72" r="1.0" fill="#ffffff" opacity="0.35"/><circle cx="235" cy="221" r="1.2" fill="#ffffff" opacity="0.56"/><circle cx="134" cy="167" r="1.9" fill="#ffffff" opacity="0.68"/><circle cx="242" cy="105" r="1.5" fill="#ffffff" opacity="0.39"/><circle cx="142" cy="203" r="1.0" fill="#ffffff" opacity="0.54"/><circle cx="138" cy="189" r="1.3" fill="#ffffff" opacity="0.49"/><circle cx="192" cy="119" r="1.4" fill="#ffffff" opacity="0.32"/></g>
  <circle cx="160" cy="160" r="104" fill="#020617" opacity=".38"/>
  <g filter="url(#glow)"><path d="M87 163 C102 87 218 87 233 163 C217 239 103 239 87 163Z" fill="none" stroke="url(#g)" stroke-width="7" opacity=".7"/></g>
  <text x="160" y="175" text-anchor="middle" font-family="Arial, Helvetica, sans-serif" font-size="64" font-weight="800" fill="#f8fbff" filter="url(#glow)">ND</text>
  <text x="160" y="64" text-anchor="middle" font-family="Arial, Helvetica, sans-serif" font-size="36" font-weight="800" fill="#34d399" filter="url(#glow)">?</text>
  <text x="160" y="270" text-anchor="middle" font-family="Arial, Helvetica, sans-serif" font-size="13" font-weight="700" fill="#dbeafe">Modo Aventura</text>
</svg>