<svg xmlns="http://www.w3.org/2000/svg" width="320" height="320" viewBox="0 0 320 320" role="img" aria-label="Gigantes Gelados">
  <defs>
    <radialGradient id="bg" cx="50%" cy="36%" r="72%">
      <stop offset="0%" stop-color="#a78bfa" stop-opacity=".42"/>
      <stop offset="45%" stop-color="#312e81" stop-opacity=".88"/>
      <stop offset="100%" stop-color="#020617"/>
    </radialGradient>
    <linearGradient id="g" x1="58" y1="42" x2="262" y2="276" gradientUnits="userSpaceOnUse">
      <stop offset="0%" stop-color="#ffffff"/>
      <stop offset="42%" stop-color="#a78bfa"/>
      <stop offset="100%" stop-color="#7dd3fc"/>
    </linearGradient>
    <filter id="glow" x="-40%" y="-40%" width="180%" height="180%">
      <feGaussianBlur stdDeviation="5" result="blur"/>
      <feMerge>
        <feMergeNode in="blur"/>
        <feMergeNode in="SourceGraphic"/>
      </feMerge>
    </filter>
  </defs>
  <rect width="320" height="320" rx="52" fill="#020617"/>
  <rect x="10" y="10" width="300" height="300" rx="44" fill="url(#bg)" stroke="url(#g)" stroke-width="3"/>
  <g><circle cx="157" cy="27" r="1.0" fill="#ffffff" opacity="0.45"/><circle cx="81" cy="90" r="1.8" fill="#ffffff" opacity="0.66"/><circle cx="51" cy="216" r="0.8" fill="#ffffff" opacity="0.58"/><circle cx="107" cy="76" r="1.3" fill="#ffffff" opacity="0.29"/><circle cx="273" cy="229" r="1.5" fill="#ffffff" opacity="0.73"/><circle cx="149" cy="52" r="2.0" fill="#ffffff" opacity="0.36"/><circle cx="249" cy="237" r="1.8" fill="#ffffff" opacity="0.37"/><circle cx="276" cy="150" r="1.7" fill="#ffffff" opacity="0.63"/><circle cx="241" cy="131" r="1.0" fill="#ffffff" opacity="0.53"/><circle cx="133" cy="179" r="0.9" fill="#ffffff" opacity="0.66"/><circle cx="274" cy="29" r="1.9" fill="#ffffff" opacity="0.57"/><circle cx="219" cy="280" r="0.9" fill="#ffffff" opacity="0.41"/><circle cx="24" cy="26" r="1.5" fill="#ffffff" opacity="0.28"/><circle cx="211" cy="273" r="1.9" fill="#ffffff" opacity="0.26"/><circle cx="121" cy="216" r="1.2" fill="#ffffff" opacity="0.43"/><circle cx="79" cy="95" r="1.8" fill="#ffffff" opacity="0.57"/><circle cx="114" cy="110" r="1.2" fill="#ffffff" opacity="0.23"/><circle cx="239" cy="20" r="1.6" fill="#ffffff" opacity="0.72"/><circle cx="28" cy="198" r="1.1" fill="#ffffff" opacity="0.71"/><circle cx="73" cy="222" r="0.9" fill="#ffffff" opacity="0.54"/><circle cx="285" cy="292" r="1.5" fill="#ffffff" opacity="0.32"/><circle cx="143" cy="34" r="1.0" fill="#ffffff" opacity="0.3"/></g>
  <circle cx="160" cy="160" r="104" fill="#020617" opacity=".38"/>
  <g filter="url(#glow)"><ellipse cx="160" cy="164" rx="82" ry="24" fill="none" stroke="url(#g)" stroke-width="7" opacity=".75" transform="rotate(-18 160 164)"/></g>
  <text x="160" y="175" text-anchor="middle" font-family="Arial, Helvetica, sans-serif" font-size="64" font-weight="800" fill="#f8fbff" filter="url(#glow)">GG</text>
  <text x="160" y="64" text-anchor="middle" font-family="Arial, Helvetica, sans-serif" font-size="36" font-weight="800" fill="#a78bfa" filter="url(#glow)">◉</text>
  <text x="160" y="270" text-anchor="middle" font-family="Arial, Helvetica, sans-serif" font-size="13" font-weight="700" fill="#dbeafe">Exploração Planetária</text>
</svg>