<svg xmlns="http://www.w3.org/2000/svg" width="320" height="320" viewBox="0 0 320 320" role="img" aria-label="Gigantes do Sistema">
  <defs>
    <radialGradient id="bg" cx="50%" cy="36%" r="72%">
      <stop offset="0%" stop-color="#34d399" stop-opacity=".42"/>
      <stop offset="45%" stop-color="#064e3b" stop-opacity=".88"/>
      <stop offset="100%" stop-color="#020617"/>
    </radialGradient>
    <linearGradient id="g" x1="58" y1="42" x2="262" y2="276" gradientUnits="userSpaceOnUse">
      <stop offset="0%" stop-color="#ffffff"/>
      <stop offset="42%" stop-color="#34d399"/>
      <stop offset="100%" stop-color="#7dd3fc"/>
    </linearGradient>
    <filter id="glow" x="-40%" y="-40%" width="180%" height="180%">
      <feGaussianBlur stdDeviation="5" result="blur"/>
      <feMerge>
        <feMergeNode in="blur"/>
        <feMergeNode in="SourceGraphic"/>
      </feMerge>
    </filter>
  </defs>
  <rect width="320" height="320" rx="52" fill="#020617"/>
  <rect x="10" y="10" width="300" height="300" rx="44" fill="url(#bg)" stroke="url(#g)" stroke-width="3"/>
  <g><circle cx="108" cy="48" r="1.7" fill="#ffffff" opacity="0.76"/><circle cx="204" cy="198" r="1.3" fill="#ffffff" opacity="0.37"/><circle cx="185" cy="29" r="1.3" fill="#ffffff" opacity="0.62"/><circle cx="241" cy="86" r="1.6" fill="#ffffff" opacity="0.72"/><circle cx="94" cy="198" r="1.3" fill="#ffffff" opacity="0.48"/><circle cx="43" cy="272" r="1.1" fill="#ffffff" opacity="0.47"/><circle cx="230" cy="159" r="1.2" fill="#ffffff" opacity="0.46"/><circle cx="269" cy="152" r="1.6" fill="#ffffff" opacity="0.37"/><circle cx="216" cy="244" r="1.7" fill="#ffffff" opacity="0.71"/><circle cx="49" cy="234" r="1.1" fill="#ffffff" opacity="0.54"/><circle cx="60" cy="58" r="1.4" fill="#ffffff" opacity="0.55"/><circle cx="89" cy="300" r="1.6" fill="#ffffff" opacity="0.26"/><circle cx="85" cy="146" r="1.0" fill="#ffffff" opacity="0.54"/><circle cx="99" cy="200" r="1.2" fill="#ffffff" opacity="0.58"/><circle cx="265" cy="255" r="2.0" fill="#ffffff" opacity="0.67"/><circle cx="125" cy="197" r="2.0" fill="#ffffff" opacity="0.45"/><circle cx="56" cy="88" r="1.3" fill="#ffffff" opacity="0.5"/><circle cx="128" cy="93" r="1.6" fill="#ffffff" opacity="0.75"/><circle cx="64" cy="183" r="2.0" fill="#ffffff" opacity="0.58"/><circle cx="34" cy="184" r="0.9" fill="#ffffff" opacity="0.54"/><circle cx="61" cy="193" r="1.8" fill="#ffffff" opacity="0.68"/><circle cx="265" cy="49" r="1.0" fill="#ffffff" opacity="0.24"/></g>
  <circle cx="160" cy="160" r="104" fill="#020617" opacity=".38"/>
  <g filter="url(#glow)"><ellipse cx="160" cy="164" rx="82" ry="24" fill="none" stroke="url(#g)" stroke-width="7" opacity=".75" transform="rotate(-18 160 164)"/></g>
  <text x="160" y="175" text-anchor="middle" font-family="Arial, Helvetica, sans-serif" font-size="64" font-weight="800" fill="#f8fbff" filter="url(#glow)">GS</text>
  <text x="160" y="64" text-anchor="middle" font-family="Arial, Helvetica, sans-serif" font-size="36" font-weight="800" fill="#34d399" filter="url(#glow)">◉</text>
  <text x="160" y="270" text-anchor="middle" font-family="Arial, Helvetica, sans-serif" font-size="13" font-weight="700" fill="#dbeafe">Exploração Planetária</text>
</svg>