<svg xmlns="http://www.w3.org/2000/svg" width="320" height="320" viewBox="0 0 320 320" role="img" aria-label="Júpiter: Especialista 5x">
  <defs>
    <radialGradient id="bg" cx="50%" cy="36%" r="72%">
      <stop offset="0%" stop-color="#a78bfa" stop-opacity=".42"/>
      <stop offset="45%" stop-color="#312e81" stop-opacity=".88"/>
      <stop offset="100%" stop-color="#020617"/>
    </radialGradient>
    <linearGradient id="g" x1="58" y1="42" x2="262" y2="276" gradientUnits="userSpaceOnUse">
      <stop offset="0%" stop-color="#ffffff"/>
      <stop offset="42%" stop-color="#a78bfa"/>
      <stop offset="100%" stop-color="#7dd3fc"/>
    </linearGradient>
    <filter id="glow" x="-40%" y="-40%" width="180%" height="180%">
      <feGaussianBlur stdDeviation="5" result="blur"/>
      <feMerge>
        <feMergeNode in="blur"/>
        <feMergeNode in="SourceGraphic"/>
      </feMerge>
    </filter>
  </defs>
  <rect width="320" height="320" rx="52" fill="#020617"/>
  <rect x="10" y="10" width="300" height="300" rx="44" fill="url(#bg)" stroke="url(#g)" stroke-width="3"/>
  <g><circle cx="235" cy="65" r="1.0" fill="#ffffff" opacity="0.64"/><circle cx="285" cy="129" r="0.9" fill="#ffffff" opacity="0.38"/><circle cx="77" cy="216" r="1.1" fill="#ffffff" opacity="0.43"/><circle cx="76" cy="102" r="1.7" fill="#ffffff" opacity="0.74"/><circle cx="247" cy="136" r="1.3" fill="#ffffff" opacity="0.72"/><circle cx="137" cy="142" r="1.1" fill="#ffffff" opacity="0.5"/><circle cx="208" cy="45" r="1.9" fill="#ffffff" opacity="0.51"/><circle cx="58" cy="260" r="1.8" fill="#ffffff" opacity="0.32"/><circle cx="164" cy="50" r="1.8" fill="#ffffff" opacity="0.45"/><circle cx="77" cy="150" r="1.3" fill="#ffffff" opacity="0.5"/><circle cx="162" cy="166" r="1.6" fill="#ffffff" opacity="0.48"/><circle cx="137" cy="200" r="1.2" fill="#ffffff" opacity="0.44"/><circle cx="87" cy="154" r="2.1" fill="#ffffff" opacity="0.64"/><circle cx="136" cy="131" r="1.9" fill="#ffffff" opacity="0.63"/><circle cx="165" cy="145" r="1.5" fill="#ffffff" opacity="0.44"/><circle cx="16" cy="296" r="1.0" fill="#ffffff" opacity="0.57"/><circle cx="172" cy="66" r="1.1" fill="#ffffff" opacity="0.46"/><circle cx="287" cy="68" r="2.0" fill="#ffffff" opacity="0.31"/><circle cx="277" cy="202" r="1.6" fill="#ffffff" opacity="0.24"/><circle cx="122" cy="248" r="1.5" fill="#ffffff" opacity="0.65"/><circle cx="174" cy="138" r="1.2" fill="#ffffff" opacity="0.31"/><circle cx="111" cy="284" r="1.5" fill="#ffffff" opacity="0.44"/></g>
  <circle cx="160" cy="160" r="104" fill="#020617" opacity=".38"/>
  <g filter="url(#glow)"><ellipse cx="160" cy="164" rx="82" ry="24" fill="none" stroke="url(#g)" stroke-width="7" opacity=".75" transform="rotate(-18 160 164)"/></g>
  <text x="160" y="175" text-anchor="middle" font-family="Arial, Helvetica, sans-serif" font-size="64" font-weight="800" fill="#f8fbff" filter="url(#glow)">JE</text>
  <text x="160" y="64" text-anchor="middle" font-family="Arial, Helvetica, sans-serif" font-size="36" font-weight="800" fill="#a78bfa" filter="url(#glow)">◉</text>
  <text x="160" y="270" text-anchor="middle" font-family="Arial, Helvetica, sans-serif" font-size="13" font-weight="700" fill="#dbeafe">Exploração Planetária</text>
</svg>