<svg xmlns="http://www.w3.org/2000/svg" width="320" height="320" viewBox="0 0 320 320" role="img" aria-label="Júpiter: Visitante 3x">
  <defs>
    <radialGradient id="bg" cx="50%" cy="36%" r="72%">
      <stop offset="0%" stop-color="#34d399" stop-opacity=".42"/>
      <stop offset="45%" stop-color="#064e3b" stop-opacity=".88"/>
      <stop offset="100%" stop-color="#020617"/>
    </radialGradient>
    <linearGradient id="g" x1="58" y1="42" x2="262" y2="276" gradientUnits="userSpaceOnUse">
      <stop offset="0%" stop-color="#ffffff"/>
      <stop offset="42%" stop-color="#34d399"/>
      <stop offset="100%" stop-color="#7dd3fc"/>
    </linearGradient>
    <filter id="glow" x="-40%" y="-40%" width="180%" height="180%">
      <feGaussianBlur stdDeviation="5" result="blur"/>
      <feMerge>
        <feMergeNode in="blur"/>
        <feMergeNode in="SourceGraphic"/>
      </feMerge>
    </filter>
  </defs>
  <rect width="320" height="320" rx="52" fill="#020617"/>
  <rect x="10" y="10" width="300" height="300" rx="44" fill="url(#bg)" stroke="url(#g)" stroke-width="3"/>
  <g><circle cx="277" cy="184" r="0.8" fill="#ffffff" opacity="0.69"/><circle cx="115" cy="289" r="1.8" fill="#ffffff" opacity="0.72"/><circle cx="99" cy="100" r="2.0" fill="#ffffff" opacity="0.44"/><circle cx="87" cy="253" r="1.7" fill="#ffffff" opacity="0.62"/><circle cx="104" cy="171" r="1.8" fill="#ffffff" opacity="0.36"/><circle cx="237" cy="189" r="1.8" fill="#ffffff" opacity="0.47"/><circle cx="23" cy="172" r="1.7" fill="#ffffff" opacity="0.42"/><circle cx="242" cy="91" r="1.1" fill="#ffffff" opacity="0.43"/><circle cx="118" cy="301" r="1.1" fill="#ffffff" opacity="0.67"/><circle cx="233" cy="84" r="1.0" fill="#ffffff" opacity="0.32"/><circle cx="129" cy="134" r="1.2" fill="#ffffff" opacity="0.74"/><circle cx="259" cy="83" r="1.7" fill="#ffffff" opacity="0.71"/><circle cx="99" cy="116" r="1.2" fill="#ffffff" opacity="0.51"/><circle cx="222" cy="48" r="1.4" fill="#ffffff" opacity="0.47"/><circle cx="220" cy="96" r="1.8" fill="#ffffff" opacity="0.4"/><circle cx="213" cy="203" r="2.0" fill="#ffffff" opacity="0.38"/><circle cx="258" cy="157" r="1.7" fill="#ffffff" opacity="0.24"/><circle cx="210" cy="248" r="1.6" fill="#ffffff" opacity="0.46"/><circle cx="255" cy="200" r="1.5" fill="#ffffff" opacity="0.53"/><circle cx="180" cy="163" r="1.0" fill="#ffffff" opacity="0.43"/><circle cx="215" cy="205" r="1.3" fill="#ffffff" opacity="0.52"/><circle cx="187" cy="89" r="1.2" fill="#ffffff" opacity="0.61"/></g>
  <circle cx="160" cy="160" r="104" fill="#020617" opacity=".38"/>
  <g filter="url(#glow)"><ellipse cx="160" cy="164" rx="82" ry="24" fill="none" stroke="url(#g)" stroke-width="7" opacity=".75" transform="rotate(-18 160 164)"/></g>
  <text x="160" y="175" text-anchor="middle" font-family="Arial, Helvetica, sans-serif" font-size="64" font-weight="800" fill="#f8fbff" filter="url(#glow)">JV</text>
  <text x="160" y="64" text-anchor="middle" font-family="Arial, Helvetica, sans-serif" font-size="36" font-weight="800" fill="#34d399" filter="url(#glow)">◉</text>
  <text x="160" y="270" text-anchor="middle" font-family="Arial, Helvetica, sans-serif" font-size="13" font-weight="700" fill="#dbeafe">Exploração Planetária</text>
</svg>