<svg xmlns="http://www.w3.org/2000/svg" width="320" height="320" viewBox="0 0 320 320" role="img" aria-label="Mapa Celeste Completo">
  <defs>
    <radialGradient id="bg" cx="50%" cy="36%" r="72%">
      <stop offset="0%" stop-color="#e0f2fe" stop-opacity=".42"/>
      <stop offset="45%" stop-color="#0891b2" stop-opacity=".88"/>
      <stop offset="100%" stop-color="#020617"/>
    </radialGradient>
    <linearGradient id="g" x1="58" y1="42" x2="262" y2="276" gradientUnits="userSpaceOnUse">
      <stop offset="0%" stop-color="#ffffff"/>
      <stop offset="42%" stop-color="#e0f2fe"/>
      <stop offset="100%" stop-color="#7dd3fc"/>
    </linearGradient>
    <filter id="glow" x="-40%" y="-40%" width="180%" height="180%">
      <feGaussianBlur stdDeviation="5" result="blur"/>
      <feMerge>
        <feMergeNode in="blur"/>
        <feMergeNode in="SourceGraphic"/>
      </feMerge>
    </filter>
  </defs>
  <rect width="320" height="320" rx="52" fill="#020617"/>
  <rect x="10" y="10" width="300" height="300" rx="44" fill="url(#bg)" stroke="url(#g)" stroke-width="3"/>
  <g><circle cx="244" cy="79" r="2.0" fill="#ffffff" opacity="0.75"/><circle cx="289" cy="251" r="1.2" fill="#ffffff" opacity="0.42"/><circle cx="93" cy="120" r="1.0" fill="#ffffff" opacity="0.26"/><circle cx="163" cy="196" r="1.4" fill="#ffffff" opacity="0.73"/><circle cx="182" cy="274" r="2.0" fill="#ffffff" opacity="0.78"/><circle cx="153" cy="60" r="0.9" fill="#ffffff" opacity="0.24"/><circle cx="153" cy="291" r="1.4" fill="#ffffff" opacity="0.74"/><circle cx="86" cy="21" r="1.4" fill="#ffffff" opacity="0.27"/><circle cx="151" cy="43" r="1.5" fill="#ffffff" opacity="0.45"/><circle cx="82" cy="292" r="1.2" fill="#ffffff" opacity="0.37"/><circle cx="215" cy="295" r="1.2" fill="#ffffff" opacity="0.68"/><circle cx="184" cy="233" r="1.9" fill="#ffffff" opacity="0.29"/><circle cx="25" cy="206" r="2.1" fill="#ffffff" opacity="0.34"/><circle cx="216" cy="81" r="1.7" fill="#ffffff" opacity="0.72"/><circle cx="112" cy="55" r="2.1" fill="#ffffff" opacity="0.46"/><circle cx="145" cy="277" r="1.3" fill="#ffffff" opacity="0.6"/><circle cx="96" cy="126" r="1.2" fill="#ffffff" opacity="0.47"/><circle cx="127" cy="123" r="1.4" fill="#ffffff" opacity="0.44"/><circle cx="59" cy="225" r="1.4" fill="#ffffff" opacity="0.49"/><circle cx="158" cy="130" r="1.3" fill="#ffffff" opacity="0.29"/><circle cx="288" cy="274" r="1.8" fill="#ffffff" opacity="0.48"/><circle cx="228" cy="135" r="1.7" fill="#ffffff" opacity="0.46"/></g>
  <circle cx="160" cy="160" r="104" fill="#020617" opacity=".38"/>
  <g filter="url(#glow)"><ellipse cx="160" cy="164" rx="82" ry="24" fill="none" stroke="url(#g)" stroke-width="7" opacity=".75" transform="rotate(-18 160 164)"/></g>
  <text x="160" y="175" text-anchor="middle" font-family="Arial, Helvetica, sans-serif" font-size="64" font-weight="800" fill="#f8fbff" filter="url(#glow)">MC</text>
  <text x="160" y="64" text-anchor="middle" font-family="Arial, Helvetica, sans-serif" font-size="36" font-weight="800" fill="#e0f2fe" filter="url(#glow)">◉</text>
  <text x="160" y="270" text-anchor="middle" font-family="Arial, Helvetica, sans-serif" font-size="13" font-weight="700" fill="#dbeafe">Exploração Planetária</text>
</svg>