<svg xmlns="http://www.w3.org/2000/svg" width="320" height="320" viewBox="0 0 320 320" role="img" aria-label="Marte: Especialista 5x">
  <defs>
    <radialGradient id="bg" cx="50%" cy="36%" r="72%">
      <stop offset="0%" stop-color="#a78bfa" stop-opacity=".42"/>
      <stop offset="45%" stop-color="#312e81" stop-opacity=".88"/>
      <stop offset="100%" stop-color="#020617"/>
    </radialGradient>
    <linearGradient id="g" x1="58" y1="42" x2="262" y2="276" gradientUnits="userSpaceOnUse">
      <stop offset="0%" stop-color="#ffffff"/>
      <stop offset="42%" stop-color="#a78bfa"/>
      <stop offset="100%" stop-color="#7dd3fc"/>
    </linearGradient>
    <filter id="glow" x="-40%" y="-40%" width="180%" height="180%">
      <feGaussianBlur stdDeviation="5" result="blur"/>
      <feMerge>
        <feMergeNode in="blur"/>
        <feMergeNode in="SourceGraphic"/>
      </feMerge>
    </filter>
  </defs>
  <rect width="320" height="320" rx="52" fill="#020617"/>
  <rect x="10" y="10" width="300" height="300" rx="44" fill="url(#bg)" stroke="url(#g)" stroke-width="3"/>
  <g><circle cx="267" cy="182" r="1.8" fill="#ffffff" opacity="0.75"/><circle cx="303" cy="160" r="1.6" fill="#ffffff" opacity="0.32"/><circle cx="82" cy="276" r="2.0" fill="#ffffff" opacity="0.29"/><circle cx="258" cy="197" r="0.9" fill="#ffffff" opacity="0.78"/><circle cx="280" cy="207" r="1.3" fill="#ffffff" opacity="0.37"/><circle cx="265" cy="225" r="1.2" fill="#ffffff" opacity="0.42"/><circle cx="235" cy="250" r="1.8" fill="#ffffff" opacity="0.29"/><circle cx="286" cy="303" r="1.5" fill="#ffffff" opacity="0.69"/><circle cx="56" cy="115" r="1.1" fill="#ffffff" opacity="0.45"/><circle cx="239" cy="223" r="2.0" fill="#ffffff" opacity="0.65"/><circle cx="268" cy="24" r="1.6" fill="#ffffff" opacity="0.4"/><circle cx="164" cy="68" r="2.1" fill="#ffffff" opacity="0.32"/><circle cx="166" cy="288" r="0.9" fill="#ffffff" opacity="0.67"/><circle cx="245" cy="188" r="1.9" fill="#ffffff" opacity="0.45"/><circle cx="19" cy="17" r="1.2" fill="#ffffff" opacity="0.5"/><circle cx="153" cy="266" r="1.5" fill="#ffffff" opacity="0.22"/><circle cx="273" cy="199" r="1.2" fill="#ffffff" opacity="0.26"/><circle cx="76" cy="78" r="1.4" fill="#ffffff" opacity="0.25"/><circle cx="87" cy="252" r="1.6" fill="#ffffff" opacity="0.53"/><circle cx="29" cy="39" r="1.0" fill="#ffffff" opacity="0.6"/><circle cx="286" cy="132" r="1.0" fill="#ffffff" opacity="0.53"/><circle cx="164" cy="86" r="2.1" fill="#ffffff" opacity="0.68"/></g>
  <circle cx="160" cy="160" r="104" fill="#020617" opacity=".38"/>
  <g filter="url(#glow)"><ellipse cx="160" cy="164" rx="82" ry="24" fill="none" stroke="url(#g)" stroke-width="7" opacity=".75" transform="rotate(-18 160 164)"/></g>
  <text x="160" y="175" text-anchor="middle" font-family="Arial, Helvetica, sans-serif" font-size="64" font-weight="800" fill="#f8fbff" filter="url(#glow)">ME</text>
  <text x="160" y="64" text-anchor="middle" font-family="Arial, Helvetica, sans-serif" font-size="36" font-weight="800" fill="#a78bfa" filter="url(#glow)">◉</text>
  <text x="160" y="270" text-anchor="middle" font-family="Arial, Helvetica, sans-serif" font-size="13" font-weight="700" fill="#dbeafe">Exploração Planetária</text>
</svg>