<svg xmlns="http://www.w3.org/2000/svg" width="320" height="320" viewBox="0 0 320 320" role="img" aria-label="Mercúrio: Visitante 3x">
  <defs>
    <radialGradient id="bg" cx="50%" cy="36%" r="72%">
      <stop offset="0%" stop-color="#34d399" stop-opacity=".42"/>
      <stop offset="45%" stop-color="#064e3b" stop-opacity=".88"/>
      <stop offset="100%" stop-color="#020617"/>
    </radialGradient>
    <linearGradient id="g" x1="58" y1="42" x2="262" y2="276" gradientUnits="userSpaceOnUse">
      <stop offset="0%" stop-color="#ffffff"/>
      <stop offset="42%" stop-color="#34d399"/>
      <stop offset="100%" stop-color="#7dd3fc"/>
    </linearGradient>
    <filter id="glow" x="-40%" y="-40%" width="180%" height="180%">
      <feGaussianBlur stdDeviation="5" result="blur"/>
      <feMerge>
        <feMergeNode in="blur"/>
        <feMergeNode in="SourceGraphic"/>
      </feMerge>
    </filter>
  </defs>
  <rect width="320" height="320" rx="52" fill="#020617"/>
  <rect x="10" y="10" width="300" height="300" rx="44" fill="url(#bg)" stroke="url(#g)" stroke-width="3"/>
  <g><circle cx="221" cy="140" r="1.8" fill="#ffffff" opacity="0.76"/><circle cx="143" cy="139" r="1.0" fill="#ffffff" opacity="0.54"/><circle cx="302" cy="241" r="1.7" fill="#ffffff" opacity="0.59"/><circle cx="289" cy="96" r="1.2" fill="#ffffff" opacity="0.44"/><circle cx="66" cy="47" r="2.0" fill="#ffffff" opacity="0.76"/><circle cx="110" cy="131" r="1.4" fill="#ffffff" opacity="0.39"/><circle cx="279" cy="252" r="0.8" fill="#ffffff" opacity="0.73"/><circle cx="198" cy="181" r="1.4" fill="#ffffff" opacity="0.25"/><circle cx="59" cy="127" r="1.7" fill="#ffffff" opacity="0.53"/><circle cx="259" cy="68" r="1.0" fill="#ffffff" opacity="0.54"/><circle cx="215" cy="20" r="1.2" fill="#ffffff" opacity="0.32"/><circle cx="296" cy="293" r="1.9" fill="#ffffff" opacity="0.76"/><circle cx="173" cy="210" r="1.8" fill="#ffffff" opacity="0.35"/><circle cx="107" cy="126" r="2.1" fill="#ffffff" opacity="0.53"/><circle cx="21" cy="255" r="1.5" fill="#ffffff" opacity="0.52"/><circle cx="112" cy="291" r="1.5" fill="#ffffff" opacity="0.37"/><circle cx="253" cy="247" r="0.8" fill="#ffffff" opacity="0.58"/><circle cx="107" cy="51" r="1.1" fill="#ffffff" opacity="0.43"/><circle cx="291" cy="111" r="0.8" fill="#ffffff" opacity="0.77"/><circle cx="63" cy="189" r="1.3" fill="#ffffff" opacity="0.32"/><circle cx="171" cy="284" r="1.9" fill="#ffffff" opacity="0.28"/><circle cx="116" cy="254" r="2.1" fill="#ffffff" opacity="0.36"/></g>
  <circle cx="160" cy="160" r="104" fill="#020617" opacity=".38"/>
  <g filter="url(#glow)"><ellipse cx="160" cy="164" rx="82" ry="24" fill="none" stroke="url(#g)" stroke-width="7" opacity=".75" transform="rotate(-18 160 164)"/></g>
  <text x="160" y="175" text-anchor="middle" font-family="Arial, Helvetica, sans-serif" font-size="64" font-weight="800" fill="#f8fbff" filter="url(#glow)">MV</text>
  <text x="160" y="64" text-anchor="middle" font-family="Arial, Helvetica, sans-serif" font-size="36" font-weight="800" fill="#34d399" filter="url(#glow)">◉</text>
  <text x="160" y="270" text-anchor="middle" font-family="Arial, Helvetica, sans-serif" font-size="13" font-weight="700" fill="#dbeafe">Exploração Planetária</text>
</svg>