<svg xmlns="http://www.w3.org/2000/svg" width="320" height="320" viewBox="0 0 320 320" role="img" aria-label="Mensageira de Mercúrio">
  <defs>
    <radialGradient id="bg" cx="50%" cy="36%" r="72%">
      <stop offset="0%" stop-color="#a78bfa" stop-opacity=".42"/>
      <stop offset="45%" stop-color="#312e81" stop-opacity=".88"/>
      <stop offset="100%" stop-color="#020617"/>
    </radialGradient>
    <linearGradient id="g" x1="58" y1="42" x2="262" y2="276" gradientUnits="userSpaceOnUse">
      <stop offset="0%" stop-color="#ffffff"/>
      <stop offset="42%" stop-color="#a78bfa"/>
      <stop offset="100%" stop-color="#7dd3fc"/>
    </linearGradient>
    <filter id="glow" x="-40%" y="-40%" width="180%" height="180%">
      <feGaussianBlur stdDeviation="5" result="blur"/>
      <feMerge>
        <feMergeNode in="blur"/>
        <feMergeNode in="SourceGraphic"/>
      </feMerge>
    </filter>
  </defs>
  <rect width="320" height="320" rx="52" fill="#020617"/>
  <rect x="10" y="10" width="300" height="300" rx="44" fill="url(#bg)" stroke="url(#g)" stroke-width="3"/>
  <g><circle cx="102" cy="85" r="1.0" fill="#ffffff" opacity="0.4"/><circle cx="280" cy="167" r="1.7" fill="#ffffff" opacity="0.62"/><circle cx="210" cy="129" r="1.7" fill="#ffffff" opacity="0.73"/><circle cx="72" cy="136" r="1.2" fill="#ffffff" opacity="0.33"/><circle cx="243" cy="193" r="2.1" fill="#ffffff" opacity="0.61"/><circle cx="158" cy="113" r="1.3" fill="#ffffff" opacity="0.49"/><circle cx="303" cy="207" r="1.6" fill="#ffffff" opacity="0.27"/><circle cx="209" cy="81" r="0.9" fill="#ffffff" opacity="0.34"/><circle cx="82" cy="122" r="1.2" fill="#ffffff" opacity="0.39"/><circle cx="228" cy="146" r="1.3" fill="#ffffff" opacity="0.64"/><circle cx="257" cy="163" r="0.9" fill="#ffffff" opacity="0.58"/><circle cx="164" cy="304" r="1.2" fill="#ffffff" opacity="0.57"/><circle cx="165" cy="32" r="1.4" fill="#ffffff" opacity="0.36"/><circle cx="54" cy="269" r="2.0" fill="#ffffff" opacity="0.6"/><circle cx="52" cy="61" r="1.3" fill="#ffffff" opacity="0.59"/><circle cx="200" cy="69" r="1.9" fill="#ffffff" opacity="0.51"/><circle cx="34" cy="104" r="1.9" fill="#ffffff" opacity="0.65"/><circle cx="137" cy="174" r="1.3" fill="#ffffff" opacity="0.77"/><circle cx="196" cy="25" r="1.7" fill="#ffffff" opacity="0.77"/><circle cx="270" cy="179" r="1.4" fill="#ffffff" opacity="0.43"/><circle cx="36" cy="248" r="1.4" fill="#ffffff" opacity="0.6"/><circle cx="112" cy="20" r="1.6" fill="#ffffff" opacity="0.39"/></g>
  <circle cx="160" cy="160" r="104" fill="#020617" opacity=".38"/>
  <g filter="url(#glow)"><path d="M88 218 L160 92 L232 218 Z" fill="none" stroke="url(#g)" stroke-width="7" opacity=".65"/><circle cx="160" cy="92" r="8" fill="url(#g)"/></g>
  <text x="160" y="175" text-anchor="middle" font-family="Arial, Helvetica, sans-serif" font-size="64" font-weight="800" fill="#f8fbff" filter="url(#glow)">MM</text>
  <text x="160" y="64" text-anchor="middle" font-family="Arial, Helvetica, sans-serif" font-size="36" font-weight="800" fill="#a78bfa" filter="url(#glow)">⌁</text>
  <text x="160" y="270" text-anchor="middle" font-family="Arial, Helvetica, sans-serif" font-size="13" font-weight="700" fill="#dbeafe">Dossiê de Missões</text>
</svg>