<svg xmlns="http://www.w3.org/2000/svg" width="320" height="320" viewBox="0 0 320 320" role="img" aria-label="Libélula de Titã">
  <defs>
    <radialGradient id="bg" cx="50%" cy="36%" r="72%">
      <stop offset="0%" stop-color="#facc15" stop-opacity=".42"/>
      <stop offset="45%" stop-color="#78350f" stop-opacity=".88"/>
      <stop offset="100%" stop-color="#020617"/>
    </radialGradient>
    <linearGradient id="g" x1="58" y1="42" x2="262" y2="276" gradientUnits="userSpaceOnUse">
      <stop offset="0%" stop-color="#ffffff"/>
      <stop offset="42%" stop-color="#facc15"/>
      <stop offset="100%" stop-color="#7dd3fc"/>
    </linearGradient>
    <filter id="glow" x="-40%" y="-40%" width="180%" height="180%">
      <feGaussianBlur stdDeviation="5" result="blur"/>
      <feMerge>
        <feMergeNode in="blur"/>
        <feMergeNode in="SourceGraphic"/>
      </feMerge>
    </filter>
  </defs>
  <rect width="320" height="320" rx="52" fill="#020617"/>
  <rect x="10" y="10" width="300" height="300" rx="44" fill="url(#bg)" stroke="url(#g)" stroke-width="3"/>
  <g><circle cx="57" cy="245" r="1.1" fill="#ffffff" opacity="0.43"/><circle cx="207" cy="284" r="1.8" fill="#ffffff" opacity="0.57"/><circle cx="140" cy="298" r="0.9" fill="#ffffff" opacity="0.64"/><circle cx="69" cy="64" r="1.1" fill="#ffffff" opacity="0.59"/><circle cx="268" cy="295" r="1.6" fill="#ffffff" opacity="0.66"/><circle cx="188" cy="157" r="1.0" fill="#ffffff" opacity="0.76"/><circle cx="281" cy="253" r="0.9" fill="#ffffff" opacity="0.56"/><circle cx="300" cy="164" r="1.7" fill="#ffffff" opacity="0.23"/><circle cx="181" cy="138" r="2.0" fill="#ffffff" opacity="0.74"/><circle cx="96" cy="182" r="1.8" fill="#ffffff" opacity="0.71"/><circle cx="185" cy="151" r="1.7" fill="#ffffff" opacity="0.54"/><circle cx="266" cy="146" r="1.2" fill="#ffffff" opacity="0.53"/><circle cx="163" cy="285" r="1.9" fill="#ffffff" opacity="0.36"/><circle cx="243" cy="193" r="1.7" fill="#ffffff" opacity="0.68"/><circle cx="157" cy="35" r="0.9" fill="#ffffff" opacity="0.76"/><circle cx="179" cy="225" r="2.0" fill="#ffffff" opacity="0.27"/><circle cx="62" cy="275" r="1.0" fill="#ffffff" opacity="0.32"/><circle cx="40" cy="60" r="1.8" fill="#ffffff" opacity="0.33"/><circle cx="243" cy="293" r="1.6" fill="#ffffff" opacity="0.5"/><circle cx="139" cy="163" r="1.3" fill="#ffffff" opacity="0.41"/><circle cx="215" cy="53" r="2.0" fill="#ffffff" opacity="0.61"/><circle cx="156" cy="195" r="0.8" fill="#ffffff" opacity="0.49"/></g>
  <circle cx="160" cy="160" r="104" fill="#020617" opacity=".38"/>
  <g filter="url(#glow)"><path d="M88 218 L160 92 L232 218 Z" fill="none" stroke="url(#g)" stroke-width="7" opacity=".65"/><circle cx="160" cy="92" r="8" fill="url(#g)"/></g>
  <text x="160" y="175" text-anchor="middle" font-family="Arial, Helvetica, sans-serif" font-size="64" font-weight="800" fill="#f8fbff" filter="url(#glow)">LT</text>
  <text x="160" y="64" text-anchor="middle" font-family="Arial, Helvetica, sans-serif" font-size="36" font-weight="800" fill="#facc15" filter="url(#glow)">⌁</text>
  <text x="160" y="270" text-anchor="middle" font-family="Arial, Helvetica, sans-serif" font-size="13" font-weight="700" fill="#dbeafe">Dossiê de Missões</text>
</svg>