<svg xmlns="http://www.w3.org/2000/svg" width="320" height="320" viewBox="0 0 320 320" role="img" aria-label="Primeiro Sinal">
  <defs>
    <radialGradient id="bg" cx="50%" cy="36%" r="72%">
      <stop offset="0%" stop-color="#a78bfa" stop-opacity=".42"/>
      <stop offset="45%" stop-color="#312e81" stop-opacity=".88"/>
      <stop offset="100%" stop-color="#020617"/>
    </radialGradient>
    <linearGradient id="g" x1="58" y1="42" x2="262" y2="276" gradientUnits="userSpaceOnUse">
      <stop offset="0%" stop-color="#ffffff"/>
      <stop offset="42%" stop-color="#a78bfa"/>
      <stop offset="100%" stop-color="#7dd3fc"/>
    </linearGradient>
    <filter id="glow" x="-40%" y="-40%" width="180%" height="180%">
      <feGaussianBlur stdDeviation="5" result="blur"/>
      <feMerge>
        <feMergeNode in="blur"/>
        <feMergeNode in="SourceGraphic"/>
      </feMerge>
    </filter>
  </defs>
  <rect width="320" height="320" rx="52" fill="#020617"/>
  <rect x="10" y="10" width="300" height="300" rx="44" fill="url(#bg)" stroke="url(#g)" stroke-width="3"/>
  <g><circle cx="205" cy="147" r="1.1" fill="#ffffff" opacity="0.75"/><circle cx="304" cy="95" r="2.0" fill="#ffffff" opacity="0.76"/><circle cx="302" cy="170" r="1.5" fill="#ffffff" opacity="0.37"/><circle cx="257" cy="269" r="1.8" fill="#ffffff" opacity="0.5"/><circle cx="99" cy="275" r="1.8" fill="#ffffff" opacity="0.53"/><circle cx="89" cy="92" r="1.6" fill="#ffffff" opacity="0.75"/><circle cx="94" cy="109" r="0.9" fill="#ffffff" opacity="0.28"/><circle cx="139" cy="78" r="1.6" fill="#ffffff" opacity="0.62"/><circle cx="71" cy="48" r="1.4" fill="#ffffff" opacity="0.78"/><circle cx="185" cy="298" r="1.2" fill="#ffffff" opacity="0.35"/><circle cx="168" cy="242" r="1.2" fill="#ffffff" opacity="0.26"/><circle cx="168" cy="117" r="0.8" fill="#ffffff" opacity="0.26"/><circle cx="299" cy="84" r="1.3" fill="#ffffff" opacity="0.72"/><circle cx="204" cy="182" r="1.7" fill="#ffffff" opacity="0.7"/><circle cx="303" cy="253" r="1.8" fill="#ffffff" opacity="0.26"/><circle cx="192" cy="41" r="1.3" fill="#ffffff" opacity="0.39"/><circle cx="254" cy="299" r="1.7" fill="#ffffff" opacity="0.63"/><circle cx="131" cy="253" r="1.0" fill="#ffffff" opacity="0.24"/><circle cx="271" cy="241" r="1.3" fill="#ffffff" opacity="0.3"/><circle cx="44" cy="89" r="1.1" fill="#ffffff" opacity="0.52"/><circle cx="107" cy="185" r="1.0" fill="#ffffff" opacity="0.3"/><circle cx="221" cy="32" r="1.1" fill="#ffffff" opacity="0.44"/></g>
  <circle cx="160" cy="160" r="104" fill="#020617" opacity=".38"/>
  <g filter="url(#glow)"><path d="M88 218 L160 92 L232 218 Z" fill="none" stroke="url(#g)" stroke-width="7" opacity=".65"/><circle cx="160" cy="92" r="8" fill="url(#g)"/></g>
  <text x="160" y="175" text-anchor="middle" font-family="Arial, Helvetica, sans-serif" font-size="64" font-weight="800" fill="#f8fbff" filter="url(#glow)">PS</text>
  <text x="160" y="64" text-anchor="middle" font-family="Arial, Helvetica, sans-serif" font-size="36" font-weight="800" fill="#a78bfa" filter="url(#glow)">⌁</text>
  <text x="160" y="270" text-anchor="middle" font-family="Arial, Helvetica, sans-serif" font-size="13" font-weight="700" fill="#dbeafe">Dossiê de Missões</text>
</svg>