<svg xmlns="http://www.w3.org/2000/svg" width="320" height="320" viewBox="0 0 320 320" role="img" aria-label="Laboratórios Marcianos">
  <defs>
    <radialGradient id="bg" cx="50%" cy="36%" r="72%">
      <stop offset="0%" stop-color="#a78bfa" stop-opacity=".42"/>
      <stop offset="45%" stop-color="#312e81" stop-opacity=".88"/>
      <stop offset="100%" stop-color="#020617"/>
    </radialGradient>
    <linearGradient id="g" x1="58" y1="42" x2="262" y2="276" gradientUnits="userSpaceOnUse">
      <stop offset="0%" stop-color="#ffffff"/>
      <stop offset="42%" stop-color="#a78bfa"/>
      <stop offset="100%" stop-color="#7dd3fc"/>
    </linearGradient>
    <filter id="glow" x="-40%" y="-40%" width="180%" height="180%">
      <feGaussianBlur stdDeviation="5" result="blur"/>
      <feMerge>
        <feMergeNode in="blur"/>
        <feMergeNode in="SourceGraphic"/>
      </feMerge>
    </filter>
  </defs>
  <rect width="320" height="320" rx="52" fill="#020617"/>
  <rect x="10" y="10" width="300" height="300" rx="44" fill="url(#bg)" stroke="url(#g)" stroke-width="3"/>
  <g><circle cx="185" cy="223" r="1.9" fill="#ffffff" opacity="0.66"/><circle cx="139" cy="158" r="2.1" fill="#ffffff" opacity="0.54"/><circle cx="222" cy="255" r="1.5" fill="#ffffff" opacity="0.68"/><circle cx="39" cy="139" r="1.3" fill="#ffffff" opacity="0.48"/><circle cx="70" cy="130" r="1.4" fill="#ffffff" opacity="0.56"/><circle cx="60" cy="154" r="2.0" fill="#ffffff" opacity="0.59"/><circle cx="304" cy="285" r="1.1" fill="#ffffff" opacity="0.47"/><circle cx="263" cy="271" r="1.9" fill="#ffffff" opacity="0.53"/><circle cx="277" cy="85" r="2.0" fill="#ffffff" opacity="0.34"/><circle cx="137" cy="64" r="1.2" fill="#ffffff" opacity="0.54"/><circle cx="93" cy="209" r="2.0" fill="#ffffff" opacity="0.27"/><circle cx="137" cy="287" r="1.5" fill="#ffffff" opacity="0.42"/><circle cx="193" cy="66" r="1.5" fill="#ffffff" opacity="0.62"/><circle cx="293" cy="242" r="1.4" fill="#ffffff" opacity="0.23"/><circle cx="203" cy="16" r="1.3" fill="#ffffff" opacity="0.73"/><circle cx="114" cy="233" r="0.9" fill="#ffffff" opacity="0.34"/><circle cx="150" cy="141" r="2.1" fill="#ffffff" opacity="0.43"/><circle cx="65" cy="265" r="1.6" fill="#ffffff" opacity="0.39"/><circle cx="227" cy="222" r="1.2" fill="#ffffff" opacity="0.42"/><circle cx="300" cy="228" r="1.5" fill="#ffffff" opacity="0.57"/><circle cx="61" cy="247" r="1.2" fill="#ffffff" opacity="0.76"/><circle cx="258" cy="187" r="2.0" fill="#ffffff" opacity="0.35"/></g>
  <circle cx="160" cy="160" r="104" fill="#020617" opacity=".38"/>
  <g filter="url(#glow)"><path d="M88 218 L160 92 L232 218 Z" fill="none" stroke="url(#g)" stroke-width="7" opacity=".65"/><circle cx="160" cy="92" r="8" fill="url(#g)"/></g>
  <text x="160" y="175" text-anchor="middle" font-family="Arial, Helvetica, sans-serif" font-size="64" font-weight="800" fill="#f8fbff" filter="url(#glow)">LM</text>
  <text x="160" y="64" text-anchor="middle" font-family="Arial, Helvetica, sans-serif" font-size="36" font-weight="800" fill="#a78bfa" filter="url(#glow)">⌁</text>
  <text x="160" y="270" text-anchor="middle" font-family="Arial, Helvetica, sans-serif" font-size="13" font-weight="700" fill="#dbeafe">Dossiê de Missões</text>
</svg>