<svg xmlns="http://www.w3.org/2000/svg" width="320" height="320" viewBox="0 0 320 320" role="img" aria-label="Curiosidade em Marte">
  <defs>
    <radialGradient id="bg" cx="50%" cy="36%" r="72%">
      <stop offset="0%" stop-color="#a78bfa" stop-opacity=".42"/>
      <stop offset="45%" stop-color="#312e81" stop-opacity=".88"/>
      <stop offset="100%" stop-color="#020617"/>
    </radialGradient>
    <linearGradient id="g" x1="58" y1="42" x2="262" y2="276" gradientUnits="userSpaceOnUse">
      <stop offset="0%" stop-color="#ffffff"/>
      <stop offset="42%" stop-color="#a78bfa"/>
      <stop offset="100%" stop-color="#7dd3fc"/>
    </linearGradient>
    <filter id="glow" x="-40%" y="-40%" width="180%" height="180%">
      <feGaussianBlur stdDeviation="5" result="blur"/>
      <feMerge>
        <feMergeNode in="blur"/>
        <feMergeNode in="SourceGraphic"/>
      </feMerge>
    </filter>
  </defs>
  <rect width="320" height="320" rx="52" fill="#020617"/>
  <rect x="10" y="10" width="300" height="300" rx="44" fill="url(#bg)" stroke="url(#g)" stroke-width="3"/>
  <g><circle cx="300" cy="92" r="1.7" fill="#ffffff" opacity="0.39"/><circle cx="224" cy="194" r="1.9" fill="#ffffff" opacity="0.46"/><circle cx="122" cy="161" r="0.8" fill="#ffffff" opacity="0.77"/><circle cx="238" cy="193" r="0.9" fill="#ffffff" opacity="0.68"/><circle cx="216" cy="163" r="1.3" fill="#ffffff" opacity="0.41"/><circle cx="64" cy="128" r="2.0" fill="#ffffff" opacity="0.41"/><circle cx="261" cy="284" r="0.9" fill="#ffffff" opacity="0.42"/><circle cx="69" cy="82" r="1.6" fill="#ffffff" opacity="0.26"/><circle cx="20" cy="18" r="1.8" fill="#ffffff" opacity="0.57"/><circle cx="197" cy="126" r="1.1" fill="#ffffff" opacity="0.74"/><circle cx="21" cy="229" r="1.4" fill="#ffffff" opacity="0.58"/><circle cx="297" cy="110" r="1.6" fill="#ffffff" opacity="0.23"/><circle cx="76" cy="219" r="1.8" fill="#ffffff" opacity="0.66"/><circle cx="151" cy="68" r="1.4" fill="#ffffff" opacity="0.33"/><circle cx="220" cy="163" r="0.9" fill="#ffffff" opacity="0.38"/><circle cx="288" cy="224" r="2.0" fill="#ffffff" opacity="0.56"/><circle cx="61" cy="161" r="0.9" fill="#ffffff" opacity="0.64"/><circle cx="196" cy="88" r="1.4" fill="#ffffff" opacity="0.57"/><circle cx="185" cy="208" r="1.0" fill="#ffffff" opacity="0.56"/><circle cx="79" cy="99" r="1.3" fill="#ffffff" opacity="0.68"/><circle cx="263" cy="152" r="0.8" fill="#ffffff" opacity="0.3"/><circle cx="195" cy="93" r="1.7" fill="#ffffff" opacity="0.52"/></g>
  <circle cx="160" cy="160" r="104" fill="#020617" opacity=".38"/>
  <g filter="url(#glow)"><path d="M88 218 L160 92 L232 218 Z" fill="none" stroke="url(#g)" stroke-width="7" opacity=".65"/><circle cx="160" cy="92" r="8" fill="url(#g)"/></g>
  <text x="160" y="175" text-anchor="middle" font-family="Arial, Helvetica, sans-serif" font-size="64" font-weight="800" fill="#f8fbff" filter="url(#glow)">CM</text>
  <text x="160" y="64" text-anchor="middle" font-family="Arial, Helvetica, sans-serif" font-size="36" font-weight="800" fill="#a78bfa" filter="url(#glow)">⌁</text>
  <text x="160" y="270" text-anchor="middle" font-family="Arial, Helvetica, sans-serif" font-size="13" font-weight="700" fill="#dbeafe">Dossiê de Missões</text>
</svg>