<svg xmlns="http://www.w3.org/2000/svg" width="320" height="320" viewBox="0 0 320 320" role="img" aria-label="Oceano de Europa">
  <defs>
    <radialGradient id="bg" cx="50%" cy="36%" r="72%">
      <stop offset="0%" stop-color="#facc15" stop-opacity=".42"/>
      <stop offset="45%" stop-color="#78350f" stop-opacity=".88"/>
      <stop offset="100%" stop-color="#020617"/>
    </radialGradient>
    <linearGradient id="g" x1="58" y1="42" x2="262" y2="276" gradientUnits="userSpaceOnUse">
      <stop offset="0%" stop-color="#ffffff"/>
      <stop offset="42%" stop-color="#facc15"/>
      <stop offset="100%" stop-color="#7dd3fc"/>
    </linearGradient>
    <filter id="glow" x="-40%" y="-40%" width="180%" height="180%">
      <feGaussianBlur stdDeviation="5" result="blur"/>
      <feMerge>
        <feMergeNode in="blur"/>
        <feMergeNode in="SourceGraphic"/>
      </feMerge>
    </filter>
  </defs>
  <rect width="320" height="320" rx="52" fill="#020617"/>
  <rect x="10" y="10" width="300" height="300" rx="44" fill="url(#bg)" stroke="url(#g)" stroke-width="3"/>
  <g><circle cx="79" cy="249" r="1.7" fill="#ffffff" opacity="0.67"/><circle cx="106" cy="117" r="1.5" fill="#ffffff" opacity="0.58"/><circle cx="82" cy="138" r="2.0" fill="#ffffff" opacity="0.73"/><circle cx="192" cy="220" r="1.2" fill="#ffffff" opacity="0.56"/><circle cx="51" cy="45" r="0.9" fill="#ffffff" opacity="0.43"/><circle cx="66" cy="212" r="1.9" fill="#ffffff" opacity="0.52"/><circle cx="122" cy="151" r="1.4" fill="#ffffff" opacity="0.47"/><circle cx="196" cy="194" r="1.3" fill="#ffffff" opacity="0.53"/><circle cx="25" cy="38" r="1.1" fill="#ffffff" opacity="0.23"/><circle cx="16" cy="212" r="1.4" fill="#ffffff" opacity="0.52"/><circle cx="154" cy="236" r="1.5" fill="#ffffff" opacity="0.39"/><circle cx="146" cy="251" r="1.8" fill="#ffffff" opacity="0.77"/><circle cx="148" cy="195" r="1.6" fill="#ffffff" opacity="0.67"/><circle cx="29" cy="59" r="2.0" fill="#ffffff" opacity="0.25"/><circle cx="40" cy="206" r="0.9" fill="#ffffff" opacity="0.71"/><circle cx="31" cy="144" r="1.4" fill="#ffffff" opacity="0.32"/><circle cx="294" cy="126" r="2.1" fill="#ffffff" opacity="0.74"/><circle cx="21" cy="192" r="1.0" fill="#ffffff" opacity="0.75"/><circle cx="225" cy="224" r="1.1" fill="#ffffff" opacity="0.75"/><circle cx="46" cy="42" r="1.1" fill="#ffffff" opacity="0.69"/><circle cx="146" cy="74" r="1.6" fill="#ffffff" opacity="0.6"/><circle cx="98" cy="301" r="1.4" fill="#ffffff" opacity="0.63"/></g>
  <circle cx="160" cy="160" r="104" fill="#020617" opacity=".38"/>
  <g filter="url(#glow)"><path d="M88 218 L160 92 L232 218 Z" fill="none" stroke="url(#g)" stroke-width="7" opacity=".65"/><circle cx="160" cy="92" r="8" fill="url(#g)"/></g>
  <text x="160" y="175" text-anchor="middle" font-family="Arial, Helvetica, sans-serif" font-size="64" font-weight="800" fill="#f8fbff" filter="url(#glow)">OE</text>
  <text x="160" y="64" text-anchor="middle" font-family="Arial, Helvetica, sans-serif" font-size="36" font-weight="800" fill="#facc15" filter="url(#glow)">⌁</text>
  <text x="160" y="270" text-anchor="middle" font-family="Arial, Helvetica, sans-serif" font-size="13" font-weight="700" fill="#dbeafe">Dossiê de Missões</text>
</svg>