<svg xmlns="http://www.w3.org/2000/svg" width="320" height="320" viewBox="0 0 320 320" role="img" aria-label="Sentinela Solar">
  <defs>
    <radialGradient id="bg" cx="50%" cy="36%" r="72%">
      <stop offset="0%" stop-color="#a78bfa" stop-opacity=".42"/>
      <stop offset="45%" stop-color="#312e81" stop-opacity=".88"/>
      <stop offset="100%" stop-color="#020617"/>
    </radialGradient>
    <linearGradient id="g" x1="58" y1="42" x2="262" y2="276" gradientUnits="userSpaceOnUse">
      <stop offset="0%" stop-color="#ffffff"/>
      <stop offset="42%" stop-color="#a78bfa"/>
      <stop offset="100%" stop-color="#7dd3fc"/>
    </linearGradient>
    <filter id="glow" x="-40%" y="-40%" width="180%" height="180%">
      <feGaussianBlur stdDeviation="5" result="blur"/>
      <feMerge>
        <feMergeNode in="blur"/>
        <feMergeNode in="SourceGraphic"/>
      </feMerge>
    </filter>
  </defs>
  <rect width="320" height="320" rx="52" fill="#020617"/>
  <rect x="10" y="10" width="300" height="300" rx="44" fill="url(#bg)" stroke="url(#g)" stroke-width="3"/>
  <g><circle cx="217" cy="203" r="1.8" fill="#ffffff" opacity="0.68"/><circle cx="186" cy="57" r="1.7" fill="#ffffff" opacity="0.61"/><circle cx="29" cy="38" r="1.2" fill="#ffffff" opacity="0.5"/><circle cx="291" cy="203" r="2.0" fill="#ffffff" opacity="0.24"/><circle cx="266" cy="92" r="1.8" fill="#ffffff" opacity="0.72"/><circle cx="130" cy="265" r="2.0" fill="#ffffff" opacity="0.25"/><circle cx="25" cy="152" r="0.9" fill="#ffffff" opacity="0.43"/><circle cx="34" cy="223" r="1.0" fill="#ffffff" opacity="0.49"/><circle cx="176" cy="234" r="1.0" fill="#ffffff" opacity="0.49"/><circle cx="296" cy="158" r="2.0" fill="#ffffff" opacity="0.76"/><circle cx="73" cy="136" r="1.6" fill="#ffffff" opacity="0.74"/><circle cx="207" cy="196" r="1.3" fill="#ffffff" opacity="0.54"/><circle cx="186" cy="275" r="1.5" fill="#ffffff" opacity="0.71"/><circle cx="49" cy="112" r="1.9" fill="#ffffff" opacity="0.26"/><circle cx="267" cy="173" r="1.6" fill="#ffffff" opacity="0.41"/><circle cx="21" cy="80" r="1.6" fill="#ffffff" opacity="0.6"/><circle cx="212" cy="79" r="1.7" fill="#ffffff" opacity="0.5"/><circle cx="225" cy="259" r="1.4" fill="#ffffff" opacity="0.59"/><circle cx="133" cy="143" r="0.8" fill="#ffffff" opacity="0.37"/><circle cx="298" cy="251" r="1.5" fill="#ffffff" opacity="0.34"/><circle cx="252" cy="140" r="1.0" fill="#ffffff" opacity="0.64"/><circle cx="24" cy="193" r="1.0" fill="#ffffff" opacity="0.3"/></g>
  <circle cx="160" cy="160" r="104" fill="#020617" opacity=".38"/>
  <g filter="url(#glow)"><path d="M88 218 L160 92 L232 218 Z" fill="none" stroke="url(#g)" stroke-width="7" opacity=".65"/><circle cx="160" cy="92" r="8" fill="url(#g)"/></g>
  <text x="160" y="175" text-anchor="middle" font-family="Arial, Helvetica, sans-serif" font-size="64" font-weight="800" fill="#f8fbff" filter="url(#glow)">SS</text>
  <text x="160" y="64" text-anchor="middle" font-family="Arial, Helvetica, sans-serif" font-size="36" font-weight="800" fill="#a78bfa" filter="url(#glow)">⌁</text>
  <text x="160" y="270" text-anchor="middle" font-family="Arial, Helvetica, sans-serif" font-size="13" font-weight="700" fill="#dbeafe">Dossiê de Missões</text>
</svg>