<svg xmlns="http://www.w3.org/2000/svg" width="320" height="320" viewBox="0 0 320 320" role="img" aria-label="Voz de Vênus">
  <defs>
    <radialGradient id="bg" cx="50%" cy="36%" r="72%">
      <stop offset="0%" stop-color="#facc15" stop-opacity=".42"/>
      <stop offset="45%" stop-color="#78350f" stop-opacity=".88"/>
      <stop offset="100%" stop-color="#020617"/>
    </radialGradient>
    <linearGradient id="g" x1="58" y1="42" x2="262" y2="276" gradientUnits="userSpaceOnUse">
      <stop offset="0%" stop-color="#ffffff"/>
      <stop offset="42%" stop-color="#facc15"/>
      <stop offset="100%" stop-color="#7dd3fc"/>
    </linearGradient>
    <filter id="glow" x="-40%" y="-40%" width="180%" height="180%">
      <feGaussianBlur stdDeviation="5" result="blur"/>
      <feMerge>
        <feMergeNode in="blur"/>
        <feMergeNode in="SourceGraphic"/>
      </feMerge>
    </filter>
  </defs>
  <rect width="320" height="320" rx="52" fill="#020617"/>
  <rect x="10" y="10" width="300" height="300" rx="44" fill="url(#bg)" stroke="url(#g)" stroke-width="3"/>
  <g><circle cx="114" cy="181" r="1.2" fill="#ffffff" opacity="0.29"/><circle cx="173" cy="250" r="0.9" fill="#ffffff" opacity="0.64"/><circle cx="236" cy="56" r="1.7" fill="#ffffff" opacity="0.39"/><circle cx="263" cy="109" r="1.5" fill="#ffffff" opacity="0.63"/><circle cx="95" cy="245" r="1.5" fill="#ffffff" opacity="0.38"/><circle cx="198" cy="153" r="1.7" fill="#ffffff" opacity="0.23"/><circle cx="248" cy="65" r="1.6" fill="#ffffff" opacity="0.37"/><circle cx="261" cy="173" r="1.7" fill="#ffffff" opacity="0.32"/><circle cx="48" cy="178" r="1.1" fill="#ffffff" opacity="0.5"/><circle cx="169" cy="200" r="0.9" fill="#ffffff" opacity="0.34"/><circle cx="285" cy="54" r="1.5" fill="#ffffff" opacity="0.64"/><circle cx="102" cy="110" r="1.9" fill="#ffffff" opacity="0.7"/><circle cx="290" cy="119" r="1.5" fill="#ffffff" opacity="0.53"/><circle cx="120" cy="283" r="1.8" fill="#ffffff" opacity="0.3"/><circle cx="229" cy="37" r="1.5" fill="#ffffff" opacity="0.48"/><circle cx="84" cy="115" r="1.7" fill="#ffffff" opacity="0.31"/><circle cx="253" cy="110" r="0.8" fill="#ffffff" opacity="0.29"/><circle cx="280" cy="34" r="1.2" fill="#ffffff" opacity="0.47"/><circle cx="261" cy="249" r="1.5" fill="#ffffff" opacity="0.31"/><circle cx="224" cy="22" r="1.5" fill="#ffffff" opacity="0.34"/><circle cx="281" cy="36" r="1.9" fill="#ffffff" opacity="0.29"/><circle cx="187" cy="236" r="1.9" fill="#ffffff" opacity="0.37"/></g>
  <circle cx="160" cy="160" r="104" fill="#020617" opacity=".38"/>
  <g filter="url(#glow)"><path d="M88 218 L160 92 L232 218 Z" fill="none" stroke="url(#g)" stroke-width="7" opacity=".65"/><circle cx="160" cy="92" r="8" fill="url(#g)"/></g>
  <text x="160" y="175" text-anchor="middle" font-family="Arial, Helvetica, sans-serif" font-size="64" font-weight="800" fill="#f8fbff" filter="url(#glow)">VV</text>
  <text x="160" y="64" text-anchor="middle" font-family="Arial, Helvetica, sans-serif" font-size="36" font-weight="800" fill="#facc15" filter="url(#glow)">⌁</text>
  <text x="160" y="270" text-anchor="middle" font-family="Arial, Helvetica, sans-serif" font-size="13" font-weight="700" fill="#dbeafe">Dossiê de Missões</text>
</svg>