<svg xmlns="http://www.w3.org/2000/svg" width="320" height="320" viewBox="0 0 320 320" role="img" aria-label="Arquivo de Missões 30">
  <defs>
    <radialGradient id="bg" cx="50%" cy="36%" r="72%">
      <stop offset="0%" stop-color="#a78bfa" stop-opacity=".42"/>
      <stop offset="45%" stop-color="#312e81" stop-opacity=".88"/>
      <stop offset="100%" stop-color="#020617"/>
    </radialGradient>
    <linearGradient id="g" x1="58" y1="42" x2="262" y2="276" gradientUnits="userSpaceOnUse">
      <stop offset="0%" stop-color="#ffffff"/>
      <stop offset="42%" stop-color="#a78bfa"/>
      <stop offset="100%" stop-color="#7dd3fc"/>
    </linearGradient>
    <filter id="glow" x="-40%" y="-40%" width="180%" height="180%">
      <feGaussianBlur stdDeviation="5" result="blur"/>
      <feMerge>
        <feMergeNode in="blur"/>
        <feMergeNode in="SourceGraphic"/>
      </feMerge>
    </filter>
  </defs>
  <rect width="320" height="320" rx="52" fill="#020617"/>
  <rect x="10" y="10" width="300" height="300" rx="44" fill="url(#bg)" stroke="url(#g)" stroke-width="3"/>
  <g><circle cx="274" cy="109" r="2.0" fill="#ffffff" opacity="0.37"/><circle cx="27" cy="264" r="2.0" fill="#ffffff" opacity="0.69"/><circle cx="157" cy="250" r="1.9" fill="#ffffff" opacity="0.55"/><circle cx="88" cy="110" r="1.6" fill="#ffffff" opacity="0.22"/><circle cx="174" cy="283" r="1.5" fill="#ffffff" opacity="0.27"/><circle cx="94" cy="85" r="1.4" fill="#ffffff" opacity="0.43"/><circle cx="129" cy="203" r="0.9" fill="#ffffff" opacity="0.73"/><circle cx="79" cy="218" r="1.6" fill="#ffffff" opacity="0.67"/><circle cx="107" cy="24" r="1.5" fill="#ffffff" opacity="0.57"/><circle cx="266" cy="47" r="1.4" fill="#ffffff" opacity="0.77"/><circle cx="165" cy="162" r="1.8" fill="#ffffff" opacity="0.52"/><circle cx="144" cy="262" r="1.2" fill="#ffffff" opacity="0.5"/><circle cx="191" cy="214" r="1.9" fill="#ffffff" opacity="0.5"/><circle cx="68" cy="116" r="1.7" fill="#ffffff" opacity="0.43"/><circle cx="304" cy="255" r="1.3" fill="#ffffff" opacity="0.77"/><circle cx="204" cy="133" r="1.5" fill="#ffffff" opacity="0.58"/><circle cx="228" cy="170" r="1.9" fill="#ffffff" opacity="0.71"/><circle cx="190" cy="47" r="1.5" fill="#ffffff" opacity="0.5"/><circle cx="251" cy="148" r="1.6" fill="#ffffff" opacity="0.34"/><circle cx="270" cy="194" r="2.1" fill="#ffffff" opacity="0.5"/><circle cx="35" cy="58" r="1.9" fill="#ffffff" opacity="0.64"/><circle cx="201" cy="218" r="1.9" fill="#ffffff" opacity="0.52"/></g>
  <circle cx="160" cy="160" r="104" fill="#020617" opacity=".38"/>
  <g filter="url(#glow)"><path d="M88 218 L160 92 L232 218 Z" fill="none" stroke="url(#g)" stroke-width="7" opacity=".65"/><circle cx="160" cy="92" r="8" fill="url(#g)"/></g>
  <text x="160" y="175" text-anchor="middle" font-family="Arial, Helvetica, sans-serif" font-size="64" font-weight="800" fill="#f8fbff" filter="url(#glow)">AM</text>
  <text x="160" y="64" text-anchor="middle" font-family="Arial, Helvetica, sans-serif" font-size="36" font-weight="800" fill="#a78bfa" filter="url(#glow)">⌁</text>
  <text x="160" y="270" text-anchor="middle" font-family="Arial, Helvetica, sans-serif" font-size="13" font-weight="700" fill="#dbeafe">Dossiê de Missões</text>
</svg>