<svg xmlns="http://www.w3.org/2000/svg" width="320" height="320" viewBox="0 0 320 320" role="img" aria-label="Cassini-Huygens">
  <defs>
    <radialGradient id="bg" cx="50%" cy="36%" r="72%">
      <stop offset="0%" stop-color="#e0f2fe" stop-opacity=".42"/>
      <stop offset="45%" stop-color="#0891b2" stop-opacity=".88"/>
      <stop offset="100%" stop-color="#020617"/>
    </radialGradient>
    <linearGradient id="g" x1="58" y1="42" x2="262" y2="276" gradientUnits="userSpaceOnUse">
      <stop offset="0%" stop-color="#ffffff"/>
      <stop offset="42%" stop-color="#e0f2fe"/>
      <stop offset="100%" stop-color="#7dd3fc"/>
    </linearGradient>
    <filter id="glow" x="-40%" y="-40%" width="180%" height="180%">
      <feGaussianBlur stdDeviation="5" result="blur"/>
      <feMerge>
        <feMergeNode in="blur"/>
        <feMergeNode in="SourceGraphic"/>
      </feMerge>
    </filter>
  </defs>
  <rect width="320" height="320" rx="52" fill="#020617"/>
  <rect x="10" y="10" width="300" height="300" rx="44" fill="url(#bg)" stroke="url(#g)" stroke-width="3"/>
  <g><circle cx="131" cy="241" r="1.8" fill="#ffffff" opacity="0.24"/><circle cx="210" cy="192" r="1.7" fill="#ffffff" opacity="0.49"/><circle cx="284" cy="231" r="1.8" fill="#ffffff" opacity="0.69"/><circle cx="124" cy="257" r="1.8" fill="#ffffff" opacity="0.46"/><circle cx="140" cy="58" r="0.9" fill="#ffffff" opacity="0.6"/><circle cx="202" cy="109" r="1.8" fill="#ffffff" opacity="0.47"/><circle cx="274" cy="298" r="1.1" fill="#ffffff" opacity="0.62"/><circle cx="215" cy="218" r="1.0" fill="#ffffff" opacity="0.73"/><circle cx="206" cy="236" r="2.0" fill="#ffffff" opacity="0.63"/><circle cx="73" cy="133" r="1.0" fill="#ffffff" opacity="0.56"/><circle cx="173" cy="199" r="1.1" fill="#ffffff" opacity="0.49"/><circle cx="46" cy="118" r="1.2" fill="#ffffff" opacity="0.63"/><circle cx="298" cy="145" r="1.0" fill="#ffffff" opacity="0.7"/><circle cx="56" cy="77" r="1.6" fill="#ffffff" opacity="0.42"/><circle cx="101" cy="224" r="1.9" fill="#ffffff" opacity="0.23"/><circle cx="195" cy="195" r="1.2" fill="#ffffff" opacity="0.29"/><circle cx="87" cy="109" r="1.8" fill="#ffffff" opacity="0.23"/><circle cx="82" cy="277" r="1.5" fill="#ffffff" opacity="0.38"/><circle cx="166" cy="26" r="1.0" fill="#ffffff" opacity="0.54"/><circle cx="267" cy="106" r="1.7" fill="#ffffff" opacity="0.77"/><circle cx="170" cy="197" r="2.1" fill="#ffffff" opacity="0.46"/><circle cx="239" cy="148" r="1.0" fill="#ffffff" opacity="0.75"/></g>
  <circle cx="160" cy="160" r="104" fill="#020617" opacity=".38"/>
  <g filter="url(#glow)"><path d="M88 218 L160 92 L232 218 Z" fill="none" stroke="url(#g)" stroke-width="7" opacity=".65"/><circle cx="160" cy="92" r="8" fill="url(#g)"/></g>
  <text x="160" y="175" text-anchor="middle" font-family="Arial, Helvetica, sans-serif" font-size="64" font-weight="800" fill="#f8fbff" filter="url(#glow)">CH</text>
  <text x="160" y="64" text-anchor="middle" font-family="Arial, Helvetica, sans-serif" font-size="36" font-weight="800" fill="#e0f2fe" filter="url(#glow)">⌁</text>
  <text x="160" y="270" text-anchor="middle" font-family="Arial, Helvetica, sans-serif" font-size="13" font-weight="700" fill="#dbeafe">Dossiê de Missões</text>
</svg>