<svg xmlns="http://www.w3.org/2000/svg" width="320" height="320" viewBox="0 0 320 320" role="img" aria-label="Orbitador de Júpiter">
  <defs>
    <radialGradient id="bg" cx="50%" cy="36%" r="72%">
      <stop offset="0%" stop-color="#a78bfa" stop-opacity=".42"/>
      <stop offset="45%" stop-color="#312e81" stop-opacity=".88"/>
      <stop offset="100%" stop-color="#020617"/>
    </radialGradient>
    <linearGradient id="g" x1="58" y1="42" x2="262" y2="276" gradientUnits="userSpaceOnUse">
      <stop offset="0%" stop-color="#ffffff"/>
      <stop offset="42%" stop-color="#a78bfa"/>
      <stop offset="100%" stop-color="#7dd3fc"/>
    </linearGradient>
    <filter id="glow" x="-40%" y="-40%" width="180%" height="180%">
      <feGaussianBlur stdDeviation="5" result="blur"/>
      <feMerge>
        <feMergeNode in="blur"/>
        <feMergeNode in="SourceGraphic"/>
      </feMerge>
    </filter>
  </defs>
  <rect width="320" height="320" rx="52" fill="#020617"/>
  <rect x="10" y="10" width="300" height="300" rx="44" fill="url(#bg)" stroke="url(#g)" stroke-width="3"/>
  <g><circle cx="150" cy="303" r="1.3" fill="#ffffff" opacity="0.59"/><circle cx="141" cy="182" r="1.5" fill="#ffffff" opacity="0.75"/><circle cx="63" cy="197" r="1.0" fill="#ffffff" opacity="0.42"/><circle cx="303" cy="143" r="0.9" fill="#ffffff" opacity="0.36"/><circle cx="252" cy="63" r="1.9" fill="#ffffff" opacity="0.43"/><circle cx="285" cy="38" r="1.5" fill="#ffffff" opacity="0.5"/><circle cx="139" cy="264" r="0.9" fill="#ffffff" opacity="0.29"/><circle cx="240" cy="66" r="0.8" fill="#ffffff" opacity="0.4"/><circle cx="74" cy="303" r="1.4" fill="#ffffff" opacity="0.61"/><circle cx="53" cy="270" r="1.3" fill="#ffffff" opacity="0.63"/><circle cx="40" cy="303" r="1.9" fill="#ffffff" opacity="0.61"/><circle cx="156" cy="222" r="0.8" fill="#ffffff" opacity="0.58"/><circle cx="183" cy="108" r="1.4" fill="#ffffff" opacity="0.62"/><circle cx="150" cy="147" r="1.2" fill="#ffffff" opacity="0.24"/><circle cx="209" cy="106" r="1.9" fill="#ffffff" opacity="0.33"/><circle cx="239" cy="129" r="2.1" fill="#ffffff" opacity="0.41"/><circle cx="228" cy="215" r="1.9" fill="#ffffff" opacity="0.69"/><circle cx="293" cy="201" r="1.3" fill="#ffffff" opacity="0.46"/><circle cx="253" cy="64" r="1.2" fill="#ffffff" opacity="0.55"/><circle cx="100" cy="137" r="2.0" fill="#ffffff" opacity="0.64"/><circle cx="55" cy="234" r="1.9" fill="#ffffff" opacity="0.28"/><circle cx="219" cy="95" r="1.1" fill="#ffffff" opacity="0.76"/></g>
  <circle cx="160" cy="160" r="104" fill="#020617" opacity=".38"/>
  <g filter="url(#glow)"><path d="M88 218 L160 92 L232 218 Z" fill="none" stroke="url(#g)" stroke-width="7" opacity=".65"/><circle cx="160" cy="92" r="8" fill="url(#g)"/></g>
  <text x="160" y="175" text-anchor="middle" font-family="Arial, Helvetica, sans-serif" font-size="64" font-weight="800" fill="#f8fbff" filter="url(#glow)">OJ</text>
  <text x="160" y="64" text-anchor="middle" font-family="Arial, Helvetica, sans-serif" font-size="36" font-weight="800" fill="#a78bfa" filter="url(#glow)">⌁</text>
  <text x="160" y="270" text-anchor="middle" font-family="Arial, Helvetica, sans-serif" font-size="13" font-weight="700" fill="#dbeafe">Dossiê de Missões</text>
</svg>