<svg xmlns="http://www.w3.org/2000/svg" width="320" height="320" viewBox="0 0 320 320" role="img" aria-label="Rota de Bepi">
  <defs>
    <radialGradient id="bg" cx="50%" cy="36%" r="72%">
      <stop offset="0%" stop-color="#a78bfa" stop-opacity=".42"/>
      <stop offset="45%" stop-color="#312e81" stop-opacity=".88"/>
      <stop offset="100%" stop-color="#020617"/>
    </radialGradient>
    <linearGradient id="g" x1="58" y1="42" x2="262" y2="276" gradientUnits="userSpaceOnUse">
      <stop offset="0%" stop-color="#ffffff"/>
      <stop offset="42%" stop-color="#a78bfa"/>
      <stop offset="100%" stop-color="#7dd3fc"/>
    </linearGradient>
    <filter id="glow" x="-40%" y="-40%" width="180%" height="180%">
      <feGaussianBlur stdDeviation="5" result="blur"/>
      <feMerge>
        <feMergeNode in="blur"/>
        <feMergeNode in="SourceGraphic"/>
      </feMerge>
    </filter>
  </defs>
  <rect width="320" height="320" rx="52" fill="#020617"/>
  <rect x="10" y="10" width="300" height="300" rx="44" fill="url(#bg)" stroke="url(#g)" stroke-width="3"/>
  <g><circle cx="25" cy="37" r="1.6" fill="#ffffff" opacity="0.56"/><circle cx="143" cy="33" r="1.6" fill="#ffffff" opacity="0.37"/><circle cx="51" cy="47" r="1.8" fill="#ffffff" opacity="0.48"/><circle cx="147" cy="226" r="1.7" fill="#ffffff" opacity="0.64"/><circle cx="299" cy="290" r="1.3" fill="#ffffff" opacity="0.54"/><circle cx="92" cy="32" r="1.4" fill="#ffffff" opacity="0.63"/><circle cx="209" cy="161" r="1.6" fill="#ffffff" opacity="0.75"/><circle cx="69" cy="189" r="1.7" fill="#ffffff" opacity="0.67"/><circle cx="170" cy="226" r="2.0" fill="#ffffff" opacity="0.32"/><circle cx="237" cy="250" r="1.0" fill="#ffffff" opacity="0.32"/><circle cx="154" cy="98" r="2.1" fill="#ffffff" opacity="0.28"/><circle cx="135" cy="165" r="1.2" fill="#ffffff" opacity="0.65"/><circle cx="49" cy="68" r="2.0" fill="#ffffff" opacity="0.33"/><circle cx="206" cy="106" r="1.0" fill="#ffffff" opacity="0.36"/><circle cx="249" cy="257" r="1.3" fill="#ffffff" opacity="0.58"/><circle cx="193" cy="79" r="1.1" fill="#ffffff" opacity="0.7"/><circle cx="200" cy="162" r="2.1" fill="#ffffff" opacity="0.75"/><circle cx="220" cy="291" r="1.0" fill="#ffffff" opacity="0.59"/><circle cx="49" cy="27" r="1.4" fill="#ffffff" opacity="0.22"/><circle cx="212" cy="190" r="1.6" fill="#ffffff" opacity="0.31"/><circle cx="80" cy="257" r="2.1" fill="#ffffff" opacity="0.5"/><circle cx="181" cy="201" r="1.7" fill="#ffffff" opacity="0.35"/></g>
  <circle cx="160" cy="160" r="104" fill="#020617" opacity=".38"/>
  <g filter="url(#glow)"><path d="M88 218 L160 92 L232 218 Z" fill="none" stroke="url(#g)" stroke-width="7" opacity=".65"/><circle cx="160" cy="92" r="8" fill="url(#g)"/></g>
  <text x="160" y="175" text-anchor="middle" font-family="Arial, Helvetica, sans-serif" font-size="64" font-weight="800" fill="#f8fbff" filter="url(#glow)">RB</text>
  <text x="160" y="64" text-anchor="middle" font-family="Arial, Helvetica, sans-serif" font-size="36" font-weight="800" fill="#a78bfa" filter="url(#glow)">⌁</text>
  <text x="160" y="270" text-anchor="middle" font-family="Arial, Helvetica, sans-serif" font-size="13" font-weight="700" fill="#dbeafe">Dossiê de Missões</text>
</svg>