<svg xmlns="http://www.w3.org/2000/svg" width="320" height="320" viewBox="0 0 320 320" role="img" aria-label="Encontro com Netuno">
  <defs>
    <radialGradient id="bg" cx="50%" cy="36%" r="72%">
      <stop offset="0%" stop-color="#e0f2fe" stop-opacity=".42"/>
      <stop offset="45%" stop-color="#0891b2" stop-opacity=".88"/>
      <stop offset="100%" stop-color="#020617"/>
    </radialGradient>
    <linearGradient id="g" x1="58" y1="42" x2="262" y2="276" gradientUnits="userSpaceOnUse">
      <stop offset="0%" stop-color="#ffffff"/>
      <stop offset="42%" stop-color="#e0f2fe"/>
      <stop offset="100%" stop-color="#7dd3fc"/>
    </linearGradient>
    <filter id="glow" x="-40%" y="-40%" width="180%" height="180%">
      <feGaussianBlur stdDeviation="5" result="blur"/>
      <feMerge>
        <feMergeNode in="blur"/>
        <feMergeNode in="SourceGraphic"/>
      </feMerge>
    </filter>
  </defs>
  <rect width="320" height="320" rx="52" fill="#020617"/>
  <rect x="10" y="10" width="300" height="300" rx="44" fill="url(#bg)" stroke="url(#g)" stroke-width="3"/>
  <g><circle cx="221" cy="200" r="1.8" fill="#ffffff" opacity="0.47"/><circle cx="137" cy="110" r="1.5" fill="#ffffff" opacity="0.63"/><circle cx="227" cy="167" r="1.2" fill="#ffffff" opacity="0.48"/><circle cx="165" cy="263" r="1.0" fill="#ffffff" opacity="0.23"/><circle cx="304" cy="17" r="0.9" fill="#ffffff" opacity="0.6"/><circle cx="62" cy="65" r="1.6" fill="#ffffff" opacity="0.71"/><circle cx="63" cy="51" r="1.3" fill="#ffffff" opacity="0.29"/><circle cx="284" cy="238" r="1.4" fill="#ffffff" opacity="0.31"/><circle cx="26" cy="139" r="1.1" fill="#ffffff" opacity="0.62"/><circle cx="94" cy="164" r="1.5" fill="#ffffff" opacity="0.42"/><circle cx="125" cy="220" r="1.3" fill="#ffffff" opacity="0.27"/><circle cx="22" cy="265" r="1.5" fill="#ffffff" opacity="0.35"/><circle cx="105" cy="132" r="0.8" fill="#ffffff" opacity="0.28"/><circle cx="294" cy="235" r="1.3" fill="#ffffff" opacity="0.36"/><circle cx="182" cy="57" r="1.2" fill="#ffffff" opacity="0.77"/><circle cx="265" cy="183" r="1.2" fill="#ffffff" opacity="0.55"/><circle cx="217" cy="279" r="1.1" fill="#ffffff" opacity="0.44"/><circle cx="67" cy="250" r="1.2" fill="#ffffff" opacity="0.25"/><circle cx="153" cy="226" r="1.7" fill="#ffffff" opacity="0.55"/><circle cx="162" cy="87" r="0.9" fill="#ffffff" opacity="0.3"/><circle cx="220" cy="35" r="1.0" fill="#ffffff" opacity="0.37"/><circle cx="174" cy="19" r="1.8" fill="#ffffff" opacity="0.68"/></g>
  <circle cx="160" cy="160" r="104" fill="#020617" opacity=".38"/>
  <g filter="url(#glow)"><path d="M88 218 L160 92 L232 218 Z" fill="none" stroke="url(#g)" stroke-width="7" opacity=".65"/><circle cx="160" cy="92" r="8" fill="url(#g)"/></g>
  <text x="160" y="175" text-anchor="middle" font-family="Arial, Helvetica, sans-serif" font-size="64" font-weight="800" fill="#f8fbff" filter="url(#glow)">EN</text>
  <text x="160" y="64" text-anchor="middle" font-family="Arial, Helvetica, sans-serif" font-size="36" font-weight="800" fill="#e0f2fe" filter="url(#glow)">⌁</text>
  <text x="160" y="270" text-anchor="middle" font-family="Arial, Helvetica, sans-serif" font-size="13" font-weight="700" fill="#dbeafe">Dossiê de Missões</text>
</svg>