<svg xmlns="http://www.w3.org/2000/svg" width="320" height="320" viewBox="0 0 320 320" role="img" aria-label="Arquivo de Missões 50">
  <defs>
    <radialGradient id="bg" cx="50%" cy="36%" r="72%">
      <stop offset="0%" stop-color="#facc15" stop-opacity=".42"/>
      <stop offset="45%" stop-color="#78350f" stop-opacity=".88"/>
      <stop offset="100%" stop-color="#020617"/>
    </radialGradient>
    <linearGradient id="g" x1="58" y1="42" x2="262" y2="276" gradientUnits="userSpaceOnUse">
      <stop offset="0%" stop-color="#ffffff"/>
      <stop offset="42%" stop-color="#facc15"/>
      <stop offset="100%" stop-color="#7dd3fc"/>
    </linearGradient>
    <filter id="glow" x="-40%" y="-40%" width="180%" height="180%">
      <feGaussianBlur stdDeviation="5" result="blur"/>
      <feMerge>
        <feMergeNode in="blur"/>
        <feMergeNode in="SourceGraphic"/>
      </feMerge>
    </filter>
  </defs>
  <rect width="320" height="320" rx="52" fill="#020617"/>
  <rect x="10" y="10" width="300" height="300" rx="44" fill="url(#bg)" stroke="url(#g)" stroke-width="3"/>
  <g><circle cx="302" cy="28" r="1.5" fill="#ffffff" opacity="0.74"/><circle cx="64" cy="147" r="1.7" fill="#ffffff" opacity="0.52"/><circle cx="199" cy="79" r="1.4" fill="#ffffff" opacity="0.4"/><circle cx="131" cy="233" r="1.2" fill="#ffffff" opacity="0.35"/><circle cx="223" cy="170" r="1.0" fill="#ffffff" opacity="0.74"/><circle cx="53" cy="161" r="0.9" fill="#ffffff" opacity="0.3"/><circle cx="94" cy="143" r="1.0" fill="#ffffff" opacity="0.73"/><circle cx="209" cy="52" r="0.9" fill="#ffffff" opacity="0.66"/><circle cx="168" cy="24" r="0.9" fill="#ffffff" opacity="0.39"/><circle cx="72" cy="139" r="1.9" fill="#ffffff" opacity="0.42"/><circle cx="44" cy="266" r="0.8" fill="#ffffff" opacity="0.46"/><circle cx="293" cy="20" r="1.4" fill="#ffffff" opacity="0.22"/><circle cx="168" cy="178" r="1.1" fill="#ffffff" opacity="0.25"/><circle cx="37" cy="154" r="1.4" fill="#ffffff" opacity="0.69"/><circle cx="264" cy="215" r="1.0" fill="#ffffff" opacity="0.67"/><circle cx="62" cy="284" r="2.0" fill="#ffffff" opacity="0.35"/><circle cx="260" cy="226" r="1.9" fill="#ffffff" opacity="0.65"/><circle cx="126" cy="95" r="1.6" fill="#ffffff" opacity="0.72"/><circle cx="58" cy="84" r="1.4" fill="#ffffff" opacity="0.62"/><circle cx="215" cy="170" r="1.2" fill="#ffffff" opacity="0.46"/><circle cx="58" cy="273" r="1.1" fill="#ffffff" opacity="0.37"/><circle cx="287" cy="247" r="1.9" fill="#ffffff" opacity="0.52"/></g>
  <circle cx="160" cy="160" r="104" fill="#020617" opacity=".38"/>
  <g filter="url(#glow)"><path d="M88 218 L160 92 L232 218 Z" fill="none" stroke="url(#g)" stroke-width="7" opacity=".65"/><circle cx="160" cy="92" r="8" fill="url(#g)"/></g>
  <text x="160" y="175" text-anchor="middle" font-family="Arial, Helvetica, sans-serif" font-size="64" font-weight="800" fill="#f8fbff" filter="url(#glow)">AM</text>
  <text x="160" y="64" text-anchor="middle" font-family="Arial, Helvetica, sans-serif" font-size="36" font-weight="800" fill="#facc15" filter="url(#glow)">⌁</text>
  <text x="160" y="270" text-anchor="middle" font-family="Arial, Helvetica, sans-serif" font-size="13" font-weight="700" fill="#dbeafe">Dossiê de Missões</text>
</svg>