<svg xmlns="http://www.w3.org/2000/svg" width="320" height="320" viewBox="0 0 320 320" role="img" aria-label="Perseverança e Voo">
  <defs>
    <radialGradient id="bg" cx="50%" cy="36%" r="72%">
      <stop offset="0%" stop-color="#facc15" stop-opacity=".42"/>
      <stop offset="45%" stop-color="#78350f" stop-opacity=".88"/>
      <stop offset="100%" stop-color="#020617"/>
    </radialGradient>
    <linearGradient id="g" x1="58" y1="42" x2="262" y2="276" gradientUnits="userSpaceOnUse">
      <stop offset="0%" stop-color="#ffffff"/>
      <stop offset="42%" stop-color="#facc15"/>
      <stop offset="100%" stop-color="#7dd3fc"/>
    </linearGradient>
    <filter id="glow" x="-40%" y="-40%" width="180%" height="180%">
      <feGaussianBlur stdDeviation="5" result="blur"/>
      <feMerge>
        <feMergeNode in="blur"/>
        <feMergeNode in="SourceGraphic"/>
      </feMerge>
    </filter>
  </defs>
  <rect width="320" height="320" rx="52" fill="#020617"/>
  <rect x="10" y="10" width="300" height="300" rx="44" fill="url(#bg)" stroke="url(#g)" stroke-width="3"/>
  <g><circle cx="128" cy="244" r="1.2" fill="#ffffff" opacity="0.26"/><circle cx="106" cy="297" r="1.6" fill="#ffffff" opacity="0.6"/><circle cx="86" cy="291" r="2.0" fill="#ffffff" opacity="0.7"/><circle cx="263" cy="298" r="1.0" fill="#ffffff" opacity="0.32"/><circle cx="77" cy="200" r="1.1" fill="#ffffff" opacity="0.45"/><circle cx="151" cy="121" r="0.9" fill="#ffffff" opacity="0.76"/><circle cx="52" cy="137" r="1.7" fill="#ffffff" opacity="0.48"/><circle cx="53" cy="107" r="1.4" fill="#ffffff" opacity="0.31"/><circle cx="130" cy="222" r="1.1" fill="#ffffff" opacity="0.5"/><circle cx="56" cy="58" r="1.7" fill="#ffffff" opacity="0.41"/><circle cx="287" cy="197" r="1.1" fill="#ffffff" opacity="0.54"/><circle cx="29" cy="151" r="0.9" fill="#ffffff" opacity="0.3"/><circle cx="263" cy="221" r="0.8" fill="#ffffff" opacity="0.47"/><circle cx="264" cy="210" r="0.8" fill="#ffffff" opacity="0.52"/><circle cx="98" cy="194" r="1.6" fill="#ffffff" opacity="0.54"/><circle cx="224" cy="93" r="1.5" fill="#ffffff" opacity="0.77"/><circle cx="259" cy="76" r="1.7" fill="#ffffff" opacity="0.57"/><circle cx="168" cy="268" r="1.7" fill="#ffffff" opacity="0.55"/><circle cx="248" cy="245" r="1.2" fill="#ffffff" opacity="0.72"/><circle cx="174" cy="238" r="2.0" fill="#ffffff" opacity="0.58"/><circle cx="92" cy="256" r="1.0" fill="#ffffff" opacity="0.46"/><circle cx="142" cy="295" r="1.7" fill="#ffffff" opacity="0.66"/></g>
  <circle cx="160" cy="160" r="104" fill="#020617" opacity=".38"/>
  <g filter="url(#glow)"><path d="M88 218 L160 92 L232 218 Z" fill="none" stroke="url(#g)" stroke-width="7" opacity=".65"/><circle cx="160" cy="92" r="8" fill="url(#g)"/></g>
  <text x="160" y="175" text-anchor="middle" font-family="Arial, Helvetica, sans-serif" font-size="64" font-weight="800" fill="#f8fbff" filter="url(#glow)">PV</text>
  <text x="160" y="64" text-anchor="middle" font-family="Arial, Helvetica, sans-serif" font-size="36" font-weight="800" fill="#facc15" filter="url(#glow)">⌁</text>
  <text x="160" y="270" text-anchor="middle" font-family="Arial, Helvetica, sans-serif" font-size="13" font-weight="700" fill="#dbeafe">Dossiê de Missões</text>
</svg>