<svg xmlns="http://www.w3.org/2000/svg" width="320" height="320" viewBox="0 0 320 320" role="img" aria-label="Casa em Órbita">
  <defs>
    <radialGradient id="bg" cx="50%" cy="36%" r="72%">
      <stop offset="0%" stop-color="#a78bfa" stop-opacity=".42"/>
      <stop offset="45%" stop-color="#312e81" stop-opacity=".88"/>
      <stop offset="100%" stop-color="#020617"/>
    </radialGradient>
    <linearGradient id="g" x1="58" y1="42" x2="262" y2="276" gradientUnits="userSpaceOnUse">
      <stop offset="0%" stop-color="#ffffff"/>
      <stop offset="42%" stop-color="#a78bfa"/>
      <stop offset="100%" stop-color="#7dd3fc"/>
    </linearGradient>
    <filter id="glow" x="-40%" y="-40%" width="180%" height="180%">
      <feGaussianBlur stdDeviation="5" result="blur"/>
      <feMerge>
        <feMergeNode in="blur"/>
        <feMergeNode in="SourceGraphic"/>
      </feMerge>
    </filter>
  </defs>
  <rect width="320" height="320" rx="52" fill="#020617"/>
  <rect x="10" y="10" width="300" height="300" rx="44" fill="url(#bg)" stroke="url(#g)" stroke-width="3"/>
  <g><circle cx="182" cy="26" r="1.6" fill="#ffffff" opacity="0.74"/><circle cx="239" cy="235" r="1.0" fill="#ffffff" opacity="0.73"/><circle cx="147" cy="120" r="1.4" fill="#ffffff" opacity="0.58"/><circle cx="113" cy="84" r="1.9" fill="#ffffff" opacity="0.66"/><circle cx="191" cy="255" r="1.7" fill="#ffffff" opacity="0.74"/><circle cx="42" cy="46" r="0.8" fill="#ffffff" opacity="0.78"/><circle cx="188" cy="175" r="2.1" fill="#ffffff" opacity="0.47"/><circle cx="168" cy="209" r="1.0" fill="#ffffff" opacity="0.53"/><circle cx="164" cy="124" r="1.2" fill="#ffffff" opacity="0.77"/><circle cx="252" cy="216" r="1.4" fill="#ffffff" opacity="0.46"/><circle cx="110" cy="71" r="1.4" fill="#ffffff" opacity="0.77"/><circle cx="218" cy="16" r="1.8" fill="#ffffff" opacity="0.47"/><circle cx="233" cy="44" r="1.9" fill="#ffffff" opacity="0.49"/><circle cx="266" cy="29" r="2.0" fill="#ffffff" opacity="0.58"/><circle cx="130" cy="214" r="0.9" fill="#ffffff" opacity="0.64"/><circle cx="68" cy="46" r="1.7" fill="#ffffff" opacity="0.38"/><circle cx="46" cy="231" r="1.0" fill="#ffffff" opacity="0.67"/><circle cx="172" cy="58" r="1.7" fill="#ffffff" opacity="0.25"/><circle cx="279" cy="269" r="2.0" fill="#ffffff" opacity="0.38"/><circle cx="120" cy="304" r="2.1" fill="#ffffff" opacity="0.61"/><circle cx="33" cy="175" r="1.2" fill="#ffffff" opacity="0.72"/><circle cx="229" cy="119" r="1.3" fill="#ffffff" opacity="0.22"/></g>
  <circle cx="160" cy="160" r="104" fill="#020617" opacity=".38"/>
  <g filter="url(#glow)"><path d="M88 218 L160 92 L232 218 Z" fill="none" stroke="url(#g)" stroke-width="7" opacity=".65"/><circle cx="160" cy="92" r="8" fill="url(#g)"/></g>
  <text x="160" y="175" text-anchor="middle" font-family="Arial, Helvetica, sans-serif" font-size="64" font-weight="800" fill="#f8fbff" filter="url(#glow)">CÓ</text>
  <text x="160" y="64" text-anchor="middle" font-family="Arial, Helvetica, sans-serif" font-size="36" font-weight="800" fill="#a78bfa" filter="url(#glow)">⌁</text>
  <text x="160" y="270" text-anchor="middle" font-family="Arial, Helvetica, sans-serif" font-size="13" font-weight="700" fill="#dbeafe">Dossiê de Missões</text>
</svg>