<svg xmlns="http://www.w3.org/2000/svg" width="320" height="320" viewBox="0 0 320 320" role="img" aria-label="Nuvens de Juno">
  <defs>
    <radialGradient id="bg" cx="50%" cy="36%" r="72%">
      <stop offset="0%" stop-color="#a78bfa" stop-opacity=".42"/>
      <stop offset="45%" stop-color="#312e81" stop-opacity=".88"/>
      <stop offset="100%" stop-color="#020617"/>
    </radialGradient>
    <linearGradient id="g" x1="58" y1="42" x2="262" y2="276" gradientUnits="userSpaceOnUse">
      <stop offset="0%" stop-color="#ffffff"/>
      <stop offset="42%" stop-color="#a78bfa"/>
      <stop offset="100%" stop-color="#7dd3fc"/>
    </linearGradient>
    <filter id="glow" x="-40%" y="-40%" width="180%" height="180%">
      <feGaussianBlur stdDeviation="5" result="blur"/>
      <feMerge>
        <feMergeNode in="blur"/>
        <feMergeNode in="SourceGraphic"/>
      </feMerge>
    </filter>
  </defs>
  <rect width="320" height="320" rx="52" fill="#020617"/>
  <rect x="10" y="10" width="300" height="300" rx="44" fill="url(#bg)" stroke="url(#g)" stroke-width="3"/>
  <g><circle cx="33" cy="84" r="1.5" fill="#ffffff" opacity="0.29"/><circle cx="194" cy="115" r="1.9" fill="#ffffff" opacity="0.46"/><circle cx="153" cy="237" r="1.1" fill="#ffffff" opacity="0.58"/><circle cx="96" cy="166" r="1.6" fill="#ffffff" opacity="0.67"/><circle cx="262" cy="282" r="1.8" fill="#ffffff" opacity="0.39"/><circle cx="141" cy="95" r="1.3" fill="#ffffff" opacity="0.42"/><circle cx="255" cy="34" r="1.0" fill="#ffffff" opacity="0.68"/><circle cx="123" cy="165" r="1.2" fill="#ffffff" opacity="0.74"/><circle cx="53" cy="262" r="1.1" fill="#ffffff" opacity="0.29"/><circle cx="105" cy="209" r="1.7" fill="#ffffff" opacity="0.29"/><circle cx="295" cy="180" r="2.0" fill="#ffffff" opacity="0.7"/><circle cx="124" cy="271" r="2.0" fill="#ffffff" opacity="0.36"/><circle cx="256" cy="185" r="1.2" fill="#ffffff" opacity="0.72"/><circle cx="127" cy="234" r="1.8" fill="#ffffff" opacity="0.38"/><circle cx="269" cy="303" r="1.0" fill="#ffffff" opacity="0.62"/><circle cx="85" cy="208" r="1.5" fill="#ffffff" opacity="0.32"/><circle cx="137" cy="125" r="1.9" fill="#ffffff" opacity="0.42"/><circle cx="35" cy="224" r="1.7" fill="#ffffff" opacity="0.7"/><circle cx="24" cy="53" r="2.0" fill="#ffffff" opacity="0.61"/><circle cx="121" cy="166" r="1.1" fill="#ffffff" opacity="0.23"/><circle cx="92" cy="174" r="1.7" fill="#ffffff" opacity="0.53"/><circle cx="192" cy="282" r="2.0" fill="#ffffff" opacity="0.63"/></g>
  <circle cx="160" cy="160" r="104" fill="#020617" opacity=".38"/>
  <g filter="url(#glow)"><path d="M88 218 L160 92 L232 218 Z" fill="none" stroke="url(#g)" stroke-width="7" opacity=".65"/><circle cx="160" cy="92" r="8" fill="url(#g)"/></g>
  <text x="160" y="175" text-anchor="middle" font-family="Arial, Helvetica, sans-serif" font-size="64" font-weight="800" fill="#f8fbff" filter="url(#glow)">NJ</text>
  <text x="160" y="64" text-anchor="middle" font-family="Arial, Helvetica, sans-serif" font-size="36" font-weight="800" fill="#a78bfa" filter="url(#glow)">⌁</text>
  <text x="160" y="270" text-anchor="middle" font-family="Arial, Helvetica, sans-serif" font-size="13" font-weight="700" fill="#dbeafe">Dossiê de Missões</text>
</svg>