<svg xmlns="http://www.w3.org/2000/svg" width="320" height="320" viewBox="0 0 320 320" role="img" aria-label="Encontro com Urano">
  <defs>
    <radialGradient id="bg" cx="50%" cy="36%" r="72%">
      <stop offset="0%" stop-color="#e0f2fe" stop-opacity=".42"/>
      <stop offset="45%" stop-color="#0891b2" stop-opacity=".88"/>
      <stop offset="100%" stop-color="#020617"/>
    </radialGradient>
    <linearGradient id="g" x1="58" y1="42" x2="262" y2="276" gradientUnits="userSpaceOnUse">
      <stop offset="0%" stop-color="#ffffff"/>
      <stop offset="42%" stop-color="#e0f2fe"/>
      <stop offset="100%" stop-color="#7dd3fc"/>
    </linearGradient>
    <filter id="glow" x="-40%" y="-40%" width="180%" height="180%">
      <feGaussianBlur stdDeviation="5" result="blur"/>
      <feMerge>
        <feMergeNode in="blur"/>
        <feMergeNode in="SourceGraphic"/>
      </feMerge>
    </filter>
  </defs>
  <rect width="320" height="320" rx="52" fill="#020617"/>
  <rect x="10" y="10" width="300" height="300" rx="44" fill="url(#bg)" stroke="url(#g)" stroke-width="3"/>
  <g><circle cx="186" cy="294" r="1.2" fill="#ffffff" opacity="0.6"/><circle cx="88" cy="132" r="1.8" fill="#ffffff" opacity="0.4"/><circle cx="182" cy="269" r="1.9" fill="#ffffff" opacity="0.32"/><circle cx="49" cy="117" r="2.0" fill="#ffffff" opacity="0.45"/><circle cx="63" cy="238" r="1.5" fill="#ffffff" opacity="0.61"/><circle cx="132" cy="146" r="1.2" fill="#ffffff" opacity="0.67"/><circle cx="248" cy="295" r="1.6" fill="#ffffff" opacity="0.3"/><circle cx="17" cy="293" r="2.0" fill="#ffffff" opacity="0.5"/><circle cx="21" cy="189" r="1.9" fill="#ffffff" opacity="0.22"/><circle cx="283" cy="154" r="1.7" fill="#ffffff" opacity="0.73"/><circle cx="182" cy="168" r="1.2" fill="#ffffff" opacity="0.51"/><circle cx="31" cy="141" r="1.4" fill="#ffffff" opacity="0.47"/><circle cx="205" cy="136" r="1.8" fill="#ffffff" opacity="0.34"/><circle cx="253" cy="27" r="0.8" fill="#ffffff" opacity="0.64"/><circle cx="37" cy="218" r="1.7" fill="#ffffff" opacity="0.33"/><circle cx="284" cy="182" r="1.2" fill="#ffffff" opacity="0.63"/><circle cx="266" cy="23" r="1.4" fill="#ffffff" opacity="0.55"/><circle cx="207" cy="168" r="0.9" fill="#ffffff" opacity="0.24"/><circle cx="165" cy="185" r="1.5" fill="#ffffff" opacity="0.34"/><circle cx="222" cy="229" r="0.9" fill="#ffffff" opacity="0.55"/><circle cx="272" cy="46" r="1.2" fill="#ffffff" opacity="0.38"/><circle cx="165" cy="128" r="1.6" fill="#ffffff" opacity="0.4"/></g>
  <circle cx="160" cy="160" r="104" fill="#020617" opacity=".38"/>
  <g filter="url(#glow)"><path d="M88 218 L160 92 L232 218 Z" fill="none" stroke="url(#g)" stroke-width="7" opacity=".65"/><circle cx="160" cy="92" r="8" fill="url(#g)"/></g>
  <text x="160" y="175" text-anchor="middle" font-family="Arial, Helvetica, sans-serif" font-size="64" font-weight="800" fill="#f8fbff" filter="url(#glow)">EU</text>
  <text x="160" y="64" text-anchor="middle" font-family="Arial, Helvetica, sans-serif" font-size="36" font-weight="800" fill="#e0f2fe" filter="url(#glow)">⌁</text>
  <text x="160" y="270" text-anchor="middle" font-family="Arial, Helvetica, sans-serif" font-size="13" font-weight="700" fill="#dbeafe">Dossiê de Missões</text>
</svg>