<svg xmlns="http://www.w3.org/2000/svg" width="320" height="320" viewBox="0 0 320 320" role="img" aria-label="Colecionador de Missões 10">
  <defs>
    <radialGradient id="bg" cx="50%" cy="36%" r="72%">
      <stop offset="0%" stop-color="#34d399" stop-opacity=".42"/>
      <stop offset="45%" stop-color="#064e3b" stop-opacity=".88"/>
      <stop offset="100%" stop-color="#020617"/>
    </radialGradient>
    <linearGradient id="g" x1="58" y1="42" x2="262" y2="276" gradientUnits="userSpaceOnUse">
      <stop offset="0%" stop-color="#ffffff"/>
      <stop offset="42%" stop-color="#34d399"/>
      <stop offset="100%" stop-color="#7dd3fc"/>
    </linearGradient>
    <filter id="glow" x="-40%" y="-40%" width="180%" height="180%">
      <feGaussianBlur stdDeviation="5" result="blur"/>
      <feMerge>
        <feMergeNode in="blur"/>
        <feMergeNode in="SourceGraphic"/>
      </feMerge>
    </filter>
  </defs>
  <rect width="320" height="320" rx="52" fill="#020617"/>
  <rect x="10" y="10" width="300" height="300" rx="44" fill="url(#bg)" stroke="url(#g)" stroke-width="3"/>
  <g><circle cx="251" cy="75" r="1.8" fill="#ffffff" opacity="0.48"/><circle cx="77" cy="293" r="1.9" fill="#ffffff" opacity="0.35"/><circle cx="93" cy="118" r="1.2" fill="#ffffff" opacity="0.61"/><circle cx="226" cy="264" r="1.0" fill="#ffffff" opacity="0.62"/><circle cx="302" cy="57" r="1.6" fill="#ffffff" opacity="0.65"/><circle cx="229" cy="39" r="1.0" fill="#ffffff" opacity="0.66"/><circle cx="209" cy="43" r="1.5" fill="#ffffff" opacity="0.32"/><circle cx="94" cy="186" r="1.6" fill="#ffffff" opacity="0.61"/><circle cx="280" cy="187" r="1.1" fill="#ffffff" opacity="0.56"/><circle cx="190" cy="42" r="0.8" fill="#ffffff" opacity="0.56"/><circle cx="155" cy="208" r="1.4" fill="#ffffff" opacity="0.23"/><circle cx="289" cy="167" r="1.4" fill="#ffffff" opacity="0.55"/><circle cx="238" cy="277" r="1.1" fill="#ffffff" opacity="0.6"/><circle cx="233" cy="83" r="1.9" fill="#ffffff" opacity="0.59"/><circle cx="30" cy="47" r="1.9" fill="#ffffff" opacity="0.56"/><circle cx="231" cy="164" r="1.3" fill="#ffffff" opacity="0.67"/><circle cx="198" cy="184" r="1.2" fill="#ffffff" opacity="0.27"/><circle cx="280" cy="76" r="1.2" fill="#ffffff" opacity="0.73"/><circle cx="183" cy="230" r="1.1" fill="#ffffff" opacity="0.33"/><circle cx="174" cy="139" r="1.7" fill="#ffffff" opacity="0.59"/><circle cx="158" cy="180" r="0.9" fill="#ffffff" opacity="0.54"/><circle cx="151" cy="150" r="1.6" fill="#ffffff" opacity="0.37"/></g>
  <circle cx="160" cy="160" r="104" fill="#020617" opacity=".38"/>
  <g filter="url(#glow)"><path d="M88 218 L160 92 L232 218 Z" fill="none" stroke="url(#g)" stroke-width="7" opacity=".65"/><circle cx="160" cy="92" r="8" fill="url(#g)"/></g>
  <text x="160" y="175" text-anchor="middle" font-family="Arial, Helvetica, sans-serif" font-size="64" font-weight="800" fill="#f8fbff" filter="url(#glow)">CM</text>
  <text x="160" y="64" text-anchor="middle" font-family="Arial, Helvetica, sans-serif" font-size="36" font-weight="800" fill="#34d399" filter="url(#glow)">⌁</text>
  <text x="160" y="270" text-anchor="middle" font-family="Arial, Helvetica, sans-serif" font-size="13" font-weight="700" fill="#dbeafe">Dossiê de Missões</text>
</svg>