<svg xmlns="http://www.w3.org/2000/svg" width="320" height="320" viewBox="0 0 320 320" role="img" aria-label="Quarteto Rochoso">
  <defs>
    <radialGradient id="bg" cx="50%" cy="36%" r="72%">
      <stop offset="0%" stop-color="#a78bfa" stop-opacity=".42"/>
      <stop offset="45%" stop-color="#312e81" stop-opacity=".88"/>
      <stop offset="100%" stop-color="#020617"/>
    </radialGradient>
    <linearGradient id="g" x1="58" y1="42" x2="262" y2="276" gradientUnits="userSpaceOnUse">
      <stop offset="0%" stop-color="#ffffff"/>
      <stop offset="42%" stop-color="#a78bfa"/>
      <stop offset="100%" stop-color="#7dd3fc"/>
    </linearGradient>
    <filter id="glow" x="-40%" y="-40%" width="180%" height="180%">
      <feGaussianBlur stdDeviation="5" result="blur"/>
      <feMerge>
        <feMergeNode in="blur"/>
        <feMergeNode in="SourceGraphic"/>
      </feMerge>
    </filter>
  </defs>
  <rect width="320" height="320" rx="52" fill="#020617"/>
  <rect x="10" y="10" width="300" height="300" rx="44" fill="url(#bg)" stroke="url(#g)" stroke-width="3"/>
  <g><circle cx="240" cy="123" r="1.2" fill="#ffffff" opacity="0.46"/><circle cx="22" cy="64" r="2.1" fill="#ffffff" opacity="0.78"/><circle cx="19" cy="62" r="1.1" fill="#ffffff" opacity="0.55"/><circle cx="64" cy="33" r="1.8" fill="#ffffff" opacity="0.67"/><circle cx="168" cy="25" r="1.0" fill="#ffffff" opacity="0.66"/><circle cx="186" cy="249" r="1.6" fill="#ffffff" opacity="0.26"/><circle cx="218" cy="168" r="0.8" fill="#ffffff" opacity="0.6"/><circle cx="150" cy="228" r="1.4" fill="#ffffff" opacity="0.26"/><circle cx="162" cy="154" r="1.4" fill="#ffffff" opacity="0.45"/><circle cx="195" cy="105" r="1.9" fill="#ffffff" opacity="0.75"/><circle cx="52" cy="283" r="1.6" fill="#ffffff" opacity="0.55"/><circle cx="87" cy="135" r="1.3" fill="#ffffff" opacity="0.52"/><circle cx="106" cy="34" r="1.8" fill="#ffffff" opacity="0.54"/><circle cx="276" cy="116" r="1.5" fill="#ffffff" opacity="0.76"/><circle cx="280" cy="304" r="1.0" fill="#ffffff" opacity="0.57"/><circle cx="81" cy="281" r="1.0" fill="#ffffff" opacity="0.45"/><circle cx="249" cy="299" r="1.6" fill="#ffffff" opacity="0.67"/><circle cx="286" cy="144" r="1.7" fill="#ffffff" opacity="0.69"/><circle cx="80" cy="231" r="1.9" fill="#ffffff" opacity="0.44"/><circle cx="91" cy="184" r="1.7" fill="#ffffff" opacity="0.22"/><circle cx="186" cy="279" r="1.2" fill="#ffffff" opacity="0.43"/><circle cx="125" cy="283" r="0.9" fill="#ffffff" opacity="0.38"/></g>
  <circle cx="160" cy="160" r="104" fill="#020617" opacity=".38"/>
  <g filter="url(#glow)"><ellipse cx="160" cy="164" rx="82" ry="24" fill="none" stroke="url(#g)" stroke-width="7" opacity=".75" transform="rotate(-18 160 164)"/></g>
  <text x="160" y="175" text-anchor="middle" font-family="Arial, Helvetica, sans-serif" font-size="64" font-weight="800" fill="#f8fbff" filter="url(#glow)">QR</text>
  <text x="160" y="64" text-anchor="middle" font-family="Arial, Helvetica, sans-serif" font-size="36" font-weight="800" fill="#a78bfa" filter="url(#glow)">◉</text>
  <text x="160" y="270" text-anchor="middle" font-family="Arial, Helvetica, sans-serif" font-size="13" font-weight="700" fill="#dbeafe">Exploração Planetária</text>
</svg>