<svg xmlns="http://www.w3.org/2000/svg" width="320" height="320" viewBox="0 0 320 320" role="img" aria-label="Netuno: Visitante 3x">
  <defs>
    <radialGradient id="bg" cx="50%" cy="36%" r="72%">
      <stop offset="0%" stop-color="#34d399" stop-opacity=".42"/>
      <stop offset="45%" stop-color="#064e3b" stop-opacity=".88"/>
      <stop offset="100%" stop-color="#020617"/>
    </radialGradient>
    <linearGradient id="g" x1="58" y1="42" x2="262" y2="276" gradientUnits="userSpaceOnUse">
      <stop offset="0%" stop-color="#ffffff"/>
      <stop offset="42%" stop-color="#34d399"/>
      <stop offset="100%" stop-color="#7dd3fc"/>
    </linearGradient>
    <filter id="glow" x="-40%" y="-40%" width="180%" height="180%">
      <feGaussianBlur stdDeviation="5" result="blur"/>
      <feMerge>
        <feMergeNode in="blur"/>
        <feMergeNode in="SourceGraphic"/>
      </feMerge>
    </filter>
  </defs>
  <rect width="320" height="320" rx="52" fill="#020617"/>
  <rect x="10" y="10" width="300" height="300" rx="44" fill="url(#bg)" stroke="url(#g)" stroke-width="3"/>
  <g><circle cx="267" cy="24" r="1.3" fill="#ffffff" opacity="0.5"/><circle cx="121" cy="146" r="1.8" fill="#ffffff" opacity="0.45"/><circle cx="242" cy="296" r="2.1" fill="#ffffff" opacity="0.75"/><circle cx="78" cy="193" r="1.8" fill="#ffffff" opacity="0.66"/><circle cx="198" cy="52" r="0.8" fill="#ffffff" opacity="0.63"/><circle cx="96" cy="46" r="1.0" fill="#ffffff" opacity="0.66"/><circle cx="265" cy="89" r="1.6" fill="#ffffff" opacity="0.62"/><circle cx="258" cy="154" r="1.6" fill="#ffffff" opacity="0.46"/><circle cx="301" cy="51" r="1.6" fill="#ffffff" opacity="0.69"/><circle cx="102" cy="219" r="2.0" fill="#ffffff" opacity="0.58"/><circle cx="70" cy="184" r="0.9" fill="#ffffff" opacity="0.75"/><circle cx="31" cy="148" r="2.0" fill="#ffffff" opacity="0.28"/><circle cx="195" cy="92" r="1.1" fill="#ffffff" opacity="0.73"/><circle cx="246" cy="299" r="1.6" fill="#ffffff" opacity="0.65"/><circle cx="118" cy="170" r="0.8" fill="#ffffff" opacity="0.64"/><circle cx="55" cy="192" r="1.5" fill="#ffffff" opacity="0.23"/><circle cx="244" cy="181" r="1.8" fill="#ffffff" opacity="0.67"/><circle cx="169" cy="50" r="1.1" fill="#ffffff" opacity="0.47"/><circle cx="289" cy="219" r="1.3" fill="#ffffff" opacity="0.24"/><circle cx="282" cy="303" r="1.2" fill="#ffffff" opacity="0.7"/><circle cx="215" cy="302" r="1.1" fill="#ffffff" opacity="0.66"/><circle cx="102" cy="135" r="2.1" fill="#ffffff" opacity="0.62"/></g>
  <circle cx="160" cy="160" r="104" fill="#020617" opacity=".38"/>
  <g filter="url(#glow)"><ellipse cx="160" cy="164" rx="82" ry="24" fill="none" stroke="url(#g)" stroke-width="7" opacity=".75" transform="rotate(-18 160 164)"/></g>
  <text x="160" y="175" text-anchor="middle" font-family="Arial, Helvetica, sans-serif" font-size="64" font-weight="800" fill="#f8fbff" filter="url(#glow)">NV</text>
  <text x="160" y="64" text-anchor="middle" font-family="Arial, Helvetica, sans-serif" font-size="36" font-weight="800" fill="#34d399" filter="url(#glow)">◉</text>
  <text x="160" y="270" text-anchor="middle" font-family="Arial, Helvetica, sans-serif" font-size="13" font-weight="700" fill="#dbeafe">Exploração Planetária</text>
</svg>