<svg xmlns="http://www.w3.org/2000/svg" width="320" height="320" viewBox="0 0 320 320" role="img" aria-label="Novo Explorador">
  <defs>
    <radialGradient id="bg" cx="50%" cy="36%" r="72%">
      <stop offset="0%" stop-color="#38bdf8" stop-opacity=".42"/>
      <stop offset="45%" stop-color="#0f2a5f" stop-opacity=".88"/>
      <stop offset="100%" stop-color="#020617"/>
    </radialGradient>
    <linearGradient id="g" x1="58" y1="42" x2="262" y2="276" gradientUnits="userSpaceOnUse">
      <stop offset="0%" stop-color="#ffffff"/>
      <stop offset="42%" stop-color="#38bdf8"/>
      <stop offset="100%" stop-color="#7dd3fc"/>
    </linearGradient>
    <filter id="glow" x="-40%" y="-40%" width="180%" height="180%">
      <feGaussianBlur stdDeviation="5" result="blur"/>
      <feMerge>
        <feMergeNode in="blur"/>
        <feMergeNode in="SourceGraphic"/>
      </feMerge>
    </filter>
  </defs>
  <rect width="320" height="320" rx="52" fill="#020617"/>
  <rect x="10" y="10" width="300" height="300" rx="44" fill="url(#bg)" stroke="url(#g)" stroke-width="3"/>
  <g><circle cx="99" cy="178" r="0.9" fill="#ffffff" opacity="0.51"/><circle cx="43" cy="37" r="1.8" fill="#ffffff" opacity="0.55"/><circle cx="137" cy="29" r="1.4" fill="#ffffff" opacity="0.59"/><circle cx="50" cy="285" r="1.2" fill="#ffffff" opacity="0.77"/><circle cx="188" cy="297" r="1.2" fill="#ffffff" opacity="0.52"/><circle cx="103" cy="47" r="0.8" fill="#ffffff" opacity="0.42"/><circle cx="125" cy="247" r="1.8" fill="#ffffff" opacity="0.37"/><circle cx="193" cy="74" r="2.0" fill="#ffffff" opacity="0.23"/><circle cx="114" cy="21" r="0.8" fill="#ffffff" opacity="0.57"/><circle cx="231" cy="262" r="1.1" fill="#ffffff" opacity="0.45"/><circle cx="147" cy="225" r="0.8" fill="#ffffff" opacity="0.49"/><circle cx="304" cy="53" r="1.5" fill="#ffffff" opacity="0.42"/><circle cx="213" cy="71" r="1.1" fill="#ffffff" opacity="0.35"/><circle cx="146" cy="177" r="1.3" fill="#ffffff" opacity="0.52"/><circle cx="68" cy="191" r="1.3" fill="#ffffff" opacity="0.69"/><circle cx="71" cy="44" r="2.0" fill="#ffffff" opacity="0.32"/><circle cx="80" cy="77" r="1.3" fill="#ffffff" opacity="0.56"/><circle cx="25" cy="56" r="1.3" fill="#ffffff" opacity="0.66"/><circle cx="83" cy="178" r="0.8" fill="#ffffff" opacity="0.31"/><circle cx="46" cy="87" r="1.7" fill="#ffffff" opacity="0.44"/><circle cx="55" cy="187" r="1.8" fill="#ffffff" opacity="0.23"/><circle cx="268" cy="55" r="1.0" fill="#ffffff" opacity="0.42"/></g>
  <circle cx="160" cy="160" r="104" fill="#020617" opacity=".38"/>
  <g filter="url(#glow)"><circle cx="160" cy="160" r="78" fill="none" stroke="url(#g)" stroke-width="7" opacity=".72"/></g>
  <text x="160" y="175" text-anchor="middle" font-family="Arial, Helvetica, sans-serif" font-size="64" font-weight="800" fill="#f8fbff" filter="url(#glow)">NE</text>
  <text x="160" y="64" text-anchor="middle" font-family="Arial, Helvetica, sans-serif" font-size="36" font-weight="800" fill="#38bdf8" filter="url(#glow)">✦</text>
  <text x="160" y="270" text-anchor="middle" font-family="Arial, Helvetica, sans-serif" font-size="13" font-weight="700" fill="#dbeafe">Primeiros Passos</text>
</svg>