<svg xmlns="http://www.w3.org/2000/svg" width="320" height="320" viewBox="0 0 320 320" role="img" aria-label="Checklist 10x">
  <defs>
    <radialGradient id="bg" cx="50%" cy="36%" r="72%">
      <stop offset="0%" stop-color="#34d399" stop-opacity=".42"/>
      <stop offset="45%" stop-color="#064e3b" stop-opacity=".88"/>
      <stop offset="100%" stop-color="#020617"/>
    </radialGradient>
    <linearGradient id="g" x1="58" y1="42" x2="262" y2="276" gradientUnits="userSpaceOnUse">
      <stop offset="0%" stop-color="#ffffff"/>
      <stop offset="42%" stop-color="#34d399"/>
      <stop offset="100%" stop-color="#7dd3fc"/>
    </linearGradient>
    <filter id="glow" x="-40%" y="-40%" width="180%" height="180%">
      <feGaussianBlur stdDeviation="5" result="blur"/>
      <feMerge>
        <feMergeNode in="blur"/>
        <feMergeNode in="SourceGraphic"/>
      </feMerge>
    </filter>
  </defs>
  <rect width="320" height="320" rx="52" fill="#020617"/>
  <rect x="10" y="10" width="300" height="300" rx="44" fill="url(#bg)" stroke="url(#g)" stroke-width="3"/>
  <g><circle cx="70" cy="187" r="1.6" fill="#ffffff" opacity="0.66"/><circle cx="264" cy="202" r="1.3" fill="#ffffff" opacity="0.36"/><circle cx="134" cy="77" r="1.8" fill="#ffffff" opacity="0.28"/><circle cx="304" cy="137" r="1.1" fill="#ffffff" opacity="0.22"/><circle cx="49" cy="83" r="0.9" fill="#ffffff" opacity="0.34"/><circle cx="250" cy="193" r="1.7" fill="#ffffff" opacity="0.55"/><circle cx="89" cy="196" r="1.1" fill="#ffffff" opacity="0.41"/><circle cx="207" cy="178" r="1.0" fill="#ffffff" opacity="0.46"/><circle cx="192" cy="252" r="1.8" fill="#ffffff" opacity="0.41"/><circle cx="45" cy="189" r="0.9" fill="#ffffff" opacity="0.59"/><circle cx="246" cy="146" r="1.2" fill="#ffffff" opacity="0.7"/><circle cx="72" cy="117" r="1.2" fill="#ffffff" opacity="0.51"/><circle cx="177" cy="273" r="1.3" fill="#ffffff" opacity="0.74"/><circle cx="16" cy="159" r="1.7" fill="#ffffff" opacity="0.4"/><circle cx="75" cy="71" r="1.4" fill="#ffffff" opacity="0.36"/><circle cx="94" cy="222" r="1.5" fill="#ffffff" opacity="0.57"/><circle cx="188" cy="197" r="1.3" fill="#ffffff" opacity="0.31"/><circle cx="162" cy="294" r="1.1" fill="#ffffff" opacity="0.68"/><circle cx="173" cy="57" r="1.6" fill="#ffffff" opacity="0.45"/><circle cx="135" cy="251" r="1.1" fill="#ffffff" opacity="0.23"/><circle cx="78" cy="83" r="1.8" fill="#ffffff" opacity="0.38"/><circle cx="74" cy="52" r="1.9" fill="#ffffff" opacity="0.59"/></g>
  <circle cx="160" cy="160" r="104" fill="#020617" opacity=".38"/>
  <g filter="url(#glow)"><circle cx="160" cy="160" r="78" fill="none" stroke="url(#g)" stroke-width="7" opacity=".72"/></g>
  <text x="160" y="175" text-anchor="middle" font-family="Arial, Helvetica, sans-serif" font-size="64" font-weight="800" fill="#f8fbff" filter="url(#glow)">C1</text>
  <text x="160" y="64" text-anchor="middle" font-family="Arial, Helvetica, sans-serif" font-size="36" font-weight="800" fill="#34d399" filter="url(#glow)">✦</text>
  <text x="160" y="270" text-anchor="middle" font-family="Arial, Helvetica, sans-serif" font-size="13" font-weight="700" fill="#dbeafe">Primeiros Passos</text>
</svg>