<svg xmlns="http://www.w3.org/2000/svg" width="320" height="320" viewBox="0 0 320 320" role="img" aria-label="Painel de Bordo">
  <defs>
    <radialGradient id="bg" cx="50%" cy="36%" r="72%">
      <stop offset="0%" stop-color="#38bdf8" stop-opacity=".42"/>
      <stop offset="45%" stop-color="#0f2a5f" stop-opacity=".88"/>
      <stop offset="100%" stop-color="#020617"/>
    </radialGradient>
    <linearGradient id="g" x1="58" y1="42" x2="262" y2="276" gradientUnits="userSpaceOnUse">
      <stop offset="0%" stop-color="#ffffff"/>
      <stop offset="42%" stop-color="#38bdf8"/>
      <stop offset="100%" stop-color="#7dd3fc"/>
    </linearGradient>
    <filter id="glow" x="-40%" y="-40%" width="180%" height="180%">
      <feGaussianBlur stdDeviation="5" result="blur"/>
      <feMerge>
        <feMergeNode in="blur"/>
        <feMergeNode in="SourceGraphic"/>
      </feMerge>
    </filter>
  </defs>
  <rect width="320" height="320" rx="52" fill="#020617"/>
  <rect x="10" y="10" width="300" height="300" rx="44" fill="url(#bg)" stroke="url(#g)" stroke-width="3"/>
  <g><circle cx="153" cy="158" r="0.9" fill="#ffffff" opacity="0.78"/><circle cx="139" cy="291" r="1.8" fill="#ffffff" opacity="0.64"/><circle cx="134" cy="202" r="1.8" fill="#ffffff" opacity="0.73"/><circle cx="74" cy="270" r="1.5" fill="#ffffff" opacity="0.75"/><circle cx="69" cy="271" r="1.5" fill="#ffffff" opacity="0.33"/><circle cx="66" cy="210" r="1.2" fill="#ffffff" opacity="0.66"/><circle cx="228" cy="216" r="1.8" fill="#ffffff" opacity="0.27"/><circle cx="279" cy="270" r="1.4" fill="#ffffff" opacity="0.24"/><circle cx="26" cy="298" r="1.1" fill="#ffffff" opacity="0.67"/><circle cx="283" cy="54" r="1.0" fill="#ffffff" opacity="0.44"/><circle cx="234" cy="295" r="1.7" fill="#ffffff" opacity="0.49"/><circle cx="16" cy="203" r="1.4" fill="#ffffff" opacity="0.68"/><circle cx="50" cy="200" r="1.9" fill="#ffffff" opacity="0.55"/><circle cx="184" cy="261" r="2.0" fill="#ffffff" opacity="0.23"/><circle cx="32" cy="25" r="1.0" fill="#ffffff" opacity="0.42"/><circle cx="247" cy="297" r="1.5" fill="#ffffff" opacity="0.5"/><circle cx="133" cy="97" r="1.2" fill="#ffffff" opacity="0.7"/><circle cx="257" cy="284" r="1.9" fill="#ffffff" opacity="0.47"/><circle cx="182" cy="274" r="0.9" fill="#ffffff" opacity="0.49"/><circle cx="149" cy="58" r="1.5" fill="#ffffff" opacity="0.55"/><circle cx="248" cy="233" r="2.1" fill="#ffffff" opacity="0.51"/><circle cx="103" cy="54" r="1.5" fill="#ffffff" opacity="0.31"/></g>
  <circle cx="160" cy="160" r="104" fill="#020617" opacity=".38"/>
  <g filter="url(#glow)"><circle cx="160" cy="160" r="78" fill="none" stroke="url(#g)" stroke-width="7" opacity=".72"/></g>
  <text x="160" y="175" text-anchor="middle" font-family="Arial, Helvetica, sans-serif" font-size="64" font-weight="800" fill="#f8fbff" filter="url(#glow)">PB</text>
  <text x="160" y="64" text-anchor="middle" font-family="Arial, Helvetica, sans-serif" font-size="36" font-weight="800" fill="#38bdf8" filter="url(#glow)">✦</text>
  <text x="160" y="270" text-anchor="middle" font-family="Arial, Helvetica, sans-serif" font-size="13" font-weight="700" fill="#dbeafe">Primeiros Passos</text>
</svg>