<svg xmlns="http://www.w3.org/2000/svg" width="320" height="320" viewBox="0 0 320 320" role="img" aria-label="Checklist 5x">
  <defs>
    <radialGradient id="bg" cx="50%" cy="36%" r="72%">
      <stop offset="0%" stop-color="#34d399" stop-opacity=".42"/>
      <stop offset="45%" stop-color="#064e3b" stop-opacity=".88"/>
      <stop offset="100%" stop-color="#020617"/>
    </radialGradient>
    <linearGradient id="g" x1="58" y1="42" x2="262" y2="276" gradientUnits="userSpaceOnUse">
      <stop offset="0%" stop-color="#ffffff"/>
      <stop offset="42%" stop-color="#34d399"/>
      <stop offset="100%" stop-color="#7dd3fc"/>
    </linearGradient>
    <filter id="glow" x="-40%" y="-40%" width="180%" height="180%">
      <feGaussianBlur stdDeviation="5" result="blur"/>
      <feMerge>
        <feMergeNode in="blur"/>
        <feMergeNode in="SourceGraphic"/>
      </feMerge>
    </filter>
  </defs>
  <rect width="320" height="320" rx="52" fill="#020617"/>
  <rect x="10" y="10" width="300" height="300" rx="44" fill="url(#bg)" stroke="url(#g)" stroke-width="3"/>
  <g><circle cx="249" cy="255" r="1.3" fill="#ffffff" opacity="0.38"/><circle cx="70" cy="214" r="1.0" fill="#ffffff" opacity="0.26"/><circle cx="177" cy="96" r="1.6" fill="#ffffff" opacity="0.56"/><circle cx="298" cy="205" r="2.0" fill="#ffffff" opacity="0.41"/><circle cx="263" cy="156" r="1.2" fill="#ffffff" opacity="0.55"/><circle cx="256" cy="285" r="1.0" fill="#ffffff" opacity="0.64"/><circle cx="125" cy="251" r="0.9" fill="#ffffff" opacity="0.55"/><circle cx="18" cy="39" r="1.9" fill="#ffffff" opacity="0.37"/><circle cx="109" cy="121" r="2.1" fill="#ffffff" opacity="0.58"/><circle cx="176" cy="21" r="1.9" fill="#ffffff" opacity="0.41"/><circle cx="281" cy="96" r="1.4" fill="#ffffff" opacity="0.41"/><circle cx="209" cy="158" r="1.4" fill="#ffffff" opacity="0.29"/><circle cx="224" cy="271" r="0.9" fill="#ffffff" opacity="0.72"/><circle cx="77" cy="131" r="1.9" fill="#ffffff" opacity="0.64"/><circle cx="74" cy="268" r="1.8" fill="#ffffff" opacity="0.7"/><circle cx="263" cy="76" r="0.9" fill="#ffffff" opacity="0.35"/><circle cx="230" cy="276" r="1.6" fill="#ffffff" opacity="0.23"/><circle cx="274" cy="138" r="1.4" fill="#ffffff" opacity="0.62"/><circle cx="259" cy="140" r="1.1" fill="#ffffff" opacity="0.4"/><circle cx="102" cy="171" r="2.1" fill="#ffffff" opacity="0.42"/><circle cx="110" cy="166" r="1.2" fill="#ffffff" opacity="0.23"/><circle cx="148" cy="41" r="1.0" fill="#ffffff" opacity="0.59"/></g>
  <circle cx="160" cy="160" r="104" fill="#020617" opacity=".38"/>
  <g filter="url(#glow)"><circle cx="160" cy="160" r="78" fill="none" stroke="url(#g)" stroke-width="7" opacity=".72"/></g>
  <text x="160" y="175" text-anchor="middle" font-family="Arial, Helvetica, sans-serif" font-size="64" font-weight="800" fill="#f8fbff" filter="url(#glow)">C5</text>
  <text x="160" y="64" text-anchor="middle" font-family="Arial, Helvetica, sans-serif" font-size="36" font-weight="800" fill="#34d399" filter="url(#glow)">✦</text>
  <text x="160" y="270" text-anchor="middle" font-family="Arial, Helvetica, sans-serif" font-size="13" font-weight="700" fill="#dbeafe">Primeiros Passos</text>
</svg>