<svg xmlns="http://www.w3.org/2000/svg" width="320" height="320" viewBox="0 0 320 320" role="img" aria-label="Checklist 3x">
  <defs>
    <radialGradient id="bg" cx="50%" cy="36%" r="72%">
      <stop offset="0%" stop-color="#38bdf8" stop-opacity=".42"/>
      <stop offset="45%" stop-color="#0f2a5f" stop-opacity=".88"/>
      <stop offset="100%" stop-color="#020617"/>
    </radialGradient>
    <linearGradient id="g" x1="58" y1="42" x2="262" y2="276" gradientUnits="userSpaceOnUse">
      <stop offset="0%" stop-color="#ffffff"/>
      <stop offset="42%" stop-color="#38bdf8"/>
      <stop offset="100%" stop-color="#7dd3fc"/>
    </linearGradient>
    <filter id="glow" x="-40%" y="-40%" width="180%" height="180%">
      <feGaussianBlur stdDeviation="5" result="blur"/>
      <feMerge>
        <feMergeNode in="blur"/>
        <feMergeNode in="SourceGraphic"/>
      </feMerge>
    </filter>
  </defs>
  <rect width="320" height="320" rx="52" fill="#020617"/>
  <rect x="10" y="10" width="300" height="300" rx="44" fill="url(#bg)" stroke="url(#g)" stroke-width="3"/>
  <g><circle cx="105" cy="126" r="0.9" fill="#ffffff" opacity="0.23"/><circle cx="277" cy="211" r="2.0" fill="#ffffff" opacity="0.46"/><circle cx="185" cy="171" r="1.3" fill="#ffffff" opacity="0.27"/><circle cx="170" cy="267" r="1.6" fill="#ffffff" opacity="0.49"/><circle cx="77" cy="211" r="1.7" fill="#ffffff" opacity="0.3"/><circle cx="256" cy="226" r="1.5" fill="#ffffff" opacity="0.29"/><circle cx="69" cy="151" r="1.0" fill="#ffffff" opacity="0.76"/><circle cx="160" cy="211" r="2.1" fill="#ffffff" opacity="0.26"/><circle cx="302" cy="41" r="1.0" fill="#ffffff" opacity="0.65"/><circle cx="281" cy="290" r="1.8" fill="#ffffff" opacity="0.76"/><circle cx="72" cy="153" r="0.9" fill="#ffffff" opacity="0.38"/><circle cx="225" cy="143" r="0.9" fill="#ffffff" opacity="0.63"/><circle cx="188" cy="268" r="1.3" fill="#ffffff" opacity="0.4"/><circle cx="153" cy="19" r="1.7" fill="#ffffff" opacity="0.52"/><circle cx="225" cy="155" r="1.4" fill="#ffffff" opacity="0.7"/><circle cx="130" cy="43" r="1.0" fill="#ffffff" opacity="0.56"/><circle cx="84" cy="281" r="1.2" fill="#ffffff" opacity="0.52"/><circle cx="230" cy="210" r="1.3" fill="#ffffff" opacity="0.71"/><circle cx="84" cy="86" r="1.8" fill="#ffffff" opacity="0.42"/><circle cx="203" cy="261" r="1.6" fill="#ffffff" opacity="0.76"/><circle cx="210" cy="130" r="0.8" fill="#ffffff" opacity="0.41"/><circle cx="167" cy="124" r="1.1" fill="#ffffff" opacity="0.68"/></g>
  <circle cx="160" cy="160" r="104" fill="#020617" opacity=".38"/>
  <g filter="url(#glow)"><circle cx="160" cy="160" r="78" fill="none" stroke="url(#g)" stroke-width="7" opacity=".72"/></g>
  <text x="160" y="175" text-anchor="middle" font-family="Arial, Helvetica, sans-serif" font-size="64" font-weight="800" fill="#f8fbff" filter="url(#glow)">C3</text>
  <text x="160" y="64" text-anchor="middle" font-family="Arial, Helvetica, sans-serif" font-size="36" font-weight="800" fill="#38bdf8" filter="url(#glow)">✦</text>
  <text x="160" y="270" text-anchor="middle" font-family="Arial, Helvetica, sans-serif" font-size="13" font-weight="700" fill="#dbeafe">Primeiros Passos</text>
</svg>