<svg xmlns="http://www.w3.org/2000/svg" width="320" height="320" viewBox="0 0 320 320" role="img" aria-label="Checklist 50x">
  <defs>
    <radialGradient id="bg" cx="50%" cy="36%" r="72%">
      <stop offset="0%" stop-color="#facc15" stop-opacity=".42"/>
      <stop offset="45%" stop-color="#78350f" stop-opacity=".88"/>
      <stop offset="100%" stop-color="#020617"/>
    </radialGradient>
    <linearGradient id="g" x1="58" y1="42" x2="262" y2="276" gradientUnits="userSpaceOnUse">
      <stop offset="0%" stop-color="#ffffff"/>
      <stop offset="42%" stop-color="#facc15"/>
      <stop offset="100%" stop-color="#7dd3fc"/>
    </linearGradient>
    <filter id="glow" x="-40%" y="-40%" width="180%" height="180%">
      <feGaussianBlur stdDeviation="5" result="blur"/>
      <feMerge>
        <feMergeNode in="blur"/>
        <feMergeNode in="SourceGraphic"/>
      </feMerge>
    </filter>
  </defs>
  <rect width="320" height="320" rx="52" fill="#020617"/>
  <rect x="10" y="10" width="300" height="300" rx="44" fill="url(#bg)" stroke="url(#g)" stroke-width="3"/>
  <g><circle cx="190" cy="163" r="1.5" fill="#ffffff" opacity="0.34"/><circle cx="202" cy="166" r="1.3" fill="#ffffff" opacity="0.63"/><circle cx="137" cy="30" r="1.4" fill="#ffffff" opacity="0.75"/><circle cx="55" cy="35" r="1.7" fill="#ffffff" opacity="0.36"/><circle cx="199" cy="81" r="1.2" fill="#ffffff" opacity="0.34"/><circle cx="154" cy="212" r="1.9" fill="#ffffff" opacity="0.52"/><circle cx="256" cy="255" r="1.6" fill="#ffffff" opacity="0.37"/><circle cx="297" cy="191" r="1.8" fill="#ffffff" opacity="0.28"/><circle cx="224" cy="159" r="1.2" fill="#ffffff" opacity="0.34"/><circle cx="279" cy="218" r="2.0" fill="#ffffff" opacity="0.42"/><circle cx="265" cy="145" r="1.4" fill="#ffffff" opacity="0.22"/><circle cx="246" cy="236" r="1.5" fill="#ffffff" opacity="0.44"/><circle cx="120" cy="178" r="1.0" fill="#ffffff" opacity="0.53"/><circle cx="73" cy="173" r="1.4" fill="#ffffff" opacity="0.45"/><circle cx="254" cy="86" r="1.0" fill="#ffffff" opacity="0.41"/><circle cx="266" cy="77" r="1.7" fill="#ffffff" opacity="0.51"/><circle cx="50" cy="107" r="0.9" fill="#ffffff" opacity="0.42"/><circle cx="117" cy="28" r="1.7" fill="#ffffff" opacity="0.52"/><circle cx="53" cy="91" r="1.7" fill="#ffffff" opacity="0.33"/><circle cx="138" cy="132" r="2.1" fill="#ffffff" opacity="0.23"/><circle cx="143" cy="250" r="1.2" fill="#ffffff" opacity="0.42"/><circle cx="57" cy="272" r="1.2" fill="#ffffff" opacity="0.34"/></g>
  <circle cx="160" cy="160" r="104" fill="#020617" opacity=".38"/>
  <g filter="url(#glow)"><circle cx="160" cy="160" r="78" fill="none" stroke="url(#g)" stroke-width="7" opacity=".72"/></g>
  <text x="160" y="175" text-anchor="middle" font-family="Arial, Helvetica, sans-serif" font-size="64" font-weight="800" fill="#f8fbff" filter="url(#glow)">C5</text>
  <text x="160" y="64" text-anchor="middle" font-family="Arial, Helvetica, sans-serif" font-size="36" font-weight="800" fill="#facc15" filter="url(#glow)">✦</text>
  <text x="160" y="270" text-anchor="middle" font-family="Arial, Helvetica, sans-serif" font-size="13" font-weight="700" fill="#dbeafe">Primeiros Passos</text>
</svg>