<svg xmlns="http://www.w3.org/2000/svg" width="320" height="320" viewBox="0 0 320 320" role="img" aria-label="Perfil em Ordem">
  <defs>
    <radialGradient id="bg" cx="50%" cy="36%" r="72%">
      <stop offset="0%" stop-color="#38bdf8" stop-opacity=".42"/>
      <stop offset="45%" stop-color="#0f2a5f" stop-opacity=".88"/>
      <stop offset="100%" stop-color="#020617"/>
    </radialGradient>
    <linearGradient id="g" x1="58" y1="42" x2="262" y2="276" gradientUnits="userSpaceOnUse">
      <stop offset="0%" stop-color="#ffffff"/>
      <stop offset="42%" stop-color="#38bdf8"/>
      <stop offset="100%" stop-color="#7dd3fc"/>
    </linearGradient>
    <filter id="glow" x="-40%" y="-40%" width="180%" height="180%">
      <feGaussianBlur stdDeviation="5" result="blur"/>
      <feMerge>
        <feMergeNode in="blur"/>
        <feMergeNode in="SourceGraphic"/>
      </feMerge>
    </filter>
  </defs>
  <rect width="320" height="320" rx="52" fill="#020617"/>
  <rect x="10" y="10" width="300" height="300" rx="44" fill="url(#bg)" stroke="url(#g)" stroke-width="3"/>
  <g><circle cx="127" cy="72" r="1.6" fill="#ffffff" opacity="0.47"/><circle cx="187" cy="169" r="0.9" fill="#ffffff" opacity="0.39"/><circle cx="251" cy="287" r="1.4" fill="#ffffff" opacity="0.58"/><circle cx="113" cy="164" r="1.3" fill="#ffffff" opacity="0.42"/><circle cx="148" cy="107" r="1.2" fill="#ffffff" opacity="0.37"/><circle cx="276" cy="131" r="2.1" fill="#ffffff" opacity="0.76"/><circle cx="40" cy="273" r="0.8" fill="#ffffff" opacity="0.29"/><circle cx="118" cy="216" r="1.5" fill="#ffffff" opacity="0.54"/><circle cx="88" cy="153" r="1.5" fill="#ffffff" opacity="0.53"/><circle cx="178" cy="181" r="1.3" fill="#ffffff" opacity="0.73"/><circle cx="122" cy="202" r="1.2" fill="#ffffff" opacity="0.32"/><circle cx="115" cy="162" r="1.0" fill="#ffffff" opacity="0.77"/><circle cx="221" cy="73" r="1.8" fill="#ffffff" opacity="0.32"/><circle cx="193" cy="177" r="0.9" fill="#ffffff" opacity="0.45"/><circle cx="44" cy="159" r="1.2" fill="#ffffff" opacity="0.34"/><circle cx="225" cy="102" r="1.2" fill="#ffffff" opacity="0.35"/><circle cx="271" cy="259" r="1.6" fill="#ffffff" opacity="0.54"/><circle cx="279" cy="235" r="1.7" fill="#ffffff" opacity="0.67"/><circle cx="58" cy="271" r="1.9" fill="#ffffff" opacity="0.74"/><circle cx="203" cy="298" r="1.0" fill="#ffffff" opacity="0.76"/><circle cx="240" cy="238" r="1.1" fill="#ffffff" opacity="0.32"/><circle cx="18" cy="180" r="1.7" fill="#ffffff" opacity="0.67"/></g>
  <circle cx="160" cy="160" r="104" fill="#020617" opacity=".38"/>
  <g filter="url(#glow)"><circle cx="160" cy="160" r="78" fill="none" stroke="url(#g)" stroke-width="7" opacity=".72"/></g>
  <text x="160" y="175" text-anchor="middle" font-family="Arial, Helvetica, sans-serif" font-size="64" font-weight="800" fill="#f8fbff" filter="url(#glow)">PO</text>
  <text x="160" y="64" text-anchor="middle" font-family="Arial, Helvetica, sans-serif" font-size="36" font-weight="800" fill="#38bdf8" filter="url(#glow)">✦</text>
  <text x="160" y="270" text-anchor="middle" font-family="Arial, Helvetica, sans-serif" font-size="13" font-weight="700" fill="#dbeafe">Primeiros Passos</text>
</svg>