<svg xmlns="http://www.w3.org/2000/svg" width="320" height="320" viewBox="0 0 320 320" role="img" aria-label="Banco de Respostas 300">
  <defs>
    <radialGradient id="bg" cx="50%" cy="36%" r="72%">
      <stop offset="0%" stop-color="#facc15" stop-opacity=".42"/>
      <stop offset="45%" stop-color="#78350f" stop-opacity=".88"/>
      <stop offset="100%" stop-color="#020617"/>
    </radialGradient>
    <linearGradient id="g" x1="58" y1="42" x2="262" y2="276" gradientUnits="userSpaceOnUse">
      <stop offset="0%" stop-color="#ffffff"/>
      <stop offset="42%" stop-color="#facc15"/>
      <stop offset="100%" stop-color="#7dd3fc"/>
    </linearGradient>
    <filter id="glow" x="-40%" y="-40%" width="180%" height="180%">
      <feGaussianBlur stdDeviation="5" result="blur"/>
      <feMerge>
        <feMergeNode in="blur"/>
        <feMergeNode in="SourceGraphic"/>
      </feMerge>
    </filter>
  </defs>
  <rect width="320" height="320" rx="52" fill="#020617"/>
  <rect x="10" y="10" width="300" height="300" rx="44" fill="url(#bg)" stroke="url(#g)" stroke-width="3"/>
  <g><circle cx="94" cy="120" r="1.2" fill="#ffffff" opacity="0.27"/><circle cx="95" cy="205" r="1.3" fill="#ffffff" opacity="0.68"/><circle cx="26" cy="252" r="0.9" fill="#ffffff" opacity="0.67"/><circle cx="59" cy="83" r="1.2" fill="#ffffff" opacity="0.76"/><circle cx="96" cy="205" r="1.5" fill="#ffffff" opacity="0.52"/><circle cx="223" cy="261" r="1.9" fill="#ffffff" opacity="0.5"/><circle cx="88" cy="72" r="1.4" fill="#ffffff" opacity="0.66"/><circle cx="79" cy="107" r="1.9" fill="#ffffff" opacity="0.24"/><circle cx="39" cy="242" r="2.1" fill="#ffffff" opacity="0.44"/><circle cx="265" cy="183" r="1.4" fill="#ffffff" opacity="0.35"/><circle cx="69" cy="117" r="1.5" fill="#ffffff" opacity="0.61"/><circle cx="67" cy="73" r="1.7" fill="#ffffff" opacity="0.24"/><circle cx="183" cy="154" r="1.7" fill="#ffffff" opacity="0.74"/><circle cx="194" cy="88" r="0.8" fill="#ffffff" opacity="0.62"/><circle cx="127" cy="163" r="1.8" fill="#ffffff" opacity="0.48"/><circle cx="196" cy="300" r="1.1" fill="#ffffff" opacity="0.35"/><circle cx="54" cy="56" r="1.7" fill="#ffffff" opacity="0.67"/><circle cx="163" cy="211" r="1.7" fill="#ffffff" opacity="0.67"/><circle cx="215" cy="121" r="1.6" fill="#ffffff" opacity="0.7"/><circle cx="159" cy="228" r="1.9" fill="#ffffff" opacity="0.7"/><circle cx="281" cy="232" r="2.1" fill="#ffffff" opacity="0.73"/><circle cx="301" cy="172" r="1.5" fill="#ffffff" opacity="0.52"/></g>
  <circle cx="160" cy="160" r="104" fill="#020617" opacity=".38"/>
  <g filter="url(#glow)"><path d="M87 163 C102 87 218 87 233 163 C217 239 103 239 87 163Z" fill="none" stroke="url(#g)" stroke-width="7" opacity=".7"/></g>
  <text x="160" y="175" text-anchor="middle" font-family="Arial, Helvetica, sans-serif" font-size="64" font-weight="800" fill="#f8fbff" filter="url(#glow)">BR</text>
  <text x="160" y="64" text-anchor="middle" font-family="Arial, Helvetica, sans-serif" font-size="36" font-weight="800" fill="#facc15" filter="url(#glow)">?</text>
  <text x="160" y="270" text-anchor="middle" font-family="Arial, Helvetica, sans-serif" font-size="13" font-weight="700" fill="#dbeafe">Modo Aventura</text>
</svg>