<svg xmlns="http://www.w3.org/2000/svg" width="320" height="320" viewBox="0 0 320 320" role="img" aria-label="Banco de Respostas 25">
  <defs>
    <radialGradient id="bg" cx="50%" cy="36%" r="72%">
      <stop offset="0%" stop-color="#34d399" stop-opacity=".42"/>
      <stop offset="45%" stop-color="#064e3b" stop-opacity=".88"/>
      <stop offset="100%" stop-color="#020617"/>
    </radialGradient>
    <linearGradient id="g" x1="58" y1="42" x2="262" y2="276" gradientUnits="userSpaceOnUse">
      <stop offset="0%" stop-color="#ffffff"/>
      <stop offset="42%" stop-color="#34d399"/>
      <stop offset="100%" stop-color="#7dd3fc"/>
    </linearGradient>
    <filter id="glow" x="-40%" y="-40%" width="180%" height="180%">
      <feGaussianBlur stdDeviation="5" result="blur"/>
      <feMerge>
        <feMergeNode in="blur"/>
        <feMergeNode in="SourceGraphic"/>
      </feMerge>
    </filter>
  </defs>
  <rect width="320" height="320" rx="52" fill="#020617"/>
  <rect x="10" y="10" width="300" height="300" rx="44" fill="url(#bg)" stroke="url(#g)" stroke-width="3"/>
  <g><circle cx="49" cy="100" r="1.1" fill="#ffffff" opacity="0.46"/><circle cx="190" cy="211" r="1.9" fill="#ffffff" opacity="0.3"/><circle cx="140" cy="150" r="1.4" fill="#ffffff" opacity="0.34"/><circle cx="265" cy="80" r="2.0" fill="#ffffff" opacity="0.39"/><circle cx="149" cy="130" r="1.4" fill="#ffffff" opacity="0.37"/><circle cx="105" cy="230" r="1.2" fill="#ffffff" opacity="0.31"/><circle cx="97" cy="246" r="0.8" fill="#ffffff" opacity="0.45"/><circle cx="287" cy="34" r="2.1" fill="#ffffff" opacity="0.45"/><circle cx="87" cy="143" r="1.1" fill="#ffffff" opacity="0.71"/><circle cx="227" cy="145" r="0.8" fill="#ffffff" opacity="0.46"/><circle cx="239" cy="187" r="1.5" fill="#ffffff" opacity="0.35"/><circle cx="224" cy="140" r="1.6" fill="#ffffff" opacity="0.65"/><circle cx="215" cy="97" r="2.0" fill="#ffffff" opacity="0.6"/><circle cx="75" cy="175" r="1.1" fill="#ffffff" opacity="0.29"/><circle cx="242" cy="33" r="1.1" fill="#ffffff" opacity="0.36"/><circle cx="115" cy="264" r="1.8" fill="#ffffff" opacity="0.45"/><circle cx="24" cy="239" r="1.3" fill="#ffffff" opacity="0.59"/><circle cx="99" cy="237" r="1.2" fill="#ffffff" opacity="0.41"/><circle cx="147" cy="105" r="1.4" fill="#ffffff" opacity="0.3"/><circle cx="234" cy="203" r="0.9" fill="#ffffff" opacity="0.67"/><circle cx="73" cy="16" r="1.2" fill="#ffffff" opacity="0.43"/><circle cx="173" cy="245" r="1.7" fill="#ffffff" opacity="0.52"/></g>
  <circle cx="160" cy="160" r="104" fill="#020617" opacity=".38"/>
  <g filter="url(#glow)"><path d="M87 163 C102 87 218 87 233 163 C217 239 103 239 87 163Z" fill="none" stroke="url(#g)" stroke-width="7" opacity=".7"/></g>
  <text x="160" y="175" text-anchor="middle" font-family="Arial, Helvetica, sans-serif" font-size="64" font-weight="800" fill="#f8fbff" filter="url(#glow)">BR</text>
  <text x="160" y="64" text-anchor="middle" font-family="Arial, Helvetica, sans-serif" font-size="36" font-weight="800" fill="#34d399" filter="url(#glow)">?</text>
  <text x="160" y="270" text-anchor="middle" font-family="Arial, Helvetica, sans-serif" font-size="13" font-weight="700" fill="#dbeafe">Modo Aventura</text>
</svg>