<svg xmlns="http://www.w3.org/2000/svg" width="320" height="320" viewBox="0 0 320 320" role="img" aria-label="Banco de Respostas 100">
  <defs>
    <radialGradient id="bg" cx="50%" cy="36%" r="72%">
      <stop offset="0%" stop-color="#a78bfa" stop-opacity=".42"/>
      <stop offset="45%" stop-color="#312e81" stop-opacity=".88"/>
      <stop offset="100%" stop-color="#020617"/>
    </radialGradient>
    <linearGradient id="g" x1="58" y1="42" x2="262" y2="276" gradientUnits="userSpaceOnUse">
      <stop offset="0%" stop-color="#ffffff"/>
      <stop offset="42%" stop-color="#a78bfa"/>
      <stop offset="100%" stop-color="#7dd3fc"/>
    </linearGradient>
    <filter id="glow" x="-40%" y="-40%" width="180%" height="180%">
      <feGaussianBlur stdDeviation="5" result="blur"/>
      <feMerge>
        <feMergeNode in="blur"/>
        <feMergeNode in="SourceGraphic"/>
      </feMerge>
    </filter>
  </defs>
  <rect width="320" height="320" rx="52" fill="#020617"/>
  <rect x="10" y="10" width="300" height="300" rx="44" fill="url(#bg)" stroke="url(#g)" stroke-width="3"/>
  <g><circle cx="101" cy="174" r="1.1" fill="#ffffff" opacity="0.68"/><circle cx="129" cy="149" r="1.7" fill="#ffffff" opacity="0.37"/><circle cx="275" cy="200" r="1.4" fill="#ffffff" opacity="0.48"/><circle cx="155" cy="140" r="1.8" fill="#ffffff" opacity="0.41"/><circle cx="157" cy="58" r="1.1" fill="#ffffff" opacity="0.38"/><circle cx="86" cy="103" r="0.9" fill="#ffffff" opacity="0.53"/><circle cx="228" cy="74" r="1.5" fill="#ffffff" opacity="0.63"/><circle cx="269" cy="194" r="2.0" fill="#ffffff" opacity="0.43"/><circle cx="57" cy="58" r="1.4" fill="#ffffff" opacity="0.52"/><circle cx="274" cy="95" r="1.3" fill="#ffffff" opacity="0.31"/><circle cx="71" cy="137" r="1.8" fill="#ffffff" opacity="0.37"/><circle cx="86" cy="221" r="1.0" fill="#ffffff" opacity="0.74"/><circle cx="114" cy="196" r="1.7" fill="#ffffff" opacity="0.47"/><circle cx="246" cy="301" r="2.0" fill="#ffffff" opacity="0.71"/><circle cx="239" cy="112" r="1.1" fill="#ffffff" opacity="0.24"/><circle cx="78" cy="152" r="0.8" fill="#ffffff" opacity="0.45"/><circle cx="37" cy="275" r="1.0" fill="#ffffff" opacity="0.52"/><circle cx="29" cy="37" r="1.6" fill="#ffffff" opacity="0.24"/><circle cx="16" cy="225" r="0.9" fill="#ffffff" opacity="0.72"/><circle cx="161" cy="150" r="1.9" fill="#ffffff" opacity="0.46"/><circle cx="234" cy="172" r="0.8" fill="#ffffff" opacity="0.28"/><circle cx="163" cy="82" r="1.4" fill="#ffffff" opacity="0.63"/></g>
  <circle cx="160" cy="160" r="104" fill="#020617" opacity=".38"/>
  <g filter="url(#glow)"><path d="M87 163 C102 87 218 87 233 163 C217 239 103 239 87 163Z" fill="none" stroke="url(#g)" stroke-width="7" opacity=".7"/></g>
  <text x="160" y="175" text-anchor="middle" font-family="Arial, Helvetica, sans-serif" font-size="64" font-weight="800" fill="#f8fbff" filter="url(#glow)">BR</text>
  <text x="160" y="64" text-anchor="middle" font-family="Arial, Helvetica, sans-serif" font-size="36" font-weight="800" fill="#a78bfa" filter="url(#glow)">?</text>
  <text x="160" y="270" text-anchor="middle" font-family="Arial, Helvetica, sans-serif" font-size="13" font-weight="700" fill="#dbeafe">Modo Aventura</text>
</svg>