<svg xmlns="http://www.w3.org/2000/svg" width="320" height="320" viewBox="0 0 320 320" role="img" aria-label="Banco de Respostas 1000">
  <defs>
    <radialGradient id="bg" cx="50%" cy="36%" r="72%">
      <stop offset="0%" stop-color="#e0f2fe" stop-opacity=".42"/>
      <stop offset="45%" stop-color="#0891b2" stop-opacity=".88"/>
      <stop offset="100%" stop-color="#020617"/>
    </radialGradient>
    <linearGradient id="g" x1="58" y1="42" x2="262" y2="276" gradientUnits="userSpaceOnUse">
      <stop offset="0%" stop-color="#ffffff"/>
      <stop offset="42%" stop-color="#e0f2fe"/>
      <stop offset="100%" stop-color="#7dd3fc"/>
    </linearGradient>
    <filter id="glow" x="-40%" y="-40%" width="180%" height="180%">
      <feGaussianBlur stdDeviation="5" result="blur"/>
      <feMerge>
        <feMergeNode in="blur"/>
        <feMergeNode in="SourceGraphic"/>
      </feMerge>
    </filter>
  </defs>
  <rect width="320" height="320" rx="52" fill="#020617"/>
  <rect x="10" y="10" width="300" height="300" rx="44" fill="url(#bg)" stroke="url(#g)" stroke-width="3"/>
  <g><circle cx="155" cy="301" r="0.9" fill="#ffffff" opacity="0.39"/><circle cx="284" cy="151" r="1.2" fill="#ffffff" opacity="0.72"/><circle cx="241" cy="60" r="1.5" fill="#ffffff" opacity="0.4"/><circle cx="115" cy="108" r="2.0" fill="#ffffff" opacity="0.58"/><circle cx="104" cy="87" r="0.9" fill="#ffffff" opacity="0.65"/><circle cx="183" cy="251" r="1.8" fill="#ffffff" opacity="0.76"/><circle cx="178" cy="277" r="1.8" fill="#ffffff" opacity="0.74"/><circle cx="87" cy="101" r="1.2" fill="#ffffff" opacity="0.47"/><circle cx="148" cy="125" r="1.6" fill="#ffffff" opacity="0.53"/><circle cx="186" cy="282" r="1.6" fill="#ffffff" opacity="0.38"/><circle cx="87" cy="138" r="1.7" fill="#ffffff" opacity="0.39"/><circle cx="263" cy="190" r="1.4" fill="#ffffff" opacity="0.3"/><circle cx="90" cy="271" r="1.4" fill="#ffffff" opacity="0.59"/><circle cx="112" cy="294" r="1.6" fill="#ffffff" opacity="0.5"/><circle cx="211" cy="110" r="0.9" fill="#ffffff" opacity="0.54"/><circle cx="53" cy="255" r="1.6" fill="#ffffff" opacity="0.74"/><circle cx="278" cy="254" r="1.0" fill="#ffffff" opacity="0.24"/><circle cx="181" cy="86" r="1.4" fill="#ffffff" opacity="0.72"/><circle cx="118" cy="46" r="1.5" fill="#ffffff" opacity="0.67"/><circle cx="197" cy="134" r="1.7" fill="#ffffff" opacity="0.44"/><circle cx="125" cy="251" r="1.8" fill="#ffffff" opacity="0.62"/><circle cx="46" cy="156" r="0.8" fill="#ffffff" opacity="0.77"/></g>
  <circle cx="160" cy="160" r="104" fill="#020617" opacity=".38"/>
  <g filter="url(#glow)"><path d="M87 163 C102 87 218 87 233 163 C217 239 103 239 87 163Z" fill="none" stroke="url(#g)" stroke-width="7" opacity=".7"/></g>
  <text x="160" y="175" text-anchor="middle" font-family="Arial, Helvetica, sans-serif" font-size="64" font-weight="800" fill="#f8fbff" filter="url(#glow)">BR</text>
  <text x="160" y="64" text-anchor="middle" font-family="Arial, Helvetica, sans-serif" font-size="36" font-weight="800" fill="#e0f2fe" filter="url(#glow)">?</text>
  <text x="160" y="270" text-anchor="middle" font-family="Arial, Helvetica, sans-serif" font-size="13" font-weight="700" fill="#dbeafe">Modo Aventura</text>
</svg>