<svg xmlns="http://www.w3.org/2000/svg" width="320" height="320" viewBox="0 0 320 320" role="img" aria-label="Banco de Respostas 50">
  <defs>
    <radialGradient id="bg" cx="50%" cy="36%" r="72%">
      <stop offset="0%" stop-color="#a78bfa" stop-opacity=".42"/>
      <stop offset="45%" stop-color="#312e81" stop-opacity=".88"/>
      <stop offset="100%" stop-color="#020617"/>
    </radialGradient>
    <linearGradient id="g" x1="58" y1="42" x2="262" y2="276" gradientUnits="userSpaceOnUse">
      <stop offset="0%" stop-color="#ffffff"/>
      <stop offset="42%" stop-color="#a78bfa"/>
      <stop offset="100%" stop-color="#7dd3fc"/>
    </linearGradient>
    <filter id="glow" x="-40%" y="-40%" width="180%" height="180%">
      <feGaussianBlur stdDeviation="5" result="blur"/>
      <feMerge>
        <feMergeNode in="blur"/>
        <feMergeNode in="SourceGraphic"/>
      </feMerge>
    </filter>
  </defs>
  <rect width="320" height="320" rx="52" fill="#020617"/>
  <rect x="10" y="10" width="300" height="300" rx="44" fill="url(#bg)" stroke="url(#g)" stroke-width="3"/>
  <g><circle cx="105" cy="228" r="0.9" fill="#ffffff" opacity="0.53"/><circle cx="242" cy="147" r="1.6" fill="#ffffff" opacity="0.27"/><circle cx="143" cy="214" r="0.8" fill="#ffffff" opacity="0.6"/><circle cx="45" cy="152" r="1.0" fill="#ffffff" opacity="0.63"/><circle cx="297" cy="38" r="1.9" fill="#ffffff" opacity="0.51"/><circle cx="39" cy="172" r="1.1" fill="#ffffff" opacity="0.77"/><circle cx="20" cy="126" r="2.0" fill="#ffffff" opacity="0.27"/><circle cx="16" cy="83" r="1.4" fill="#ffffff" opacity="0.41"/><circle cx="143" cy="269" r="1.8" fill="#ffffff" opacity="0.42"/><circle cx="212" cy="195" r="1.1" fill="#ffffff" opacity="0.24"/><circle cx="71" cy="75" r="1.0" fill="#ffffff" opacity="0.72"/><circle cx="258" cy="303" r="0.9" fill="#ffffff" opacity="0.58"/><circle cx="207" cy="136" r="1.6" fill="#ffffff" opacity="0.24"/><circle cx="163" cy="197" r="1.5" fill="#ffffff" opacity="0.65"/><circle cx="276" cy="165" r="1.9" fill="#ffffff" opacity="0.77"/><circle cx="102" cy="154" r="1.8" fill="#ffffff" opacity="0.43"/><circle cx="203" cy="228" r="1.6" fill="#ffffff" opacity="0.36"/><circle cx="132" cy="302" r="1.2" fill="#ffffff" opacity="0.59"/><circle cx="215" cy="70" r="1.5" fill="#ffffff" opacity="0.38"/><circle cx="28" cy="279" r="1.5" fill="#ffffff" opacity="0.77"/><circle cx="200" cy="231" r="1.3" fill="#ffffff" opacity="0.44"/><circle cx="18" cy="235" r="1.8" fill="#ffffff" opacity="0.46"/></g>
  <circle cx="160" cy="160" r="104" fill="#020617" opacity=".38"/>
  <g filter="url(#glow)"><path d="M87 163 C102 87 218 87 233 163 C217 239 103 239 87 163Z" fill="none" stroke="url(#g)" stroke-width="7" opacity=".7"/></g>
  <text x="160" y="175" text-anchor="middle" font-family="Arial, Helvetica, sans-serif" font-size="64" font-weight="800" fill="#f8fbff" filter="url(#glow)">BR</text>
  <text x="160" y="64" text-anchor="middle" font-family="Arial, Helvetica, sans-serif" font-size="36" font-weight="800" fill="#a78bfa" filter="url(#glow)">?</text>
  <text x="160" y="270" text-anchor="middle" font-family="Arial, Helvetica, sans-serif" font-size="13" font-weight="700" fill="#dbeafe">Modo Aventura</text>
</svg>