<svg xmlns="http://www.w3.org/2000/svg" width="320" height="320" viewBox="0 0 320 320" role="img" aria-label="Banco de Respostas 500">
  <defs>
    <radialGradient id="bg" cx="50%" cy="36%" r="72%">
      <stop offset="0%" stop-color="#e0f2fe" stop-opacity=".42"/>
      <stop offset="45%" stop-color="#0891b2" stop-opacity=".88"/>
      <stop offset="100%" stop-color="#020617"/>
    </radialGradient>
    <linearGradient id="g" x1="58" y1="42" x2="262" y2="276" gradientUnits="userSpaceOnUse">
      <stop offset="0%" stop-color="#ffffff"/>
      <stop offset="42%" stop-color="#e0f2fe"/>
      <stop offset="100%" stop-color="#7dd3fc"/>
    </linearGradient>
    <filter id="glow" x="-40%" y="-40%" width="180%" height="180%">
      <feGaussianBlur stdDeviation="5" result="blur"/>
      <feMerge>
        <feMergeNode in="blur"/>
        <feMergeNode in="SourceGraphic"/>
      </feMerge>
    </filter>
  </defs>
  <rect width="320" height="320" rx="52" fill="#020617"/>
  <rect x="10" y="10" width="300" height="300" rx="44" fill="url(#bg)" stroke="url(#g)" stroke-width="3"/>
  <g><circle cx="137" cy="262" r="1.2" fill="#ffffff" opacity="0.25"/><circle cx="89" cy="158" r="1.4" fill="#ffffff" opacity="0.45"/><circle cx="120" cy="291" r="1.7" fill="#ffffff" opacity="0.55"/><circle cx="45" cy="49" r="1.8" fill="#ffffff" opacity="0.67"/><circle cx="271" cy="55" r="1.1" fill="#ffffff" opacity="0.33"/><circle cx="30" cy="111" r="1.2" fill="#ffffff" opacity="0.55"/><circle cx="112" cy="99" r="1.2" fill="#ffffff" opacity="0.4"/><circle cx="255" cy="133" r="1.9" fill="#ffffff" opacity="0.64"/><circle cx="44" cy="35" r="1.4" fill="#ffffff" opacity="0.6"/><circle cx="227" cy="118" r="1.1" fill="#ffffff" opacity="0.75"/><circle cx="91" cy="245" r="1.4" fill="#ffffff" opacity="0.55"/><circle cx="55" cy="165" r="1.3" fill="#ffffff" opacity="0.24"/><circle cx="302" cy="81" r="1.6" fill="#ffffff" opacity="0.27"/><circle cx="56" cy="133" r="1.0" fill="#ffffff" opacity="0.43"/><circle cx="165" cy="89" r="1.0" fill="#ffffff" opacity="0.64"/><circle cx="162" cy="288" r="1.3" fill="#ffffff" opacity="0.66"/><circle cx="170" cy="227" r="1.8" fill="#ffffff" opacity="0.41"/><circle cx="265" cy="229" r="1.2" fill="#ffffff" opacity="0.42"/><circle cx="204" cy="256" r="1.6" fill="#ffffff" opacity="0.52"/><circle cx="136" cy="34" r="2.0" fill="#ffffff" opacity="0.55"/><circle cx="135" cy="295" r="1.6" fill="#ffffff" opacity="0.62"/><circle cx="77" cy="85" r="0.8" fill="#ffffff" opacity="0.74"/></g>
  <circle cx="160" cy="160" r="104" fill="#020617" opacity=".38"/>
  <g filter="url(#glow)"><path d="M87 163 C102 87 218 87 233 163 C217 239 103 239 87 163Z" fill="none" stroke="url(#g)" stroke-width="7" opacity=".7"/></g>
  <text x="160" y="175" text-anchor="middle" font-family="Arial, Helvetica, sans-serif" font-size="64" font-weight="800" fill="#f8fbff" filter="url(#glow)">BR</text>
  <text x="160" y="64" text-anchor="middle" font-family="Arial, Helvetica, sans-serif" font-size="36" font-weight="800" fill="#e0f2fe" filter="url(#glow)">?</text>
  <text x="160" y="270" text-anchor="middle" font-family="Arial, Helvetica, sans-serif" font-size="13" font-weight="700" fill="#dbeafe">Modo Aventura</text>
</svg>