<svg xmlns="http://www.w3.org/2000/svg" width="320" height="320" viewBox="0 0 320 320" role="img" aria-label="3000 Pontos no Radar">
  <defs>
    <radialGradient id="bg" cx="50%" cy="36%" r="72%">
      <stop offset="0%" stop-color="#e0f2fe" stop-opacity=".42"/>
      <stop offset="45%" stop-color="#0891b2" stop-opacity=".88"/>
      <stop offset="100%" stop-color="#020617"/>
    </radialGradient>
    <linearGradient id="g" x1="58" y1="42" x2="262" y2="276" gradientUnits="userSpaceOnUse">
      <stop offset="0%" stop-color="#ffffff"/>
      <stop offset="42%" stop-color="#e0f2fe"/>
      <stop offset="100%" stop-color="#7dd3fc"/>
    </linearGradient>
    <filter id="glow" x="-40%" y="-40%" width="180%" height="180%">
      <feGaussianBlur stdDeviation="5" result="blur"/>
      <feMerge>
        <feMergeNode in="blur"/>
        <feMergeNode in="SourceGraphic"/>
      </feMerge>
    </filter>
  </defs>
  <rect width="320" height="320" rx="52" fill="#020617"/>
  <rect x="10" y="10" width="300" height="300" rx="44" fill="url(#bg)" stroke="url(#g)" stroke-width="3"/>
  <g><circle cx="176" cy="182" r="2.0" fill="#ffffff" opacity="0.42"/><circle cx="271" cy="172" r="2.0" fill="#ffffff" opacity="0.26"/><circle cx="153" cy="166" r="2.0" fill="#ffffff" opacity="0.77"/><circle cx="227" cy="113" r="1.2" fill="#ffffff" opacity="0.48"/><circle cx="41" cy="282" r="1.4" fill="#ffffff" opacity="0.56"/><circle cx="168" cy="44" r="1.6" fill="#ffffff" opacity="0.23"/><circle cx="175" cy="75" r="1.9" fill="#ffffff" opacity="0.6"/><circle cx="226" cy="292" r="2.1" fill="#ffffff" opacity="0.56"/><circle cx="176" cy="33" r="1.4" fill="#ffffff" opacity="0.3"/><circle cx="23" cy="226" r="1.7" fill="#ffffff" opacity="0.72"/><circle cx="81" cy="270" r="2.0" fill="#ffffff" opacity="0.51"/><circle cx="220" cy="99" r="0.8" fill="#ffffff" opacity="0.68"/><circle cx="236" cy="156" r="1.0" fill="#ffffff" opacity="0.31"/><circle cx="36" cy="72" r="0.9" fill="#ffffff" opacity="0.71"/><circle cx="184" cy="45" r="1.1" fill="#ffffff" opacity="0.33"/><circle cx="292" cy="295" r="1.3" fill="#ffffff" opacity="0.48"/><circle cx="229" cy="266" r="1.5" fill="#ffffff" opacity="0.26"/><circle cx="102" cy="205" r="1.9" fill="#ffffff" opacity="0.64"/><circle cx="176" cy="259" r="1.5" fill="#ffffff" opacity="0.62"/><circle cx="131" cy="169" r="1.9" fill="#ffffff" opacity="0.71"/><circle cx="56" cy="230" r="1.0" fill="#ffffff" opacity="0.23"/><circle cx="160" cy="208" r="1.1" fill="#ffffff" opacity="0.54"/></g>
  <circle cx="160" cy="160" r="104" fill="#020617" opacity=".38"/>
  <g filter="url(#glow)"><polygon points="160,70 188,127 251,136 206,181 216,244 160,214 104,244 114,181 69,136 132,127" fill="none" stroke="url(#g)" stroke-width="7" opacity=".72"/></g>
  <text x="160" y="175" text-anchor="middle" font-family="Arial, Helvetica, sans-serif" font-size="64" font-weight="800" fill="#f8fbff" filter="url(#glow)">3P</text>
  <text x="160" y="64" text-anchor="middle" font-family="Arial, Helvetica, sans-serif" font-size="36" font-weight="800" fill="#e0f2fe" filter="url(#glow)">★</text>
  <text x="160" y="270" text-anchor="middle" font-family="Arial, Helvetica, sans-serif" font-size="13" font-weight="700" fill="#dbeafe">Pontuação</text>
</svg>