<svg xmlns="http://www.w3.org/2000/svg" width="320" height="320" viewBox="0 0 320 320" role="img" aria-label="25 Pontos no Radar">
  <defs>
    <radialGradient id="bg" cx="50%" cy="36%" r="72%">
      <stop offset="0%" stop-color="#38bdf8" stop-opacity=".42"/>
      <stop offset="45%" stop-color="#0f2a5f" stop-opacity=".88"/>
      <stop offset="100%" stop-color="#020617"/>
    </radialGradient>
    <linearGradient id="g" x1="58" y1="42" x2="262" y2="276" gradientUnits="userSpaceOnUse">
      <stop offset="0%" stop-color="#ffffff"/>
      <stop offset="42%" stop-color="#38bdf8"/>
      <stop offset="100%" stop-color="#7dd3fc"/>
    </linearGradient>
    <filter id="glow" x="-40%" y="-40%" width="180%" height="180%">
      <feGaussianBlur stdDeviation="5" result="blur"/>
      <feMerge>
        <feMergeNode in="blur"/>
        <feMergeNode in="SourceGraphic"/>
      </feMerge>
    </filter>
  </defs>
  <rect width="320" height="320" rx="52" fill="#020617"/>
  <rect x="10" y="10" width="300" height="300" rx="44" fill="url(#bg)" stroke="url(#g)" stroke-width="3"/>
  <g><circle cx="259" cy="288" r="0.9" fill="#ffffff" opacity="0.51"/><circle cx="123" cy="210" r="0.9" fill="#ffffff" opacity="0.35"/><circle cx="278" cy="198" r="1.2" fill="#ffffff" opacity="0.31"/><circle cx="18" cy="131" r="1.0" fill="#ffffff" opacity="0.35"/><circle cx="271" cy="38" r="0.9" fill="#ffffff" opacity="0.5"/><circle cx="239" cy="170" r="1.8" fill="#ffffff" opacity="0.69"/><circle cx="92" cy="143" r="1.7" fill="#ffffff" opacity="0.61"/><circle cx="43" cy="131" r="1.9" fill="#ffffff" opacity="0.69"/><circle cx="280" cy="134" r="0.8" fill="#ffffff" opacity="0.61"/><circle cx="187" cy="196" r="1.8" fill="#ffffff" opacity="0.77"/><circle cx="199" cy="68" r="1.5" fill="#ffffff" opacity="0.36"/><circle cx="102" cy="44" r="0.8" fill="#ffffff" opacity="0.32"/><circle cx="172" cy="175" r="1.8" fill="#ffffff" opacity="0.64"/><circle cx="215" cy="230" r="2.0" fill="#ffffff" opacity="0.54"/><circle cx="32" cy="62" r="1.4" fill="#ffffff" opacity="0.49"/><circle cx="88" cy="136" r="1.1" fill="#ffffff" opacity="0.35"/><circle cx="198" cy="278" r="1.7" fill="#ffffff" opacity="0.59"/><circle cx="191" cy="281" r="1.6" fill="#ffffff" opacity="0.41"/><circle cx="232" cy="69" r="1.0" fill="#ffffff" opacity="0.23"/><circle cx="64" cy="190" r="1.2" fill="#ffffff" opacity="0.52"/><circle cx="227" cy="109" r="2.1" fill="#ffffff" opacity="0.67"/><circle cx="114" cy="225" r="1.5" fill="#ffffff" opacity="0.69"/></g>
  <circle cx="160" cy="160" r="104" fill="#020617" opacity=".38"/>
  <g filter="url(#glow)"><polygon points="160,70 188,127 251,136 206,181 216,244 160,214 104,244 114,181 69,136 132,127" fill="none" stroke="url(#g)" stroke-width="7" opacity=".72"/></g>
  <text x="160" y="175" text-anchor="middle" font-family="Arial, Helvetica, sans-serif" font-size="64" font-weight="800" fill="#f8fbff" filter="url(#glow)">2P</text>
  <text x="160" y="64" text-anchor="middle" font-family="Arial, Helvetica, sans-serif" font-size="36" font-weight="800" fill="#38bdf8" filter="url(#glow)">★</text>
  <text x="160" y="270" text-anchor="middle" font-family="Arial, Helvetica, sans-serif" font-size="13" font-weight="700" fill="#dbeafe">Pontuação</text>
</svg>