<svg xmlns="http://www.w3.org/2000/svg" width="320" height="320" viewBox="0 0 320 320" role="img" aria-label="250 Pontos no Radar">
  <defs>
    <radialGradient id="bg" cx="50%" cy="36%" r="72%">
      <stop offset="0%" stop-color="#a78bfa" stop-opacity=".42"/>
      <stop offset="45%" stop-color="#312e81" stop-opacity=".88"/>
      <stop offset="100%" stop-color="#020617"/>
    </radialGradient>
    <linearGradient id="g" x1="58" y1="42" x2="262" y2="276" gradientUnits="userSpaceOnUse">
      <stop offset="0%" stop-color="#ffffff"/>
      <stop offset="42%" stop-color="#a78bfa"/>
      <stop offset="100%" stop-color="#7dd3fc"/>
    </linearGradient>
    <filter id="glow" x="-40%" y="-40%" width="180%" height="180%">
      <feGaussianBlur stdDeviation="5" result="blur"/>
      <feMerge>
        <feMergeNode in="blur"/>
        <feMergeNode in="SourceGraphic"/>
      </feMerge>
    </filter>
  </defs>
  <rect width="320" height="320" rx="52" fill="#020617"/>
  <rect x="10" y="10" width="300" height="300" rx="44" fill="url(#bg)" stroke="url(#g)" stroke-width="3"/>
  <g><circle cx="41" cy="26" r="1.6" fill="#ffffff" opacity="0.64"/><circle cx="24" cy="195" r="1.0" fill="#ffffff" opacity="0.3"/><circle cx="20" cy="65" r="0.9" fill="#ffffff" opacity="0.62"/><circle cx="19" cy="106" r="0.9" fill="#ffffff" opacity="0.72"/><circle cx="220" cy="290" r="1.5" fill="#ffffff" opacity="0.66"/><circle cx="95" cy="160" r="2.1" fill="#ffffff" opacity="0.54"/><circle cx="165" cy="261" r="1.1" fill="#ffffff" opacity="0.48"/><circle cx="253" cy="303" r="1.6" fill="#ffffff" opacity="0.64"/><circle cx="243" cy="105" r="1.8" fill="#ffffff" opacity="0.34"/><circle cx="50" cy="222" r="0.9" fill="#ffffff" opacity="0.55"/><circle cx="63" cy="294" r="0.8" fill="#ffffff" opacity="0.41"/><circle cx="200" cy="137" r="2.0" fill="#ffffff" opacity="0.41"/><circle cx="51" cy="188" r="1.3" fill="#ffffff" opacity="0.75"/><circle cx="280" cy="59" r="1.4" fill="#ffffff" opacity="0.57"/><circle cx="66" cy="250" r="1.4" fill="#ffffff" opacity="0.67"/><circle cx="245" cy="115" r="1.6" fill="#ffffff" opacity="0.29"/><circle cx="211" cy="56" r="1.5" fill="#ffffff" opacity="0.47"/><circle cx="244" cy="116" r="1.4" fill="#ffffff" opacity="0.52"/><circle cx="182" cy="41" r="1.6" fill="#ffffff" opacity="0.74"/><circle cx="125" cy="93" r="1.7" fill="#ffffff" opacity="0.4"/><circle cx="239" cy="233" r="1.3" fill="#ffffff" opacity="0.26"/><circle cx="302" cy="190" r="1.4" fill="#ffffff" opacity="0.37"/></g>
  <circle cx="160" cy="160" r="104" fill="#020617" opacity=".38"/>
  <g filter="url(#glow)"><polygon points="160,70 188,127 251,136 206,181 216,244 160,214 104,244 114,181 69,136 132,127" fill="none" stroke="url(#g)" stroke-width="7" opacity=".72"/></g>
  <text x="160" y="175" text-anchor="middle" font-family="Arial, Helvetica, sans-serif" font-size="64" font-weight="800" fill="#f8fbff" filter="url(#glow)">2P</text>
  <text x="160" y="64" text-anchor="middle" font-family="Arial, Helvetica, sans-serif" font-size="36" font-weight="800" fill="#a78bfa" filter="url(#glow)">★</text>
  <text x="160" y="270" text-anchor="middle" font-family="Arial, Helvetica, sans-serif" font-size="13" font-weight="700" fill="#dbeafe">Pontuação</text>
</svg>