<svg xmlns="http://www.w3.org/2000/svg" width="320" height="320" viewBox="0 0 320 320" role="img" aria-label="500 Pontos no Radar">
  <defs>
    <radialGradient id="bg" cx="50%" cy="36%" r="72%">
      <stop offset="0%" stop-color="#a78bfa" stop-opacity=".42"/>
      <stop offset="45%" stop-color="#312e81" stop-opacity=".88"/>
      <stop offset="100%" stop-color="#020617"/>
    </radialGradient>
    <linearGradient id="g" x1="58" y1="42" x2="262" y2="276" gradientUnits="userSpaceOnUse">
      <stop offset="0%" stop-color="#ffffff"/>
      <stop offset="42%" stop-color="#a78bfa"/>
      <stop offset="100%" stop-color="#7dd3fc"/>
    </linearGradient>
    <filter id="glow" x="-40%" y="-40%" width="180%" height="180%">
      <feGaussianBlur stdDeviation="5" result="blur"/>
      <feMerge>
        <feMergeNode in="blur"/>
        <feMergeNode in="SourceGraphic"/>
      </feMerge>
    </filter>
  </defs>
  <rect width="320" height="320" rx="52" fill="#020617"/>
  <rect x="10" y="10" width="300" height="300" rx="44" fill="url(#bg)" stroke="url(#g)" stroke-width="3"/>
  <g><circle cx="87" cy="129" r="1.0" fill="#ffffff" opacity="0.53"/><circle cx="129" cy="217" r="1.0" fill="#ffffff" opacity="0.53"/><circle cx="282" cy="80" r="1.3" fill="#ffffff" opacity="0.31"/><circle cx="155" cy="254" r="1.7" fill="#ffffff" opacity="0.61"/><circle cx="50" cy="52" r="1.0" fill="#ffffff" opacity="0.74"/><circle cx="239" cy="281" r="1.1" fill="#ffffff" opacity="0.66"/><circle cx="156" cy="288" r="1.2" fill="#ffffff" opacity="0.77"/><circle cx="76" cy="100" r="2.0" fill="#ffffff" opacity="0.24"/><circle cx="283" cy="147" r="2.0" fill="#ffffff" opacity="0.65"/><circle cx="113" cy="278" r="1.4" fill="#ffffff" opacity="0.75"/><circle cx="173" cy="295" r="1.1" fill="#ffffff" opacity="0.36"/><circle cx="50" cy="233" r="1.9" fill="#ffffff" opacity="0.56"/><circle cx="159" cy="218" r="1.1" fill="#ffffff" opacity="0.53"/><circle cx="87" cy="210" r="1.5" fill="#ffffff" opacity="0.74"/><circle cx="71" cy="66" r="2.1" fill="#ffffff" opacity="0.3"/><circle cx="96" cy="242" r="1.9" fill="#ffffff" opacity="0.41"/><circle cx="238" cy="192" r="1.3" fill="#ffffff" opacity="0.24"/><circle cx="205" cy="36" r="1.0" fill="#ffffff" opacity="0.67"/><circle cx="61" cy="70" r="1.6" fill="#ffffff" opacity="0.39"/><circle cx="98" cy="83" r="1.9" fill="#ffffff" opacity="0.65"/><circle cx="34" cy="62" r="1.6" fill="#ffffff" opacity="0.52"/><circle cx="35" cy="194" r="0.8" fill="#ffffff" opacity="0.71"/></g>
  <circle cx="160" cy="160" r="104" fill="#020617" opacity=".38"/>
  <g filter="url(#glow)"><polygon points="160,70 188,127 251,136 206,181 216,244 160,214 104,244 114,181 69,136 132,127" fill="none" stroke="url(#g)" stroke-width="7" opacity=".72"/></g>
  <text x="160" y="175" text-anchor="middle" font-family="Arial, Helvetica, sans-serif" font-size="64" font-weight="800" fill="#f8fbff" filter="url(#glow)">5P</text>
  <text x="160" y="64" text-anchor="middle" font-family="Arial, Helvetica, sans-serif" font-size="36" font-weight="800" fill="#a78bfa" filter="url(#glow)">★</text>
  <text x="160" y="270" text-anchor="middle" font-family="Arial, Helvetica, sans-serif" font-size="13" font-weight="700" fill="#dbeafe">Pontuação</text>
</svg>