<svg xmlns="http://www.w3.org/2000/svg" width="320" height="320" viewBox="0 0 320 320" role="img" aria-label="1500 Pontos no Radar">
  <defs>
    <radialGradient id="bg" cx="50%" cy="36%" r="72%">
      <stop offset="0%" stop-color="#facc15" stop-opacity=".42"/>
      <stop offset="45%" stop-color="#78350f" stop-opacity=".88"/>
      <stop offset="100%" stop-color="#020617"/>
    </radialGradient>
    <linearGradient id="g" x1="58" y1="42" x2="262" y2="276" gradientUnits="userSpaceOnUse">
      <stop offset="0%" stop-color="#ffffff"/>
      <stop offset="42%" stop-color="#facc15"/>
      <stop offset="100%" stop-color="#7dd3fc"/>
    </linearGradient>
    <filter id="glow" x="-40%" y="-40%" width="180%" height="180%">
      <feGaussianBlur stdDeviation="5" result="blur"/>
      <feMerge>
        <feMergeNode in="blur"/>
        <feMergeNode in="SourceGraphic"/>
      </feMerge>
    </filter>
  </defs>
  <rect width="320" height="320" rx="52" fill="#020617"/>
  <rect x="10" y="10" width="300" height="300" rx="44" fill="url(#bg)" stroke="url(#g)" stroke-width="3"/>
  <g><circle cx="150" cy="240" r="1.4" fill="#ffffff" opacity="0.77"/><circle cx="71" cy="217" r="1.6" fill="#ffffff" opacity="0.58"/><circle cx="145" cy="124" r="0.9" fill="#ffffff" opacity="0.62"/><circle cx="243" cy="269" r="1.3" fill="#ffffff" opacity="0.45"/><circle cx="98" cy="220" r="0.8" fill="#ffffff" opacity="0.64"/><circle cx="34" cy="247" r="1.9" fill="#ffffff" opacity="0.72"/><circle cx="20" cy="164" r="2.0" fill="#ffffff" opacity="0.36"/><circle cx="249" cy="275" r="1.6" fill="#ffffff" opacity="0.6"/><circle cx="174" cy="267" r="1.0" fill="#ffffff" opacity="0.29"/><circle cx="203" cy="139" r="1.7" fill="#ffffff" opacity="0.77"/><circle cx="162" cy="185" r="1.5" fill="#ffffff" opacity="0.68"/><circle cx="195" cy="289" r="0.9" fill="#ffffff" opacity="0.57"/><circle cx="125" cy="227" r="1.3" fill="#ffffff" opacity="0.29"/><circle cx="234" cy="176" r="1.8" fill="#ffffff" opacity="0.3"/><circle cx="206" cy="280" r="1.4" fill="#ffffff" opacity="0.57"/><circle cx="288" cy="253" r="0.9" fill="#ffffff" opacity="0.29"/><circle cx="220" cy="237" r="1.4" fill="#ffffff" opacity="0.24"/><circle cx="277" cy="157" r="1.1" fill="#ffffff" opacity="0.36"/><circle cx="160" cy="124" r="2.0" fill="#ffffff" opacity="0.35"/><circle cx="217" cy="165" r="1.5" fill="#ffffff" opacity="0.71"/><circle cx="232" cy="202" r="0.8" fill="#ffffff" opacity="0.39"/><circle cx="130" cy="144" r="1.8" fill="#ffffff" opacity="0.33"/></g>
  <circle cx="160" cy="160" r="104" fill="#020617" opacity=".38"/>
  <g filter="url(#glow)"><polygon points="160,70 188,127 251,136 206,181 216,244 160,214 104,244 114,181 69,136 132,127" fill="none" stroke="url(#g)" stroke-width="7" opacity=".72"/></g>
  <text x="160" y="175" text-anchor="middle" font-family="Arial, Helvetica, sans-serif" font-size="64" font-weight="800" fill="#f8fbff" filter="url(#glow)">1P</text>
  <text x="160" y="64" text-anchor="middle" font-family="Arial, Helvetica, sans-serif" font-size="36" font-weight="800" fill="#facc15" filter="url(#glow)">★</text>
  <text x="160" y="270" text-anchor="middle" font-family="Arial, Helvetica, sans-serif" font-size="13" font-weight="700" fill="#dbeafe">Pontuação</text>
</svg>