<svg xmlns="http://www.w3.org/2000/svg" width="320" height="320" viewBox="0 0 320 320" role="img" aria-label="100 Pontos no Radar">
  <defs>
    <radialGradient id="bg" cx="50%" cy="36%" r="72%">
      <stop offset="0%" stop-color="#34d399" stop-opacity=".42"/>
      <stop offset="45%" stop-color="#064e3b" stop-opacity=".88"/>
      <stop offset="100%" stop-color="#020617"/>
    </radialGradient>
    <linearGradient id="g" x1="58" y1="42" x2="262" y2="276" gradientUnits="userSpaceOnUse">
      <stop offset="0%" stop-color="#ffffff"/>
      <stop offset="42%" stop-color="#34d399"/>
      <stop offset="100%" stop-color="#7dd3fc"/>
    </linearGradient>
    <filter id="glow" x="-40%" y="-40%" width="180%" height="180%">
      <feGaussianBlur stdDeviation="5" result="blur"/>
      <feMerge>
        <feMergeNode in="blur"/>
        <feMergeNode in="SourceGraphic"/>
      </feMerge>
    </filter>
  </defs>
  <rect width="320" height="320" rx="52" fill="#020617"/>
  <rect x="10" y="10" width="300" height="300" rx="44" fill="url(#bg)" stroke="url(#g)" stroke-width="3"/>
  <g><circle cx="195" cy="53" r="0.9" fill="#ffffff" opacity="0.28"/><circle cx="45" cy="114" r="1.6" fill="#ffffff" opacity="0.57"/><circle cx="290" cy="70" r="1.8" fill="#ffffff" opacity="0.49"/><circle cx="181" cy="197" r="1.2" fill="#ffffff" opacity="0.38"/><circle cx="272" cy="85" r="1.3" fill="#ffffff" opacity="0.26"/><circle cx="88" cy="300" r="1.2" fill="#ffffff" opacity="0.26"/><circle cx="153" cy="258" r="1.0" fill="#ffffff" opacity="0.38"/><circle cx="120" cy="197" r="1.0" fill="#ffffff" opacity="0.3"/><circle cx="25" cy="173" r="1.7" fill="#ffffff" opacity="0.28"/><circle cx="145" cy="131" r="1.6" fill="#ffffff" opacity="0.44"/><circle cx="161" cy="270" r="1.1" fill="#ffffff" opacity="0.49"/><circle cx="163" cy="55" r="1.8" fill="#ffffff" opacity="0.71"/><circle cx="113" cy="101" r="1.1" fill="#ffffff" opacity="0.55"/><circle cx="287" cy="221" r="1.7" fill="#ffffff" opacity="0.51"/><circle cx="260" cy="222" r="1.3" fill="#ffffff" opacity="0.34"/><circle cx="219" cy="254" r="1.8" fill="#ffffff" opacity="0.51"/><circle cx="161" cy="20" r="1.4" fill="#ffffff" opacity="0.25"/><circle cx="28" cy="239" r="0.9" fill="#ffffff" opacity="0.29"/><circle cx="243" cy="171" r="1.0" fill="#ffffff" opacity="0.28"/><circle cx="25" cy="86" r="2.0" fill="#ffffff" opacity="0.25"/><circle cx="232" cy="104" r="1.9" fill="#ffffff" opacity="0.72"/><circle cx="53" cy="54" r="1.5" fill="#ffffff" opacity="0.67"/></g>
  <circle cx="160" cy="160" r="104" fill="#020617" opacity=".38"/>
  <g filter="url(#glow)"><polygon points="160,70 188,127 251,136 206,181 216,244 160,214 104,244 114,181 69,136 132,127" fill="none" stroke="url(#g)" stroke-width="7" opacity=".72"/></g>
  <text x="160" y="175" text-anchor="middle" font-family="Arial, Helvetica, sans-serif" font-size="64" font-weight="800" fill="#f8fbff" filter="url(#glow)">1P</text>
  <text x="160" y="64" text-anchor="middle" font-family="Arial, Helvetica, sans-serif" font-size="36" font-weight="800" fill="#34d399" filter="url(#glow)">★</text>
  <text x="160" y="270" text-anchor="middle" font-family="Arial, Helvetica, sans-serif" font-size="13" font-weight="700" fill="#dbeafe">Pontuação</text>
</svg>