<svg xmlns="http://www.w3.org/2000/svg" width="320" height="320" viewBox="0 0 320 320" role="img" aria-label="1000 Pontos no Radar">
  <defs>
    <radialGradient id="bg" cx="50%" cy="36%" r="72%">
      <stop offset="0%" stop-color="#facc15" stop-opacity=".42"/>
      <stop offset="45%" stop-color="#78350f" stop-opacity=".88"/>
      <stop offset="100%" stop-color="#020617"/>
    </radialGradient>
    <linearGradient id="g" x1="58" y1="42" x2="262" y2="276" gradientUnits="userSpaceOnUse">
      <stop offset="0%" stop-color="#ffffff"/>
      <stop offset="42%" stop-color="#facc15"/>
      <stop offset="100%" stop-color="#7dd3fc"/>
    </linearGradient>
    <filter id="glow" x="-40%" y="-40%" width="180%" height="180%">
      <feGaussianBlur stdDeviation="5" result="blur"/>
      <feMerge>
        <feMergeNode in="blur"/>
        <feMergeNode in="SourceGraphic"/>
      </feMerge>
    </filter>
  </defs>
  <rect width="320" height="320" rx="52" fill="#020617"/>
  <rect x="10" y="10" width="300" height="300" rx="44" fill="url(#bg)" stroke="url(#g)" stroke-width="3"/>
  <g><circle cx="239" cy="207" r="1.3" fill="#ffffff" opacity="0.51"/><circle cx="183" cy="281" r="1.0" fill="#ffffff" opacity="0.68"/><circle cx="89" cy="72" r="2.0" fill="#ffffff" opacity="0.66"/><circle cx="161" cy="199" r="0.9" fill="#ffffff" opacity="0.6"/><circle cx="37" cy="136" r="0.9" fill="#ffffff" opacity="0.27"/><circle cx="150" cy="197" r="1.2" fill="#ffffff" opacity="0.6"/><circle cx="147" cy="19" r="1.9" fill="#ffffff" opacity="0.54"/><circle cx="234" cy="198" r="1.2" fill="#ffffff" opacity="0.31"/><circle cx="168" cy="168" r="2.1" fill="#ffffff" opacity="0.46"/><circle cx="286" cy="112" r="2.0" fill="#ffffff" opacity="0.26"/><circle cx="79" cy="50" r="1.7" fill="#ffffff" opacity="0.44"/><circle cx="199" cy="241" r="1.7" fill="#ffffff" opacity="0.48"/><circle cx="277" cy="24" r="1.5" fill="#ffffff" opacity="0.58"/><circle cx="139" cy="72" r="0.9" fill="#ffffff" opacity="0.64"/><circle cx="227" cy="23" r="2.0" fill="#ffffff" opacity="0.25"/><circle cx="45" cy="266" r="1.7" fill="#ffffff" opacity="0.58"/><circle cx="148" cy="261" r="1.1" fill="#ffffff" opacity="0.63"/><circle cx="68" cy="21" r="1.8" fill="#ffffff" opacity="0.23"/><circle cx="113" cy="189" r="2.0" fill="#ffffff" opacity="0.27"/><circle cx="40" cy="269" r="1.1" fill="#ffffff" opacity="0.71"/><circle cx="75" cy="148" r="1.4" fill="#ffffff" opacity="0.22"/><circle cx="121" cy="184" r="1.6" fill="#ffffff" opacity="0.54"/></g>
  <circle cx="160" cy="160" r="104" fill="#020617" opacity=".38"/>
  <g filter="url(#glow)"><polygon points="160,70 188,127 251,136 206,181 216,244 160,214 104,244 114,181 69,136 132,127" fill="none" stroke="url(#g)" stroke-width="7" opacity=".72"/></g>
  <text x="160" y="175" text-anchor="middle" font-family="Arial, Helvetica, sans-serif" font-size="64" font-weight="800" fill="#f8fbff" filter="url(#glow)">1P</text>
  <text x="160" y="64" text-anchor="middle" font-family="Arial, Helvetica, sans-serif" font-size="36" font-weight="800" fill="#facc15" filter="url(#glow)">★</text>
  <text x="160" y="270" text-anchor="middle" font-family="Arial, Helvetica, sans-serif" font-size="13" font-weight="700" fill="#dbeafe">Pontuação</text>
</svg>