<svg xmlns="http://www.w3.org/2000/svg" width="320" height="320" viewBox="0 0 320 320" role="img" aria-label="750 Pontos no Radar">
  <defs>
    <radialGradient id="bg" cx="50%" cy="36%" r="72%">
      <stop offset="0%" stop-color="#a78bfa" stop-opacity=".42"/>
      <stop offset="45%" stop-color="#312e81" stop-opacity=".88"/>
      <stop offset="100%" stop-color="#020617"/>
    </radialGradient>
    <linearGradient id="g" x1="58" y1="42" x2="262" y2="276" gradientUnits="userSpaceOnUse">
      <stop offset="0%" stop-color="#ffffff"/>
      <stop offset="42%" stop-color="#a78bfa"/>
      <stop offset="100%" stop-color="#7dd3fc"/>
    </linearGradient>
    <filter id="glow" x="-40%" y="-40%" width="180%" height="180%">
      <feGaussianBlur stdDeviation="5" result="blur"/>
      <feMerge>
        <feMergeNode in="blur"/>
        <feMergeNode in="SourceGraphic"/>
      </feMerge>
    </filter>
  </defs>
  <rect width="320" height="320" rx="52" fill="#020617"/>
  <rect x="10" y="10" width="300" height="300" rx="44" fill="url(#bg)" stroke="url(#g)" stroke-width="3"/>
  <g><circle cx="104" cy="95" r="1.6" fill="#ffffff" opacity="0.36"/><circle cx="72" cy="25" r="2.0" fill="#ffffff" opacity="0.24"/><circle cx="164" cy="273" r="0.9" fill="#ffffff" opacity="0.24"/><circle cx="93" cy="173" r="1.2" fill="#ffffff" opacity="0.35"/><circle cx="257" cy="241" r="2.1" fill="#ffffff" opacity="0.6"/><circle cx="131" cy="187" r="0.8" fill="#ffffff" opacity="0.36"/><circle cx="40" cy="98" r="1.7" fill="#ffffff" opacity="0.41"/><circle cx="114" cy="131" r="1.8" fill="#ffffff" opacity="0.4"/><circle cx="300" cy="159" r="1.6" fill="#ffffff" opacity="0.26"/><circle cx="124" cy="20" r="1.7" fill="#ffffff" opacity="0.67"/><circle cx="272" cy="195" r="1.1" fill="#ffffff" opacity="0.78"/><circle cx="281" cy="226" r="2.0" fill="#ffffff" opacity="0.47"/><circle cx="116" cy="128" r="1.4" fill="#ffffff" opacity="0.32"/><circle cx="170" cy="267" r="1.0" fill="#ffffff" opacity="0.57"/><circle cx="147" cy="150" r="2.0" fill="#ffffff" opacity="0.69"/><circle cx="204" cy="23" r="1.1" fill="#ffffff" opacity="0.73"/><circle cx="119" cy="62" r="1.5" fill="#ffffff" opacity="0.38"/><circle cx="219" cy="253" r="1.3" fill="#ffffff" opacity="0.26"/><circle cx="294" cy="19" r="1.7" fill="#ffffff" opacity="0.67"/><circle cx="108" cy="204" r="1.6" fill="#ffffff" opacity="0.27"/><circle cx="74" cy="288" r="1.2" fill="#ffffff" opacity="0.64"/><circle cx="121" cy="280" r="1.9" fill="#ffffff" opacity="0.48"/></g>
  <circle cx="160" cy="160" r="104" fill="#020617" opacity=".38"/>
  <g filter="url(#glow)"><polygon points="160,70 188,127 251,136 206,181 216,244 160,214 104,244 114,181 69,136 132,127" fill="none" stroke="url(#g)" stroke-width="7" opacity=".72"/></g>
  <text x="160" y="175" text-anchor="middle" font-family="Arial, Helvetica, sans-serif" font-size="64" font-weight="800" fill="#f8fbff" filter="url(#glow)">7P</text>
  <text x="160" y="64" text-anchor="middle" font-family="Arial, Helvetica, sans-serif" font-size="36" font-weight="800" fill="#a78bfa" filter="url(#glow)">★</text>
  <text x="160" y="270" text-anchor="middle" font-family="Arial, Helvetica, sans-serif" font-size="13" font-weight="700" fill="#dbeafe">Pontuação</text>
</svg>