<svg xmlns="http://www.w3.org/2000/svg" width="320" height="320" viewBox="0 0 320 320" role="img" aria-label="Vênus: Primeira Missão">
  <defs>
    <radialGradient id="bg" cx="50%" cy="36%" r="72%">
      <stop offset="0%" stop-color="#38bdf8" stop-opacity=".42"/>
      <stop offset="45%" stop-color="#0f2a5f" stop-opacity=".88"/>
      <stop offset="100%" stop-color="#020617"/>
    </radialGradient>
    <linearGradient id="g" x1="58" y1="42" x2="262" y2="276" gradientUnits="userSpaceOnUse">
      <stop offset="0%" stop-color="#ffffff"/>
      <stop offset="42%" stop-color="#38bdf8"/>
      <stop offset="100%" stop-color="#7dd3fc"/>
    </linearGradient>
    <filter id="glow" x="-40%" y="-40%" width="180%" height="180%">
      <feGaussianBlur stdDeviation="5" result="blur"/>
      <feMerge>
        <feMergeNode in="blur"/>
        <feMergeNode in="SourceGraphic"/>
      </feMerge>
    </filter>
  </defs>
  <rect width="320" height="320" rx="52" fill="#020617"/>
  <rect x="10" y="10" width="300" height="300" rx="44" fill="url(#bg)" stroke="url(#g)" stroke-width="3"/>
  <g><circle cx="274" cy="211" r="1.0" fill="#ffffff" opacity="0.6"/><circle cx="212" cy="275" r="1.9" fill="#ffffff" opacity="0.42"/><circle cx="119" cy="216" r="0.9" fill="#ffffff" opacity="0.67"/><circle cx="49" cy="278" r="1.1" fill="#ffffff" opacity="0.4"/><circle cx="18" cy="174" r="1.0" fill="#ffffff" opacity="0.67"/><circle cx="42" cy="16" r="1.6" fill="#ffffff" opacity="0.7"/><circle cx="266" cy="244" r="1.6" fill="#ffffff" opacity="0.45"/><circle cx="292" cy="192" r="1.6" fill="#ffffff" opacity="0.73"/><circle cx="20" cy="171" r="0.9" fill="#ffffff" opacity="0.53"/><circle cx="259" cy="149" r="1.8" fill="#ffffff" opacity="0.64"/><circle cx="137" cy="226" r="1.9" fill="#ffffff" opacity="0.39"/><circle cx="235" cy="123" r="1.5" fill="#ffffff" opacity="0.73"/><circle cx="167" cy="172" r="0.9" fill="#ffffff" opacity="0.71"/><circle cx="228" cy="297" r="1.3" fill="#ffffff" opacity="0.74"/><circle cx="234" cy="130" r="1.7" fill="#ffffff" opacity="0.33"/><circle cx="198" cy="200" r="2.0" fill="#ffffff" opacity="0.31"/><circle cx="48" cy="84" r="1.4" fill="#ffffff" opacity="0.5"/><circle cx="17" cy="216" r="1.5" fill="#ffffff" opacity="0.32"/><circle cx="281" cy="82" r="2.0" fill="#ffffff" opacity="0.44"/><circle cx="27" cy="146" r="0.9" fill="#ffffff" opacity="0.51"/><circle cx="250" cy="199" r="1.1" fill="#ffffff" opacity="0.29"/><circle cx="174" cy="232" r="1.9" fill="#ffffff" opacity="0.5"/></g>
  <circle cx="160" cy="160" r="104" fill="#020617" opacity=".38"/>
  <g filter="url(#glow)"><path d="M88 218 L160 92 L232 218 Z" fill="none" stroke="url(#g)" stroke-width="7" opacity=".65"/><circle cx="160" cy="92" r="8" fill="url(#g)"/></g>
  <text x="160" y="175" text-anchor="middle" font-family="Arial, Helvetica, sans-serif" font-size="64" font-weight="800" fill="#f8fbff" filter="url(#glow)">VP</text>
  <text x="160" y="64" text-anchor="middle" font-family="Arial, Helvetica, sans-serif" font-size="36" font-weight="800" fill="#38bdf8" filter="url(#glow)">⌁</text>
  <text x="160" y="270" text-anchor="middle" font-family="Arial, Helvetica, sans-serif" font-size="13" font-weight="700" fill="#dbeafe">Dossiê de Missões</text>
</svg>