<svg xmlns="http://www.w3.org/2000/svg" width="320" height="320" viewBox="0 0 320 320" role="img" aria-label="Júpiter: Primeira Missão">
  <defs>
    <radialGradient id="bg" cx="50%" cy="36%" r="72%">
      <stop offset="0%" stop-color="#38bdf8" stop-opacity=".42"/>
      <stop offset="45%" stop-color="#0f2a5f" stop-opacity=".88"/>
      <stop offset="100%" stop-color="#020617"/>
    </radialGradient>
    <linearGradient id="g" x1="58" y1="42" x2="262" y2="276" gradientUnits="userSpaceOnUse">
      <stop offset="0%" stop-color="#ffffff"/>
      <stop offset="42%" stop-color="#38bdf8"/>
      <stop offset="100%" stop-color="#7dd3fc"/>
    </linearGradient>
    <filter id="glow" x="-40%" y="-40%" width="180%" height="180%">
      <feGaussianBlur stdDeviation="5" result="blur"/>
      <feMerge>
        <feMergeNode in="blur"/>
        <feMergeNode in="SourceGraphic"/>
      </feMerge>
    </filter>
  </defs>
  <rect width="320" height="320" rx="52" fill="#020617"/>
  <rect x="10" y="10" width="300" height="300" rx="44" fill="url(#bg)" stroke="url(#g)" stroke-width="3"/>
  <g><circle cx="31" cy="170" r="1.5" fill="#ffffff" opacity="0.44"/><circle cx="71" cy="155" r="1.7" fill="#ffffff" opacity="0.29"/><circle cx="54" cy="43" r="1.6" fill="#ffffff" opacity="0.3"/><circle cx="133" cy="175" r="2.0" fill="#ffffff" opacity="0.64"/><circle cx="241" cy="190" r="1.6" fill="#ffffff" opacity="0.66"/><circle cx="48" cy="255" r="1.7" fill="#ffffff" opacity="0.72"/><circle cx="61" cy="157" r="1.8" fill="#ffffff" opacity="0.39"/><circle cx="260" cy="68" r="2.0" fill="#ffffff" opacity="0.31"/><circle cx="80" cy="225" r="1.7" fill="#ffffff" opacity="0.5"/><circle cx="82" cy="245" r="1.7" fill="#ffffff" opacity="0.66"/><circle cx="70" cy="148" r="2.0" fill="#ffffff" opacity="0.61"/><circle cx="197" cy="120" r="2.0" fill="#ffffff" opacity="0.35"/><circle cx="113" cy="120" r="1.1" fill="#ffffff" opacity="0.55"/><circle cx="200" cy="300" r="2.1" fill="#ffffff" opacity="0.54"/><circle cx="38" cy="24" r="1.8" fill="#ffffff" opacity="0.32"/><circle cx="63" cy="201" r="1.2" fill="#ffffff" opacity="0.29"/><circle cx="143" cy="283" r="0.8" fill="#ffffff" opacity="0.55"/><circle cx="133" cy="254" r="1.2" fill="#ffffff" opacity="0.47"/><circle cx="238" cy="246" r="1.5" fill="#ffffff" opacity="0.46"/><circle cx="175" cy="239" r="1.4" fill="#ffffff" opacity="0.38"/><circle cx="66" cy="50" r="0.8" fill="#ffffff" opacity="0.67"/><circle cx="243" cy="201" r="1.9" fill="#ffffff" opacity="0.45"/></g>
  <circle cx="160" cy="160" r="104" fill="#020617" opacity=".38"/>
  <g filter="url(#glow)"><path d="M88 218 L160 92 L232 218 Z" fill="none" stroke="url(#g)" stroke-width="7" opacity=".65"/><circle cx="160" cy="92" r="8" fill="url(#g)"/></g>
  <text x="160" y="175" text-anchor="middle" font-family="Arial, Helvetica, sans-serif" font-size="64" font-weight="800" fill="#f8fbff" filter="url(#glow)">JP</text>
  <text x="160" y="64" text-anchor="middle" font-family="Arial, Helvetica, sans-serif" font-size="36" font-weight="800" fill="#38bdf8" filter="url(#glow)">⌁</text>
  <text x="160" y="270" text-anchor="middle" font-family="Arial, Helvetica, sans-serif" font-size="13" font-weight="700" fill="#dbeafe">Dossiê de Missões</text>
</svg>