<svg xmlns="http://www.w3.org/2000/svg" width="320" height="320" viewBox="0 0 320 320" role="img" aria-label="Urano: Primeira Missão">
  <defs>
    <radialGradient id="bg" cx="50%" cy="36%" r="72%">
      <stop offset="0%" stop-color="#34d399" stop-opacity=".42"/>
      <stop offset="45%" stop-color="#064e3b" stop-opacity=".88"/>
      <stop offset="100%" stop-color="#020617"/>
    </radialGradient>
    <linearGradient id="g" x1="58" y1="42" x2="262" y2="276" gradientUnits="userSpaceOnUse">
      <stop offset="0%" stop-color="#ffffff"/>
      <stop offset="42%" stop-color="#34d399"/>
      <stop offset="100%" stop-color="#7dd3fc"/>
    </linearGradient>
    <filter id="glow" x="-40%" y="-40%" width="180%" height="180%">
      <feGaussianBlur stdDeviation="5" result="blur"/>
      <feMerge>
        <feMergeNode in="blur"/>
        <feMergeNode in="SourceGraphic"/>
      </feMerge>
    </filter>
  </defs>
  <rect width="320" height="320" rx="52" fill="#020617"/>
  <rect x="10" y="10" width="300" height="300" rx="44" fill="url(#bg)" stroke="url(#g)" stroke-width="3"/>
  <g><circle cx="168" cy="154" r="1.9" fill="#ffffff" opacity="0.58"/><circle cx="205" cy="125" r="1.8" fill="#ffffff" opacity="0.44"/><circle cx="66" cy="200" r="1.1" fill="#ffffff" opacity="0.74"/><circle cx="229" cy="96" r="1.5" fill="#ffffff" opacity="0.3"/><circle cx="296" cy="205" r="1.0" fill="#ffffff" opacity="0.65"/><circle cx="90" cy="138" r="1.3" fill="#ffffff" opacity="0.41"/><circle cx="90" cy="262" r="1.5" fill="#ffffff" opacity="0.39"/><circle cx="223" cy="73" r="2.1" fill="#ffffff" opacity="0.41"/><circle cx="298" cy="237" r="1.4" fill="#ffffff" opacity="0.6"/><circle cx="168" cy="133" r="1.7" fill="#ffffff" opacity="0.66"/><circle cx="193" cy="27" r="2.0" fill="#ffffff" opacity="0.7"/><circle cx="170" cy="115" r="1.4" fill="#ffffff" opacity="0.45"/><circle cx="192" cy="201" r="1.6" fill="#ffffff" opacity="0.71"/><circle cx="165" cy="59" r="1.9" fill="#ffffff" opacity="0.56"/><circle cx="101" cy="209" r="1.4" fill="#ffffff" opacity="0.56"/><circle cx="162" cy="172" r="0.9" fill="#ffffff" opacity="0.46"/><circle cx="189" cy="261" r="2.1" fill="#ffffff" opacity="0.57"/><circle cx="213" cy="23" r="1.8" fill="#ffffff" opacity="0.44"/><circle cx="44" cy="58" r="1.9" fill="#ffffff" opacity="0.23"/><circle cx="222" cy="116" r="1.1" fill="#ffffff" opacity="0.28"/><circle cx="179" cy="219" r="1.3" fill="#ffffff" opacity="0.57"/><circle cx="94" cy="264" r="1.1" fill="#ffffff" opacity="0.59"/></g>
  <circle cx="160" cy="160" r="104" fill="#020617" opacity=".38"/>
  <g filter="url(#glow)"><path d="M88 218 L160 92 L232 218 Z" fill="none" stroke="url(#g)" stroke-width="7" opacity=".65"/><circle cx="160" cy="92" r="8" fill="url(#g)"/></g>
  <text x="160" y="175" text-anchor="middle" font-family="Arial, Helvetica, sans-serif" font-size="64" font-weight="800" fill="#f8fbff" filter="url(#glow)">UP</text>
  <text x="160" y="64" text-anchor="middle" font-family="Arial, Helvetica, sans-serif" font-size="36" font-weight="800" fill="#34d399" filter="url(#glow)">⌁</text>
  <text x="160" y="270" text-anchor="middle" font-family="Arial, Helvetica, sans-serif" font-size="13" font-weight="700" fill="#dbeafe">Dossiê de Missões</text>
</svg>