<svg xmlns="http://www.w3.org/2000/svg" width="320" height="320" viewBox="0 0 320 320" role="img" aria-label="Mercúrio: Primeira Missão">
  <defs>
    <radialGradient id="bg" cx="50%" cy="36%" r="72%">
      <stop offset="0%" stop-color="#34d399" stop-opacity=".42"/>
      <stop offset="45%" stop-color="#064e3b" stop-opacity=".88"/>
      <stop offset="100%" stop-color="#020617"/>
    </radialGradient>
    <linearGradient id="g" x1="58" y1="42" x2="262" y2="276" gradientUnits="userSpaceOnUse">
      <stop offset="0%" stop-color="#ffffff"/>
      <stop offset="42%" stop-color="#34d399"/>
      <stop offset="100%" stop-color="#7dd3fc"/>
    </linearGradient>
    <filter id="glow" x="-40%" y="-40%" width="180%" height="180%">
      <feGaussianBlur stdDeviation="5" result="blur"/>
      <feMerge>
        <feMergeNode in="blur"/>
        <feMergeNode in="SourceGraphic"/>
      </feMerge>
    </filter>
  </defs>
  <rect width="320" height="320" rx="52" fill="#020617"/>
  <rect x="10" y="10" width="300" height="300" rx="44" fill="url(#bg)" stroke="url(#g)" stroke-width="3"/>
  <g><circle cx="157" cy="62" r="1.7" fill="#ffffff" opacity="0.62"/><circle cx="201" cy="143" r="0.9" fill="#ffffff" opacity="0.6"/><circle cx="227" cy="278" r="1.6" fill="#ffffff" opacity="0.54"/><circle cx="171" cy="235" r="1.6" fill="#ffffff" opacity="0.59"/><circle cx="219" cy="123" r="1.9" fill="#ffffff" opacity="0.65"/><circle cx="39" cy="304" r="2.0" fill="#ffffff" opacity="0.6"/><circle cx="267" cy="105" r="1.1" fill="#ffffff" opacity="0.76"/><circle cx="211" cy="120" r="1.0" fill="#ffffff" opacity="0.23"/><circle cx="287" cy="291" r="1.4" fill="#ffffff" opacity="0.5"/><circle cx="99" cy="114" r="1.9" fill="#ffffff" opacity="0.24"/><circle cx="38" cy="91" r="1.9" fill="#ffffff" opacity="0.69"/><circle cx="89" cy="179" r="1.7" fill="#ffffff" opacity="0.73"/><circle cx="229" cy="89" r="2.1" fill="#ffffff" opacity="0.72"/><circle cx="46" cy="71" r="2.1" fill="#ffffff" opacity="0.42"/><circle cx="53" cy="92" r="1.7" fill="#ffffff" opacity="0.64"/><circle cx="181" cy="49" r="1.1" fill="#ffffff" opacity="0.34"/><circle cx="138" cy="240" r="0.9" fill="#ffffff" opacity="0.39"/><circle cx="25" cy="83" r="1.7" fill="#ffffff" opacity="0.29"/><circle cx="136" cy="124" r="1.7" fill="#ffffff" opacity="0.75"/><circle cx="190" cy="34" r="1.8" fill="#ffffff" opacity="0.57"/><circle cx="99" cy="229" r="0.9" fill="#ffffff" opacity="0.36"/><circle cx="83" cy="147" r="1.3" fill="#ffffff" opacity="0.5"/></g>
  <circle cx="160" cy="160" r="104" fill="#020617" opacity=".38"/>
  <g filter="url(#glow)"><path d="M88 218 L160 92 L232 218 Z" fill="none" stroke="url(#g)" stroke-width="7" opacity=".65"/><circle cx="160" cy="92" r="8" fill="url(#g)"/></g>
  <text x="160" y="175" text-anchor="middle" font-family="Arial, Helvetica, sans-serif" font-size="64" font-weight="800" fill="#f8fbff" filter="url(#glow)">MP</text>
  <text x="160" y="64" text-anchor="middle" font-family="Arial, Helvetica, sans-serif" font-size="36" font-weight="800" fill="#34d399" filter="url(#glow)">⌁</text>
  <text x="160" y="270" text-anchor="middle" font-family="Arial, Helvetica, sans-serif" font-size="13" font-weight="700" fill="#dbeafe">Dossiê de Missões</text>
</svg>