<svg xmlns="http://www.w3.org/2000/svg" width="320" height="320" viewBox="0 0 320 320" role="img" aria-label="Primeira Aterrissagem">
  <defs>
    <radialGradient id="bg" cx="50%" cy="36%" r="72%">
      <stop offset="0%" stop-color="#38bdf8" stop-opacity=".42"/>
      <stop offset="45%" stop-color="#0f2a5f" stop-opacity=".88"/>
      <stop offset="100%" stop-color="#020617"/>
    </radialGradient>
    <linearGradient id="g" x1="58" y1="42" x2="262" y2="276" gradientUnits="userSpaceOnUse">
      <stop offset="0%" stop-color="#ffffff"/>
      <stop offset="42%" stop-color="#38bdf8"/>
      <stop offset="100%" stop-color="#7dd3fc"/>
    </linearGradient>
    <filter id="glow" x="-40%" y="-40%" width="180%" height="180%">
      <feGaussianBlur stdDeviation="5" result="blur"/>
      <feMerge>
        <feMergeNode in="blur"/>
        <feMergeNode in="SourceGraphic"/>
      </feMerge>
    </filter>
  </defs>
  <rect width="320" height="320" rx="52" fill="#020617"/>
  <rect x="10" y="10" width="300" height="300" rx="44" fill="url(#bg)" stroke="url(#g)" stroke-width="3"/>
  <g><circle cx="132" cy="155" r="2.0" fill="#ffffff" opacity="0.69"/><circle cx="22" cy="170" r="1.9" fill="#ffffff" opacity="0.75"/><circle cx="229" cy="117" r="1.3" fill="#ffffff" opacity="0.26"/><circle cx="192" cy="72" r="1.0" fill="#ffffff" opacity="0.33"/><circle cx="148" cy="128" r="1.5" fill="#ffffff" opacity="0.59"/><circle cx="19" cy="249" r="1.4" fill="#ffffff" opacity="0.43"/><circle cx="106" cy="229" r="1.5" fill="#ffffff" opacity="0.53"/><circle cx="21" cy="271" r="1.8" fill="#ffffff" opacity="0.73"/><circle cx="109" cy="102" r="1.8" fill="#ffffff" opacity="0.27"/><circle cx="215" cy="102" r="1.3" fill="#ffffff" opacity="0.77"/><circle cx="106" cy="258" r="1.6" fill="#ffffff" opacity="0.7"/><circle cx="254" cy="297" r="1.3" fill="#ffffff" opacity="0.33"/><circle cx="269" cy="247" r="1.5" fill="#ffffff" opacity="0.57"/><circle cx="191" cy="220" r="2.0" fill="#ffffff" opacity="0.42"/><circle cx="121" cy="90" r="0.9" fill="#ffffff" opacity="0.44"/><circle cx="181" cy="50" r="1.4" fill="#ffffff" opacity="0.6"/><circle cx="258" cy="275" r="1.2" fill="#ffffff" opacity="0.5"/><circle cx="244" cy="115" r="1.8" fill="#ffffff" opacity="0.38"/><circle cx="127" cy="93" r="1.7" fill="#ffffff" opacity="0.57"/><circle cx="130" cy="114" r="0.8" fill="#ffffff" opacity="0.32"/><circle cx="51" cy="278" r="1.5" fill="#ffffff" opacity="0.57"/><circle cx="241" cy="40" r="1.3" fill="#ffffff" opacity="0.49"/></g>
  <circle cx="160" cy="160" r="104" fill="#020617" opacity=".38"/>
  <g filter="url(#glow)"><ellipse cx="160" cy="164" rx="82" ry="24" fill="none" stroke="url(#g)" stroke-width="7" opacity=".75" transform="rotate(-18 160 164)"/></g>
  <text x="160" y="175" text-anchor="middle" font-family="Arial, Helvetica, sans-serif" font-size="64" font-weight="800" fill="#f8fbff" filter="url(#glow)">PA</text>
  <text x="160" y="64" text-anchor="middle" font-family="Arial, Helvetica, sans-serif" font-size="36" font-weight="800" fill="#38bdf8" filter="url(#glow)">◉</text>
  <text x="160" y="270" text-anchor="middle" font-family="Arial, Helvetica, sans-serif" font-size="13" font-weight="700" fill="#dbeafe">Exploração Planetária</text>
</svg>