<svg xmlns="http://www.w3.org/2000/svg" width="320" height="320" viewBox="0 0 320 320" role="img" aria-label="Netuno: Primeira Missão">
  <defs>
    <radialGradient id="bg" cx="50%" cy="36%" r="72%">
      <stop offset="0%" stop-color="#34d399" stop-opacity=".42"/>
      <stop offset="45%" stop-color="#064e3b" stop-opacity=".88"/>
      <stop offset="100%" stop-color="#020617"/>
    </radialGradient>
    <linearGradient id="g" x1="58" y1="42" x2="262" y2="276" gradientUnits="userSpaceOnUse">
      <stop offset="0%" stop-color="#ffffff"/>
      <stop offset="42%" stop-color="#34d399"/>
      <stop offset="100%" stop-color="#7dd3fc"/>
    </linearGradient>
    <filter id="glow" x="-40%" y="-40%" width="180%" height="180%">
      <feGaussianBlur stdDeviation="5" result="blur"/>
      <feMerge>
        <feMergeNode in="blur"/>
        <feMergeNode in="SourceGraphic"/>
      </feMerge>
    </filter>
  </defs>
  <rect width="320" height="320" rx="52" fill="#020617"/>
  <rect x="10" y="10" width="300" height="300" rx="44" fill="url(#bg)" stroke="url(#g)" stroke-width="3"/>
  <g><circle cx="109" cy="133" r="1.3" fill="#ffffff" opacity="0.47"/><circle cx="246" cy="297" r="1.5" fill="#ffffff" opacity="0.62"/><circle cx="230" cy="109" r="1.7" fill="#ffffff" opacity="0.6"/><circle cx="106" cy="293" r="0.9" fill="#ffffff" opacity="0.57"/><circle cx="104" cy="129" r="2.0" fill="#ffffff" opacity="0.73"/><circle cx="168" cy="150" r="1.0" fill="#ffffff" opacity="0.43"/><circle cx="202" cy="151" r="1.4" fill="#ffffff" opacity="0.42"/><circle cx="72" cy="50" r="1.6" fill="#ffffff" opacity="0.77"/><circle cx="152" cy="257" r="2.0" fill="#ffffff" opacity="0.51"/><circle cx="161" cy="213" r="1.1" fill="#ffffff" opacity="0.32"/><circle cx="65" cy="290" r="1.7" fill="#ffffff" opacity="0.7"/><circle cx="200" cy="279" r="1.5" fill="#ffffff" opacity="0.78"/><circle cx="274" cy="298" r="0.9" fill="#ffffff" opacity="0.54"/><circle cx="268" cy="234" r="1.3" fill="#ffffff" opacity="0.77"/><circle cx="50" cy="88" r="2.1" fill="#ffffff" opacity="0.41"/><circle cx="33" cy="209" r="1.1" fill="#ffffff" opacity="0.76"/><circle cx="247" cy="290" r="1.3" fill="#ffffff" opacity="0.45"/><circle cx="139" cy="29" r="1.9" fill="#ffffff" opacity="0.62"/><circle cx="18" cy="254" r="2.0" fill="#ffffff" opacity="0.61"/><circle cx="127" cy="20" r="1.0" fill="#ffffff" opacity="0.73"/><circle cx="263" cy="19" r="1.6" fill="#ffffff" opacity="0.26"/><circle cx="286" cy="19" r="1.6" fill="#ffffff" opacity="0.71"/></g>
  <circle cx="160" cy="160" r="104" fill="#020617" opacity=".38"/>
  <g filter="url(#glow)"><path d="M88 218 L160 92 L232 218 Z" fill="none" stroke="url(#g)" stroke-width="7" opacity=".65"/><circle cx="160" cy="92" r="8" fill="url(#g)"/></g>
  <text x="160" y="175" text-anchor="middle" font-family="Arial, Helvetica, sans-serif" font-size="64" font-weight="800" fill="#f8fbff" filter="url(#glow)">NP</text>
  <text x="160" y="64" text-anchor="middle" font-family="Arial, Helvetica, sans-serif" font-size="36" font-weight="800" fill="#34d399" filter="url(#glow)">⌁</text>
  <text x="160" y="270" text-anchor="middle" font-family="Arial, Helvetica, sans-serif" font-size="13" font-weight="700" fill="#dbeafe">Dossiê de Missões</text>
</svg>