<svg xmlns="http://www.w3.org/2000/svg" width="320" height="320" viewBox="0 0 320 320" role="img" aria-label="Primeiro Salto">
  <defs>
    <radialGradient id="bg" cx="50%" cy="36%" r="72%">
      <stop offset="0%" stop-color="#38bdf8" stop-opacity=".42"/>
      <stop offset="45%" stop-color="#0f2a5f" stop-opacity=".88"/>
      <stop offset="100%" stop-color="#020617"/>
    </radialGradient>
    <linearGradient id="g" x1="58" y1="42" x2="262" y2="276" gradientUnits="userSpaceOnUse">
      <stop offset="0%" stop-color="#ffffff"/>
      <stop offset="42%" stop-color="#38bdf8"/>
      <stop offset="100%" stop-color="#7dd3fc"/>
    </linearGradient>
    <filter id="glow" x="-40%" y="-40%" width="180%" height="180%">
      <feGaussianBlur stdDeviation="5" result="blur"/>
      <feMerge>
        <feMergeNode in="blur"/>
        <feMergeNode in="SourceGraphic"/>
      </feMerge>
    </filter>
  </defs>
  <rect width="320" height="320" rx="52" fill="#020617"/>
  <rect x="10" y="10" width="300" height="300" rx="44" fill="url(#bg)" stroke="url(#g)" stroke-width="3"/>
  <g><circle cx="164" cy="72" r="1.8" fill="#ffffff" opacity="0.29"/><circle cx="242" cy="262" r="1.0" fill="#ffffff" opacity="0.68"/><circle cx="217" cy="288" r="1.4" fill="#ffffff" opacity="0.3"/><circle cx="232" cy="42" r="1.0" fill="#ffffff" opacity="0.46"/><circle cx="99" cy="148" r="1.7" fill="#ffffff" opacity="0.63"/><circle cx="164" cy="41" r="1.6" fill="#ffffff" opacity="0.5"/><circle cx="96" cy="237" r="1.9" fill="#ffffff" opacity="0.28"/><circle cx="23" cy="277" r="2.0" fill="#ffffff" opacity="0.33"/><circle cx="136" cy="175" r="1.2" fill="#ffffff" opacity="0.62"/><circle cx="126" cy="138" r="1.7" fill="#ffffff" opacity="0.28"/><circle cx="77" cy="77" r="1.9" fill="#ffffff" opacity="0.49"/><circle cx="133" cy="185" r="1.3" fill="#ffffff" opacity="0.34"/><circle cx="260" cy="230" r="0.9" fill="#ffffff" opacity="0.64"/><circle cx="86" cy="38" r="1.3" fill="#ffffff" opacity="0.49"/><circle cx="35" cy="300" r="1.0" fill="#ffffff" opacity="0.26"/><circle cx="129" cy="260" r="1.9" fill="#ffffff" opacity="0.34"/><circle cx="80" cy="235" r="1.0" fill="#ffffff" opacity="0.61"/><circle cx="239" cy="49" r="1.0" fill="#ffffff" opacity="0.37"/><circle cx="204" cy="208" r="0.9" fill="#ffffff" opacity="0.45"/><circle cx="126" cy="143" r="0.9" fill="#ffffff" opacity="0.59"/><circle cx="141" cy="277" r="1.4" fill="#ffffff" opacity="0.76"/><circle cx="22" cy="64" r="1.7" fill="#ffffff" opacity="0.58"/></g>
  <circle cx="160" cy="160" r="104" fill="#020617" opacity=".38"/>
  <g filter="url(#glow)"><circle cx="160" cy="160" r="78" fill="none" stroke="url(#g)" stroke-width="7" opacity=".72"/></g>
  <text x="160" y="175" text-anchor="middle" font-family="Arial, Helvetica, sans-serif" font-size="64" font-weight="800" fill="#f8fbff" filter="url(#glow)">PS</text>
  <text x="160" y="64" text-anchor="middle" font-family="Arial, Helvetica, sans-serif" font-size="36" font-weight="800" fill="#38bdf8" filter="url(#glow)">✦</text>
  <text x="160" y="270" text-anchor="middle" font-family="Arial, Helvetica, sans-serif" font-size="13" font-weight="700" fill="#dbeafe">Primeiros Passos</text>
</svg>