<svg xmlns="http://www.w3.org/2000/svg" width="320" height="320" viewBox="0 0 320 320" role="img" aria-label="Primeira Missão">
  <defs>
    <radialGradient id="bg" cx="50%" cy="36%" r="72%">
      <stop offset="0%" stop-color="#38bdf8" stop-opacity=".42"/>
      <stop offset="45%" stop-color="#0f2a5f" stop-opacity=".88"/>
      <stop offset="100%" stop-color="#020617"/>
    </radialGradient>
    <linearGradient id="g" x1="58" y1="42" x2="262" y2="276" gradientUnits="userSpaceOnUse">
      <stop offset="0%" stop-color="#ffffff"/>
      <stop offset="42%" stop-color="#38bdf8"/>
      <stop offset="100%" stop-color="#7dd3fc"/>
    </linearGradient>
    <filter id="glow" x="-40%" y="-40%" width="180%" height="180%">
      <feGaussianBlur stdDeviation="5" result="blur"/>
      <feMerge>
        <feMergeNode in="blur"/>
        <feMergeNode in="SourceGraphic"/>
      </feMerge>
    </filter>
  </defs>
  <rect width="320" height="320" rx="52" fill="#020617"/>
  <rect x="10" y="10" width="300" height="300" rx="44" fill="url(#bg)" stroke="url(#g)" stroke-width="3"/>
  <g><circle cx="303" cy="270" r="1.5" fill="#ffffff" opacity="0.25"/><circle cx="26" cy="212" r="1.8" fill="#ffffff" opacity="0.55"/><circle cx="93" cy="172" r="1.2" fill="#ffffff" opacity="0.42"/><circle cx="238" cy="250" r="1.0" fill="#ffffff" opacity="0.77"/><circle cx="157" cy="214" r="1.2" fill="#ffffff" opacity="0.35"/><circle cx="88" cy="157" r="1.4" fill="#ffffff" opacity="0.47"/><circle cx="262" cy="192" r="1.7" fill="#ffffff" opacity="0.72"/><circle cx="105" cy="206" r="1.5" fill="#ffffff" opacity="0.54"/><circle cx="261" cy="204" r="1.6" fill="#ffffff" opacity="0.54"/><circle cx="248" cy="286" r="1.1" fill="#ffffff" opacity="0.43"/><circle cx="226" cy="106" r="1.8" fill="#ffffff" opacity="0.52"/><circle cx="177" cy="299" r="1.1" fill="#ffffff" opacity="0.54"/><circle cx="109" cy="252" r="1.0" fill="#ffffff" opacity="0.53"/><circle cx="172" cy="268" r="1.4" fill="#ffffff" opacity="0.58"/><circle cx="250" cy="23" r="1.3" fill="#ffffff" opacity="0.45"/><circle cx="294" cy="51" r="1.7" fill="#ffffff" opacity="0.38"/><circle cx="243" cy="186" r="1.8" fill="#ffffff" opacity="0.26"/><circle cx="215" cy="185" r="1.1" fill="#ffffff" opacity="0.34"/><circle cx="16" cy="239" r="1.6" fill="#ffffff" opacity="0.26"/><circle cx="168" cy="111" r="1.8" fill="#ffffff" opacity="0.59"/><circle cx="221" cy="42" r="1.7" fill="#ffffff" opacity="0.3"/><circle cx="75" cy="176" r="1.8" fill="#ffffff" opacity="0.25"/></g>
  <circle cx="160" cy="160" r="104" fill="#020617" opacity=".38"/>
  <g filter="url(#glow)"><path d="M87 163 C102 87 218 87 233 163 C217 239 103 239 87 163Z" fill="none" stroke="url(#g)" stroke-width="7" opacity=".7"/></g>
  <text x="160" y="175" text-anchor="middle" font-family="Arial, Helvetica, sans-serif" font-size="64" font-weight="800" fill="#f8fbff" filter="url(#glow)">PM</text>
  <text x="160" y="64" text-anchor="middle" font-family="Arial, Helvetica, sans-serif" font-size="36" font-weight="800" fill="#38bdf8" filter="url(#glow)">?</text>
  <text x="160" y="270" text-anchor="middle" font-family="Arial, Helvetica, sans-serif" font-size="13" font-weight="700" fill="#dbeafe">Modo Aventura</text>
</svg>