<svg xmlns="http://www.w3.org/2000/svg" width="320" height="320" viewBox="0 0 320 320" role="img" aria-label="Primeiro Dossiê de Missão">
  <defs>
    <radialGradient id="bg" cx="50%" cy="36%" r="72%">
      <stop offset="0%" stop-color="#38bdf8" stop-opacity=".42"/>
      <stop offset="45%" stop-color="#0f2a5f" stop-opacity=".88"/>
      <stop offset="100%" stop-color="#020617"/>
    </radialGradient>
    <linearGradient id="g" x1="58" y1="42" x2="262" y2="276" gradientUnits="userSpaceOnUse">
      <stop offset="0%" stop-color="#ffffff"/>
      <stop offset="42%" stop-color="#38bdf8"/>
      <stop offset="100%" stop-color="#7dd3fc"/>
    </linearGradient>
    <filter id="glow" x="-40%" y="-40%" width="180%" height="180%">
      <feGaussianBlur stdDeviation="5" result="blur"/>
      <feMerge>
        <feMergeNode in="blur"/>
        <feMergeNode in="SourceGraphic"/>
      </feMerge>
    </filter>
  </defs>
  <rect width="320" height="320" rx="52" fill="#020617"/>
  <rect x="10" y="10" width="300" height="300" rx="44" fill="url(#bg)" stroke="url(#g)" stroke-width="3"/>
  <g><circle cx="30" cy="168" r="1.5" fill="#ffffff" opacity="0.54"/><circle cx="52" cy="237" r="1.6" fill="#ffffff" opacity="0.27"/><circle cx="217" cy="155" r="1.0" fill="#ffffff" opacity="0.63"/><circle cx="117" cy="242" r="1.8" fill="#ffffff" opacity="0.24"/><circle cx="284" cy="295" r="1.5" fill="#ffffff" opacity="0.57"/><circle cx="183" cy="106" r="1.6" fill="#ffffff" opacity="0.68"/><circle cx="44" cy="49" r="1.3" fill="#ffffff" opacity="0.66"/><circle cx="101" cy="59" r="0.9" fill="#ffffff" opacity="0.66"/><circle cx="208" cy="287" r="2.0" fill="#ffffff" opacity="0.39"/><circle cx="121" cy="142" r="1.0" fill="#ffffff" opacity="0.43"/><circle cx="126" cy="54" r="1.4" fill="#ffffff" opacity="0.35"/><circle cx="215" cy="37" r="1.9" fill="#ffffff" opacity="0.52"/><circle cx="70" cy="74" r="1.5" fill="#ffffff" opacity="0.69"/><circle cx="254" cy="67" r="0.9" fill="#ffffff" opacity="0.7"/><circle cx="49" cy="217" r="1.3" fill="#ffffff" opacity="0.25"/><circle cx="72" cy="71" r="2.0" fill="#ffffff" opacity="0.47"/><circle cx="200" cy="119" r="1.2" fill="#ffffff" opacity="0.63"/><circle cx="161" cy="82" r="0.9" fill="#ffffff" opacity="0.68"/><circle cx="295" cy="210" r="1.8" fill="#ffffff" opacity="0.35"/><circle cx="72" cy="140" r="1.5" fill="#ffffff" opacity="0.3"/><circle cx="145" cy="251" r="1.0" fill="#ffffff" opacity="0.59"/><circle cx="293" cy="246" r="1.5" fill="#ffffff" opacity="0.24"/></g>
  <circle cx="160" cy="160" r="104" fill="#020617" opacity=".38"/>
  <g filter="url(#glow)"><path d="M88 218 L160 92 L232 218 Z" fill="none" stroke="url(#g)" stroke-width="7" opacity=".65"/><circle cx="160" cy="92" r="8" fill="url(#g)"/></g>
  <text x="160" y="175" text-anchor="middle" font-family="Arial, Helvetica, sans-serif" font-size="64" font-weight="800" fill="#f8fbff" filter="url(#glow)">PD</text>
  <text x="160" y="64" text-anchor="middle" font-family="Arial, Helvetica, sans-serif" font-size="36" font-weight="800" fill="#38bdf8" filter="url(#glow)">⌁</text>
  <text x="160" y="270" text-anchor="middle" font-family="Arial, Helvetica, sans-serif" font-size="13" font-weight="700" fill="#dbeafe">Dossiê de Missões</text>
</svg>