<svg xmlns="http://www.w3.org/2000/svg" width="320" height="320" viewBox="0 0 320 320" role="img" aria-label="Saturno: Primeira Missão">
  <defs>
    <radialGradient id="bg" cx="50%" cy="36%" r="72%">
      <stop offset="0%" stop-color="#38bdf8" stop-opacity=".42"/>
      <stop offset="45%" stop-color="#0f2a5f" stop-opacity=".88"/>
      <stop offset="100%" stop-color="#020617"/>
    </radialGradient>
    <linearGradient id="g" x1="58" y1="42" x2="262" y2="276" gradientUnits="userSpaceOnUse">
      <stop offset="0%" stop-color="#ffffff"/>
      <stop offset="42%" stop-color="#38bdf8"/>
      <stop offset="100%" stop-color="#7dd3fc"/>
    </linearGradient>
    <filter id="glow" x="-40%" y="-40%" width="180%" height="180%">
      <feGaussianBlur stdDeviation="5" result="blur"/>
      <feMerge>
        <feMergeNode in="blur"/>
        <feMergeNode in="SourceGraphic"/>
      </feMerge>
    </filter>
  </defs>
  <rect width="320" height="320" rx="52" fill="#020617"/>
  <rect x="10" y="10" width="300" height="300" rx="44" fill="url(#bg)" stroke="url(#g)" stroke-width="3"/>
  <g><circle cx="238" cy="135" r="1.1" fill="#ffffff" opacity="0.35"/><circle cx="87" cy="119" r="2.1" fill="#ffffff" opacity="0.4"/><circle cx="156" cy="167" r="1.9" fill="#ffffff" opacity="0.66"/><circle cx="46" cy="208" r="1.8" fill="#ffffff" opacity="0.65"/><circle cx="266" cy="269" r="1.9" fill="#ffffff" opacity="0.23"/><circle cx="230" cy="126" r="0.8" fill="#ffffff" opacity="0.41"/><circle cx="74" cy="38" r="1.5" fill="#ffffff" opacity="0.59"/><circle cx="298" cy="277" r="1.5" fill="#ffffff" opacity="0.53"/><circle cx="262" cy="176" r="1.8" fill="#ffffff" opacity="0.71"/><circle cx="133" cy="215" r="1.8" fill="#ffffff" opacity="0.71"/><circle cx="201" cy="167" r="1.0" fill="#ffffff" opacity="0.64"/><circle cx="277" cy="245" r="1.8" fill="#ffffff" opacity="0.4"/><circle cx="120" cy="134" r="1.5" fill="#ffffff" opacity="0.47"/><circle cx="256" cy="256" r="1.1" fill="#ffffff" opacity="0.77"/><circle cx="16" cy="162" r="1.5" fill="#ffffff" opacity="0.51"/><circle cx="156" cy="60" r="2.1" fill="#ffffff" opacity="0.74"/><circle cx="184" cy="113" r="1.1" fill="#ffffff" opacity="0.32"/><circle cx="83" cy="261" r="2.1" fill="#ffffff" opacity="0.77"/><circle cx="124" cy="116" r="1.7" fill="#ffffff" opacity="0.25"/><circle cx="252" cy="62" r="2.0" fill="#ffffff" opacity="0.72"/><circle cx="240" cy="298" r="1.7" fill="#ffffff" opacity="0.37"/><circle cx="51" cy="96" r="1.8" fill="#ffffff" opacity="0.23"/></g>
  <circle cx="160" cy="160" r="104" fill="#020617" opacity=".38"/>
  <g filter="url(#glow)"><path d="M88 218 L160 92 L232 218 Z" fill="none" stroke="url(#g)" stroke-width="7" opacity=".65"/><circle cx="160" cy="92" r="8" fill="url(#g)"/></g>
  <text x="160" y="175" text-anchor="middle" font-family="Arial, Helvetica, sans-serif" font-size="64" font-weight="800" fill="#f8fbff" filter="url(#glow)">SP</text>
  <text x="160" y="64" text-anchor="middle" font-family="Arial, Helvetica, sans-serif" font-size="36" font-weight="800" fill="#38bdf8" filter="url(#glow)">⌁</text>
  <text x="160" y="270" text-anchor="middle" font-family="Arial, Helvetica, sans-serif" font-size="13" font-weight="700" fill="#dbeafe">Dossiê de Missões</text>
</svg>