<svg xmlns="http://www.w3.org/2000/svg" width="320" height="320" viewBox="0 0 320 320" role="img" aria-label="Terra: Primeira Missão">
  <defs>
    <radialGradient id="bg" cx="50%" cy="36%" r="72%">
      <stop offset="0%" stop-color="#38bdf8" stop-opacity=".42"/>
      <stop offset="45%" stop-color="#0f2a5f" stop-opacity=".88"/>
      <stop offset="100%" stop-color="#020617"/>
    </radialGradient>
    <linearGradient id="g" x1="58" y1="42" x2="262" y2="276" gradientUnits="userSpaceOnUse">
      <stop offset="0%" stop-color="#ffffff"/>
      <stop offset="42%" stop-color="#38bdf8"/>
      <stop offset="100%" stop-color="#7dd3fc"/>
    </linearGradient>
    <filter id="glow" x="-40%" y="-40%" width="180%" height="180%">
      <feGaussianBlur stdDeviation="5" result="blur"/>
      <feMerge>
        <feMergeNode in="blur"/>
        <feMergeNode in="SourceGraphic"/>
      </feMerge>
    </filter>
  </defs>
  <rect width="320" height="320" rx="52" fill="#020617"/>
  <rect x="10" y="10" width="300" height="300" rx="44" fill="url(#bg)" stroke="url(#g)" stroke-width="3"/>
  <g><circle cx="267" cy="127" r="1.0" fill="#ffffff" opacity="0.61"/><circle cx="197" cy="94" r="1.3" fill="#ffffff" opacity="0.44"/><circle cx="16" cy="115" r="1.4" fill="#ffffff" opacity="0.43"/><circle cx="60" cy="181" r="1.0" fill="#ffffff" opacity="0.48"/><circle cx="77" cy="295" r="1.0" fill="#ffffff" opacity="0.3"/><circle cx="304" cy="140" r="2.0" fill="#ffffff" opacity="0.26"/><circle cx="227" cy="204" r="1.1" fill="#ffffff" opacity="0.76"/><circle cx="61" cy="276" r="1.6" fill="#ffffff" opacity="0.31"/><circle cx="238" cy="17" r="1.3" fill="#ffffff" opacity="0.26"/><circle cx="122" cy="209" r="1.2" fill="#ffffff" opacity="0.37"/><circle cx="102" cy="237" r="1.9" fill="#ffffff" opacity="0.3"/><circle cx="22" cy="178" r="2.0" fill="#ffffff" opacity="0.66"/><circle cx="194" cy="56" r="1.8" fill="#ffffff" opacity="0.52"/><circle cx="172" cy="226" r="1.1" fill="#ffffff" opacity="0.65"/><circle cx="261" cy="53" r="1.6" fill="#ffffff" opacity="0.4"/><circle cx="109" cy="65" r="1.7" fill="#ffffff" opacity="0.6"/><circle cx="201" cy="44" r="1.5" fill="#ffffff" opacity="0.71"/><circle cx="32" cy="295" r="1.8" fill="#ffffff" opacity="0.69"/><circle cx="131" cy="156" r="1.4" fill="#ffffff" opacity="0.3"/><circle cx="281" cy="214" r="1.8" fill="#ffffff" opacity="0.31"/><circle cx="198" cy="142" r="1.7" fill="#ffffff" opacity="0.61"/><circle cx="257" cy="58" r="1.7" fill="#ffffff" opacity="0.67"/></g>
  <circle cx="160" cy="160" r="104" fill="#020617" opacity=".38"/>
  <g filter="url(#glow)"><path d="M88 218 L160 92 L232 218 Z" fill="none" stroke="url(#g)" stroke-width="7" opacity=".65"/><circle cx="160" cy="92" r="8" fill="url(#g)"/></g>
  <text x="160" y="175" text-anchor="middle" font-family="Arial, Helvetica, sans-serif" font-size="64" font-weight="800" fill="#f8fbff" filter="url(#glow)">TP</text>
  <text x="160" y="64" text-anchor="middle" font-family="Arial, Helvetica, sans-serif" font-size="36" font-weight="800" fill="#38bdf8" filter="url(#glow)">⌁</text>
  <text x="160" y="270" text-anchor="middle" font-family="Arial, Helvetica, sans-serif" font-size="13" font-weight="700" fill="#dbeafe">Dossiê de Missões</text>
</svg>