<svg xmlns="http://www.w3.org/2000/svg" viewBox="0 0 256 256" role="img" aria-label="Achievement badge">
  <defs>
    <radialGradient id="g" cx="50%" cy="25%" r="75%">
      <stop offset="0%" stop-color="#38bdf8" stop-opacity="0.38"/>
      <stop offset="48%" stop-color="#082f49" stop-opacity="0.96"/>
      <stop offset="100%" stop-color="#020617"/>
    </radialGradient>
    <filter id="glow" x="-30%" y="-30%" width="160%" height="160%">
      <feGaussianBlur stdDeviation="4" result="blur"/>
      <feMerge><feMergeNode in="blur"/><feMergeNode in="SourceGraphic"/></feMerge>
    </filter>
  </defs>
  <rect width="256" height="256" rx="54" fill="url(#g)"/>
  <path d="M42 36h172v184H42z" rx="32" fill="none" stroke="#38bdf8" stroke-opacity=".18" stroke-width="5"/>
  <circle cx="58" cy="58" r="3" fill="#e0f2fe" opacity=".75"/>
  <circle cx="206" cy="72" r="2.5" fill="#e0f2fe" opacity=".65"/>
  <circle cx="198" cy="190" r="3" fill="#e0f2fe" opacity=".5"/>
  <g filter="url(#glow)"><path d="M128 48c31 24 43 68 31 107l-31 31-31-31C85 116 97 72 128 48z" fill="#38bdf8" opacity=".95"/><circle cx="128" cy="104" r="15" fill="#082f49" stroke="#e0f2fe" stroke-width="6"/><path d="M100 150l-30 32 38-8M156 150l30 32-38-8" fill="#38bdf8" opacity=".55"/><path d="M118 188l10 28 10-28" fill="#f97316"/></g>
</svg>
