<svg xmlns="http://www.w3.org/2000/svg" width="320" height="320" viewBox="0 0 320 320" role="img" aria-label="Sol: Primeira Missão">
  <defs>
    <radialGradient id="bg" cx="50%" cy="36%" r="72%">
      <stop offset="0%" stop-color="#38bdf8" stop-opacity=".42"/>
      <stop offset="45%" stop-color="#0f2a5f" stop-opacity=".88"/>
      <stop offset="100%" stop-color="#020617"/>
    </radialGradient>
    <linearGradient id="g" x1="58" y1="42" x2="262" y2="276" gradientUnits="userSpaceOnUse">
      <stop offset="0%" stop-color="#ffffff"/>
      <stop offset="42%" stop-color="#38bdf8"/>
      <stop offset="100%" stop-color="#7dd3fc"/>
    </linearGradient>
    <filter id="glow" x="-40%" y="-40%" width="180%" height="180%">
      <feGaussianBlur stdDeviation="5" result="blur"/>
      <feMerge>
        <feMergeNode in="blur"/>
        <feMergeNode in="SourceGraphic"/>
      </feMerge>
    </filter>
  </defs>
  <rect width="320" height="320" rx="52" fill="#020617"/>
  <rect x="10" y="10" width="300" height="300" rx="44" fill="url(#bg)" stroke="url(#g)" stroke-width="3"/>
  <g><circle cx="272" cy="251" r="1.5" fill="#ffffff" opacity="0.28"/><circle cx="136" cy="242" r="1.7" fill="#ffffff" opacity="0.61"/><circle cx="217" cy="186" r="1.3" fill="#ffffff" opacity="0.41"/><circle cx="207" cy="163" r="1.5" fill="#ffffff" opacity="0.49"/><circle cx="275" cy="58" r="1.5" fill="#ffffff" opacity="0.44"/><circle cx="203" cy="167" r="1.9" fill="#ffffff" opacity="0.61"/><circle cx="194" cy="225" r="1.5" fill="#ffffff" opacity="0.62"/><circle cx="180" cy="35" r="0.8" fill="#ffffff" opacity="0.77"/><circle cx="164" cy="158" r="1.6" fill="#ffffff" opacity="0.45"/><circle cx="226" cy="221" r="2.0" fill="#ffffff" opacity="0.68"/><circle cx="49" cy="90" r="2.0" fill="#ffffff" opacity="0.4"/><circle cx="44" cy="120" r="1.1" fill="#ffffff" opacity="0.4"/><circle cx="115" cy="269" r="2.1" fill="#ffffff" opacity="0.4"/><circle cx="152" cy="77" r="1.9" fill="#ffffff" opacity="0.44"/><circle cx="183" cy="135" r="0.9" fill="#ffffff" opacity="0.3"/><circle cx="26" cy="225" r="1.3" fill="#ffffff" opacity="0.45"/><circle cx="68" cy="250" r="1.1" fill="#ffffff" opacity="0.39"/><circle cx="19" cy="257" r="1.4" fill="#ffffff" opacity="0.71"/><circle cx="27" cy="246" r="1.2" fill="#ffffff" opacity="0.5"/><circle cx="181" cy="281" r="1.1" fill="#ffffff" opacity="0.58"/><circle cx="179" cy="208" r="1.6" fill="#ffffff" opacity="0.62"/><circle cx="99" cy="170" r="1.0" fill="#ffffff" opacity="0.3"/></g>
  <circle cx="160" cy="160" r="104" fill="#020617" opacity=".38"/>
  <g filter="url(#glow)"><path d="M88 218 L160 92 L232 218 Z" fill="none" stroke="url(#g)" stroke-width="7" opacity=".65"/><circle cx="160" cy="92" r="8" fill="url(#g)"/></g>
  <text x="160" y="175" text-anchor="middle" font-family="Arial, Helvetica, sans-serif" font-size="64" font-weight="800" fill="#f8fbff" filter="url(#glow)">SP</text>
  <text x="160" y="64" text-anchor="middle" font-family="Arial, Helvetica, sans-serif" font-size="36" font-weight="800" fill="#38bdf8" filter="url(#glow)">⌁</text>
  <text x="160" y="270" text-anchor="middle" font-family="Arial, Helvetica, sans-serif" font-size="13" font-weight="700" fill="#dbeafe">Dossiê de Missões</text>
</svg>