<svg xmlns="http://www.w3.org/2000/svg" width="320" height="320" viewBox="0 0 320 320" role="img" aria-label="Rota Impecável 5">
  <defs>
    <radialGradient id="bg" cx="50%" cy="36%" r="72%">
      <stop offset="0%" stop-color="#facc15" stop-opacity=".42"/>
      <stop offset="45%" stop-color="#78350f" stop-opacity=".88"/>
      <stop offset="100%" stop-color="#020617"/>
    </radialGradient>
    <linearGradient id="g" x1="58" y1="42" x2="262" y2="276" gradientUnits="userSpaceOnUse">
      <stop offset="0%" stop-color="#ffffff"/>
      <stop offset="42%" stop-color="#facc15"/>
      <stop offset="100%" stop-color="#7dd3fc"/>
    </linearGradient>
    <filter id="glow" x="-40%" y="-40%" width="180%" height="180%">
      <feGaussianBlur stdDeviation="5" result="blur"/>
      <feMerge>
        <feMergeNode in="blur"/>
        <feMergeNode in="SourceGraphic"/>
      </feMerge>
    </filter>
  </defs>
  <rect width="320" height="320" rx="52" fill="#020617"/>
  <rect x="10" y="10" width="300" height="300" rx="44" fill="url(#bg)" stroke="url(#g)" stroke-width="3"/>
  <g><circle cx="40" cy="63" r="1.4" fill="#ffffff" opacity="0.75"/><circle cx="112" cy="303" r="1.4" fill="#ffffff" opacity="0.47"/><circle cx="261" cy="219" r="0.9" fill="#ffffff" opacity="0.38"/><circle cx="82" cy="49" r="0.9" fill="#ffffff" opacity="0.32"/><circle cx="298" cy="286" r="0.8" fill="#ffffff" opacity="0.5"/><circle cx="148" cy="213" r="1.7" fill="#ffffff" opacity="0.62"/><circle cx="284" cy="221" r="1.7" fill="#ffffff" opacity="0.65"/><circle cx="233" cy="23" r="1.2" fill="#ffffff" opacity="0.28"/><circle cx="278" cy="70" r="0.9" fill="#ffffff" opacity="0.68"/><circle cx="17" cy="211" r="1.7" fill="#ffffff" opacity="0.25"/><circle cx="27" cy="202" r="0.9" fill="#ffffff" opacity="0.55"/><circle cx="231" cy="28" r="0.8" fill="#ffffff" opacity="0.58"/><circle cx="219" cy="143" r="0.9" fill="#ffffff" opacity="0.69"/><circle cx="145" cy="109" r="1.8" fill="#ffffff" opacity="0.43"/><circle cx="36" cy="156" r="1.5" fill="#ffffff" opacity="0.54"/><circle cx="92" cy="72" r="1.3" fill="#ffffff" opacity="0.25"/><circle cx="34" cy="263" r="1.9" fill="#ffffff" opacity="0.55"/><circle cx="196" cy="221" r="1.1" fill="#ffffff" opacity="0.65"/><circle cx="124" cy="43" r="2.0" fill="#ffffff" opacity="0.42"/><circle cx="187" cy="258" r="1.6" fill="#ffffff" opacity="0.66"/><circle cx="207" cy="64" r="1.5" fill="#ffffff" opacity="0.28"/><circle cx="58" cy="117" r="1.7" fill="#ffffff" opacity="0.42"/></g>
  <circle cx="160" cy="160" r="104" fill="#020617" opacity=".38"/>
  <g filter="url(#glow)"><circle cx="160" cy="160" r="78" fill="none" stroke="url(#g)" stroke-width="7" opacity=".72"/></g>
  <text x="160" y="175" text-anchor="middle" font-family="Arial, Helvetica, sans-serif" font-size="64" font-weight="800" fill="#f8fbff" filter="url(#glow)">RI</text>
  <text x="160" y="64" text-anchor="middle" font-family="Arial, Helvetica, sans-serif" font-size="36" font-weight="800" fill="#facc15" filter="url(#glow)">◆</text>
  <text x="160" y="270" text-anchor="middle" font-family="Arial, Helvetica, sans-serif" font-size="13" font-weight="700" fill="#dbeafe">Desafios Especiais</text>
</svg>