<svg xmlns="http://www.w3.org/2000/svg" width="320" height="320" viewBox="0 0 320 320" role="img" aria-label="Rota Impecável 10">
  <defs>
    <radialGradient id="bg" cx="50%" cy="36%" r="72%">
      <stop offset="0%" stop-color="#e0f2fe" stop-opacity=".42"/>
      <stop offset="45%" stop-color="#0891b2" stop-opacity=".88"/>
      <stop offset="100%" stop-color="#020617"/>
    </radialGradient>
    <linearGradient id="g" x1="58" y1="42" x2="262" y2="276" gradientUnits="userSpaceOnUse">
      <stop offset="0%" stop-color="#ffffff"/>
      <stop offset="42%" stop-color="#e0f2fe"/>
      <stop offset="100%" stop-color="#7dd3fc"/>
    </linearGradient>
    <filter id="glow" x="-40%" y="-40%" width="180%" height="180%">
      <feGaussianBlur stdDeviation="5" result="blur"/>
      <feMerge>
        <feMergeNode in="blur"/>
        <feMergeNode in="SourceGraphic"/>
      </feMerge>
    </filter>
  </defs>
  <rect width="320" height="320" rx="52" fill="#020617"/>
  <rect x="10" y="10" width="300" height="300" rx="44" fill="url(#bg)" stroke="url(#g)" stroke-width="3"/>
  <g><circle cx="44" cy="64" r="1.2" fill="#ffffff" opacity="0.62"/><circle cx="136" cy="293" r="1.6" fill="#ffffff" opacity="0.62"/><circle cx="205" cy="164" r="1.9" fill="#ffffff" opacity="0.26"/><circle cx="51" cy="271" r="1.8" fill="#ffffff" opacity="0.56"/><circle cx="222" cy="229" r="2.1" fill="#ffffff" opacity="0.66"/><circle cx="159" cy="301" r="1.6" fill="#ffffff" opacity="0.45"/><circle cx="171" cy="296" r="1.6" fill="#ffffff" opacity="0.6"/><circle cx="103" cy="27" r="1.4" fill="#ffffff" opacity="0.57"/><circle cx="208" cy="199" r="1.7" fill="#ffffff" opacity="0.49"/><circle cx="113" cy="267" r="1.4" fill="#ffffff" opacity="0.73"/><circle cx="283" cy="291" r="1.7" fill="#ffffff" opacity="0.67"/><circle cx="87" cy="238" r="1.3" fill="#ffffff" opacity="0.65"/><circle cx="134" cy="284" r="1.1" fill="#ffffff" opacity="0.72"/><circle cx="67" cy="103" r="2.1" fill="#ffffff" opacity="0.32"/><circle cx="151" cy="118" r="2.1" fill="#ffffff" opacity="0.45"/><circle cx="294" cy="164" r="0.8" fill="#ffffff" opacity="0.23"/><circle cx="272" cy="112" r="1.9" fill="#ffffff" opacity="0.65"/><circle cx="129" cy="41" r="1.2" fill="#ffffff" opacity="0.43"/><circle cx="182" cy="264" r="1.3" fill="#ffffff" opacity="0.62"/><circle cx="174" cy="281" r="1.2" fill="#ffffff" opacity="0.73"/><circle cx="213" cy="205" r="1.6" fill="#ffffff" opacity="0.4"/><circle cx="100" cy="299" r="1.8" fill="#ffffff" opacity="0.51"/></g>
  <circle cx="160" cy="160" r="104" fill="#020617" opacity=".38"/>
  <g filter="url(#glow)"><circle cx="160" cy="160" r="78" fill="none" stroke="url(#g)" stroke-width="7" opacity=".72"/></g>
  <text x="160" y="175" text-anchor="middle" font-family="Arial, Helvetica, sans-serif" font-size="64" font-weight="800" fill="#f8fbff" filter="url(#glow)">RI</text>
  <text x="160" y="64" text-anchor="middle" font-family="Arial, Helvetica, sans-serif" font-size="36" font-weight="800" fill="#e0f2fe" filter="url(#glow)">◆</text>
  <text x="160" y="270" text-anchor="middle" font-family="Arial, Helvetica, sans-serif" font-size="13" font-weight="700" fill="#dbeafe">Desafios Especiais</text>
</svg>