<svg xmlns="http://www.w3.org/2000/svg" width="320" height="320" viewBox="0 0 320 320" role="img" aria-label="Rota Impecável 3">
  <defs>
    <radialGradient id="bg" cx="50%" cy="36%" r="72%">
      <stop offset="0%" stop-color="#facc15" stop-opacity=".42"/>
      <stop offset="45%" stop-color="#78350f" stop-opacity=".88"/>
      <stop offset="100%" stop-color="#020617"/>
    </radialGradient>
    <linearGradient id="g" x1="58" y1="42" x2="262" y2="276" gradientUnits="userSpaceOnUse">
      <stop offset="0%" stop-color="#ffffff"/>
      <stop offset="42%" stop-color="#facc15"/>
      <stop offset="100%" stop-color="#7dd3fc"/>
    </linearGradient>
    <filter id="glow" x="-40%" y="-40%" width="180%" height="180%">
      <feGaussianBlur stdDeviation="5" result="blur"/>
      <feMerge>
        <feMergeNode in="blur"/>
        <feMergeNode in="SourceGraphic"/>
      </feMerge>
    </filter>
  </defs>
  <rect width="320" height="320" rx="52" fill="#020617"/>
  <rect x="10" y="10" width="300" height="300" rx="44" fill="url(#bg)" stroke="url(#g)" stroke-width="3"/>
  <g><circle cx="158" cy="25" r="1.2" fill="#ffffff" opacity="0.26"/><circle cx="46" cy="180" r="1.1" fill="#ffffff" opacity="0.4"/><circle cx="197" cy="246" r="0.9" fill="#ffffff" opacity="0.33"/><circle cx="144" cy="262" r="1.8" fill="#ffffff" opacity="0.57"/><circle cx="291" cy="83" r="1.8" fill="#ffffff" opacity="0.24"/><circle cx="273" cy="304" r="1.1" fill="#ffffff" opacity="0.77"/><circle cx="193" cy="177" r="1.3" fill="#ffffff" opacity="0.58"/><circle cx="167" cy="181" r="0.9" fill="#ffffff" opacity="0.48"/><circle cx="240" cy="96" r="1.2" fill="#ffffff" opacity="0.48"/><circle cx="292" cy="257" r="1.3" fill="#ffffff" opacity="0.5"/><circle cx="265" cy="107" r="1.5" fill="#ffffff" opacity="0.59"/><circle cx="135" cy="142" r="2.0" fill="#ffffff" opacity="0.44"/><circle cx="141" cy="122" r="2.1" fill="#ffffff" opacity="0.33"/><circle cx="197" cy="269" r="1.5" fill="#ffffff" opacity="0.26"/><circle cx="267" cy="280" r="1.2" fill="#ffffff" opacity="0.59"/><circle cx="19" cy="148" r="0.9" fill="#ffffff" opacity="0.28"/><circle cx="300" cy="184" r="2.0" fill="#ffffff" opacity="0.29"/><circle cx="48" cy="56" r="0.9" fill="#ffffff" opacity="0.77"/><circle cx="169" cy="117" r="0.8" fill="#ffffff" opacity="0.64"/><circle cx="285" cy="158" r="1.9" fill="#ffffff" opacity="0.74"/><circle cx="82" cy="210" r="0.9" fill="#ffffff" opacity="0.49"/><circle cx="225" cy="108" r="0.9" fill="#ffffff" opacity="0.63"/></g>
  <circle cx="160" cy="160" r="104" fill="#020617" opacity=".38"/>
  <g filter="url(#glow)"><circle cx="160" cy="160" r="78" fill="none" stroke="url(#g)" stroke-width="7" opacity=".72"/></g>
  <text x="160" y="175" text-anchor="middle" font-family="Arial, Helvetica, sans-serif" font-size="64" font-weight="800" fill="#f8fbff" filter="url(#glow)">RI</text>
  <text x="160" y="64" text-anchor="middle" font-family="Arial, Helvetica, sans-serif" font-size="36" font-weight="800" fill="#facc15" filter="url(#glow)">◆</text>
  <text x="160" y="270" text-anchor="middle" font-family="Arial, Helvetica, sans-serif" font-size="13" font-weight="700" fill="#dbeafe">Desafios Especiais</text>
</svg>