<svg xmlns="http://www.w3.org/2000/svg" width="320" height="320" viewBox="0 0 320 320" role="img" aria-label="Da Fornalha ao Gelo">
  <defs>
    <radialGradient id="bg" cx="50%" cy="36%" r="72%">
      <stop offset="0%" stop-color="#facc15" stop-opacity=".42"/>
      <stop offset="45%" stop-color="#78350f" stop-opacity=".88"/>
      <stop offset="100%" stop-color="#020617"/>
    </radialGradient>
    <linearGradient id="g" x1="58" y1="42" x2="262" y2="276" gradientUnits="userSpaceOnUse">
      <stop offset="0%" stop-color="#ffffff"/>
      <stop offset="42%" stop-color="#facc15"/>
      <stop offset="100%" stop-color="#7dd3fc"/>
    </linearGradient>
    <filter id="glow" x="-40%" y="-40%" width="180%" height="180%">
      <feGaussianBlur stdDeviation="5" result="blur"/>
      <feMerge>
        <feMergeNode in="blur"/>
        <feMergeNode in="SourceGraphic"/>
      </feMerge>
    </filter>
  </defs>
  <rect width="320" height="320" rx="52" fill="#020617"/>
  <rect x="10" y="10" width="300" height="300" rx="44" fill="url(#bg)" stroke="url(#g)" stroke-width="3"/>
  <g><circle cx="59" cy="114" r="1.7" fill="#ffffff" opacity="0.53"/><circle cx="206" cy="167" r="1.7" fill="#ffffff" opacity="0.6"/><circle cx="230" cy="119" r="0.9" fill="#ffffff" opacity="0.22"/><circle cx="216" cy="245" r="1.3" fill="#ffffff" opacity="0.38"/><circle cx="166" cy="121" r="1.3" fill="#ffffff" opacity="0.28"/><circle cx="286" cy="220" r="2.1" fill="#ffffff" opacity="0.48"/><circle cx="80" cy="260" r="1.4" fill="#ffffff" opacity="0.26"/><circle cx="126" cy="128" r="1.6" fill="#ffffff" opacity="0.77"/><circle cx="258" cy="153" r="1.0" fill="#ffffff" opacity="0.44"/><circle cx="218" cy="76" r="1.2" fill="#ffffff" opacity="0.69"/><circle cx="227" cy="59" r="1.5" fill="#ffffff" opacity="0.4"/><circle cx="48" cy="182" r="1.4" fill="#ffffff" opacity="0.5"/><circle cx="48" cy="264" r="1.0" fill="#ffffff" opacity="0.71"/><circle cx="236" cy="105" r="1.5" fill="#ffffff" opacity="0.68"/><circle cx="87" cy="64" r="1.0" fill="#ffffff" opacity="0.77"/><circle cx="252" cy="61" r="0.9" fill="#ffffff" opacity="0.34"/><circle cx="89" cy="103" r="2.1" fill="#ffffff" opacity="0.43"/><circle cx="179" cy="212" r="1.4" fill="#ffffff" opacity="0.69"/><circle cx="206" cy="121" r="0.8" fill="#ffffff" opacity="0.37"/><circle cx="77" cy="69" r="1.5" fill="#ffffff" opacity="0.6"/><circle cx="130" cy="105" r="1.5" fill="#ffffff" opacity="0.3"/><circle cx="63" cy="222" r="1.5" fill="#ffffff" opacity="0.35"/></g>
  <circle cx="160" cy="160" r="104" fill="#020617" opacity=".38"/>
  <g filter="url(#glow)"><ellipse cx="160" cy="164" rx="82" ry="24" fill="none" stroke="url(#g)" stroke-width="7" opacity=".75" transform="rotate(-18 160 164)"/></g>
  <text x="160" y="175" text-anchor="middle" font-family="Arial, Helvetica, sans-serif" font-size="64" font-weight="800" fill="#f8fbff" filter="url(#glow)">FA</text>
  <text x="160" y="64" text-anchor="middle" font-family="Arial, Helvetica, sans-serif" font-size="36" font-weight="800" fill="#facc15" filter="url(#glow)">◉</text>
  <text x="160" y="270" text-anchor="middle" font-family="Arial, Helvetica, sans-serif" font-size="13" font-weight="700" fill="#dbeafe">Exploração Planetária</text>
</svg>