<svg xmlns="http://www.w3.org/2000/svg" width="320" height="320" viewBox="0 0 320 320" role="img" aria-label="Saturno: Especialista 5x">
  <defs>
    <radialGradient id="bg" cx="50%" cy="36%" r="72%">
      <stop offset="0%" stop-color="#a78bfa" stop-opacity=".42"/>
      <stop offset="45%" stop-color="#312e81" stop-opacity=".88"/>
      <stop offset="100%" stop-color="#020617"/>
    </radialGradient>
    <linearGradient id="g" x1="58" y1="42" x2="262" y2="276" gradientUnits="userSpaceOnUse">
      <stop offset="0%" stop-color="#ffffff"/>
      <stop offset="42%" stop-color="#a78bfa"/>
      <stop offset="100%" stop-color="#7dd3fc"/>
    </linearGradient>
    <filter id="glow" x="-40%" y="-40%" width="180%" height="180%">
      <feGaussianBlur stdDeviation="5" result="blur"/>
      <feMerge>
        <feMergeNode in="blur"/>
        <feMergeNode in="SourceGraphic"/>
      </feMerge>
    </filter>
  </defs>
  <rect width="320" height="320" rx="52" fill="#020617"/>
  <rect x="10" y="10" width="300" height="300" rx="44" fill="url(#bg)" stroke="url(#g)" stroke-width="3"/>
  <g><circle cx="217" cy="108" r="1.8" fill="#ffffff" opacity="0.72"/><circle cx="163" cy="210" r="0.9" fill="#ffffff" opacity="0.67"/><circle cx="147" cy="149" r="1.7" fill="#ffffff" opacity="0.7"/><circle cx="54" cy="160" r="1.8" fill="#ffffff" opacity="0.73"/><circle cx="252" cy="45" r="1.8" fill="#ffffff" opacity="0.4"/><circle cx="247" cy="76" r="0.8" fill="#ffffff" opacity="0.57"/><circle cx="26" cy="269" r="1.9" fill="#ffffff" opacity="0.51"/><circle cx="198" cy="223" r="1.8" fill="#ffffff" opacity="0.38"/><circle cx="86" cy="74" r="1.7" fill="#ffffff" opacity="0.68"/><circle cx="171" cy="31" r="0.9" fill="#ffffff" opacity="0.49"/><circle cx="155" cy="86" r="1.3" fill="#ffffff" opacity="0.61"/><circle cx="207" cy="167" r="1.2" fill="#ffffff" opacity="0.24"/><circle cx="212" cy="179" r="1.2" fill="#ffffff" opacity="0.51"/><circle cx="142" cy="167" r="0.8" fill="#ffffff" opacity="0.3"/><circle cx="113" cy="30" r="1.8" fill="#ffffff" opacity="0.39"/><circle cx="72" cy="276" r="2.0" fill="#ffffff" opacity="0.61"/><circle cx="179" cy="49" r="1.4" fill="#ffffff" opacity="0.37"/><circle cx="40" cy="98" r="1.0" fill="#ffffff" opacity="0.45"/><circle cx="137" cy="75" r="1.0" fill="#ffffff" opacity="0.48"/><circle cx="203" cy="144" r="2.1" fill="#ffffff" opacity="0.73"/><circle cx="243" cy="58" r="1.4" fill="#ffffff" opacity="0.67"/><circle cx="198" cy="288" r="1.3" fill="#ffffff" opacity="0.44"/></g>
  <circle cx="160" cy="160" r="104" fill="#020617" opacity=".38"/>
  <g filter="url(#glow)"><ellipse cx="160" cy="164" rx="82" ry="24" fill="none" stroke="url(#g)" stroke-width="7" opacity=".75" transform="rotate(-18 160 164)"/></g>
  <text x="160" y="175" text-anchor="middle" font-family="Arial, Helvetica, sans-serif" font-size="64" font-weight="800" fill="#f8fbff" filter="url(#glow)">SE</text>
  <text x="160" y="64" text-anchor="middle" font-family="Arial, Helvetica, sans-serif" font-size="36" font-weight="800" fill="#a78bfa" filter="url(#glow)">◉</text>
  <text x="160" y="270" text-anchor="middle" font-family="Arial, Helvetica, sans-serif" font-size="13" font-weight="700" fill="#dbeafe">Exploração Planetária</text>
</svg>