<svg xmlns="http://www.w3.org/2000/svg" width="320" height="320" viewBox="0 0 320 320" role="img" aria-label="Saturno: Visitante 3x">
  <defs>
    <radialGradient id="bg" cx="50%" cy="36%" r="72%">
      <stop offset="0%" stop-color="#34d399" stop-opacity=".42"/>
      <stop offset="45%" stop-color="#064e3b" stop-opacity=".88"/>
      <stop offset="100%" stop-color="#020617"/>
    </radialGradient>
    <linearGradient id="g" x1="58" y1="42" x2="262" y2="276" gradientUnits="userSpaceOnUse">
      <stop offset="0%" stop-color="#ffffff"/>
      <stop offset="42%" stop-color="#34d399"/>
      <stop offset="100%" stop-color="#7dd3fc"/>
    </linearGradient>
    <filter id="glow" x="-40%" y="-40%" width="180%" height="180%">
      <feGaussianBlur stdDeviation="5" result="blur"/>
      <feMerge>
        <feMergeNode in="blur"/>
        <feMergeNode in="SourceGraphic"/>
      </feMerge>
    </filter>
  </defs>
  <rect width="320" height="320" rx="52" fill="#020617"/>
  <rect x="10" y="10" width="300" height="300" rx="44" fill="url(#bg)" stroke="url(#g)" stroke-width="3"/>
  <g><circle cx="304" cy="133" r="1.9" fill="#ffffff" opacity="0.44"/><circle cx="140" cy="130" r="0.8" fill="#ffffff" opacity="0.66"/><circle cx="119" cy="26" r="1.6" fill="#ffffff" opacity="0.27"/><circle cx="70" cy="50" r="1.8" fill="#ffffff" opacity="0.37"/><circle cx="103" cy="301" r="1.4" fill="#ffffff" opacity="0.64"/><circle cx="292" cy="62" r="1.0" fill="#ffffff" opacity="0.48"/><circle cx="140" cy="235" r="1.5" fill="#ffffff" opacity="0.49"/><circle cx="183" cy="98" r="0.9" fill="#ffffff" opacity="0.56"/><circle cx="129" cy="200" r="0.9" fill="#ffffff" opacity="0.53"/><circle cx="36" cy="232" r="1.6" fill="#ffffff" opacity="0.22"/><circle cx="29" cy="182" r="1.4" fill="#ffffff" opacity="0.54"/><circle cx="93" cy="144" r="1.7" fill="#ffffff" opacity="0.29"/><circle cx="55" cy="289" r="1.5" fill="#ffffff" opacity="0.51"/><circle cx="229" cy="62" r="1.8" fill="#ffffff" opacity="0.24"/><circle cx="121" cy="163" r="2.1" fill="#ffffff" opacity="0.44"/><circle cx="50" cy="192" r="1.0" fill="#ffffff" opacity="0.53"/><circle cx="78" cy="145" r="0.9" fill="#ffffff" opacity="0.66"/><circle cx="109" cy="204" r="1.4" fill="#ffffff" opacity="0.26"/><circle cx="243" cy="238" r="1.6" fill="#ffffff" opacity="0.26"/><circle cx="179" cy="134" r="0.9" fill="#ffffff" opacity="0.76"/><circle cx="136" cy="67" r="1.6" fill="#ffffff" opacity="0.32"/><circle cx="128" cy="302" r="1.2" fill="#ffffff" opacity="0.48"/></g>
  <circle cx="160" cy="160" r="104" fill="#020617" opacity=".38"/>
  <g filter="url(#glow)"><ellipse cx="160" cy="164" rx="82" ry="24" fill="none" stroke="url(#g)" stroke-width="7" opacity=".75" transform="rotate(-18 160 164)"/></g>
  <text x="160" y="175" text-anchor="middle" font-family="Arial, Helvetica, sans-serif" font-size="64" font-weight="800" fill="#f8fbff" filter="url(#glow)">SV</text>
  <text x="160" y="64" text-anchor="middle" font-family="Arial, Helvetica, sans-serif" font-size="36" font-weight="800" fill="#34d399" filter="url(#glow)">◉</text>
  <text x="160" y="270" text-anchor="middle" font-family="Arial, Helvetica, sans-serif" font-size="13" font-weight="700" fill="#dbeafe">Exploração Planetária</text>
</svg>