<svg xmlns="http://www.w3.org/2000/svg" width="320" height="320" viewBox="0 0 320 320" role="img" aria-label="Senhor do Painel">
  <defs>
    <radialGradient id="bg" cx="50%" cy="36%" r="72%">
      <stop offset="0%" stop-color="#e0f2fe" stop-opacity=".42"/>
      <stop offset="45%" stop-color="#0891b2" stop-opacity=".88"/>
      <stop offset="100%" stop-color="#020617"/>
    </radialGradient>
    <linearGradient id="g" x1="58" y1="42" x2="262" y2="276" gradientUnits="userSpaceOnUse">
      <stop offset="0%" stop-color="#ffffff"/>
      <stop offset="42%" stop-color="#e0f2fe"/>
      <stop offset="100%" stop-color="#7dd3fc"/>
    </linearGradient>
    <filter id="glow" x="-40%" y="-40%" width="180%" height="180%">
      <feGaussianBlur stdDeviation="5" result="blur"/>
      <feMerge>
        <feMergeNode in="blur"/>
        <feMergeNode in="SourceGraphic"/>
      </feMerge>
    </filter>
  </defs>
  <rect width="320" height="320" rx="52" fill="#020617"/>
  <rect x="10" y="10" width="300" height="300" rx="44" fill="url(#bg)" stroke="url(#g)" stroke-width="3"/>
  <g><circle cx="106" cy="242" r="1.2" fill="#ffffff" opacity="0.77"/><circle cx="163" cy="53" r="2.0" fill="#ffffff" opacity="0.39"/><circle cx="167" cy="217" r="1.9" fill="#ffffff" opacity="0.33"/><circle cx="22" cy="184" r="1.5" fill="#ffffff" opacity="0.35"/><circle cx="278" cy="79" r="1.4" fill="#ffffff" opacity="0.53"/><circle cx="44" cy="173" r="1.7" fill="#ffffff" opacity="0.69"/><circle cx="47" cy="214" r="1.0" fill="#ffffff" opacity="0.45"/><circle cx="174" cy="120" r="1.7" fill="#ffffff" opacity="0.4"/><circle cx="202" cy="199" r="1.3" fill="#ffffff" opacity="0.67"/><circle cx="202" cy="122" r="1.8" fill="#ffffff" opacity="0.36"/><circle cx="165" cy="129" r="0.8" fill="#ffffff" opacity="0.73"/><circle cx="61" cy="92" r="1.8" fill="#ffffff" opacity="0.53"/><circle cx="170" cy="41" r="2.1" fill="#ffffff" opacity="0.26"/><circle cx="187" cy="301" r="0.9" fill="#ffffff" opacity="0.74"/><circle cx="301" cy="226" r="1.5" fill="#ffffff" opacity="0.24"/><circle cx="95" cy="244" r="1.6" fill="#ffffff" opacity="0.25"/><circle cx="170" cy="75" r="2.0" fill="#ffffff" opacity="0.68"/><circle cx="232" cy="198" r="1.4" fill="#ffffff" opacity="0.37"/><circle cx="271" cy="222" r="1.6" fill="#ffffff" opacity="0.58"/><circle cx="179" cy="139" r="1.1" fill="#ffffff" opacity="0.65"/><circle cx="105" cy="119" r="1.0" fill="#ffffff" opacity="0.54"/><circle cx="238" cy="192" r="1.2" fill="#ffffff" opacity="0.62"/></g>
  <circle cx="160" cy="160" r="104" fill="#020617" opacity=".38"/>
  <g filter="url(#glow)"><circle cx="160" cy="160" r="78" fill="none" stroke="url(#g)" stroke-width="7" opacity=".72"/></g>
  <text x="160" y="175" text-anchor="middle" font-family="Arial, Helvetica, sans-serif" font-size="64" font-weight="800" fill="#f8fbff" filter="url(#glow)">SP</text>
  <text x="160" y="64" text-anchor="middle" font-family="Arial, Helvetica, sans-serif" font-size="36" font-weight="800" fill="#e0f2fe" filter="url(#glow)">◆</text>
  <text x="160" y="270" text-anchor="middle" font-family="Arial, Helvetica, sans-serif" font-size="13" font-weight="700" fill="#dbeafe">Desafios Especiais</text>
</svg>