<svg xmlns="http://www.w3.org/2000/svg" width="320" height="320" viewBox="0 0 320 320" role="img" aria-label="Terra: Visitante 3x">
  <defs>
    <radialGradient id="bg" cx="50%" cy="36%" r="72%">
      <stop offset="0%" stop-color="#34d399" stop-opacity=".42"/>
      <stop offset="45%" stop-color="#064e3b" stop-opacity=".88"/>
      <stop offset="100%" stop-color="#020617"/>
    </radialGradient>
    <linearGradient id="g" x1="58" y1="42" x2="262" y2="276" gradientUnits="userSpaceOnUse">
      <stop offset="0%" stop-color="#ffffff"/>
      <stop offset="42%" stop-color="#34d399"/>
      <stop offset="100%" stop-color="#7dd3fc"/>
    </linearGradient>
    <filter id="glow" x="-40%" y="-40%" width="180%" height="180%">
      <feGaussianBlur stdDeviation="5" result="blur"/>
      <feMerge>
        <feMergeNode in="blur"/>
        <feMergeNode in="SourceGraphic"/>
      </feMerge>
    </filter>
  </defs>
  <rect width="320" height="320" rx="52" fill="#020617"/>
  <rect x="10" y="10" width="300" height="300" rx="44" fill="url(#bg)" stroke="url(#g)" stroke-width="3"/>
  <g><circle cx="269" cy="54" r="2.1" fill="#ffffff" opacity="0.22"/><circle cx="238" cy="105" r="1.6" fill="#ffffff" opacity="0.48"/><circle cx="135" cy="65" r="1.6" fill="#ffffff" opacity="0.75"/><circle cx="235" cy="132" r="1.7" fill="#ffffff" opacity="0.7"/><circle cx="21" cy="180" r="1.1" fill="#ffffff" opacity="0.37"/><circle cx="169" cy="219" r="1.0" fill="#ffffff" opacity="0.25"/><circle cx="248" cy="40" r="1.6" fill="#ffffff" opacity="0.6"/><circle cx="294" cy="265" r="0.9" fill="#ffffff" opacity="0.26"/><circle cx="240" cy="32" r="1.6" fill="#ffffff" opacity="0.49"/><circle cx="287" cy="84" r="0.9" fill="#ffffff" opacity="0.43"/><circle cx="292" cy="242" r="1.3" fill="#ffffff" opacity="0.37"/><circle cx="32" cy="277" r="1.9" fill="#ffffff" opacity="0.27"/><circle cx="180" cy="65" r="0.9" fill="#ffffff" opacity="0.73"/><circle cx="219" cy="295" r="1.5" fill="#ffffff" opacity="0.33"/><circle cx="214" cy="111" r="1.3" fill="#ffffff" opacity="0.65"/><circle cx="18" cy="50" r="1.8" fill="#ffffff" opacity="0.34"/><circle cx="171" cy="92" r="1.5" fill="#ffffff" opacity="0.54"/><circle cx="187" cy="201" r="1.4" fill="#ffffff" opacity="0.46"/><circle cx="197" cy="78" r="0.9" fill="#ffffff" opacity="0.51"/><circle cx="140" cy="168" r="2.0" fill="#ffffff" opacity="0.61"/><circle cx="208" cy="270" r="2.0" fill="#ffffff" opacity="0.37"/><circle cx="145" cy="42" r="0.8" fill="#ffffff" opacity="0.61"/></g>
  <circle cx="160" cy="160" r="104" fill="#020617" opacity=".38"/>
  <g filter="url(#glow)"><ellipse cx="160" cy="164" rx="82" ry="24" fill="none" stroke="url(#g)" stroke-width="7" opacity=".75" transform="rotate(-18 160 164)"/></g>
  <text x="160" y="175" text-anchor="middle" font-family="Arial, Helvetica, sans-serif" font-size="64" font-weight="800" fill="#f8fbff" filter="url(#glow)">TV</text>
  <text x="160" y="64" text-anchor="middle" font-family="Arial, Helvetica, sans-serif" font-size="36" font-weight="800" fill="#34d399" filter="url(#glow)">◉</text>
  <text x="160" y="270" text-anchor="middle" font-family="Arial, Helvetica, sans-serif" font-size="13" font-weight="700" fill="#dbeafe">Exploração Planetária</text>
</svg>