<svg xmlns="http://www.w3.org/2000/svg" width="320" height="320" viewBox="0 0 320 320" role="img" aria-label="Vizinhos da Vida">
  <defs>
    <radialGradient id="bg" cx="50%" cy="36%" r="72%">
      <stop offset="0%" stop-color="#34d399" stop-opacity=".42"/>
      <stop offset="45%" stop-color="#064e3b" stop-opacity=".88"/>
      <stop offset="100%" stop-color="#020617"/>
    </radialGradient>
    <linearGradient id="g" x1="58" y1="42" x2="262" y2="276" gradientUnits="userSpaceOnUse">
      <stop offset="0%" stop-color="#ffffff"/>
      <stop offset="42%" stop-color="#34d399"/>
      <stop offset="100%" stop-color="#7dd3fc"/>
    </linearGradient>
    <filter id="glow" x="-40%" y="-40%" width="180%" height="180%">
      <feGaussianBlur stdDeviation="5" result="blur"/>
      <feMerge>
        <feMergeNode in="blur"/>
        <feMergeNode in="SourceGraphic"/>
      </feMerge>
    </filter>
  </defs>
  <rect width="320" height="320" rx="52" fill="#020617"/>
  <rect x="10" y="10" width="300" height="300" rx="44" fill="url(#bg)" stroke="url(#g)" stroke-width="3"/>
  <g><circle cx="234" cy="295" r="1.9" fill="#ffffff" opacity="0.44"/><circle cx="241" cy="167" r="2.0" fill="#ffffff" opacity="0.23"/><circle cx="297" cy="20" r="1.7" fill="#ffffff" opacity="0.61"/><circle cx="35" cy="229" r="0.9" fill="#ffffff" opacity="0.36"/><circle cx="17" cy="193" r="1.0" fill="#ffffff" opacity="0.69"/><circle cx="154" cy="253" r="1.2" fill="#ffffff" opacity="0.48"/><circle cx="46" cy="140" r="1.1" fill="#ffffff" opacity="0.54"/><circle cx="181" cy="87" r="1.5" fill="#ffffff" opacity="0.7"/><circle cx="101" cy="252" r="1.7" fill="#ffffff" opacity="0.31"/><circle cx="104" cy="275" r="1.7" fill="#ffffff" opacity="0.3"/><circle cx="104" cy="22" r="1.0" fill="#ffffff" opacity="0.46"/><circle cx="92" cy="242" r="1.7" fill="#ffffff" opacity="0.41"/><circle cx="115" cy="20" r="1.6" fill="#ffffff" opacity="0.3"/><circle cx="81" cy="42" r="1.0" fill="#ffffff" opacity="0.28"/><circle cx="294" cy="156" r="1.3" fill="#ffffff" opacity="0.24"/><circle cx="272" cy="59" r="0.9" fill="#ffffff" opacity="0.48"/><circle cx="29" cy="16" r="2.0" fill="#ffffff" opacity="0.76"/><circle cx="119" cy="114" r="1.1" fill="#ffffff" opacity="0.55"/><circle cx="147" cy="159" r="1.4" fill="#ffffff" opacity="0.41"/><circle cx="100" cy="113" r="1.8" fill="#ffffff" opacity="0.62"/><circle cx="34" cy="56" r="1.7" fill="#ffffff" opacity="0.62"/><circle cx="124" cy="134" r="2.1" fill="#ffffff" opacity="0.54"/></g>
  <circle cx="160" cy="160" r="104" fill="#020617" opacity=".38"/>
  <g filter="url(#glow)"><ellipse cx="160" cy="164" rx="82" ry="24" fill="none" stroke="url(#g)" stroke-width="7" opacity=".75" transform="rotate(-18 160 164)"/></g>
  <text x="160" y="175" text-anchor="middle" font-family="Arial, Helvetica, sans-serif" font-size="64" font-weight="800" fill="#f8fbff" filter="url(#glow)">VV</text>
  <text x="160" y="64" text-anchor="middle" font-family="Arial, Helvetica, sans-serif" font-size="36" font-weight="800" fill="#34d399" filter="url(#glow)">◉</text>
  <text x="160" y="270" text-anchor="middle" font-family="Arial, Helvetica, sans-serif" font-size="13" font-weight="700" fill="#dbeafe">Exploração Planetária</text>
</svg>