<svg xmlns="http://www.w3.org/2000/svg" width="320" height="320" viewBox="0 0 320 320" role="img" aria-label="Tripulante Identificado">
  <defs>
    <radialGradient id="bg" cx="50%" cy="36%" r="72%">
      <stop offset="0%" stop-color="#34d399" stop-opacity=".42"/>
      <stop offset="45%" stop-color="#064e3b" stop-opacity=".88"/>
      <stop offset="100%" stop-color="#020617"/>
    </radialGradient>
    <linearGradient id="g" x1="58" y1="42" x2="262" y2="276" gradientUnits="userSpaceOnUse">
      <stop offset="0%" stop-color="#ffffff"/>
      <stop offset="42%" stop-color="#34d399"/>
      <stop offset="100%" stop-color="#7dd3fc"/>
    </linearGradient>
    <filter id="glow" x="-40%" y="-40%" width="180%" height="180%">
      <feGaussianBlur stdDeviation="5" result="blur"/>
      <feMerge>
        <feMergeNode in="blur"/>
        <feMergeNode in="SourceGraphic"/>
      </feMerge>
    </filter>
  </defs>
  <rect width="320" height="320" rx="52" fill="#020617"/>
  <rect x="10" y="10" width="300" height="300" rx="44" fill="url(#bg)" stroke="url(#g)" stroke-width="3"/>
  <g><circle cx="200" cy="277" r="1.9" fill="#ffffff" opacity="0.26"/><circle cx="206" cy="104" r="1.5" fill="#ffffff" opacity="0.78"/><circle cx="57" cy="54" r="0.9" fill="#ffffff" opacity="0.33"/><circle cx="175" cy="112" r="1.5" fill="#ffffff" opacity="0.59"/><circle cx="155" cy="200" r="1.3" fill="#ffffff" opacity="0.72"/><circle cx="53" cy="122" r="0.9" fill="#ffffff" opacity="0.69"/><circle cx="94" cy="204" r="1.0" fill="#ffffff" opacity="0.7"/><circle cx="269" cy="92" r="2.1" fill="#ffffff" opacity="0.23"/><circle cx="69" cy="104" r="1.2" fill="#ffffff" opacity="0.28"/><circle cx="214" cy="291" r="1.0" fill="#ffffff" opacity="0.55"/><circle cx="254" cy="154" r="1.0" fill="#ffffff" opacity="0.58"/><circle cx="183" cy="167" r="1.6" fill="#ffffff" opacity="0.23"/><circle cx="217" cy="217" r="1.5" fill="#ffffff" opacity="0.28"/><circle cx="300" cy="277" r="1.9" fill="#ffffff" opacity="0.56"/><circle cx="278" cy="166" r="1.7" fill="#ffffff" opacity="0.36"/><circle cx="275" cy="45" r="1.9" fill="#ffffff" opacity="0.44"/><circle cx="65" cy="221" r="1.9" fill="#ffffff" opacity="0.56"/><circle cx="225" cy="139" r="2.0" fill="#ffffff" opacity="0.65"/><circle cx="301" cy="249" r="1.3" fill="#ffffff" opacity="0.54"/><circle cx="166" cy="268" r="1.7" fill="#ffffff" opacity="0.53"/><circle cx="65" cy="304" r="1.5" fill="#ffffff" opacity="0.48"/><circle cx="78" cy="303" r="1.6" fill="#ffffff" opacity="0.45"/></g>
  <circle cx="160" cy="160" r="104" fill="#020617" opacity=".38"/>
  <g filter="url(#glow)"><circle cx="160" cy="160" r="78" fill="none" stroke="url(#g)" stroke-width="7" opacity=".72"/></g>
  <text x="160" y="175" text-anchor="middle" font-family="Arial, Helvetica, sans-serif" font-size="64" font-weight="800" fill="#f8fbff" filter="url(#glow)">TI</text>
  <text x="160" y="64" text-anchor="middle" font-family="Arial, Helvetica, sans-serif" font-size="36" font-weight="800" fill="#34d399" filter="url(#glow)">✦</text>
  <text x="160" y="270" text-anchor="middle" font-family="Arial, Helvetica, sans-serif" font-size="13" font-weight="700" fill="#dbeafe">Primeiros Passos</text>
</svg>