<svg xmlns="http://www.w3.org/2000/svg" width="320" height="320" viewBox="0 0 320 320" role="img" aria-label="Turista Espacial">
  <defs>
    <radialGradient id="bg" cx="50%" cy="36%" r="72%">
      <stop offset="0%" stop-color="#34d399" stop-opacity=".42"/>
      <stop offset="45%" stop-color="#064e3b" stop-opacity=".88"/>
      <stop offset="100%" stop-color="#020617"/>
    </radialGradient>
    <linearGradient id="g" x1="58" y1="42" x2="262" y2="276" gradientUnits="userSpaceOnUse">
      <stop offset="0%" stop-color="#ffffff"/>
      <stop offset="42%" stop-color="#34d399"/>
      <stop offset="100%" stop-color="#7dd3fc"/>
    </linearGradient>
    <filter id="glow" x="-40%" y="-40%" width="180%" height="180%">
      <feGaussianBlur stdDeviation="5" result="blur"/>
      <feMerge>
        <feMergeNode in="blur"/>
        <feMergeNode in="SourceGraphic"/>
      </feMerge>
    </filter>
  </defs>
  <rect width="320" height="320" rx="52" fill="#020617"/>
  <rect x="10" y="10" width="300" height="300" rx="44" fill="url(#bg)" stroke="url(#g)" stroke-width="3"/>
  <g><circle cx="183" cy="286" r="2.1" fill="#ffffff" opacity="0.27"/><circle cx="77" cy="236" r="1.1" fill="#ffffff" opacity="0.75"/><circle cx="157" cy="110" r="0.9" fill="#ffffff" opacity="0.49"/><circle cx="109" cy="219" r="1.9" fill="#ffffff" opacity="0.64"/><circle cx="23" cy="286" r="1.4" fill="#ffffff" opacity="0.28"/><circle cx="70" cy="131" r="0.8" fill="#ffffff" opacity="0.36"/><circle cx="198" cy="189" r="1.0" fill="#ffffff" opacity="0.28"/><circle cx="73" cy="55" r="1.3" fill="#ffffff" opacity="0.53"/><circle cx="287" cy="279" r="2.0" fill="#ffffff" opacity="0.58"/><circle cx="164" cy="68" r="2.0" fill="#ffffff" opacity="0.64"/><circle cx="159" cy="243" r="1.2" fill="#ffffff" opacity="0.45"/><circle cx="237" cy="73" r="1.4" fill="#ffffff" opacity="0.7"/><circle cx="236" cy="156" r="1.5" fill="#ffffff" opacity="0.56"/><circle cx="123" cy="225" r="2.1" fill="#ffffff" opacity="0.29"/><circle cx="86" cy="32" r="1.8" fill="#ffffff" opacity="0.46"/><circle cx="200" cy="248" r="1.0" fill="#ffffff" opacity="0.39"/><circle cx="215" cy="142" r="1.8" fill="#ffffff" opacity="0.35"/><circle cx="294" cy="71" r="2.0" fill="#ffffff" opacity="0.26"/><circle cx="179" cy="61" r="1.8" fill="#ffffff" opacity="0.29"/><circle cx="121" cy="291" r="1.1" fill="#ffffff" opacity="0.38"/><circle cx="283" cy="208" r="1.9" fill="#ffffff" opacity="0.31"/><circle cx="209" cy="287" r="1.0" fill="#ffffff" opacity="0.69"/></g>
  <circle cx="160" cy="160" r="104" fill="#020617" opacity=".38"/>
  <g filter="url(#glow)"><ellipse cx="160" cy="164" rx="82" ry="24" fill="none" stroke="url(#g)" stroke-width="7" opacity=".75" transform="rotate(-18 160 164)"/></g>
  <text x="160" y="175" text-anchor="middle" font-family="Arial, Helvetica, sans-serif" font-size="64" font-weight="800" fill="#f8fbff" filter="url(#glow)">TE</text>
  <text x="160" y="64" text-anchor="middle" font-family="Arial, Helvetica, sans-serif" font-size="36" font-weight="800" fill="#34d399" filter="url(#glow)">◉</text>
  <text x="160" y="270" text-anchor="middle" font-family="Arial, Helvetica, sans-serif" font-size="13" font-weight="700" fill="#dbeafe">Exploração Planetária</text>
</svg>