<svg xmlns="http://www.w3.org/2000/svg" width="320" height="320" viewBox="0 0 320 320" role="img" aria-label="Urano: Especialista 5x">
  <defs>
    <radialGradient id="bg" cx="50%" cy="36%" r="72%">
      <stop offset="0%" stop-color="#a78bfa" stop-opacity=".42"/>
      <stop offset="45%" stop-color="#312e81" stop-opacity=".88"/>
      <stop offset="100%" stop-color="#020617"/>
    </radialGradient>
    <linearGradient id="g" x1="58" y1="42" x2="262" y2="276" gradientUnits="userSpaceOnUse">
      <stop offset="0%" stop-color="#ffffff"/>
      <stop offset="42%" stop-color="#a78bfa"/>
      <stop offset="100%" stop-color="#7dd3fc"/>
    </linearGradient>
    <filter id="glow" x="-40%" y="-40%" width="180%" height="180%">
      <feGaussianBlur stdDeviation="5" result="blur"/>
      <feMerge>
        <feMergeNode in="blur"/>
        <feMergeNode in="SourceGraphic"/>
      </feMerge>
    </filter>
  </defs>
  <rect width="320" height="320" rx="52" fill="#020617"/>
  <rect x="10" y="10" width="300" height="300" rx="44" fill="url(#bg)" stroke="url(#g)" stroke-width="3"/>
  <g><circle cx="77" cy="198" r="1.3" fill="#ffffff" opacity="0.41"/><circle cx="130" cy="235" r="1.5" fill="#ffffff" opacity="0.77"/><circle cx="299" cy="221" r="1.5" fill="#ffffff" opacity="0.25"/><circle cx="99" cy="45" r="1.1" fill="#ffffff" opacity="0.62"/><circle cx="223" cy="127" r="0.9" fill="#ffffff" opacity="0.76"/><circle cx="190" cy="149" r="1.3" fill="#ffffff" opacity="0.51"/><circle cx="301" cy="36" r="2.1" fill="#ffffff" opacity="0.38"/><circle cx="234" cy="142" r="0.8" fill="#ffffff" opacity="0.62"/><circle cx="133" cy="28" r="1.2" fill="#ffffff" opacity="0.58"/><circle cx="196" cy="41" r="1.7" fill="#ffffff" opacity="0.3"/><circle cx="286" cy="259" r="1.6" fill="#ffffff" opacity="0.45"/><circle cx="232" cy="205" r="1.9" fill="#ffffff" opacity="0.62"/><circle cx="198" cy="182" r="1.1" fill="#ffffff" opacity="0.75"/><circle cx="250" cy="80" r="2.1" fill="#ffffff" opacity="0.47"/><circle cx="50" cy="257" r="1.8" fill="#ffffff" opacity="0.68"/><circle cx="243" cy="258" r="1.0" fill="#ffffff" opacity="0.72"/><circle cx="278" cy="256" r="1.1" fill="#ffffff" opacity="0.48"/><circle cx="177" cy="18" r="1.8" fill="#ffffff" opacity="0.32"/><circle cx="83" cy="241" r="1.1" fill="#ffffff" opacity="0.29"/><circle cx="154" cy="141" r="2.0" fill="#ffffff" opacity="0.3"/><circle cx="190" cy="242" r="1.4" fill="#ffffff" opacity="0.76"/><circle cx="133" cy="216" r="0.9" fill="#ffffff" opacity="0.73"/></g>
  <circle cx="160" cy="160" r="104" fill="#020617" opacity=".38"/>
  <g filter="url(#glow)"><ellipse cx="160" cy="164" rx="82" ry="24" fill="none" stroke="url(#g)" stroke-width="7" opacity=".75" transform="rotate(-18 160 164)"/></g>
  <text x="160" y="175" text-anchor="middle" font-family="Arial, Helvetica, sans-serif" font-size="64" font-weight="800" fill="#f8fbff" filter="url(#glow)">UE</text>
  <text x="160" y="64" text-anchor="middle" font-family="Arial, Helvetica, sans-serif" font-size="36" font-weight="800" fill="#a78bfa" filter="url(#glow)">◉</text>
  <text x="160" y="270" text-anchor="middle" font-family="Arial, Helvetica, sans-serif" font-size="13" font-weight="700" fill="#dbeafe">Exploração Planetária</text>
</svg>