<svg xmlns="http://www.w3.org/2000/svg" width="320" height="320" viewBox="0 0 320 320" role="img" aria-label="Urano: Visitante 3x">
  <defs>
    <radialGradient id="bg" cx="50%" cy="36%" r="72%">
      <stop offset="0%" stop-color="#34d399" stop-opacity=".42"/>
      <stop offset="45%" stop-color="#064e3b" stop-opacity=".88"/>
      <stop offset="100%" stop-color="#020617"/>
    </radialGradient>
    <linearGradient id="g" x1="58" y1="42" x2="262" y2="276" gradientUnits="userSpaceOnUse">
      <stop offset="0%" stop-color="#ffffff"/>
      <stop offset="42%" stop-color="#34d399"/>
      <stop offset="100%" stop-color="#7dd3fc"/>
    </linearGradient>
    <filter id="glow" x="-40%" y="-40%" width="180%" height="180%">
      <feGaussianBlur stdDeviation="5" result="blur"/>
      <feMerge>
        <feMergeNode in="blur"/>
        <feMergeNode in="SourceGraphic"/>
      </feMerge>
    </filter>
  </defs>
  <rect width="320" height="320" rx="52" fill="#020617"/>
  <rect x="10" y="10" width="300" height="300" rx="44" fill="url(#bg)" stroke="url(#g)" stroke-width="3"/>
  <g><circle cx="106" cy="243" r="1.2" fill="#ffffff" opacity="0.45"/><circle cx="55" cy="171" r="2.1" fill="#ffffff" opacity="0.68"/><circle cx="26" cy="217" r="1.0" fill="#ffffff" opacity="0.47"/><circle cx="37" cy="295" r="1.8" fill="#ffffff" opacity="0.73"/><circle cx="257" cy="152" r="1.6" fill="#ffffff" opacity="0.53"/><circle cx="180" cy="128" r="1.8" fill="#ffffff" opacity="0.65"/><circle cx="50" cy="45" r="1.9" fill="#ffffff" opacity="0.65"/><circle cx="152" cy="215" r="1.7" fill="#ffffff" opacity="0.59"/><circle cx="301" cy="107" r="2.0" fill="#ffffff" opacity="0.28"/><circle cx="115" cy="136" r="1.7" fill="#ffffff" opacity="0.36"/><circle cx="272" cy="39" r="2.0" fill="#ffffff" opacity="0.47"/><circle cx="227" cy="62" r="1.7" fill="#ffffff" opacity="0.22"/><circle cx="143" cy="294" r="2.1" fill="#ffffff" opacity="0.25"/><circle cx="106" cy="225" r="2.0" fill="#ffffff" opacity="0.44"/><circle cx="282" cy="86" r="1.2" fill="#ffffff" opacity="0.23"/><circle cx="161" cy="203" r="1.1" fill="#ffffff" opacity="0.55"/><circle cx="72" cy="117" r="1.9" fill="#ffffff" opacity="0.33"/><circle cx="133" cy="245" r="1.3" fill="#ffffff" opacity="0.69"/><circle cx="188" cy="171" r="1.3" fill="#ffffff" opacity="0.27"/><circle cx="129" cy="220" r="1.9" fill="#ffffff" opacity="0.76"/><circle cx="208" cy="143" r="2.1" fill="#ffffff" opacity="0.34"/><circle cx="227" cy="289" r="1.4" fill="#ffffff" opacity="0.72"/></g>
  <circle cx="160" cy="160" r="104" fill="#020617" opacity=".38"/>
  <g filter="url(#glow)"><ellipse cx="160" cy="164" rx="82" ry="24" fill="none" stroke="url(#g)" stroke-width="7" opacity=".75" transform="rotate(-18 160 164)"/></g>
  <text x="160" y="175" text-anchor="middle" font-family="Arial, Helvetica, sans-serif" font-size="64" font-weight="800" fill="#f8fbff" filter="url(#glow)">UV</text>
  <text x="160" y="64" text-anchor="middle" font-family="Arial, Helvetica, sans-serif" font-size="36" font-weight="800" fill="#34d399" filter="url(#glow)">◉</text>
  <text x="160" y="270" text-anchor="middle" font-family="Arial, Helvetica, sans-serif" font-size="13" font-weight="700" fill="#dbeafe">Exploração Planetária</text>
</svg>