<svg xmlns="http://www.w3.org/2000/svg" width="320" height="320" viewBox="0 0 320 320" role="img" aria-label="Vênus: Visitante 3x">
  <defs>
    <radialGradient id="bg" cx="50%" cy="36%" r="72%">
      <stop offset="0%" stop-color="#34d399" stop-opacity=".42"/>
      <stop offset="45%" stop-color="#064e3b" stop-opacity=".88"/>
      <stop offset="100%" stop-color="#020617"/>
    </radialGradient>
    <linearGradient id="g" x1="58" y1="42" x2="262" y2="276" gradientUnits="userSpaceOnUse">
      <stop offset="0%" stop-color="#ffffff"/>
      <stop offset="42%" stop-color="#34d399"/>
      <stop offset="100%" stop-color="#7dd3fc"/>
    </linearGradient>
    <filter id="glow" x="-40%" y="-40%" width="180%" height="180%">
      <feGaussianBlur stdDeviation="5" result="blur"/>
      <feMerge>
        <feMergeNode in="blur"/>
        <feMergeNode in="SourceGraphic"/>
      </feMerge>
    </filter>
  </defs>
  <rect width="320" height="320" rx="52" fill="#020617"/>
  <rect x="10" y="10" width="300" height="300" rx="44" fill="url(#bg)" stroke="url(#g)" stroke-width="3"/>
  <g><circle cx="184" cy="302" r="1.3" fill="#ffffff" opacity="0.66"/><circle cx="198" cy="113" r="2.0" fill="#ffffff" opacity="0.73"/><circle cx="195" cy="34" r="0.8" fill="#ffffff" opacity="0.53"/><circle cx="40" cy="39" r="1.6" fill="#ffffff" opacity="0.59"/><circle cx="238" cy="20" r="2.0" fill="#ffffff" opacity="0.43"/><circle cx="57" cy="240" r="1.0" fill="#ffffff" opacity="0.23"/><circle cx="33" cy="172" r="1.5" fill="#ffffff" opacity="0.58"/><circle cx="187" cy="87" r="1.6" fill="#ffffff" opacity="0.22"/><circle cx="31" cy="120" r="1.1" fill="#ffffff" opacity="0.55"/><circle cx="200" cy="238" r="1.5" fill="#ffffff" opacity="0.46"/><circle cx="236" cy="251" r="0.9" fill="#ffffff" opacity="0.57"/><circle cx="292" cy="45" r="2.0" fill="#ffffff" opacity="0.43"/><circle cx="21" cy="227" r="1.9" fill="#ffffff" opacity="0.38"/><circle cx="57" cy="138" r="2.1" fill="#ffffff" opacity="0.46"/><circle cx="112" cy="60" r="1.4" fill="#ffffff" opacity="0.38"/><circle cx="271" cy="208" r="2.0" fill="#ffffff" opacity="0.77"/><circle cx="77" cy="276" r="1.2" fill="#ffffff" opacity="0.66"/><circle cx="30" cy="177" r="1.8" fill="#ffffff" opacity="0.33"/><circle cx="78" cy="142" r="0.9" fill="#ffffff" opacity="0.47"/><circle cx="193" cy="251" r="1.7" fill="#ffffff" opacity="0.54"/><circle cx="128" cy="219" r="1.5" fill="#ffffff" opacity="0.73"/><circle cx="53" cy="52" r="1.9" fill="#ffffff" opacity="0.55"/></g>
  <circle cx="160" cy="160" r="104" fill="#020617" opacity=".38"/>
  <g filter="url(#glow)"><ellipse cx="160" cy="164" rx="82" ry="24" fill="none" stroke="url(#g)" stroke-width="7" opacity=".75" transform="rotate(-18 160 164)"/></g>
  <text x="160" y="175" text-anchor="middle" font-family="Arial, Helvetica, sans-serif" font-size="64" font-weight="800" fill="#f8fbff" filter="url(#glow)">VV</text>
  <text x="160" y="64" text-anchor="middle" font-family="Arial, Helvetica, sans-serif" font-size="36" font-weight="800" fill="#34d399" filter="url(#glow)">◉</text>
  <text x="160" y="270" text-anchor="middle" font-family="Arial, Helvetica, sans-serif" font-size="13" font-weight="700" fill="#dbeafe">Exploração Planetária</text>
</svg>