<svg xmlns="http://www.w3.org/2000/svg" width="320" height="320" viewBox="0 0 320 320" role="img" aria-label="Anéis de Saturno">
  <defs>
    <radialGradient id="bg" cx="50%" cy="36%" r="72%">
      <stop offset="0%" stop-color="#34d399" stop-opacity=".42"/>
      <stop offset="45%" stop-color="#064e3b" stop-opacity=".88"/>
      <stop offset="100%" stop-color="#020617"/>
    </radialGradient>
    <linearGradient id="g" x1="58" y1="42" x2="262" y2="276" gradientUnits="userSpaceOnUse">
      <stop offset="0%" stop-color="#ffffff"/>
      <stop offset="42%" stop-color="#34d399"/>
      <stop offset="100%" stop-color="#7dd3fc"/>
    </linearGradient>
    <filter id="glow" x="-40%" y="-40%" width="180%" height="180%">
      <feGaussianBlur stdDeviation="5" result="blur"/>
      <feMerge>
        <feMergeNode in="blur"/>
        <feMergeNode in="SourceGraphic"/>
      </feMerge>
    </filter>
  </defs>
  <rect width="320" height="320" rx="52" fill="#020617"/>
  <rect x="10" y="10" width="300" height="300" rx="44" fill="url(#bg)" stroke="url(#g)" stroke-width="3"/>
  <g><circle cx="65" cy="274" r="1.6" fill="#ffffff" opacity="0.39"/><circle cx="80" cy="96" r="2.0" fill="#ffffff" opacity="0.53"/><circle cx="98" cy="112" r="1.3" fill="#ffffff" opacity="0.52"/><circle cx="112" cy="28" r="1.6" fill="#ffffff" opacity="0.31"/><circle cx="45" cy="164" r="1.1" fill="#ffffff" opacity="0.39"/><circle cx="292" cy="33" r="2.0" fill="#ffffff" opacity="0.56"/><circle cx="95" cy="267" r="1.8" fill="#ffffff" opacity="0.55"/><circle cx="21" cy="300" r="1.1" fill="#ffffff" opacity="0.63"/><circle cx="58" cy="160" r="1.0" fill="#ffffff" opacity="0.53"/><circle cx="89" cy="103" r="1.5" fill="#ffffff" opacity="0.45"/><circle cx="102" cy="112" r="1.0" fill="#ffffff" opacity="0.78"/><circle cx="29" cy="38" r="0.9" fill="#ffffff" opacity="0.25"/><circle cx="138" cy="282" r="0.9" fill="#ffffff" opacity="0.62"/><circle cx="165" cy="162" r="1.3" fill="#ffffff" opacity="0.64"/><circle cx="215" cy="251" r="1.1" fill="#ffffff" opacity="0.73"/><circle cx="198" cy="58" r="1.9" fill="#ffffff" opacity="0.32"/><circle cx="243" cy="112" r="1.1" fill="#ffffff" opacity="0.71"/><circle cx="125" cy="276" r="1.7" fill="#ffffff" opacity="0.63"/><circle cx="168" cy="45" r="1.1" fill="#ffffff" opacity="0.63"/><circle cx="27" cy="34" r="1.5" fill="#ffffff" opacity="0.31"/><circle cx="235" cy="54" r="1.7" fill="#ffffff" opacity="0.47"/><circle cx="171" cy="225" r="1.1" fill="#ffffff" opacity="0.69"/></g>
  <circle cx="160" cy="160" r="104" fill="#020617" opacity=".38"/>
  <g filter="url(#glow)"><ellipse cx="160" cy="164" rx="82" ry="24" fill="none" stroke="url(#g)" stroke-width="7" opacity=".75" transform="rotate(-18 160 164)"/></g>
  <text x="160" y="175" text-anchor="middle" font-family="Arial, Helvetica, sans-serif" font-size="64" font-weight="800" fill="#f8fbff" filter="url(#glow)">AS</text>
  <text x="160" y="64" text-anchor="middle" font-family="Arial, Helvetica, sans-serif" font-size="36" font-weight="800" fill="#34d399" filter="url(#glow)">◉</text>
  <text x="160" y="270" text-anchor="middle" font-family="Arial, Helvetica, sans-serif" font-size="13" font-weight="700" fill="#dbeafe">Exploração Planetária</text>
</svg>