<svg xmlns="http://www.w3.org/2000/svg" width="320" height="320" viewBox="0 0 320 320" role="img" aria-label="Planeta Azul">
  <defs>
    <radialGradient id="bg" cx="50%" cy="36%" r="72%">
      <stop offset="0%" stop-color="#38bdf8" stop-opacity=".42"/>
      <stop offset="45%" stop-color="#0f2a5f" stop-opacity=".88"/>
      <stop offset="100%" stop-color="#020617"/>
    </radialGradient>
    <linearGradient id="g" x1="58" y1="42" x2="262" y2="276" gradientUnits="userSpaceOnUse">
      <stop offset="0%" stop-color="#ffffff"/>
      <stop offset="42%" stop-color="#38bdf8"/>
      <stop offset="100%" stop-color="#7dd3fc"/>
    </linearGradient>
    <filter id="glow" x="-40%" y="-40%" width="180%" height="180%">
      <feGaussianBlur stdDeviation="5" result="blur"/>
      <feMerge>
        <feMergeNode in="blur"/>
        <feMergeNode in="SourceGraphic"/>
      </feMerge>
    </filter>
  </defs>
  <rect width="320" height="320" rx="52" fill="#020617"/>
  <rect x="10" y="10" width="300" height="300" rx="44" fill="url(#bg)" stroke="url(#g)" stroke-width="3"/>
  <g><circle cx="38" cy="135" r="1.3" fill="#ffffff" opacity="0.24"/><circle cx="82" cy="185" r="1.5" fill="#ffffff" opacity="0.57"/><circle cx="297" cy="22" r="0.8" fill="#ffffff" opacity="0.49"/><circle cx="211" cy="90" r="1.5" fill="#ffffff" opacity="0.68"/><circle cx="68" cy="95" r="1.1" fill="#ffffff" opacity="0.74"/><circle cx="151" cy="97" r="1.6" fill="#ffffff" opacity="0.78"/><circle cx="293" cy="67" r="1.1" fill="#ffffff" opacity="0.47"/><circle cx="170" cy="174" r="1.4" fill="#ffffff" opacity="0.57"/><circle cx="114" cy="118" r="1.7" fill="#ffffff" opacity="0.55"/><circle cx="28" cy="280" r="1.4" fill="#ffffff" opacity="0.48"/><circle cx="86" cy="157" r="1.2" fill="#ffffff" opacity="0.26"/><circle cx="143" cy="155" r="1.4" fill="#ffffff" opacity="0.58"/><circle cx="196" cy="101" r="1.4" fill="#ffffff" opacity="0.44"/><circle cx="67" cy="227" r="1.4" fill="#ffffff" opacity="0.24"/><circle cx="301" cy="270" r="1.5" fill="#ffffff" opacity="0.55"/><circle cx="120" cy="63" r="1.0" fill="#ffffff" opacity="0.78"/><circle cx="52" cy="26" r="1.2" fill="#ffffff" opacity="0.33"/><circle cx="156" cy="128" r="0.9" fill="#ffffff" opacity="0.34"/><circle cx="55" cy="155" r="1.4" fill="#ffffff" opacity="0.47"/><circle cx="105" cy="79" r="1.9" fill="#ffffff" opacity="0.52"/><circle cx="164" cy="89" r="2.1" fill="#ffffff" opacity="0.46"/><circle cx="20" cy="216" r="2.0" fill="#ffffff" opacity="0.57"/></g>
  <circle cx="160" cy="160" r="104" fill="#020617" opacity=".38"/>
  <g filter="url(#glow)"><ellipse cx="160" cy="164" rx="82" ry="24" fill="none" stroke="url(#g)" stroke-width="7" opacity=".75" transform="rotate(-18 160 164)"/></g>
  <text x="160" y="175" text-anchor="middle" font-family="Arial, Helvetica, sans-serif" font-size="64" font-weight="800" fill="#f8fbff" filter="url(#glow)">PA</text>
  <text x="160" y="64" text-anchor="middle" font-family="Arial, Helvetica, sans-serif" font-size="36" font-weight="800" fill="#38bdf8" filter="url(#glow)">◉</text>
  <text x="160" y="270" text-anchor="middle" font-family="Arial, Helvetica, sans-serif" font-size="13" font-weight="700" fill="#dbeafe">Exploração Planetária</text>
</svg>