<svg xmlns="http://www.w3.org/2000/svg" width="320" height="320" viewBox="0 0 320 320" role="img" aria-label="Mensageiro Veloz">
  <defs>
    <radialGradient id="bg" cx="50%" cy="36%" r="72%">
      <stop offset="0%" stop-color="#34d399" stop-opacity=".42"/>
      <stop offset="45%" stop-color="#064e3b" stop-opacity=".88"/>
      <stop offset="100%" stop-color="#020617"/>
    </radialGradient>
    <linearGradient id="g" x1="58" y1="42" x2="262" y2="276" gradientUnits="userSpaceOnUse">
      <stop offset="0%" stop-color="#ffffff"/>
      <stop offset="42%" stop-color="#34d399"/>
      <stop offset="100%" stop-color="#7dd3fc"/>
    </linearGradient>
    <filter id="glow" x="-40%" y="-40%" width="180%" height="180%">
      <feGaussianBlur stdDeviation="5" result="blur"/>
      <feMerge>
        <feMergeNode in="blur"/>
        <feMergeNode in="SourceGraphic"/>
      </feMerge>
    </filter>
  </defs>
  <rect width="320" height="320" rx="52" fill="#020617"/>
  <rect x="10" y="10" width="300" height="300" rx="44" fill="url(#bg)" stroke="url(#g)" stroke-width="3"/>
  <g><circle cx="111" cy="82" r="1.4" fill="#ffffff" opacity="0.49"/><circle cx="137" cy="163" r="1.2" fill="#ffffff" opacity="0.54"/><circle cx="49" cy="122" r="1.3" fill="#ffffff" opacity="0.75"/><circle cx="231" cy="40" r="1.0" fill="#ffffff" opacity="0.67"/><circle cx="103" cy="292" r="1.1" fill="#ffffff" opacity="0.63"/><circle cx="82" cy="296" r="0.9" fill="#ffffff" opacity="0.77"/><circle cx="25" cy="261" r="1.6" fill="#ffffff" opacity="0.55"/><circle cx="175" cy="35" r="1.5" fill="#ffffff" opacity="0.43"/><circle cx="247" cy="251" r="1.9" fill="#ffffff" opacity="0.23"/><circle cx="228" cy="117" r="2.0" fill="#ffffff" opacity="0.28"/><circle cx="194" cy="266" r="1.2" fill="#ffffff" opacity="0.68"/><circle cx="195" cy="43" r="1.2" fill="#ffffff" opacity="0.52"/><circle cx="267" cy="202" r="1.3" fill="#ffffff" opacity="0.51"/><circle cx="156" cy="66" r="0.8" fill="#ffffff" opacity="0.41"/><circle cx="42" cy="154" r="2.0" fill="#ffffff" opacity="0.54"/><circle cx="280" cy="172" r="1.5" fill="#ffffff" opacity="0.6"/><circle cx="123" cy="184" r="1.4" fill="#ffffff" opacity="0.69"/><circle cx="217" cy="189" r="1.0" fill="#ffffff" opacity="0.28"/><circle cx="276" cy="92" r="1.6" fill="#ffffff" opacity="0.71"/><circle cx="204" cy="181" r="1.4" fill="#ffffff" opacity="0.33"/><circle cx="17" cy="20" r="1.6" fill="#ffffff" opacity="0.69"/><circle cx="212" cy="51" r="1.6" fill="#ffffff" opacity="0.4"/></g>
  <circle cx="160" cy="160" r="104" fill="#020617" opacity=".38"/>
  <g filter="url(#glow)"><ellipse cx="160" cy="164" rx="82" ry="24" fill="none" stroke="url(#g)" stroke-width="7" opacity=".75" transform="rotate(-18 160 164)"/></g>
  <text x="160" y="175" text-anchor="middle" font-family="Arial, Helvetica, sans-serif" font-size="64" font-weight="800" fill="#f8fbff" filter="url(#glow)">MV</text>
  <text x="160" y="64" text-anchor="middle" font-family="Arial, Helvetica, sans-serif" font-size="36" font-weight="800" fill="#34d399" filter="url(#glow)">◉</text>
  <text x="160" y="270" text-anchor="middle" font-family="Arial, Helvetica, sans-serif" font-size="13" font-weight="700" fill="#dbeafe">Exploração Planetária</text>
</svg>