<svg xmlns="http://www.w3.org/2000/svg" width="320" height="320" viewBox="0 0 320 320" role="img" aria-label="Gigante no Horizonte">
  <defs>
    <radialGradient id="bg" cx="50%" cy="36%" r="72%">
      <stop offset="0%" stop-color="#34d399" stop-opacity=".42"/>
      <stop offset="45%" stop-color="#064e3b" stop-opacity=".88"/>
      <stop offset="100%" stop-color="#020617"/>
    </radialGradient>
    <linearGradient id="g" x1="58" y1="42" x2="262" y2="276" gradientUnits="userSpaceOnUse">
      <stop offset="0%" stop-color="#ffffff"/>
      <stop offset="42%" stop-color="#34d399"/>
      <stop offset="100%" stop-color="#7dd3fc"/>
    </linearGradient>
    <filter id="glow" x="-40%" y="-40%" width="180%" height="180%">
      <feGaussianBlur stdDeviation="5" result="blur"/>
      <feMerge>
        <feMergeNode in="blur"/>
        <feMergeNode in="SourceGraphic"/>
      </feMerge>
    </filter>
  </defs>
  <rect width="320" height="320" rx="52" fill="#020617"/>
  <rect x="10" y="10" width="300" height="300" rx="44" fill="url(#bg)" stroke="url(#g)" stroke-width="3"/>
  <g><circle cx="240" cy="241" r="2.1" fill="#ffffff" opacity="0.58"/><circle cx="250" cy="66" r="0.9" fill="#ffffff" opacity="0.51"/><circle cx="128" cy="104" r="2.0" fill="#ffffff" opacity="0.36"/><circle cx="100" cy="207" r="2.0" fill="#ffffff" opacity="0.27"/><circle cx="47" cy="128" r="1.5" fill="#ffffff" opacity="0.37"/><circle cx="51" cy="173" r="1.8" fill="#ffffff" opacity="0.36"/><circle cx="277" cy="250" r="1.6" fill="#ffffff" opacity="0.51"/><circle cx="128" cy="127" r="2.0" fill="#ffffff" opacity="0.42"/><circle cx="31" cy="50" r="1.1" fill="#ffffff" opacity="0.65"/><circle cx="148" cy="79" r="1.4" fill="#ffffff" opacity="0.68"/><circle cx="265" cy="244" r="1.3" fill="#ffffff" opacity="0.56"/><circle cx="57" cy="117" r="0.8" fill="#ffffff" opacity="0.44"/><circle cx="94" cy="173" r="1.8" fill="#ffffff" opacity="0.51"/><circle cx="157" cy="39" r="1.8" fill="#ffffff" opacity="0.75"/><circle cx="135" cy="232" r="1.5" fill="#ffffff" opacity="0.6"/><circle cx="93" cy="245" r="1.1" fill="#ffffff" opacity="0.55"/><circle cx="303" cy="22" r="1.6" fill="#ffffff" opacity="0.36"/><circle cx="38" cy="52" r="0.9" fill="#ffffff" opacity="0.39"/><circle cx="247" cy="254" r="1.0" fill="#ffffff" opacity="0.53"/><circle cx="155" cy="94" r="1.4" fill="#ffffff" opacity="0.46"/><circle cx="90" cy="230" r="1.7" fill="#ffffff" opacity="0.48"/><circle cx="75" cy="217" r="1.0" fill="#ffffff" opacity="0.63"/></g>
  <circle cx="160" cy="160" r="104" fill="#020617" opacity=".38"/>
  <g filter="url(#glow)"><ellipse cx="160" cy="164" rx="82" ry="24" fill="none" stroke="url(#g)" stroke-width="7" opacity=".75" transform="rotate(-18 160 164)"/></g>
  <text x="160" y="175" text-anchor="middle" font-family="Arial, Helvetica, sans-serif" font-size="64" font-weight="800" fill="#f8fbff" filter="url(#glow)">GN</text>
  <text x="160" y="64" text-anchor="middle" font-family="Arial, Helvetica, sans-serif" font-size="36" font-weight="800" fill="#34d399" filter="url(#glow)">◉</text>
  <text x="160" y="270" text-anchor="middle" font-family="Arial, Helvetica, sans-serif" font-size="13" font-weight="700" fill="#dbeafe">Exploração Planetária</text>
</svg>