<svg xmlns="http://www.w3.org/2000/svg" width="320" height="320" viewBox="0 0 320 320" role="img" aria-label="Mundo Inclinado">
  <defs>
    <radialGradient id="bg" cx="50%" cy="36%" r="72%">
      <stop offset="0%" stop-color="#34d399" stop-opacity=".42"/>
      <stop offset="45%" stop-color="#064e3b" stop-opacity=".88"/>
      <stop offset="100%" stop-color="#020617"/>
    </radialGradient>
    <linearGradient id="g" x1="58" y1="42" x2="262" y2="276" gradientUnits="userSpaceOnUse">
      <stop offset="0%" stop-color="#ffffff"/>
      <stop offset="42%" stop-color="#34d399"/>
      <stop offset="100%" stop-color="#7dd3fc"/>
    </linearGradient>
    <filter id="glow" x="-40%" y="-40%" width="180%" height="180%">
      <feGaussianBlur stdDeviation="5" result="blur"/>
      <feMerge>
        <feMergeNode in="blur"/>
        <feMergeNode in="SourceGraphic"/>
      </feMerge>
    </filter>
  </defs>
  <rect width="320" height="320" rx="52" fill="#020617"/>
  <rect x="10" y="10" width="300" height="300" rx="44" fill="url(#bg)" stroke="url(#g)" stroke-width="3"/>
  <g><circle cx="144" cy="235" r="0.9" fill="#ffffff" opacity="0.74"/><circle cx="270" cy="239" r="1.1" fill="#ffffff" opacity="0.6"/><circle cx="119" cy="30" r="2.1" fill="#ffffff" opacity="0.73"/><circle cx="137" cy="45" r="1.0" fill="#ffffff" opacity="0.66"/><circle cx="302" cy="63" r="0.8" fill="#ffffff" opacity="0.25"/><circle cx="77" cy="245" r="2.0" fill="#ffffff" opacity="0.54"/><circle cx="195" cy="294" r="0.9" fill="#ffffff" opacity="0.4"/><circle cx="273" cy="224" r="0.9" fill="#ffffff" opacity="0.7"/><circle cx="123" cy="223" r="1.4" fill="#ffffff" opacity="0.7"/><circle cx="81" cy="293" r="1.5" fill="#ffffff" opacity="0.6"/><circle cx="192" cy="236" r="1.2" fill="#ffffff" opacity="0.56"/><circle cx="241" cy="200" r="1.5" fill="#ffffff" opacity="0.41"/><circle cx="75" cy="292" r="1.7" fill="#ffffff" opacity="0.53"/><circle cx="93" cy="26" r="1.6" fill="#ffffff" opacity="0.46"/><circle cx="219" cy="119" r="1.9" fill="#ffffff" opacity="0.38"/><circle cx="254" cy="124" r="1.0" fill="#ffffff" opacity="0.69"/><circle cx="132" cy="184" r="1.5" fill="#ffffff" opacity="0.48"/><circle cx="155" cy="18" r="1.0" fill="#ffffff" opacity="0.44"/><circle cx="42" cy="106" r="1.8" fill="#ffffff" opacity="0.53"/><circle cx="210" cy="148" r="1.3" fill="#ffffff" opacity="0.3"/><circle cx="197" cy="239" r="2.1" fill="#ffffff" opacity="0.39"/><circle cx="210" cy="102" r="1.2" fill="#ffffff" opacity="0.49"/></g>
  <circle cx="160" cy="160" r="104" fill="#020617" opacity=".38"/>
  <g filter="url(#glow)"><ellipse cx="160" cy="164" rx="82" ry="24" fill="none" stroke="url(#g)" stroke-width="7" opacity=".75" transform="rotate(-18 160 164)"/></g>
  <text x="160" y="175" text-anchor="middle" font-family="Arial, Helvetica, sans-serif" font-size="64" font-weight="800" fill="#f8fbff" filter="url(#glow)">MI</text>
  <text x="160" y="64" text-anchor="middle" font-family="Arial, Helvetica, sans-serif" font-size="36" font-weight="800" fill="#34d399" filter="url(#glow)">◉</text>
  <text x="160" y="270" text-anchor="middle" font-family="Arial, Helvetica, sans-serif" font-size="13" font-weight="700" fill="#dbeafe">Exploração Planetária</text>
</svg>