<svg xmlns="http://www.w3.org/2000/svg" width="320" height="320" viewBox="0 0 320 320" role="img" aria-label="Perto do Sol">
  <defs>
    <radialGradient id="bg" cx="50%" cy="36%" r="72%">
      <stop offset="0%" stop-color="#38bdf8" stop-opacity=".42"/>
      <stop offset="45%" stop-color="#0f2a5f" stop-opacity=".88"/>
      <stop offset="100%" stop-color="#020617"/>
    </radialGradient>
    <linearGradient id="g" x1="58" y1="42" x2="262" y2="276" gradientUnits="userSpaceOnUse">
      <stop offset="0%" stop-color="#ffffff"/>
      <stop offset="42%" stop-color="#38bdf8"/>
      <stop offset="100%" stop-color="#7dd3fc"/>
    </linearGradient>
    <filter id="glow" x="-40%" y="-40%" width="180%" height="180%">
      <feGaussianBlur stdDeviation="5" result="blur"/>
      <feMerge>
        <feMergeNode in="blur"/>
        <feMergeNode in="SourceGraphic"/>
      </feMerge>
    </filter>
  </defs>
  <rect width="320" height="320" rx="52" fill="#020617"/>
  <rect x="10" y="10" width="300" height="300" rx="44" fill="url(#bg)" stroke="url(#g)" stroke-width="3"/>
  <g><circle cx="157" cy="105" r="1.6" fill="#ffffff" opacity="0.55"/><circle cx="268" cy="204" r="1.8" fill="#ffffff" opacity="0.59"/><circle cx="75" cy="273" r="1.9" fill="#ffffff" opacity="0.49"/><circle cx="95" cy="162" r="1.1" fill="#ffffff" opacity="0.64"/><circle cx="145" cy="274" r="1.3" fill="#ffffff" opacity="0.48"/><circle cx="85" cy="64" r="0.8" fill="#ffffff" opacity="0.23"/><circle cx="170" cy="46" r="1.7" fill="#ffffff" opacity="0.45"/><circle cx="256" cy="230" r="1.3" fill="#ffffff" opacity="0.72"/><circle cx="87" cy="104" r="0.8" fill="#ffffff" opacity="0.54"/><circle cx="258" cy="185" r="1.8" fill="#ffffff" opacity="0.72"/><circle cx="71" cy="159" r="0.9" fill="#ffffff" opacity="0.73"/><circle cx="132" cy="75" r="1.3" fill="#ffffff" opacity="0.48"/><circle cx="226" cy="98" r="1.1" fill="#ffffff" opacity="0.67"/><circle cx="28" cy="69" r="1.8" fill="#ffffff" opacity="0.42"/><circle cx="76" cy="132" r="1.1" fill="#ffffff" opacity="0.62"/><circle cx="161" cy="274" r="1.3" fill="#ffffff" opacity="0.42"/><circle cx="288" cy="122" r="1.1" fill="#ffffff" opacity="0.48"/><circle cx="16" cy="36" r="1.4" fill="#ffffff" opacity="0.29"/><circle cx="90" cy="130" r="1.7" fill="#ffffff" opacity="0.75"/><circle cx="66" cy="270" r="0.9" fill="#ffffff" opacity="0.25"/><circle cx="296" cy="189" r="1.9" fill="#ffffff" opacity="0.32"/><circle cx="53" cy="186" r="1.0" fill="#ffffff" opacity="0.74"/></g>
  <circle cx="160" cy="160" r="104" fill="#020617" opacity=".38"/>
  <g filter="url(#glow)"><ellipse cx="160" cy="164" rx="82" ry="24" fill="none" stroke="url(#g)" stroke-width="7" opacity=".75" transform="rotate(-18 160 164)"/></g>
  <text x="160" y="175" text-anchor="middle" font-family="Arial, Helvetica, sans-serif" font-size="64" font-weight="800" fill="#f8fbff" filter="url(#glow)">PS</text>
  <text x="160" y="64" text-anchor="middle" font-family="Arial, Helvetica, sans-serif" font-size="36" font-weight="800" fill="#38bdf8" filter="url(#glow)">◉</text>
  <text x="160" y="270" text-anchor="middle" font-family="Arial, Helvetica, sans-serif" font-size="13" font-weight="700" fill="#dbeafe">Exploração Planetária</text>
</svg>